<svg xmlns="http://www.w3.org/2000/svg" xmlns:xlink="http://www.w3.org/1999/xlink" width="128" height="128" viewBox="0 0 128 128">
  <defs>
    <filter id="Trazado_904820" x="0" y="0" width="128" height="128" filterUnits="userSpaceOnUse">
      <feOffset dy="3" input="SourceAlpha"/>
      <feGaussianBlur stdDeviation="3" result="blur"/>
      <feFlood flood-opacity="0.161"/>
      <feComposite operator="in" in2="blur"/>
      <feComposite in="SourceGraphic"/>
    </filter>
  </defs>
  <g id="Grupo_1210497" data-name="Grupo 1210497" transform="translate(-1156 -2241.546)">
    <g id="Grupo_1210212" data-name="Grupo 1210212" transform="translate(1165 2247.546)">
      <g id="Grupo_1207936" data-name="Grupo 1207936" transform="translate(0 0)">
        <g id="Grupo_1201662" data-name="Grupo 1201662">
          <g id="Grupo_1173585" data-name="Grupo 1173585">
            <g id="Grupo_1173428" data-name="Grupo 1173428">
              <g id="Grupo_1171958" data-name="Grupo 1171958">
                <g id="Grupo_1167341" data-name="Grupo 1167341">
                  <g id="Grupo_1166792" data-name="Grupo 1166792">
                    <g transform="matrix(1, 0, 0, 1, -9, -6)" filter="url(#Trazado_904820)">
                      <g id="Trazado_904820-2" data-name="Trazado 904820" transform="translate(9 6)" fill="#edf3fc">
                        <path d="M 55 108.4999923706055 C 47.77689361572266 108.4999923706055 40.7706298828125 107.0856704711914 34.17584609985352 104.2963180541992 C 27.80527687072754 101.6017913818359 22.08361625671387 97.74404144287109 17.16978454589844 92.83019256591797 C 12.25595378875732 87.91635894775391 8.398200035095215 82.1947021484375 5.703676700592041 75.82414245605469 C 2.914323091506958 69.22936248779297 1.5 62.22309875488281 1.5 54.99999237060547 C 1.5 47.77688598632812 2.914323091506958 40.77062225341797 5.703676700592041 34.17583847045898 C 8.398200035095215 27.80528450012207 12.25595378875732 22.0836238861084 17.16978454589844 17.16979217529297 C 22.08361625671387 12.25596141815186 27.80527687072754 8.398207664489746 34.17584609985352 5.70368480682373 C 40.7706298828125 2.914330720901489 47.77687835693359 1.500007748603821 55 1.500007748603821 C 62.22312164306641 1.500007748603821 69.2293701171875 2.914330720901489 75.82415008544922 5.70368480682373 C 82.19472503662109 8.398207664489746 87.9163818359375 12.25596141815186 92.83021545410156 17.16979217529297 C 97.74404907226562 22.0836238861084 101.6017990112305 27.80528450012207 104.2963256835938 34.17583847045898 C 107.0856781005859 40.77062225341797 108.5 47.77688598632812 108.5 54.99999237060547 C 108.5 62.22309875488281 107.0856781005859 69.22936248779297 104.2963256835938 75.82414245605469 C 101.6017990112305 82.1947021484375 97.74404907226562 87.91635894775391 92.83021545410156 92.83019256591797 C 87.9163818359375 97.74404144287109 82.19472503662109 101.6017913818359 75.82415008544922 104.2963180541992 C 69.2293701171875 107.0856704711914 62.22310638427734 108.4999923706055 55 108.4999923706055 Z" stroke="none"/>
                        <path d="M 55 2.999992370605469 C 47.97873306274414 2.999992370605469 41.1690673828125 4.374443054199219 34.76018524169922 7.085174560546875 C 28.56842041015625 9.704078674316406 23.00701904296875 13.45387268066406 18.23045349121094 18.23044586181641 C 13.45390319824219 23.00699615478516 9.704086303710938 28.56838989257812 7.085182189941406 34.76016235351562 C 4.37445068359375 41.16905975341797 3 47.97871017456055 3 54.99999237060547 C 3 62.02125930786133 4.37445068359375 68.83092498779297 7.085182189941406 75.23980712890625 C 9.704086303710938 81.43157958984375 13.45390319824219 86.99297332763672 18.23045349121094 91.76952362060547 C 23.00701904296875 96.54608917236328 28.56842041015625 100.2958908081055 34.76018524169922 102.914794921875 C 41.1690673828125 105.6255264282227 47.97873306274414 106.9999771118164 55 106.9999771118164 C 62.02126693725586 106.9999771118164 68.8309326171875 105.6255264282227 75.23982238769531 102.914794921875 C 81.43157958984375 100.2958908081055 86.99298095703125 96.54608917236328 91.76954650878906 91.76952362060547 C 96.54609680175781 86.99297332763672 100.2959136962891 81.43157958984375 102.9148178100586 75.23980712890625 C 105.6255493164062 68.83092498779297 107 62.02125930786133 107 54.99999237060547 C 107 47.97871017456055 105.6255493164062 41.16905975341797 102.9148178100586 34.76016235351562 C 100.2959136962891 28.56838989257812 96.54609680175781 23.00699615478516 91.76954650878906 18.23044586181641 C 86.99298095703125 13.45387268066406 81.43157958984375 9.704078674316406 75.23982238769531 7.085174560546875 C 68.8309326171875 4.374443054199219 62.02126693725586 2.999992370605469 55 2.999992370605469 M 55 -7.62939453125e-06 C 85.37564849853516 -7.62939453125e-06 110 24.62432861328125 110 54.99999237060547 C 110 85.37564086914062 85.37564849853516 109.9999771118164 55 109.9999771118164 C 24.62435150146484 109.9999771118164 0 85.37564086914062 0 54.99999237060547 C 0 24.62432861328125 24.62435150146484 -7.62939453125e-06 55 -7.62939453125e-06 Z" stroke="none" fill="#5692e8"/>
                      </g>
                    </g>
                  </g>
                </g>
              </g>
            </g>
          </g>
        </g>
      </g>
    </g>
    <g id="decision-making_4335954" transform="translate(1185.717 2266.447)">
      <g id="Grupo_1210495" data-name="Grupo 1210495" transform="translate(1.164 1.164)">
        <g id="Grupo_1210477" data-name="Grupo 1210477" transform="translate(5.822 55.208)">
          <path id="Trazado_1054843" data-name="Trazado 1054843" d="M25.878,50.18a11.608,11.608,0,0,1,3.412,8.233v4.658H6V58.413a11.6,11.6,0,0,1,5.706-10l1.281,6.509,4.658-4.658L22.3,54.919l1.281-6.509A11.276,11.276,0,0,1,25.878,50.18Z" transform="translate(-6 -48.41)" fill="#e6e9ed"/>
        </g>
        <g id="Grupo_1210478" data-name="Grupo 1210478" transform="translate(11.528 53.566)">
          <path id="Trazado_1054844" data-name="Trazado 1054844" d="M22.778,48.642,21.5,55.151l-4.658-4.658-4.658,4.658L10.9,48.642A11.457,11.457,0,0,1,16.839,47C16.92,47,17,47,22.778,48.642Z" transform="translate(-10.9 -47)" fill="#ccd1d9"/>
        </g>
        <g id="Grupo_1210479" data-name="Grupo 1210479" transform="translate(40.757 55.208)">
          <path id="Trazado_1054845" data-name="Trazado 1054845" d="M55.878,50.18a11.608,11.608,0,0,1,3.412,8.233v4.658H36V58.413a11.6,11.6,0,0,1,5.706-10l1.281,6.509,4.658-4.658L52.3,54.919l1.281-6.509A11.276,11.276,0,0,1,55.878,50.18Z" transform="translate(-36 -48.41)" fill="#75b1f2"/>
        </g>
        <g id="Grupo_1210480" data-name="Grupo 1210480" transform="translate(46.462 53.566)">
          <path id="Trazado_1054846" data-name="Trazado 1054846" d="M52.778,48.642,51.5,55.151l-4.658-4.658-4.658,4.658L40.9,48.642A11.458,11.458,0,0,1,46.839,47C46.92,47,47,47,52.778,48.642Z" transform="translate(-40.9 -47)" fill="#5d9cec"/>
        </g>
        <g id="Grupo_1210481" data-name="Grupo 1210481" transform="translate(44.436 4.658)">
          <path id="Trazado_1054847" data-name="Trazado 1054847" d="M55.614,17.844l-1.5,1.13V16.645H39.16a1.944,1.944,0,0,1,.175-.629v-.023a2.8,2.8,0,0,1,1.688-1.584l.279-.093V9.658l-.279-.093a2.8,2.8,0,0,1-1.688-1.584V7.958a1.944,1.944,0,0,1-.175-.629H54.112V5l9.316,6.987Z" transform="translate(-39.16 -5)" fill="#ffeaa7"/>
        </g>
        <g id="Grupo_1210482" data-name="Grupo 1210482" transform="translate(1.164 4.658)">
          <path id="Trazado_1054848" data-name="Trazado 1054848" d="M26.093,16.016a1.944,1.944,0,0,1,.175.629H11.316v2.329l-1.5-1.13L2,11.987,11.316,5V7.329H26.268a1.944,1.944,0,0,1-.175.629v.023A2.8,2.8,0,0,1,24.4,9.565l-.279.093v4.658l.279.093a2.8,2.8,0,0,1,1.688,1.584Z" transform="translate(-2 -5)" fill="#ffeaa7"/>
        </g>
        <g id="Grupo_1210483" data-name="Grupo 1210483" transform="translate(23.289)">
          <path id="Trazado_1054849" data-name="Trazado 1054849" d="M32.645,19.632a6.987,6.987,0,1,0-6.987-6.987A6.992,6.992,0,0,0,32.645,19.632Zm9.677-2.981v.023a1.944,1.944,0,0,0-.175.629,2.675,2.675,0,0,0,.245,1.665l.14.268-3.3,3.3-.268-.14a2.726,2.726,0,0,0-2.294-.07H36.65a2.8,2.8,0,0,0-1.584,1.688l-.093.279H30.316l-.093-.279a2.8,2.8,0,0,0-1.584-1.688h-.023a2.726,2.726,0,0,0-2.294.07l-.268.14-3.3-3.3.14-.268a2.674,2.674,0,0,0,.245-1.665,1.944,1.944,0,0,0-.175-.629v-.023a2.8,2.8,0,0,0-1.688-1.584L21,14.974V10.316l.279-.093a2.8,2.8,0,0,0,1.688-1.584V8.616a1.944,1.944,0,0,0,.175-.629A2.674,2.674,0,0,0,22.9,6.322l-.14-.268,3.3-3.3.268.14a2.726,2.726,0,0,0,2.294.07h.023a2.8,2.8,0,0,0,1.584-1.688L30.316,1h4.658l.093.279A2.8,2.8,0,0,0,36.65,2.968h.023a2.726,2.726,0,0,0,2.294-.07l.268-.14,3.3,3.3-.14.268a2.675,2.675,0,0,0-.245,1.665,1.944,1.944,0,0,0,.175.629v.023a2.8,2.8,0,0,0,1.688,1.584l.279.093v4.658l-.279.093a2.8,2.8,0,0,0-1.688,1.584Z" transform="translate(-21 -1)" fill="#ffc729"/>
        </g>
        <g id="Grupo_1210484" data-name="Grupo 1210484" transform="translate(27.947 4.658)">
          <path id="Trazado_1054850" data-name="Trazado 1054850" d="M31.987,5A6.987,6.987,0,1,1,25,11.987,6.992,6.992,0,0,1,31.987,5Zm2.329,6.987a2.329,2.329,0,1,0-2.329,2.329A2.336,2.336,0,0,0,34.316,11.987Z" transform="translate(-25 -5)" fill="#fcd770"/>
        </g>
        <g id="Grupo_1210485" data-name="Grupo 1210485" transform="translate(33.735 16.303)">
          <path id="Trazado_1054851" data-name="Trazado 1054851" d="M61.446,31.3H49.8a7,7,0,0,1-6.055-3.493h-2.1a5.824,5.824,0,0,0-5.822,5.822V34.8H34.663a3.489,3.489,0,0,0-3.493,3.493,3.489,3.489,0,0,0-1.2-2.632,14.856,14.856,0,0,0,1.2-5.834V21.987H33.5l.093-.279a2.8,2.8,0,0,1,1.584-1.688H35.2a2.726,2.726,0,0,1,2.294.07l.268.14,3.3-3.3-.14-.268A2.674,2.674,0,0,1,40.672,15H55.623v2.329l1.5-1.13A14.817,14.817,0,0,1,64.9,35.658,3.449,3.449,0,0,0,62.61,34.8H61.446Z" transform="translate(-29.97 -15)" fill="#656d78"/>
        </g>
        <g id="Grupo_1210486" data-name="Grupo 1210486" transform="translate(65.21 36.099)">
          <path id="Trazado_1054852" data-name="Trazado 1054852" d="M60.458,32.862a3.493,3.493,0,0,1-2.294,6.125H57V32h1.164A3.449,3.449,0,0,1,60.458,32.862Z" transform="translate(-57 -32)" fill="#f0d0b4"/>
        </g>
        <g id="Grupo_1210487" data-name="Grupo 1210487" transform="translate(39.592 29.112)">
          <path id="Trazado_1054853" data-name="Trazado 1054853" d="M60.618,29.493v10.48a10.481,10.481,0,0,1-10.48,10.48H45.48A10.481,10.481,0,0,1,35,39.974V31.822A5.824,5.824,0,0,1,40.822,26h2.1a7,7,0,0,0,6.055,3.493Z" transform="translate(-35 -26)" fill="#f0d0b4"/>
        </g>
        <g id="Grupo_1210488" data-name="Grupo 1210488" transform="translate(34.934 36.099)">
          <path id="Trazado_1054854" data-name="Trazado 1054854" d="M35.658,32v6.987H34.493a3.493,3.493,0,0,1,0-6.987Z" transform="translate(-31 -32)" fill="#f0d0b4"/>
        </g>
        <g id="Grupo_1210489" data-name="Grupo 1210489" transform="translate(30.276 36.099)">
          <path id="Trazado_1054855" data-name="Trazado 1054855" d="M30.458,32.862a3.493,3.493,0,0,1-2.294,6.125H27V32h1.164A3.449,3.449,0,0,1,30.458,32.862Z" transform="translate(-27 -32)" fill="#f0d0b4"/>
        </g>
        <g id="Grupo_1210490" data-name="Grupo 1210490" transform="translate(4.658 29.112)">
          <path id="Trazado_1054856" data-name="Trazado 1054856" d="M30.618,32.987v6.987a10.481,10.481,0,0,1-10.48,10.48H15.48A10.481,10.481,0,0,1,5,39.974V30.658A4.657,4.657,0,0,1,9.658,26a3.489,3.489,0,0,0,3.493,3.493H27.125A3.489,3.489,0,0,1,30.618,32.987Z" transform="translate(-5 -26)" fill="#f0d0b4"/>
        </g>
        <g id="Grupo_1210491" data-name="Grupo 1210491" transform="translate(0 36.099)">
          <path id="Trazado_1054857" data-name="Trazado 1054857" d="M5.658,32v6.987H4.493A3.5,3.5,0,0,1,1,35.493a3.418,3.418,0,0,1,.932-2.364A3.437,3.437,0,0,1,4.493,32Z" transform="translate(-1 -32)" fill="#f0d0b4"/>
        </g>
        <g id="Grupo_1210492" data-name="Grupo 1210492" transform="translate(0 16.303)">
          <path id="Trazado_1054858" data-name="Trazado 1054858" d="M29.343,20.228l.268-.14a2.726,2.726,0,0,1,2.294-.07h.023a2.8,2.8,0,0,1,1.584,1.688l.093.279h2.329v7.837a14.856,14.856,0,0,1-1.2,5.834,3.449,3.449,0,0,0-2.294-.862H31.276A3.489,3.489,0,0,0,27.783,31.3H13.809a3.489,3.489,0,0,1-3.493-3.493,4.657,4.657,0,0,0-4.658,4.658V34.8H4.493a3.437,3.437,0,0,0-2.562,1.13A14.655,14.655,0,0,1,1,30.767v-.943A14.814,14.814,0,0,1,9.978,16.2l1.5,1.13V15H26.432a2.674,2.674,0,0,1-.245,1.665l-.14.268Z" transform="translate(-1 -15)" fill="#b27946"/>
        </g>
        <g id="Grupo_1210493" data-name="Grupo 1210493" transform="translate(20.96 37.263)">
          <circle id="Elipse_13513" data-name="Elipse 13513" cx="2.5" cy="2.5" r="2.5" transform="translate(-0.026 -0.329)" fill="#d3a06c"/>
        </g>
        <g id="Grupo_1210494" data-name="Grupo 1210494" transform="translate(9.316 37.263)">
          <circle id="Elipse_13514" data-name="Elipse 13514" cx="2.5" cy="2.5" r="2.5" transform="translate(-0.382 -0.329)" fill="#d3a06c"/>
        </g>
      </g>
      <g id="Grupo_1210496" data-name="Grupo 1210496" transform="translate(0 0)">
        <path id="Trazado_1054859" data-name="Trazado 1054859" d="M31.493,14.987A3.493,3.493,0,1,0,28,11.493,3.5,3.5,0,0,0,31.493,14.987Zm0-4.658a1.164,1.164,0,1,1-1.164,1.164A1.166,1.166,0,0,1,31.493,10.329Z" transform="translate(4.605 1.316)"/>
        <path id="Trazado_1054860" data-name="Trazado 1054860" d="M32.151,20.3A8.151,8.151,0,1,0,24,12.151,8.16,8.16,0,0,0,32.151,20.3Zm0-13.974a5.822,5.822,0,1,1-5.822,5.822A5.829,5.829,0,0,1,32.151,6.329Z" transform="translate(3.947 0.658)"/>
        <path id="Trazado_1054861" data-name="Trazado 1054861" d="M16.658,42.329A2.331,2.331,0,0,1,14.329,40H12a4.658,4.658,0,0,0,9.316,0H18.987A2.331,2.331,0,0,1,16.658,42.329Z" transform="translate(1.974 6.579)"/>
        <path id="Trazado_1054862" data-name="Trazado 1054862" d="M46.658,42.329A2.331,2.331,0,0,1,44.329,40H42a4.658,4.658,0,0,0,9.316,0H48.987A2.331,2.331,0,0,1,46.658,42.329Z" transform="translate(6.908 6.579)"/>
        <path id="Trazado_1054863" data-name="Trazado 1054863" d="M46.316,32H43.987a2.329,2.329,0,1,1-4.658,0H37a4.658,4.658,0,1,0,9.316,0Z" transform="translate(6.085 5.263)"/>
        <path id="Trazado_1054864" data-name="Trazado 1054864" d="M51.658,34.329A2.331,2.331,0,0,1,49.329,32H47a4.658,4.658,0,0,0,9.316,0H53.987A2.331,2.331,0,0,1,51.658,34.329Z" transform="translate(7.73 5.263)"/>
        <path id="Trazado_1054865" data-name="Trazado 1054865" d="M72.2,32.288A15.967,15.967,0,0,0,64.25,18.478l7.56-5.669L59.388,3.493V6.987H46.9l.5-.994L42.915,1.51,41.9,2.02a1.609,1.609,0,0,1-1.355.03,1.6,1.6,0,0,1-.916-.971L39.267,0H32.931L32.57,1.079a1.618,1.618,0,0,1-.942.983A1.606,1.606,0,0,1,30.3,2.02l-1.018-.51L24.8,5.992l.5.994H12.809V3.493L.388,12.809l7.559,5.669A15.97,15.97,0,0,0,0,32.288v.94a15.9,15.9,0,0,0,.8,4.928,4.656,4.656,0,0,0,3.863,7.258h.059A11.663,11.663,0,0,0,12.386,55.2,12.814,12.814,0,0,0,5.822,66.375V72.2H31.441V66.375A12.816,12.816,0,0,0,24.878,55.2a11.664,11.664,0,0,0,7.669-9.787h.058A4.629,4.629,0,0,0,36.1,43.805a4.629,4.629,0,0,0,3.493,1.609h.059A11.663,11.663,0,0,0,47.321,55.2a12.814,12.814,0,0,0-6.564,11.173V72.2H66.375V66.375A12.816,12.816,0,0,0,59.812,55.2a11.664,11.664,0,0,0,7.669-9.787h.058A4.663,4.663,0,0,0,72.2,40.757a4.61,4.61,0,0,0-1.028-2.883A15.881,15.881,0,0,0,72.2,32.288ZM61.717,9.316V8.151l6.21,4.658-6.21,4.658V16.3H47.933l.975-.325V9.641l-.976-.325ZM27.5,9.23a3.93,3.93,0,0,0,.1-2.748l2.166-2.166a3.957,3.957,0,0,0,2.768-.109,3.935,3.935,0,0,0,2.029-1.877H37.63a3.958,3.958,0,0,0,2.048,1.885,3.943,3.943,0,0,0,2.748.1l2.166,2.166a4,4,0,0,0,1.987,4.8V14.34a4,4,0,0,0-1.987,4.8L42.426,21.3a4,4,0,0,0-4.8,1.987H34.567a4,4,0,0,0-4.8-1.987L27.6,19.137a3.994,3.994,0,0,0-1.987-4.8V11.278A3.958,3.958,0,0,0,27.5,9.23ZM10.48,8.151V9.316H24.264l-.975.325v6.336l.976.326H10.48v1.164L4.27,12.809ZM2.329,40.757a2.331,2.331,0,0,1,2.329-2.329v4.658A2.331,2.331,0,0,1,2.329,40.757Zm16.3,15.138a10.4,10.4,0,0,1,4.628,1.091l-.692,3.527L19.455,57.4a1.163,1.163,0,0,0-1.647,0L14.7,60.513,14,56.986A10.4,10.4,0,0,1,18.632,55.895Zm10.48,10.48v3.493H8.151V66.375a10.457,10.457,0,0,1,3.747-8.02l.932,4.751a1.164,1.164,0,0,0,1.967.6l3.835-3.836L22.466,63.7a1.166,1.166,0,0,0,.823.341,1.214,1.214,0,0,0,.34-.05,1.165,1.165,0,0,0,.8-.891l.932-4.751A10.461,10.461,0,0,1,29.112,66.375ZM30.276,44.25a9.327,9.327,0,0,1-9.316,9.316H16.3A9.327,9.327,0,0,1,6.987,44.25V34.934A3.5,3.5,0,0,1,9.5,31.58a4.665,4.665,0,0,0,4.472,3.354H27.947a2.331,2.331,0,0,1,2.329,2.329ZM27.947,32.605H13.974A2.329,2.329,0,1,1,16.3,30.276h2.329A4.658,4.658,0,0,0,9.44,29.2a5.831,5.831,0,0,0-4.782,5.729V36.1a4.623,4.623,0,0,0-1.916.423,13.6,13.6,0,0,1-.413-3.293v-.94A13.644,13.644,0,0,1,10,20.018l2.809,2.107V18.632H25.3l-.5.994,4.482,4.482L30.3,23.6a1.618,1.618,0,0,1,1.355-.03,1.6,1.6,0,0,1,.916.971l.36,1.079h2v6.67a13.569,13.569,0,0,1-.644,4.137,4.613,4.613,0,0,0-1.685-.327H32.44a4.654,4.654,0,0,0-4.493-3.493Zm4.658,10.48V38.428a2.329,2.329,0,0,1,0,4.658Zm4.658-2.329a2.331,2.331,0,0,1,2.329-2.329v4.658A2.331,2.331,0,0,1,37.263,40.757ZM39.592,36.1a4.628,4.628,0,0,0-3.169,1.263,15.875,15.875,0,0,0,.84-5.074v-6.67h2l.36-1.079a1.618,1.618,0,0,1,.942-.983,1.6,1.6,0,0,1,1.33.042l1.018.51L47.4,19.626l-.5-.994H59.388v3.493L62.2,20.018a13.641,13.641,0,0,1,7.028,16.407,4.613,4.613,0,0,0-1.685-.327V33.77A8.007,8.007,0,0,0,62.483,26.3l-1.5-.6-.865,2.161,1.5.6A5.684,5.684,0,0,1,65.094,32.6H54.73a5.829,5.829,0,0,1-5.822-5.822V24.453H46.579v2.329a8.1,8.1,0,0,0,.344,2.329h-.344A7,7,0,0,0,39.592,36.1Zm14.8,21.3a1.163,1.163,0,0,0-1.647,0L49.63,60.513l-.692-3.527a10.359,10.359,0,0,1,9.255,0L57.5,60.513Zm9.657,8.975v3.493H43.085V66.375a10.457,10.457,0,0,1,3.747-8.02l.932,4.751a1.164,1.164,0,0,0,1.967.6l2.67-2.671v6.5H54.73v-6.5L57.4,63.7a1.166,1.166,0,0,0,.823.341,1.214,1.214,0,0,0,.34-.05,1.165,1.165,0,0,0,.8-.891l.932-4.751a10.461,10.461,0,0,1,3.747,8.021ZM55.895,53.566H51.237a9.327,9.327,0,0,1-9.316-9.316V36.1a4.663,4.663,0,0,1,4.658-4.658h1.472a8.144,8.144,0,0,0,6.679,3.493H65.21V44.25A9.327,9.327,0,0,1,55.895,53.566Zm11.645-10.48V38.428a2.329,2.329,0,0,1,0,4.658Z" transform="translate(0 0)"/>
        <path id="Trazado_1054866" data-name="Trazado 1054866" d="M21.493,32a3.493,3.493,0,1,0,3.493,3.493A3.5,3.5,0,0,0,21.493,32Zm0,4.658a1.164,1.164,0,1,1,1.164-1.164A1.166,1.166,0,0,1,21.493,36.658Z" transform="translate(2.96 5.263)"/>
        <path id="Trazado_1054867" data-name="Trazado 1054867" d="M14.987,35.493a3.493,3.493,0,1,0-3.493,3.493A3.5,3.5,0,0,0,14.987,35.493Zm-3.493,1.164a1.164,1.164,0,1,1,1.164-1.164A1.166,1.166,0,0,1,11.493,36.658Z" transform="translate(1.316 5.263)"/>
      </g>
    </g>
  </g>
</svg>
