<svg xmlns="http://www.w3.org/2000/svg" xmlns:xlink="http://www.w3.org/1999/xlink" width="98" height="98" viewBox="0 0 98 98">
  <defs>
    <filter id="Trazado_982547" x="0" y="0" width="98" height="98" filterUnits="userSpaceOnUse">
      <feOffset dy="3" input="SourceAlpha"/>
      <feGaussianBlur stdDeviation="3" result="blur"/>
      <feFlood flood-opacity="0.161"/>
      <feComposite operator="in" in2="blur"/>
      <feComposite in="SourceGraphic"/>
    </filter>
    <clipPath id="clip-path">
      <path id="path8121" d="M0-682.665H48.414v48.414H0Z" transform="translate(0 682.665)"/>
    </clipPath>
  </defs>
  <g id="Grupo_1207937" data-name="Grupo 1207937" transform="translate(-191 -2467.015)">
    <g id="Grupo_1207718" data-name="Grupo 1207718" transform="translate(0 381.462)">
      <g id="Grupo_1207712" data-name="Grupo 1207712">
        <g id="Grupo_1207285" data-name="Grupo 1207285" transform="translate(0 344.552)">
          <g id="Grupo_1206883" data-name="Grupo 1206883" transform="translate(0 -209)">
            <g id="Grupo_1204569" data-name="Grupo 1204569" transform="translate(-81 -1890.336)">
              <g id="Grupo_1203962" data-name="Grupo 1203962" transform="translate(281 3846.336)">
                <g id="Grupo_1203498" data-name="Grupo 1203498" transform="translate(0)">
                  <g id="Grupo_1202589" data-name="Grupo 1202589">
                    <g id="Grupo_1172010" data-name="Grupo 1172010">
                      <g id="Grupo_1171046" data-name="Grupo 1171046">
                        <g id="Grupo_1148525" data-name="Grupo 1148525">
                          <g transform="matrix(1, 0, 0, 1, -9, -6)" filter="url(#Trazado_982547)">
                            <g id="Trazado_982547-2" data-name="Trazado 982547" transform="translate(9 6)" fill="#fdfbec">
                              <path d="M 39.99999237060547 78.49998474121094 C 34.8018684387207 78.49998474121094 29.76002502441406 77.48226165771484 25.0145263671875 75.47508239746094 C 20.43014717102051 73.53604888916016 16.31264877319336 70.75984954833984 12.77639198303223 67.22359466552734 C 9.240137100219727 63.68733596801758 6.463936805725098 59.5698356628418 4.524903297424316 54.98546981811523 C 2.517725706100464 50.23995971679688 1.500003457069397 45.19811630249023 1.500003457069397 39.99999237060547 C 1.500003457069397 34.8018684387207 2.517725706100464 29.76002502441406 4.524903297424316 25.0145263671875 C 6.463936805725098 20.43014717102051 9.240137100219727 16.31264877319336 12.77639198303223 12.77639198303223 C 16.31264877319336 9.240137100219727 20.43014717102051 6.463936805725098 25.0145263671875 4.524903297424316 C 29.76002502441406 2.517725706100464 34.8018684387207 1.500003457069397 39.99999237060547 1.500003457069397 C 45.19811630249023 1.500003457069397 50.23995971679688 2.517725706100464 54.98546981811523 4.524903297424316 C 59.5698356628418 6.463936805725098 63.68733596801758 9.240137100219727 67.22359466552734 12.77639198303223 C 70.75984954833984 16.31264877319336 73.53604888916016 20.43014717102051 75.47508239746094 25.0145263671875 C 77.48226165771484 29.76002502441406 78.49998474121094 34.8018684387207 78.49998474121094 39.99999237060547 C 78.49998474121094 45.19812393188477 77.48226165771484 50.23995971679688 75.47508239746094 54.98546981811523 C 73.53604888916016 59.5698356628418 70.75984954833984 63.68733596801758 67.22359466552734 67.22359466552734 C 63.68733596801758 70.75984954833984 59.5698356628418 73.53604888916016 54.98546981811523 75.47508239746094 C 50.23995971679688 77.48226165771484 45.19812393188477 78.49998474121094 39.99999237060547 78.49998474121094 Z" stroke="none"/>
                              <path d="M 39.99999237060547 2.999992370605469 C 35.00370025634766 2.999992370605469 30.1584587097168 3.97784423828125 25.59884643554688 5.906402587890625 C 21.19327163696289 7.769805908203125 17.23603057861328 10.43805694580078 13.83704376220703 13.83704376220703 C 10.43805694580078 17.23603057861328 7.769805908203125 21.19327163696289 5.906402587890625 25.59884643554688 C 3.97784423828125 30.1584587097168 2.999992370605469 35.00370025634766 2.999992370605469 39.99999237060547 C 2.999992370605469 44.99628448486328 3.97784423828125 49.84152603149414 5.906402587890625 54.40113830566406 C 7.769805908203125 58.80671310424805 10.43805694580078 62.76395416259766 13.83704376220703 66.16294097900391 C 17.23603057861328 69.56191253662109 21.19327163696289 72.23016357421875 25.59884643554688 74.09356689453125 C 30.1584587097168 76.02212524414062 35.00370025634766 76.99997711181641 39.99999237060547 76.99997711181641 C 44.99628448486328 76.99997711181641 49.84152603149414 76.02212524414062 54.40113830566406 74.09356689453125 C 58.80671310424805 72.23016357421875 62.76395416259766 69.56191253662109 66.16294097900391 66.16294097900391 C 69.56191253662109 62.76395416259766 72.23016357421875 58.80671310424805 74.09356689453125 54.40113830566406 C 76.02212524414062 49.84152603149414 76.99997711181641 44.99628448486328 76.99997711181641 39.99999237060547 C 76.99997711181641 35.00370025634766 76.02212524414062 30.1584587097168 74.09356689453125 25.59884643554688 C 72.23016357421875 21.19327163696289 69.56191253662109 17.23603057861328 66.16294097900391 13.83704376220703 C 62.76395416259766 10.43805694580078 58.80671310424805 7.769805908203125 54.40113830566406 5.906402587890625 C 49.84152603149414 3.97784423828125 44.99628448486328 2.999992370605469 39.99999237060547 2.999992370605469 M 39.99999237060547 -7.62939453125e-06 C 62.09137725830078 -7.62939453125e-06 79.99997711181641 17.90860748291016 79.99997711181641 39.99999237060547 C 79.99997711181641 62.09137725830078 62.09137725830078 79.99997711181641 39.99999237060547 79.99997711181641 C 17.90860748291016 79.99997711181641 -7.62939453125e-06 62.09137725830078 -7.62939453125e-06 39.99999237060547 C -7.62939453125e-06 17.90860748291016 17.90860748291016 -7.62939453125e-06 39.99999237060547 -7.62939453125e-06 Z" stroke="none" fill="#83793c"/>
                            </g>
                          </g>
                        </g>
                      </g>
                    </g>
                  </g>
                </g>
              </g>
            </g>
          </g>
        </g>
        <g id="g8115" transform="translate(215.793 2790.01)">
          <g id="g8117" transform="translate(0 -682.665)">
            <g id="g8119" clip-path="url(#clip-path)">
              <g id="g8125" transform="translate(-33.259 0.709)">
                <path id="path8127" d="M-338.457-377.826h-25.835v-25.108c5.31-7.679,37.755-5.416,25.835,25.108" transform="translate(364.292 406.667)" fill="#fbdf63"/>
              </g>
              <g id="g8129" transform="translate(-33.259 0.709)">
                <path id="path8131" d="M-338.457-377.826h-.619c6.164-24.728-15.887-30.6-25.216-24.374v-.734c5.31-7.679,37.755-5.416,25.835,25.108" transform="translate(364.292 406.667)" fill="#f9d11f"/>
              </g>
            </g>
          </g>
          <g id="g8265" transform="translate(0 -682.665)">
            <g id="g8267" clip-path="url(#clip-path)">
              <g id="g8273" transform="translate(-33.259 51.036)">
                <path id="path8275" d="M-338.457-377.654h-25.835v-25.1c5.31-7.676,37.755-5.413,25.835,25.1" transform="translate(364.292 406.481)" fill="#003343"/>
              </g>
              <g id="g8277" transform="translate(-33.259 51.036)">
                <path id="path8279" d="M-338.457-377.654h-.619c6.164-24.717-15.887-30.585-25.216-24.362v-.734c5.31-7.676,37.755-5.413,25.835,25.1" transform="translate(364.292 406.481)" fill="#002439"/>
              </g>
            </g>
          </g>
          <g id="g8281" transform="translate(0 -682.665)">
            <g id="g8283" clip-path="url(#clip-path)">
              <g id="g8289" transform="translate(17.066 51.014)">
                <path id="path8291" d="M-338.457-377.826h-25.835v-25.108c5.31-7.679,37.755-5.416,25.835,25.108" transform="translate(364.292 406.667)" fill="#ff7e50"/>
              </g>
              <g id="g8293" transform="translate(17.066 51.014)">
                <path id="path8295" d="M-338.457-377.826h-.619c6.164-24.728-15.887-30.6-25.216-24.374v-.734c5.31-7.679,37.755-5.416,25.835,25.108" transform="translate(364.292 406.667)" fill="#ff6247"/>
              </g>
              <g id="g8297" transform="translate(2.941 54.225)">
                <path id="path8299" d="M-233.028-131.751v15.573h-14.6c-12.2-25.649,14.6-34.273,14.6-15.573" transform="translate(250.816 141.808)" fill="#ffa68a"/>
              </g>
              <g id="g8301" transform="translate(2.941 54.225)">
                <path id="path8303" d="M-233.028-131.751c-.9-16.1-20.23-9.82-14.176,15.573h-.427c-12.2-25.649,14.6-34.273,14.6-15.573" transform="translate(250.816 141.808)" fill="#ff7e50"/>
              </g>
            </g>
          </g>
        </g>
      </g>
    </g>
    <g id="use-cap_2124643_1_" data-name="use-cap_2124643 (1)" transform="translate(211.511 2516.816)">
      <ellipse id="Elipse_13519" data-name="Elipse 13519" cx="5.861" cy="6.078" rx="5.861" ry="6.078" transform="translate(0.784 -7.392)" fill="#ffd3bd"/>
      <ellipse id="Elipse_13520" data-name="Elipse 13520" cx="5.861" cy="6.078" rx="5.861" ry="6.078" transform="translate(40.387 -7.392)" fill="#ffbe9d"/>
      <path id="Trazado_1053984" data-name="Trazado 1053984" d="M152.688,382.948a1.8,1.8,0,0,0,1.786-2.045c-.919-6.865-6.393-12.139-13.009-12.139s-12.09,5.274-13.009,12.139a1.8,1.8,0,0,0,1.786,2.045Z" transform="translate(-115.018 -360.043)" fill="#ffd3bd"/>
      <path id="Trazado_1053985" data-name="Trazado 1053985" d="M155.687,382.948H171.18a29.637,29.637,0,0,1,2.715-8.587,12.576,12.576,0,0,0-20.923,0A29.64,29.64,0,0,1,155.687,382.948Z" transform="translate(-136.987 -360.043)" fill="#8daee1"/>
      <path id="Trazado_1053986" data-name="Trazado 1053986" d="M199.068,401.732c-1.45,4.416-4.416,6.854-7.136,6.854s-5.686-2.439-7.136-6.854Z" transform="translate(-165.485 -389.566)" fill="#ffd3bd"/>
      <path id="Trazado_1053987" data-name="Trazado 1053987" d="M98.944,120.361c0,10.129-9.117,16.825-20.363,16.825s-20.363-6.7-20.363-16.825,9.117-17.78,20.363-17.78S98.944,110.233,98.944,120.361Z" transform="translate(-52.135 -121.675)" fill="#ffd3bd"/>
      <path id="Trazado_1053988" data-name="Trazado 1053988" d="M68.314,125.124c-6.038,3.016-10.094,8.669-10.094,15.425,0,10.129,9.117,16.825,20.363,16.825a27.369,27.369,0,0,0,3.318-.2C66.618,155.946,63.181,135.352,68.314,125.124Z" transform="translate(-52.136 -141.862)" fill="#ffbe9d"/>
      <path id="Trazado_1053989" data-name="Trazado 1053989" d="M58.97,97.69a23.869,23.869,0,0,1-6.252,8.994,1.19,1.19,0,0,1-1.965-.787c-.6-6.329,3.1-18.813,21.09-18.813S93.529,99.568,92.934,105.9a1.19,1.19,0,0,1-1.965.787,23.87,23.87,0,0,1-6.252-8.994H58.97Z" transform="translate(-45.397 -107.797)" fill="#4e5660"/>
      <ellipse id="Elipse_13521" data-name="Elipse 13521" cx="3.996" cy="3.182" rx="3.996" ry="3.182" transform="translate(11.622 -0.7)" fill="#e7889d"/>
      <ellipse id="Elipse_13522" data-name="Elipse 13522" cx="3.996" cy="3.182" rx="3.996" ry="3.182" transform="translate(33.28 -0.7)" fill="#e7889d"/>
      <path id="Trazado_1053990" data-name="Trazado 1053990" d="M82.479,101.2a69.777,69.777,0,0,0,19.908-2.938c-2.234-5.594-7.87-11.181-19.908-11.181S64.805,92.671,62.571,98.265A69.777,69.777,0,0,0,82.479,101.2Z" transform="translate(-56.033 -107.797)" fill="#8daee1"/>
      <path id="Trazado_1053991" data-name="Trazado 1053991" d="M315.459,123.823a16.386,16.386,0,0,0-7.106-8.2c-4.21,2.582-6.51,8.152-7.847,10.944A67.043,67.043,0,0,0,315.459,123.823Z" transform="translate(-269.105 -133.356)" fill="#f6ee86"/>
      <path id="Trazado_1053992" data-name="Trazado 1053992" d="M62.571,123.823a16.385,16.385,0,0,1,7.106-8.2c4.21,2.582,6.51,8.152,7.847,10.944A67.042,67.042,0,0,1,62.571,123.823Z" transform="translate(-56.033 -133.356)" fill="#f6ee86"/>
      <ellipse id="Elipse_13523" data-name="Elipse 13523" cx="10.304" cy="10.304" rx="10.304" ry="10.304" transform="translate(27.838 -18.722) rotate(-45)" fill="#98cd64"/>
      <path id="Trazado_1053993" data-name="Trazado 1053993" d="M356.137,80.241a.781.781,0,0,1-.554-.23L352.1,76.532a.784.784,0,0,1,1.108-1.108l2.924,2.925,5.7-5.7a.784.784,0,0,1,1.108,1.108l-6.252,6.252A.781.781,0,0,1,356.137,80.241Z" transform="translate(-315.105 -94.667)" fill="#fff"/>
      <path id="Trazado_1053994" data-name="Trazado 1053994" d="M8.342,10.634A.784.784,0,1,0,9.451,9.526L7.2,7.274A.784.784,0,1,0,6.091,8.382Zm9.6-4.354A.784.784,0,0,0,18.73,5.5V2.844a.784.784,0,1,0-1.567,0V5.5A.784.784,0,0,0,17.946,6.281ZM47.7,21.805q-.116-.411-.259-.836A11.088,11.088,0,0,0,51.329,4.495a.784.784,0,0,0-1.26.933,9.513,9.513,0,1,1-2.531-2.364.784.784,0,0,0,.845-1.32,11.09,11.09,0,0,0-16.8,6.946,34.084,34.084,0,0,0-5.141-.373C14.1,8.316,7.34,14.171,5.2,21.8A6.846,6.846,0,0,0,0,28.5a6.752,6.752,0,0,0,6.8,6.857,17.672,17.672,0,0,0,8.535,8.331,15.489,15.489,0,0,0-2.678,6.881.784.784,0,1,0,1.554.208,14.03,14.03,0,0,1,1.675-5.03,31.932,31.932,0,0,1,1.9,6.187H16.26a.784.784,0,1,0,0,1.567H37.67a2.588,2.588,0,0,0,2.562-2.932,15.488,15.488,0,0,0-2.678-6.881,17.674,17.674,0,0,0,8.535-8.331,6.752,6.752,0,0,0,6.8-6.857A6.846,6.846,0,0,0,47.7,21.805Zm-9.388-.416c-1.85.315-3.744.562-5.621.738.477-1.015,1.037-2.183,1.716-3.377A11.127,11.127,0,0,0,38.311,21.389ZM26.446,9.884a32.508,32.508,0,0,1,4.911.356,11.039,11.039,0,0,0,1.986,7.219,53.714,53.714,0,0,0-2.453,4.815,62.368,62.368,0,0,1-8.886,0c-1.686-3.585-3.577-7.54-6.863-10.107A25.582,25.582,0,0,1,26.446,9.884Zm-12.82,3.122c3.233,2.205,5.291,6.386,6.578,9.127A66.788,66.788,0,0,1,7.6,19.8,15.814,15.814,0,0,1,13.627,13.006ZM1.567,28.5a5.321,5.321,0,0,1,3.226-4.929,16.582,16.582,0,0,0-.217,4.415,1.965,1.965,0,0,0,.746,1.368,16.116,16.116,0,0,0,.841,4.415A5.221,5.221,0,0,1,1.567,28.5Zm4.569-.661a16.068,16.068,0,0,1,.876-6.584c1.26.389,2.749.774,4.4,1.126a22.212,22.212,0,0,1-4.6,5.724.406.406,0,0,1-.673-.266Zm27.376,24.1H19.38a32.5,32.5,0,0,0-2.374-7.521,24.144,24.144,0,0,0,3,.938c1.664,2.678,4.052,4.266,6.441,4.266s4.777-1.588,6.441-4.266a24.169,24.169,0,0,0,3-.938A32.494,32.494,0,0,0,33.513,51.934ZM22.268,45.8a28.182,28.182,0,0,0,8.356,0,5.729,5.729,0,0,1-4.178,2.252A5.729,5.729,0,0,1,22.268,45.8Zm16.41,4.98a1.019,1.019,0,0,1-1.009,1.157H35.1A31.922,31.922,0,0,1,37,45.747a14.029,14.029,0,0,1,1.675,5.03ZM26.446,44.541c-9.97,0-18.8-5.528-19.53-14.8a1.982,1.982,0,0,0,.916-.444,24.214,24.214,0,0,0,5.2-6.589,70.45,70.45,0,0,0,26.834,0,24.222,24.222,0,0,0,5.2,6.592,1.981,1.981,0,0,0,.916.444c-.733,9.339-9.625,14.8-19.53,14.8ZM46.083,28.106a22.219,22.219,0,0,1-4.606-5.727c.25-.053.91-.2.937-.2a11.041,11.041,0,0,0,3.577-.592,16.028,16.028,0,0,1,.765,6.256.407.407,0,0,1-.674.267Zm.647,5.664a16.115,16.115,0,0,0,.841-4.415,1.965,1.965,0,0,0,.746-1.368,16.614,16.614,0,0,0-.21-4.412A5.321,5.321,0,0,1,51.326,28.5,5.221,5.221,0,0,1,46.73,33.769ZM35.247,26.564a2.589,2.589,0,0,0-2.586,2.586.784.784,0,0,0,1.567,0,1.018,1.018,0,1,1,2.037,0,.784.784,0,0,0,1.567,0A2.589,2.589,0,0,0,35.247,26.564ZM29.2,28.593a.784.784,0,0,0-1.106.076,2.186,2.186,0,0,1-3.3,0,.784.784,0,0,0-1.182,1.03,3.754,3.754,0,0,0,5.664,0,.784.784,0,0,0-.076-1.106ZM17.946,26.854a.784.784,0,0,0-.784.784v1.555a.784.784,0,1,0,1.567,0V27.638A.784.784,0,0,0,17.946,26.854Z" transform="translate(0 -29.813)"/>
    </g>
  </g>
</svg>
