<svg xmlns="http://www.w3.org/2000/svg" xmlns:xlink="http://www.w3.org/1999/xlink" width="108" height="108" viewBox="0 0 108 108">
  <defs>
    <filter id="Trazado_904820" x="0" y="0" width="108" height="108" filterUnits="userSpaceOnUse">
      <feOffset dy="3" input="SourceAlpha"/>
      <feGaussianBlur stdDeviation="3" result="blur"/>
      <feFlood flood-opacity="0.161"/>
      <feComposite operator="in" in2="blur"/>
      <feComposite in="SourceGraphic"/>
    </filter>
  </defs>
  <g id="Grupo_1209274" data-name="Grupo 1209274" transform="translate(9 6)">
    <g id="Grupo_1208877" data-name="Grupo 1208877" transform="translate(0 0)">
      <g id="Grupo_1207936" data-name="Grupo 1207936">
        <g id="Grupo_1201662" data-name="Grupo 1201662">
          <g id="Grupo_1173585" data-name="Grupo 1173585">
            <g id="Grupo_1173428" data-name="Grupo 1173428">
              <g id="Grupo_1171958" data-name="Grupo 1171958">
                <g id="Grupo_1167341" data-name="Grupo 1167341">
                  <g id="Grupo_1166792" data-name="Grupo 1166792">
                    <g transform="matrix(1, 0, 0, 1, -9, -6)" filter="url(#Trazado_904820)">
                      <g id="Trazado_904820-2" data-name="Trazado 904820" transform="translate(9 6)" fill="#effbfe">
                        <path d="M 44.99999618530273 88.49999237060547 C 39.12687301635742 88.49999237060547 33.43022155761719 87.35006713867188 28.06829643249512 85.08216857910156 C 22.88852119445801 82.89130401611328 18.23629570007324 79.75457763671875 14.24084663391113 75.75914001464844 C 10.24540901184082 71.76369476318359 7.108683586120605 67.11146545410156 4.917821407318115 61.93169403076172 C 2.649921178817749 56.56976699829102 1.499996185302734 50.87311553955078 1.499996185302734 44.99999237060547 C 1.499996185302734 39.12686920166016 2.649921178817749 33.43021774291992 4.917821407318115 28.06829261779785 C 7.108683586120605 22.88851737976074 10.24540901184082 18.23630523681641 14.24084663391113 14.24085521697998 C 18.23629570007324 10.24540519714355 22.88852119445801 7.108692169189453 28.06829643249512 4.917829990386963 C 33.43022155761719 2.649929761886597 39.12687301635742 1.500004887580872 44.99999618530273 1.500004887580872 C 50.87311935424805 1.500004887580872 56.56977081298828 2.649929761886597 61.93169784545898 4.917829990386963 C 67.11147308349609 7.108692169189453 71.76369476318359 10.24540519714355 75.75914764404297 14.24085521697998 C 79.75458526611328 18.23630523681641 82.89131164550781 22.88851737976074 85.08216857910156 28.06829261779785 C 87.35007476806641 33.43021774291992 88.5 39.12686920166016 88.5 44.99999237060547 C 88.5 50.87311553955078 87.35007476806641 56.56976699829102 85.08216857910156 61.93169403076172 C 82.89131164550781 67.11146545410156 79.75458526611328 71.76369476318359 75.75914764404297 75.75914001464844 C 71.76369476318359 79.75457763671875 67.11147308349609 82.89130401611328 61.93169784545898 85.08216857910156 C 56.56977081298828 87.35006713867188 50.87311935424805 88.49999237060547 44.99999618530273 88.49999237060547 Z" stroke="none"/>
                        <path d="M 44.99999618530273 2.999992370605469 C 39.32870864868164 2.999992370605469 33.82865142822266 4.11004638671875 28.65262603759766 6.299331665039062 C 23.65165710449219 8.414566040039062 19.15968322753906 11.44333648681641 15.301513671875 15.30150604248047 C 11.44333648681641 19.15967559814453 8.414566040039062 23.65164947509766 6.299339294433594 28.65262222290039 C 4.110054016113281 33.82864761352539 2.999992370605469 39.32870483398438 2.999992370605469 44.99999237060547 C 2.999992370605469 50.67127990722656 4.110054016113281 56.17132186889648 6.299339294433594 61.34736633300781 C 8.414566040039062 66.34833526611328 11.44333648681641 70.84029388427734 15.301513671875 74.69846343994141 C 19.15968322753906 78.55663299560547 23.65165710449219 81.58540344238281 28.65262603759766 83.70063781738281 C 33.82865142822266 85.88992309570312 39.32870864868164 86.99997711181641 44.99999618530273 86.99997711181641 C 50.67128372192383 86.99997711181641 56.17134094238281 85.88992309570312 61.34736633300781 83.70063781738281 C 66.34834289550781 81.58540344238281 70.84030914306641 78.55663299560547 74.69847869873047 74.69846343994141 C 78.55665588378906 70.84029388427734 81.58542633056641 66.34833526611328 83.70065307617188 61.34736633300781 C 85.88993835449219 56.17132186889648 87 50.67127990722656 87 44.99999237060547 C 87 39.32870483398438 85.88993835449219 33.82864761352539 83.70065307617188 28.65262222290039 C 81.58542633056641 23.65164947509766 78.55665588378906 19.15967559814453 74.69847869873047 15.30150604248047 C 70.84030914306641 11.44333648681641 66.34834289550781 8.414566040039062 61.34736633300781 6.299331665039062 C 56.17134094238281 4.11004638671875 50.67128372192383 2.999992370605469 44.99999618530273 2.999992370605469 M 44.99999618530273 -7.62939453125e-06 C 69.85281372070312 -7.62939453125e-06 90 20.14717864990234 90 44.99999237060547 C 90 69.85279083251953 69.85281372070312 89.99997711181641 44.99999618530273 89.99997711181641 C 20.14717864990234 89.99997711181641 -7.62939453125e-06 69.85279083251953 -7.62939453125e-06 44.99999237060547 C -7.62939453125e-06 20.14717864990234 20.14717864990234 -7.62939453125e-06 44.99999618530273 -7.62939453125e-06 Z" stroke="none" fill="#497f88"/>
                      </g>
                    </g>
                  </g>
                </g>
              </g>
            </g>
          </g>
        </g>
      </g>
    </g>
    <g id="bricks_769657" transform="translate(11.463 18.595)">
      <path id="Trazado_1053730" data-name="Trazado 1053730" d="M96.01,231.84a8.38,8.38,0,0,1-9.343-.124,8.3,8.3,0,0,0-3.745,6.931v.71l2.982-2.982a1.31,1.31,0,0,1,1.853,0l.755.755a1.31,1.31,0,0,1,.207,1.581h3.722a.657.657,0,0,1,.655.655.657.657,0,0,1,.655-.655h3.59a1.309,1.309,0,0,1,.339-1.262l.755-.755a1.306,1.306,0,0,1,.8-.378A8.343,8.343,0,0,0,96.01,231.84Z" transform="translate(-72.059 -208.493)" fill="#154884"/>
      <g id="Grupo_1209264" data-name="Grupo 1209264" transform="translate(10.863 23.223)" opacity="0.1">
        <path id="Trazado_1053731" data-name="Trazado 1053731" d="M86.666,231.716a8.3,8.3,0,0,0-3.745,6.931v.71l2.982-2.982a1.312,1.312,0,0,1,.116-.1A8.316,8.316,0,0,1,88.3,232.6,8.4,8.4,0,0,1,86.666,231.716Z" transform="translate(-82.921 -231.716)" fill="#37005e"/>
      </g>
      <path id="Trazado_1053732" data-name="Trazado 1053732" d="M79.529,344.186a.657.657,0,0,1-.655.655H72.84a.657.657,0,0,1-.655-.655v-2.362a.657.657,0,0,1,.655-.655h6.034a.657.657,0,0,1,.655.655Z" transform="translate(-62.728 -303.607)" fill="#fcdb80"/>
      <path id="Trazado_1053733" data-name="Trazado 1053733" d="M135.59,344.186a.657.657,0,0,1-.655.655H128.9a.657.657,0,0,1-.655-.655v-2.362a.657.657,0,0,1,.655-.655h6.034a.657.657,0,0,1,.655.655Z" transform="translate(-111.445 -303.607)" fill="#89c947"/>
      <path id="Trazado_1053734" data-name="Trazado 1053734" d="M95.7,316.156a.657.657,0,0,1-.655.655H89.012a.657.657,0,0,1-.655-.655v-2.362a.657.657,0,0,1,.655-.655h6.034a.657.657,0,0,1,.655.655v2.362Z" transform="translate(-76.782 -279.249)" fill="#ff6a76"/>
      <path id="Trazado_1053735" data-name="Trazado 1053735" d="M151.761,316.156a.657.657,0,0,1-.655.655h-6.034a.657.657,0,0,1-.655-.655v-2.362a.657.657,0,0,1,.655-.655h6.034a.657.657,0,0,1,.655.655Z" transform="translate(-125.498 -279.249)" fill="#fcdb80"/>
      <path id="Trazado_1053736" data-name="Trazado 1053736" d="M111.217,285.108H107.5a1.3,1.3,0,0,1-1.44.618,1.3,1.3,0,0,1-1.528,1.588v.811a.657.657,0,0,0,.655.655h6.034a.657.657,0,0,0,.655-.655v-2.362A.657.657,0,0,0,111.217,285.108Z" transform="translate(-90.834 -254.89)" fill="#0481bf"/>
      <path id="Trazado_1053737" data-name="Trazado 1053737" d="M166.751,287.279a1.308,1.308,0,0,0-1.579-1.579,1.3,1.3,0,0,1-.339-.591h-3.59a.657.657,0,0,0-.655.655v2.362a.657.657,0,0,0,.655.655h6.034a.657.657,0,0,0,.655-.655v-.492A1.306,1.306,0,0,1,166.751,287.279Z" transform="translate(-139.55 -254.891)" fill="#ff6a76"/>
      <g id="Grupo_1209265" data-name="Grupo 1209265" transform="translate(10.304 27.498)">
        <path id="Trazado_1053738" data-name="Trazado 1053738" d="M82.2,264.728l-3.158,3.157a1.31,1.31,0,0,0,0,1.853l.755.755a1.31,1.31,0,0,0,2.2-1.233,1.307,1.307,0,0,0,1.579-1.579,1.309,1.309,0,0,0,1.233-2.2l-.755-.755A1.311,1.311,0,0,0,82.2,264.728Z" transform="translate(-78.654 -264.345)" fill="#ffd5b3"/>
        <path id="Trazado_1053739" data-name="Trazado 1053739" d="M198.8,270.323l-3.157-3.158a1.31,1.31,0,0,0-1.853,0l-.755.755a8.045,8.045,0,0,1,1.579,3.432,1.308,1.308,0,0,1,1.579,1.579,1.311,1.311,0,0,0,1.853,0l.755-.755A1.31,1.31,0,0,0,198.8,270.323Z" transform="translate(-177.718 -266.462)" fill="#ffd5b3"/>
      </g>
      <g id="Grupo_1209266" data-name="Grupo 1209266" transform="translate(17.023 12.261)">
        <path id="Trazado_1053740" data-name="Trazado 1053740" d="M211.964,148.035h-.712v3.943a8.609,8.609,0,0,1-.159,1.645h.872a1.833,1.833,0,0,0,1.828-1.827v-1.933A1.833,1.833,0,0,0,211.964,148.035Z" transform="translate(-200.461 -148.035)" fill="#ffb98a"/>
        <path id="Trazado_1053741" data-name="Trazado 1053741" d="M132.291,240.821a8.375,8.375,0,0,1-2.35-.337v.539a2.35,2.35,0,0,0,4.7,0v-.539A8.379,8.379,0,0,1,132.291,240.821Z" transform="translate(-129.941 -228.373)" fill="#ffb98a"/>
      </g>
      <path id="Trazado_1053742" data-name="Trazado 1053742" d="M78.039,132.982a.689.689,0,0,1-.452-.169l-2.42-2.1L73.723,132.7a.689.689,0,0,1-.557.283H68.623a1.833,1.833,0,0,0-1.828,1.827v1.933a1.833,1.833,0,0,0,1.828,1.827h.514a8.435,8.435,0,0,0,16.721-1.645v-3.943H78.039Z" transform="translate(-58.045 -120.721)" fill="#ffd5b3"/>
      <path id="Trazado_1053743" data-name="Trazado 1053743" d="M85.668,78.416a.689.689,0,0,1-.452-.169l-2.42-2.1-1.445,1.986a.689.689,0,0,1-.557.283H76.262a.687.687,0,0,1-.688-.685v-.379a9.473,9.473,0,0,1,18.945,0v.379a.686.686,0,0,1-.688.685Z" transform="translate(-65.674 -66.155)" fill="#d48748"/>
      <g id="Grupo_1209267" data-name="Grupo 1209267" transform="translate(9.9 1.766)" opacity="0.1">
        <path id="Trazado_1053744" data-name="Trazado 1053744" d="M78.3,77.732v-.379a9.458,9.458,0,0,1,8.109-9.332,9.47,9.47,0,0,0-10.836,9.332v.379a.687.687,0,0,0,.688.685h2.726A.687.687,0,0,1,78.3,77.732Z" transform="translate(-75.574 -67.922)" fill="#37005e"/>
      </g>
      <path id="Trazado_1053745" data-name="Trazado 1053745" d="M337.057,237.627a8.576,8.576,0,0,1-8.47,0,8.316,8.316,0,0,0-4.038,6.23.606.606,0,1,0,1.208-.01h6.034a.657.657,0,0,1,.655.655v2.362a.657.657,0,0,1-.655.655h5.226a.651.651,0,0,1,.254.051l.515-.515a1.31,1.31,0,0,1,1.853,0l1.508,1.508v-3.791A8.3,8.3,0,0,0,337.057,237.627Z" transform="translate(-282.032 -213.629)" fill="#30a1d0"/>
      <g id="Grupo_1209268" data-name="Grupo 1209268" transform="translate(42.517 23.998)" opacity="0.1">
        <path id="Trazado_1053746" data-name="Trazado 1053746" d="M328.587,237.632a8.316,8.316,0,0,0-4.038,6.23.606.606,0,1,0,1.208-.01h1.525a8.294,8.294,0,0,1,2.991-5.487A8.563,8.563,0,0,1,328.587,237.632Z" transform="translate(-324.549 -237.632)" fill="#37005e"/>
      </g>
      <g id="Grupo_1209269" data-name="Grupo 1209269" transform="translate(39.274 11.725)">
        <path id="Trazado_1053747" data-name="Trazado 1053747" d="M371.717,243.872a8.575,8.575,0,0,1-2.41-.346v.544a2.41,2.41,0,0,0,4.82,0v-.545A8.573,8.573,0,0,1,371.717,243.872Z" transform="translate(-360.2 -230.48)" fill="#ffb98a"/>
        <path id="Trazado_1053748" data-name="Trazado 1053748" d="M302.654,148.6v-4.653h-.9a1.971,1.971,0,0,0-1.965,1.965v1.81a1.971,1.971,0,0,0,1.965,1.965h.967A8.9,8.9,0,0,1,302.654,148.6Z" transform="translate(-299.791 -143.946)" fill="#ffb98a"/>
        <path id="Trazado_1053749" data-name="Trazado 1053749" d="M454.2,143.945h-.9V148.6a8.9,8.9,0,0,1-.069,1.086h.967a1.971,1.971,0,0,0,1.965-1.965v-1.81A1.971,1.971,0,0,0,454.2,143.945Z" transform="translate(-433.13 -143.945)" fill="#ffb98a"/>
      </g>
      <path id="Trazado_1053750" data-name="Trazado 1053750" d="M321.644,144.249v4.614a8.654,8.654,0,1,0,17.307,0v-4.614Z" transform="translate(-279.507 -132.484)" fill="#ffd5b3"/>
      <g id="Grupo_1209270" data-name="Grupo 1209270" transform="translate(42.137 11.765)" opacity="0.1">
        <path id="Trazado_1053751" data-name="Trazado 1053751" d="M324.311,148.863v-4.614h-2.667v4.614a8.653,8.653,0,0,0,9.987,8.635A8.714,8.714,0,0,1,324.311,148.863Z" transform="translate(-321.644 -144.249)" fill="#37005e"/>
      </g>
      <path id="Trazado_1053752" data-name="Trazado 1053752" d="M368.554,205.3a3.186,3.186,0,0,1-2.97-2.01.569.569,0,0,1,.528-.781H371a.569.569,0,0,1,.528.781A3.186,3.186,0,0,1,368.554,205.3Z" transform="translate(-317.655 -183.108)" fill="#ff6a76"/>
      <path id="Trazado_1053753" data-name="Trazado 1053753" d="M323.275,61.943a9.7,9.7,0,0,0-9.712,9.69v1.093h19.425V71.633A9.7,9.7,0,0,0,323.275,61.943Z" transform="translate(-272.485 -60.961)" fill="#a75436"/>
      <g id="Grupo_1209271" data-name="Grupo 1209271" transform="translate(41.078 0.982)" opacity="0.1">
        <path id="Trazado_1053754" data-name="Trazado 1053754" d="M324.614,62.037a9.7,9.7,0,0,0-11.051,9.6v1.093h2.677V71.633A9.7,9.7,0,0,1,324.614,62.037Z" transform="translate(-313.563 -61.943)" fill="#37005e"/>
      </g>
      <path id="Trazado_1053755" data-name="Trazado 1053755" d="M63.359,372.216a.657.657,0,0,1-.655.655H56.67a.657.657,0,0,1-.655-.655v-2.362a.657.657,0,0,1,.655-.655H62.7a.657.657,0,0,1,.655.655Z" transform="translate(-48.677 -327.965)" fill="#89c947"/>
      <path id="Trazado_1053756" data-name="Trazado 1053756" d="M119.419,372.216a.657.657,0,0,1-.655.655H112.73a.657.657,0,0,1-.655-.655v-2.362a.657.657,0,0,1,.655-.655h6.034a.657.657,0,0,1,.655.655Z" transform="translate(-97.393 -327.965)" fill="#ff6a76"/>
      <path id="Trazado_1053757" data-name="Trazado 1053757" d="M175.479,372.216a.657.657,0,0,1-.655.655H168.79a.657.657,0,0,1-.655-.655v-2.362a.657.657,0,0,1,.655-.655h6.034a.657.657,0,0,1,.655.655Z" transform="translate(-146.109 -327.965)" fill="#0481bf"/>
      <path id="Trazado_1053758" data-name="Trazado 1053758" d="M231.541,372.216a.657.657,0,0,1-.655.655h-6.034a.657.657,0,0,1-.655-.655v-2.362a.657.657,0,0,1,.655-.655h6.034a.657.657,0,0,1,.655.655Z" transform="translate(-194.826 -327.965)" fill="#fcdb80"/>
      <path id="Trazado_1053759" data-name="Trazado 1053759" d="M287.6,372.216a.657.657,0,0,1-.655.655h-6.034a.657.657,0,0,1-.655-.655v-2.362a.657.657,0,0,1,.655-.655h6.034a.657.657,0,0,1,.655.655Z" transform="translate(-243.542 -327.965)" fill="#ff6a76"/>
      <path id="Trazado_1053760" data-name="Trazado 1053760" d="M343.662,372.216a.657.657,0,0,1-.655.655h-6.034a.657.657,0,0,1-.655-.655v-2.362a.657.657,0,0,1,.655-.655h6.034a.657.657,0,0,1,.655.655Z" transform="translate(-292.259 -327.965)" fill="#89c947"/>
      <path id="Trazado_1053761" data-name="Trazado 1053761" d="M399.722,372.216a.657.657,0,0,1-.655.655h-6.034a.657.657,0,0,1-.655-.655v-2.362a.657.657,0,0,1,.655-.655h6.034a.657.657,0,0,1,.655.655Z" transform="translate(-340.975 -327.965)" fill="#0481bf"/>
      <path id="Trazado_1053762" data-name="Trazado 1053762" d="M455.783,372.216a.657.657,0,0,1-.655.655h-6.034a.657.657,0,0,1-.655-.655v-2.362a.657.657,0,0,1,.655-.655h6.034a.657.657,0,0,1,.655.655Z" transform="translate(-389.692 -327.965)" fill="#fcdb80"/>
      <path id="Trazado_1053763" data-name="Trazado 1053763" d="M191.651,344.186a.657.657,0,0,1-.655.655h-6.034a.657.657,0,0,1-.655-.655v-2.362a.657.657,0,0,1,.655-.655H191a.657.657,0,0,1,.655.655Z" transform="translate(-160.162 -303.607)" fill="#ff6a76"/>
      <path id="Trazado_1053764" data-name="Trazado 1053764" d="M247.711,344.186a.657.657,0,0,1-.655.655h-6.034a.657.657,0,0,1-.655-.655v-2.362a.657.657,0,0,1,.655-.655h6.034a.657.657,0,0,1,.655.655Z" transform="translate(-208.878 -303.607)" fill="#0481bf"/>
      <path id="Trazado_1053765" data-name="Trazado 1053765" d="M303.772,344.186a.657.657,0,0,1-.655.655h-6.034a.657.657,0,0,1-.655-.655v-2.362a.657.657,0,0,1,.655-.655h6.034a.657.657,0,0,1,.655.655Z" transform="translate(-257.595 -303.607)" fill="#fcdb80"/>
      <path id="Trazado_1053766" data-name="Trazado 1053766" d="M359.834,344.186a.657.657,0,0,1-.655.655h-6.034a.657.657,0,0,1-.655-.655v-2.362a.657.657,0,0,1,.655-.655h6.034a.657.657,0,0,1,.655.655Z" transform="translate(-306.312 -303.607)" fill="#ff6a76"/>
      <g id="Grupo_1209272" data-name="Grupo 1209272" transform="translate(26.263 33.89)">
        <path id="Trazado_1053767" data-name="Trazado 1053767" d="M415.793,342.044l-.755.755a8.049,8.049,0,0,0-3.432-1.579c-.016-.016-.03-.034-.045-.051H409.2a.657.657,0,0,0-.655.655v2.362a.657.657,0,0,0,.655.655h6.034a.657.657,0,0,0,.655-.655v-2.257A1.345,1.345,0,0,1,415.793,342.044Z" transform="translate(-381.292 -337.497)" fill="#89c947"/>
        <path id="Trazado_1053768" data-name="Trazado 1053768" d="M207.822,316.156a.657.657,0,0,1-.655.655h-6.034a.657.657,0,0,1-.655-.655v-2.362a.657.657,0,0,1,.655-.655h6.034a.657.657,0,0,1,.655.655Z" transform="translate(-200.478 -313.139)" fill="#89c947"/>
      </g>
      <path id="Trazado_1053769" data-name="Trazado 1053769" d="M263.884,316.156a.657.657,0,0,1-.655.655H257.2a.657.657,0,0,1-.655-.655v-2.362a.657.657,0,0,1,.655-.655h6.034a.657.657,0,0,1,.655.655Z" transform="translate(-222.932 -279.249)" fill="#fcdb80"/>
      <path id="Trazado_1053770" data-name="Trazado 1053770" d="M319.944,316.156a.657.657,0,0,1-.655.655h-6.034a.657.657,0,0,1-.655-.655v-2.362a.657.657,0,0,1,.655-.655h6.034a.657.657,0,0,1,.655.655Z" transform="translate(-271.648 -279.249)" fill="#89c947"/>
      <g id="Grupo_1209273" data-name="Grupo 1209273" transform="translate(35.726 30.218)">
        <path id="Trazado_1053771" data-name="Trazado 1053771" d="M375.364,315.284a1.311,1.311,0,0,1,0-1.853l.24-.24a.651.651,0,0,0-.254-.051h-6.034a.657.657,0,0,0-.655.655v2.362a.657.657,0,0,0,.655.655h6.034a.657.657,0,0,0,.655-.655v-.523A1.3,1.3,0,0,1,375.364,315.284Z" transform="translate(-356.091 -309.467)" fill="#0481bf"/>
        <path id="Trazado_1053772" data-name="Trazado 1053772" d="M279.4,285.108h-4.283a1.309,1.309,0,0,1-1.174.731h-1.068a1.323,1.323,0,0,1-.164-.011v2.3a.657.657,0,0,0,.655.655H279.4a.657.657,0,0,0,.655-.655v-2.362A.657.657,0,0,0,279.4,285.108Z" transform="translate(-272.712 -285.108)" fill="#0481bf"/>
      </g>
      <path id="Trazado_1053773" data-name="Trazado 1053773" d="M336.115,288.126a.657.657,0,0,1-.655.655h-6.034a.657.657,0,0,1-.655-.655v-2.362a.657.657,0,0,1,.655-.655h6.034a.657.657,0,0,1,.655.655Z" transform="translate(-285.701 -254.891)" fill="#fcdb80"/>
      <path id="Trazado_1053774" data-name="Trazado 1053774" d="M423.045,310.211l-3.157-3.157a1.31,1.31,0,0,0-1.853,0l-.755.755a8.047,8.047,0,0,1,1.579,3.432,1.308,1.308,0,0,1,1.579,1.579,1.311,1.311,0,0,0,1.853,0l.755-.755A1.311,1.311,0,0,0,423.045,310.211Z" transform="translate(-362.281 -273.627)" fill="#ffd5b3"/>
      <path id="Trazado_1053775" data-name="Trazado 1053775" d="M129.121,425.044a.657.657,0,0,1-.655.655h-6.034a.657.657,0,0,1-.655-.655v-2.362a.657.657,0,0,1,.655-.655h6.034a.657.657,0,0,1,.655.655Z" transform="translate(-105.824 -373.872)" fill="#89c947"/>
      <path id="Trazado_1053776" data-name="Trazado 1053776" d="M429.283,425.044a.657.657,0,0,1-.655.655h-6.034a.657.657,0,0,1-.655-.655v-2.362a.657.657,0,0,1,.655-.655h6.034a.657.657,0,0,1,.655.655Z" transform="translate(-366.663 -373.872)" fill="#ff6a76"/>
      <path id="Trazado_1053777" data-name="Trazado 1053777" d="M10.517,341.169a.657.657,0,0,1,.655.655v6.034a.657.657,0,0,1-.655.655H8.155a.657.657,0,0,1-.655-.655v-6.034a.657.657,0,0,1,.655-.655Z" transform="translate(-6.517 -303.607)" fill="#0481bf"/>
      <path id="Trazado_1053778" data-name="Trazado 1053778" d="M286.508,227.97h-2.362a.657.657,0,0,0-.655.655v.489a6.151,6.151,0,0,0,1.13,3.529,1.307,1.307,0,0,0,0,2.233,1.306,1.306,0,0,1-.077.438h1.964a.657.657,0,0,0,.655-.655v-6.034A.657.657,0,0,0,286.508,227.97Z" transform="translate(-246.353 -205.237)" fill="#ff6a76"/>
      <path id="Trazado_1053779" data-name="Trazado 1053779" d="M263.957,237.906c0,.473,0,3.992,0,4.465a1.31,1.31,0,0,0,1.31,1.31h1.068a8.041,8.041,0,0,1,1.311-3.543,1.308,1.308,0,0,1,0-2.233,1.311,1.311,0,0,0-1.31-1.311h-1.068A1.31,1.31,0,0,0,263.957,237.906Z" transform="translate(-229.378 -212.733)" fill="#ffd5b3"/>
      <path id="Trazado_1053780" data-name="Trazado 1053780" d="M143.357,172.519h.309a1.454,1.454,0,0,0,1.451-1.454v-.737a.983.983,0,1,0-1.965,0v.248a.983.983,0,0,0,.205,1.944Z" transform="translate(-123.722 -154.293)"/>
      <path id="Trazado_1053781" data-name="Trazado 1053781" d="M177.614,161.068a.982.982,0,0,0,.983-.983v-1.1a.983.983,0,0,0-1.965,0v1.1A.982.982,0,0,0,177.614,161.068Z" transform="translate(-153.492 -144.436)"/>
      <path id="Trazado_1053782" data-name="Trazado 1053782" d="M118.336,161.068a.982.982,0,0,0,.983-.983v-1.1a.983.983,0,0,0-1.965,0v1.1A.982.982,0,0,0,118.336,161.068Z" transform="translate(-101.979 -144.436)"/>
      <path id="Trazado_1053783" data-name="Trazado 1053783" d="M124.941,196.913a3.993,3.993,0,0,0,7.409,0,.983.983,0,1,0-1.823-.734,2.028,2.028,0,0,1-3.762,0,.983.983,0,0,0-1.823.733Z" transform="translate(-108.511 -177.076)"/>
      <path id="Trazado_1053784" data-name="Trazado 1053784" d="M380.318,169.584h.317a.983.983,0,0,0,.186-1.948v-.277a.983.983,0,0,0-1.965,0v.757A1.467,1.467,0,0,0,380.318,169.584Z" transform="translate(-329.224 -151.713)"/>
      <path id="Trazado_1053785" data-name="Trazado 1053785" d="M350.794,162.09a.982.982,0,0,0,.983-.983v-1.131a.983.983,0,1,0-1.965,0v1.131A.982.982,0,0,0,350.794,162.09Z" transform="translate(-303.984 -145.298)"/>
      <path id="Trazado_1053786" data-name="Trazado 1053786" d="M411.575,162.09a.982.982,0,0,0,.983-.983v-1.131a.983.983,0,0,0-1.965,0v1.131A.982.982,0,0,0,411.575,162.09Z" transform="translate(-356.803 -145.298)"/>
      <path id="Trazado_1053787" data-name="Trazado 1053787" d="M358.308,195.687a1.548,1.548,0,0,0-.155,1.447,4.182,4.182,0,0,0,7.763,0,1.551,1.551,0,0,0-1.44-2.129h-4.884A1.549,1.549,0,0,0,358.308,195.687Zm5.453,1.283a2.218,2.218,0,0,1-3.453,0Z" transform="translate(-311.136 -176.591)"/>
      <path id="Trazado_1053788" data-name="Trazado 1053788" d="M121.949,414.526h-6.034a1.639,1.639,0,0,0-1.638,1.638v2.362a1.639,1.639,0,0,0,1.638,1.638h6.034a1.639,1.639,0,0,0,1.638-1.638v-2.362A1.639,1.639,0,0,0,121.949,414.526Zm-.328,3.672h-5.379v-1.707h5.379Z" transform="translate(-99.306 -367.354)"/>
      <path id="Trazado_1053789" data-name="Trazado 1053789" d="M422.111,414.526h-6.034a1.639,1.639,0,0,0-1.638,1.638v2.362a1.639,1.639,0,0,0,1.638,1.638h6.034a1.639,1.639,0,0,0,1.638-1.638v-2.362A1.639,1.639,0,0,0,422.111,414.526Zm-.327,3.672H416.4v-1.707h5.379Z" transform="translate(-360.146 -367.354)"/>
      <path id="Trazado_1053790" data-name="Trazado 1053790" d="M4,333.669H1.638A1.639,1.639,0,0,0,0,335.307v6.034a1.639,1.639,0,0,0,1.638,1.638H4a1.639,1.639,0,0,0,1.638-1.638v-6.034A1.639,1.639,0,0,0,4,333.669Zm-.328,7.344H1.965v-5.379H3.672Z" transform="translate(0 -297.089)"/>
      <path id="Trazado_1053791" data-name="Trazado 1053791" d="M107.6,94.7h-3.588V93.054a2.3,2.3,0,0,0-.389-2.721l-1.362-1.362V85.588a9.328,9.328,0,0,0-.12-1.491.983.983,0,1,0-1.94.315,7.362,7.362,0,0,1,.094,1.176v1.434a2.293,2.293,0,0,0-3.074.153l-.176.176H93.557V85.317A1.639,1.639,0,0,0,91.92,83.68H85.864a7.346,7.346,0,0,1,2.9-4.1q.388.19.795.345a3.392,3.392,0,0,0,6.776,0q.406-.155.795-.345a7.353,7.353,0,0,1,1.4,1.258.983.983,0,0,0,1.491-1.28,9.314,9.314,0,0,0-1.116-1.1,9.748,9.748,0,0,0,3.46-5.565h.137a2.951,2.951,0,0,0,2.948-2.948v-1.81a2.952,2.952,0,0,0-1.8-2.717v-.3a10.652,10.652,0,0,0-1.426-5.327.982.982,0,1,0-1.7.984,8.685,8.685,0,0,1,1.162,4.343v.07h-.087c0,.013,0,.027,0,.04H98.1V64.153a.983.983,0,0,0-1.965,0v1.074h-2.15V64.153a.983.983,0,0,0-1.965,0v1.074h-2.15V64.153a.983.983,0,0,0-1.965,0v1.074h-3.6c0-.013,0-.027,0-.04h-.087v-.07a8.736,8.736,0,0,1,13.711-7.152.983.983,0,1,0,1.121-1.614,10.7,10.7,0,0,0-16.8,8.765v.3a2.952,2.952,0,0,0-1.8,2.717v1.81A2.951,2.951,0,0,0,83.4,72.892h.137A9.749,9.749,0,0,0,87,78.457a9.3,9.3,0,0,0-3.044,4.756V77.832a1.639,1.639,0,0,0-1.638-1.638H79.954a1.64,1.64,0,0,0-1.556,1.13H78.05a2.3,2.3,0,0,0-2.293,2.293c0,.473,0,3.993,0,4.466A2.281,2.281,0,0,0,76.9,86.067v1.285h-.481a1.627,1.627,0,0,0-.655.138,1.627,1.627,0,0,0-.655-.138h-.287a2.293,2.293,0,0,0-.583-2.243l-3.158-3.158a2.279,2.279,0,0,0-1.016-.589A9.312,9.312,0,0,0,67.7,77.816a9.512,9.512,0,0,0,2.89-4.541h.1a2.813,2.813,0,0,0,2.81-2.81V68.532a2.811,2.811,0,0,0-1.509-2.488c0-.008,0-.016,0-.024v-.379a10.281,10.281,0,0,0-.881-4.184.983.983,0,0,0-1.8.795,8.331,8.331,0,0,1,.713,3.39v.081H62.264l-2.337-2.029a.983.983,0,0,0-1.439.164l-1.357,1.865H53.043v-.081a8.494,8.494,0,0,1,13.788-6.6.983.983,0,1,0,1.225-1.537,10.459,10.459,0,0,0-16.978,8.134s.008.538.019.615a2.8,2.8,0,0,0-1.169,2.276v1.933a2.813,2.813,0,0,0,2.551,2.8,9.519,9.519,0,0,0,2.706,4.387,9.254,9.254,0,0,0-3.145,6.95v.315a2.294,2.294,0,0,0,0,2.993v3.136a1.638,1.638,0,0,0-1.406,1.619V94.7h-.481a1.639,1.639,0,0,0-1.638,1.638V98.7a1.639,1.639,0,0,0,1.638,1.638h6.034a1.627,1.627,0,0,0,.655-.138,1.627,1.627,0,0,0,.655.138h6.034a1.627,1.627,0,0,0,.655-.138,1.627,1.627,0,0,0,.655.138h6.034a1.627,1.627,0,0,0,.655-.138,1.627,1.627,0,0,0,.655.138H78.22a1.627,1.627,0,0,0,.655-.138,1.627,1.627,0,0,0,.655.138h6.034a1.627,1.627,0,0,0,.655-.138,1.627,1.627,0,0,0,.655.138h6.034a1.627,1.627,0,0,0,.655-.138,1.627,1.627,0,0,0,.655.138h6.034a1.627,1.627,0,0,0,.655-.138,1.627,1.627,0,0,0,.655.138H107.6a1.639,1.639,0,0,0,1.638-1.638V96.334A1.64,1.64,0,0,0,107.6,94.7Zm-5.01-23.873V67.191h.076c.032,0,.064,0,.1,0a.983.983,0,0,1,.727.947v1.81a.983.983,0,0,1-.9.978C102.585,70.889,102.587,70.856,102.587,70.823Zm-20.17-.879v-1.81a.983.983,0,0,1,.727-.947c.031,0,.063,0,.1,0h.076v3.631c0,.033,0,.066,0,.1A.984.984,0,0,1,82.417,69.944ZM92.951,81.181a1.428,1.428,0,0,1-1.239-.718,9.548,9.548,0,0,0,2.477,0A1.428,1.428,0,0,1,92.951,81.181ZM85.279,70.823V67.191h15.342v3.631a7.672,7.672,0,1,1-15.342,0Zm11.049,20.2h-4.89V89.317h4.368A2.292,2.292,0,0,0,96.328,91.024ZM84.095,89.317h5.379v1.707H84.095Zm7.5-1.965H86.213V85.645h5.379Zm-9.6-3.813h-.643a2.267,2.267,0,0,0-.223-.572,2.3,2.3,0,0,0,0-2.233,2.294,2.294,0,0,0-.236-2.574h1.1v5.379Zm-4.266-3.921a.328.328,0,0,1,.328-.328h1.067a.327.327,0,0,1,.17.607.983.983,0,0,0,0,1.675.325.325,0,0,1,0,.558.983.983,0,0,0,0,1.675.327.327,0,0,1-.17.607H78.05a.328.328,0,0,1-.328-.328C77.722,83.609,77.722,80.09,77.722,79.617Zm1.147,6.758h.249a2.285,2.285,0,0,0,1.673-.731h3.456v1.707H78.869ZM76.75,89.317h5.379v1.707H76.75V89.317ZM60.1,91.024H54.718V89.449a2.276,2.276,0,0,0,.6-.132H60.1v1.707Zm-2.178-6.785a.319.319,0,0,1-.23.095.343.343,0,0,1-.079-.009.982.982,0,0,0-1.184,1.184.326.326,0,0,1-.085.309.32.32,0,0,1-.23.095.339.339,0,0,1-.079-.009.983.983,0,0,0-1.185,1.184.327.327,0,0,1-.549.31l-.755-.755a.328.328,0,0,1,0-.464L56.7,83.021a.328.328,0,0,1,.464,0l.755.755A.328.328,0,0,1,57.919,84.239Zm-.349,3.113c.055-.046.109-.093.16-.144a2.285,2.285,0,0,0,.586-.995,2.276,2.276,0,0,0,.976-.568h2.923v1.707H57.57Zm4.492,1.965h5.379v1.707H62.062Zm2.119-1.965V85.645h2.655a2.257,2.257,0,0,0,1.245.888,2.278,2.278,0,0,0,.429.819Zm5.226,1.965h1.085a2.274,2.274,0,0,0,1.375.461h0a2.273,2.273,0,0,0,1.374-.461h1.544v1.707H69.406V89.317ZM72.853,86.5a.328.328,0,0,1,0,.464l-.754.755a.327.327,0,0,1-.232.1h0a.326.326,0,0,1-.317-.405.983.983,0,0,0-1.185-1.184.338.338,0,0,1-.079.009.319.319,0,0,1-.23-.094.327.327,0,0,1-.086-.309.982.982,0,0,0-1.184-1.184.343.343,0,0,1-.079.009.319.319,0,0,1-.23-.095.328.328,0,0,1,0-.464l.755-.755a.328.328,0,0,1,.464,0ZM71.531,70.465a.846.846,0,0,1-.6.808c.013-.207.023-.415.023-.625V67.732a.845.845,0,0,1,.575.8v1.933ZM54.547,73.27a.982.982,0,0,0-.084-1.961H52.739a.846.846,0,0,1-.845-.845V68.532a.846.846,0,0,1,.845-.845h.678v1.5a.983.983,0,1,0,1.965,0v-1.5h1.9A1.676,1.676,0,0,0,58.633,67l.815-1.12,1.611,1.4a1.672,1.672,0,0,0,1.1.41h6.836v2.96A7.447,7.447,0,0,1,54.547,73.27ZM62.7,80.06a1.369,1.369,0,0,1-2.331,0,9.216,9.216,0,0,0,2.331,0Zm-5.893-1.209a9.341,9.341,0,0,0,1.4.671,3.333,3.333,0,0,0,6.657,0,9.341,9.341,0,0,0,1.182-.547A7.361,7.361,0,0,1,68.1,81.729a2.31,2.31,0,0,0-.26.221l-.755.755a2.278,2.278,0,0,0-.577.974H63.853a1.627,1.627,0,0,0-.655.138,1.627,1.627,0,0,0-.655-.138h-2.59a2.279,2.279,0,0,0-.645-1.294l-.755-.755a2.293,2.293,0,0,0-3.243,0l-1.049,1.049A7.339,7.339,0,0,1,56.807,78.851ZM55.86,98.368H50.481V96.661H55.86ZM52.6,94.7V92.989h5.379V94.7Zm10.6,3.672H57.825V96.661H63.2ZM59.943,94.7V92.989h5.379V94.7Zm10.6,3.672H65.169V96.661h5.379ZM67.288,94.7V92.989h5.379V94.7Zm10.6,3.672H72.513V96.661h5.379ZM74.632,94.7V92.989h5.379V94.7Zm10.6,3.672H79.857V96.661h5.379ZM81.976,94.7V92.989h5.379V94.7Zm10.6,3.672H87.2V96.661h5.379ZM89.32,94.7V92.989H94.7V94.7Zm10.6,3.672H94.546V96.661h5.379ZM96.664,94.7V92.989h1.657a2.264,2.264,0,0,0,.715.348A2.285,2.285,0,0,0,100.1,94.7Zm4.811-1.754a.327.327,0,0,1-.549-.309.982.982,0,0,0-1.185-1.184.339.339,0,0,1-.079.009.319.319,0,0,1-.23-.095.326.326,0,0,1-.086-.309.982.982,0,0,0-1.184-1.184.343.343,0,0,1-.079.009.319.319,0,0,1-.23-.095.329.329,0,0,1,0-.464l.755-.755a.328.328,0,0,1,.464,0l3.157,3.157a.329.329,0,0,1,0,.464Zm5.794,5.426H101.89V96.661h5.379Z" transform="translate(-42.16 -54.444)"/>
    </g>
  </g>
</svg>
