<svg xmlns="http://www.w3.org/2000/svg" xmlns:xlink="http://www.w3.org/1999/xlink" width="1328" height="521" viewBox="0 0 1328 521">
  <defs>
    <radialGradient id="radial-gradient" cx="0.5" cy="0.5" r="0.558" gradientTransform="translate(0.09) scale(0.82 1)" gradientUnits="objectBoundingBox">
      <stop offset="0" stop-color="#eaf2fb"/>
      <stop offset="1" stop-color="#c8d9eb"/>
    </radialGradient>
    <clipPath id="clip-path">
      <rect id="Rectángulo_418628" data-name="Rectángulo 418628" width="1328" height="521" transform="translate(136 1917)" fill="#fff" stroke="#707070" stroke-width="1"/>
    </clipPath>
  </defs>
  <g id="Grupo_1210528" data-name="Grupo 1210528" transform="translate(-136 -1917)">
    <rect id="Rectángulo_418604" data-name="Rectángulo 418604" width="1328" height="500" transform="translate(136 1938)" fill="#eaeaea"/>
    <g id="Grupo_1208358" data-name="Grupo 1208358" transform="translate(443.665 1938)">
      <path id="Trazado_1052719" data-name="Trazado 1052719" d="M1,477.11a.991.991,0,0,1-.66-.25.989.989,0,0,1-.09-1.41l61.77-70.44a1,1,0,0,1,1.5,1.32L1.75,476.77A.977.977,0,0,1,1,477.11Z" fill="#c1c1c1"/>
      <path id="Trazado_1052720" data-name="Trazado 1052720" d="M8,477.11a.994.994,0,0,1-.75-1.65l60.77-70.44a1,1,0,1,1,1.51,1.31L8.76,476.77a1.008,1.008,0,0,1-.76.35Z" fill="#c1c1c1"/>
      <path id="Trazado_1052721" data-name="Trazado 1052721" d="M523.22,477.11a1.012,1.012,0,0,1-.75-.34L460.7,406.33a1,1,0,1,1,1.5-1.32l61.77,70.44a1.006,1.006,0,0,1-.09,1.41A.973.973,0,0,1,523.22,477.11Z" transform="translate(147.79)" fill="#c1c1c1"/>
      <path id="Trazado_1052722" data-name="Trazado 1052722" d="M516.22,477.11a1.008,1.008,0,0,1-.76-.35l-60.77-70.44a1,1,0,0,1,1.51-1.31l60.77,70.44a.994.994,0,0,1-.75,1.65Z" transform="translate(147.79)" fill="#c1c1c1"/>
    </g>
    <rect id="Rectángulo_418606" data-name="Rectángulo 418606" width="1328" height="431" transform="translate(136 1917)" fill="url(#radial-gradient)"/>
    <g id="Grupo_1208359" data-name="Grupo 1208359">
      <rect id="Rectángulo_418607" data-name="Rectángulo 418607" width="42" height="18.17" transform="translate(546.34 2090.99)" fill="#adc4dd" opacity="0.3"/>
      <rect id="Rectángulo_418608" data-name="Rectángulo 418608" width="45" height="12.53" transform="translate(567.34 2112.85)" fill="#adc4dd" opacity="0.3"/>
      <rect id="Rectángulo_418609" data-name="Rectángulo 418609" width="28" height="21.78" transform="translate(536.67 2112.55)" fill="#adc4dd" opacity="0.3"/>
    </g>
    <g id="Grupo_1208360" data-name="Grupo 1208360" transform="translate(-384 158.96)">
      <rect id="Rectángulo_418607-2" data-name="Rectángulo 418607" width="42" height="18.17" transform="translate(546.34 2090.99)" fill="#adc4dd" opacity="0.3"/>
      <rect id="Rectángulo_418608-2" data-name="Rectángulo 418608" width="45" height="12.53" transform="translate(567.34 2112.85)" fill="#adc4dd" opacity="0.3"/>
      <rect id="Rectángulo_418609-2" data-name="Rectángulo 418609" width="28" height="21.78" transform="translate(536.67 2112.55)" fill="#adc4dd" opacity="0.3"/>
    </g>
    <rect id="Rectángulo_418610" data-name="Rectángulo 418610" width="38.33" height="22.6" transform="translate(802.67 2066.5)" fill="#adc4dd" opacity="0.3"/>
    <rect id="Rectángulo_418611" data-name="Rectángulo 418611" width="30.21" height="17.8" transform="translate(827.54 2044.33)" fill="#adc4dd" opacity="0.3"/>
    <rect id="Rectángulo_418612" data-name="Rectángulo 418612" width="33.33" height="21.29" transform="translate(981 2203.04)" fill="#adc4dd" opacity="0.3"/>
    <rect id="Rectángulo_418613" data-name="Rectángulo 418613" width="26.67" height="11.46" transform="translate(971 2230.2)" fill="#adc4dd" opacity="0.3"/>
    <rect id="Rectángulo_418614" data-name="Rectángulo 418614" width="24" height="18.8" transform="translate(1002.33 2230.2)" fill="#adc4dd" opacity="0.3"/>
    <rect id="Rectángulo_418615" data-name="Rectángulo 418615" width="26.67" height="18.75" transform="translate(992.33 2059.05)" fill="#adc4dd" opacity="0.3"/>
    <rect id="Rectángulo_418622" data-name="Rectángulo 418622" width="26.67" height="18.75" transform="translate(1348.33 2205.58)" fill="#adc4dd" opacity="0.3"/>
    <rect id="Rectángulo_418621" data-name="Rectángulo 418621" width="26.67" height="18.75" transform="translate(662.291 1945.05)" fill="#adc4dd" opacity="0.3"/>
    <g id="Grupo_1208361" data-name="Grupo 1208361">
      <rect id="Rectángulo_418616" data-name="Rectángulo 418616" width="51.33" height="17.92" transform="translate(561 2284.33)" fill="#adc4dd" opacity="0.3"/>
      <rect id="Rectángulo_418617" data-name="Rectángulo 418617" width="43.33" height="16.37" transform="translate(588.34 2305.3)" fill="#adc4dd" opacity="0.3"/>
      <rect id="Rectángulo_418618" data-name="Rectángulo 418618" width="30.7" height="13.79" transform="translate(597.67 2264.54)" fill="#adc4dd" opacity="0.3"/>
    </g>
    <g id="Grupo_1208362" data-name="Grupo 1208362" transform="translate(260.151 1983.324)">
      <rect id="Rectángulo_418616-2" data-name="Rectángulo 418616" width="51.33" height="17.92" transform="translate(19.34 19.42)" fill="#adc4dd" opacity="0.3"/>
      <rect id="Rectángulo_418617-2" data-name="Rectángulo 418617" width="43.33" height="16.37" transform="translate(0 0)" fill="#adc4dd" opacity="0.3"/>
      <rect id="Rectángulo_418618-2" data-name="Rectángulo 418618" width="30.7" height="13.79" transform="translate(3.3 43.34)" fill="#adc4dd" opacity="0.3"/>
    </g>
    <rect id="Rectángulo_418619" data-name="Rectángulo 418619" width="35.33" height="17.79" transform="translate(942.33 2281.21)" fill="#adc4dd" opacity="0.3"/>
    <rect id="Rectángulo_418620" data-name="Rectángulo 418620" width="37.67" height="16.37" transform="translate(960 2303.3)" fill="#adc4dd" opacity="0.3"/>
    <path id="Trazado_1052723" data-name="Trazado 1052723" d="M75.59,420.84c0,.43-1.83.77-4.1.77s-4.1-.35-4.1-.77,1.83-.77,4.1-.77S75.59,420.42,75.59,420.84Z" transform="translate(517.56 1938)" fill="#c1c1c1"/>
    <path id="Trazado_1052724" data-name="Trazado 1052724" d="M86.26,422.38c0,.43-1.07.77-2.4.77s-2.4-.35-2.4-.77,1.07-.77,2.4-.77S86.26,421.96,86.26,422.38Z" transform="translate(517.56 1938)" fill="#c1c1c1"/>
    <ellipse id="Elipse_13486" data-name="Elipse 13486" cx="4.99" cy="0.85" rx="4.99" ry="0.85" transform="translate(579.07 2366.11)" fill="#c1c1c1"/>
    <path id="Trazado_1052725" data-name="Trazado 1052725" d="M125.23,462.59c0,.26-1.04.46-2.32.46s-2.32-.21-2.32-.46,1.04-.46,2.32-.46S125.23,462.34,125.23,462.59Z" transform="translate(517.56 1938)" fill="#c1c1c1"/>
    <path id="Trazado_1052726" data-name="Trazado 1052726" d="M137.44,464.29c0,.68-1.94,1.24-4.33,1.24s-4.33-.55-4.33-1.24,1.94-1.24,4.33-1.24S137.44,463.6,137.44,464.29Z" transform="translate(517.56 1938)" fill="#c1c1c1"/>
    <path id="Trazado_1052727" data-name="Trazado 1052727" d="M126.93,467.08c0,.17-.69.31-1.55.31s-1.55-.14-1.55-.31.69-.31,1.55-.31S126.93,466.91,126.93,467.08Z" transform="translate(517.56 1938)" fill="#c1c1c1"/>
    <path id="Trazado_1052728" data-name="Trazado 1052728" d="M152.6,462.59c0,.26-.83.46-1.86.46s-1.86-.21-1.86-.46.83-.46,1.86-.46S152.6,462.34,152.6,462.59Z" transform="translate(517.56 1938)" fill="#c1c1c1"/>
    <path id="Trazado_1052729" data-name="Trazado 1052729" d="M468.8,437.38c0,.43,1.83.77,4.1.77s4.1-.35,4.1-.77-1.83-.77-4.1-.77S468.8,436.96,468.8,437.38Z" transform="translate(517.56 1938)" fill="#c1c1c1"/>
    <path id="Trazado_1052730" data-name="Trazado 1052730" d="M458.13,438.93c0,.43,1.07.77,2.4.77s2.4-.35,2.4-.77-1.07-.77-2.4-.77S458.13,438.51,458.13,438.93Z" transform="translate(517.56 1938)" fill="#c1c1c1"/>
    <path id="Trazado_1052731" data-name="Trazado 1052731" d="M472.89,445.5c0,.47,2.23.85,4.99.85s4.99-.38,4.99-.85-2.23-.85-4.99-.85S472.89,445.03,472.89,445.5Z" transform="translate(517.56 1938)" fill="#c1c1c1"/>
    <path id="Trazado_1052732" data-name="Trazado 1052732" d="M419.16,479.13c0,.26,1.04.46,2.32.46s2.32-.21,2.32-.46-1.04-.46-2.32-.46S419.16,478.88,419.16,479.13Z" transform="translate(517.56 1938)" fill="#c1c1c1"/>
    <path id="Trazado_1052733" data-name="Trazado 1052733" d="M406.94,480.84c0,.68,1.94,1.24,4.33,1.24s4.33-.55,4.33-1.24-1.94-1.24-4.33-1.24S406.94,480.15,406.94,480.84Z" transform="translate(517.56 1938)" fill="#c1c1c1"/>
    <path id="Trazado_1052734" data-name="Trazado 1052734" d="M417.45,483.62c0,.17.69.31,1.55.31s1.55-.14,1.55-.31-.69-.31-1.55-.31S417.45,483.45,417.45,483.62Z" transform="translate(517.56 1938)" fill="#c1c1c1"/>
    <path id="Trazado_1052735" data-name="Trazado 1052735" d="M391.78,479.13c0,.26.83.46,1.86.46s1.86-.21,1.86-.46-.83-.46-1.86-.46S391.78,478.88,391.78,479.13Z" transform="translate(517.56 1938)" fill="#c1c1c1"/>
    <path id="Trazado_1052736" data-name="Trazado 1052736" d="M27.48,419.56c0,.28-1.79.5-4.01.5s-4.01-.22-4.01-.5,1.79-.5,4.01-.5S27.48,419.28,27.48,419.56Z" transform="translate(517.56 1938)" fill="#c1c1c1"/>
    <path id="Trazado_1052737" data-name="Trazado 1052737" d="M33.93,422.38c0,.43-1.05.77-2.35.77s-2.35-.35-2.35-.77,1.05-.77,2.35-.77S33.93,421.96,33.93,422.38Z" transform="translate(517.56 1938)" fill="#c1c1c1"/>
    <path id="Trazado_1052738" data-name="Trazado 1052738" d="M25.53,433.57a10.483,10.483,0,0,1-3.03.23,10.082,10.082,0,0,1-3.03-.23,10.082,10.082,0,0,1,3.03-.23A10.082,10.082,0,0,1,25.53,433.57Z" transform="translate(517.56 1938)" fill="#c1c1c1"/>
    <path id="Trazado_1052739" data-name="Trazado 1052739" d="M33.93,480.37c0,.27-1.44.49-3.23.49s-3.23-.22-3.23-.49,1.44-.49,3.23-.49S33.93,480.1,33.93,480.37Z" transform="translate(517.56 1938)" fill="#c1c1c1"/>
    <path id="Trazado_1052740" data-name="Trazado 1052740" d="M55.84,470.88c0,.54-1.44.98-3.23.98s-3.23-.44-3.23-.98,1.44-.98,3.23-.98S55.84,470.34,55.84,470.88Z" transform="translate(517.56 1938)" fill="#c1c1c1"/>
    <path id="Trazado_1052741" data-name="Trazado 1052741" d="M103.36,483.4c0,.22-1.23.39-2.74.39s-2.74-.17-2.74-.39,1.23-.39,2.74-.39S103.36,483.18,103.36,483.4Z" transform="translate(517.56 1938)" fill="#c1c1c1"/>
    <path id="Trazado_1052742" data-name="Trazado 1052742" d="M204.46,420.82c0,.23-1.49.41-3.32.41s-3.32-.18-3.32-.41,1.49-.41,3.32-.41S204.46,420.59,204.46,420.82Z" transform="translate(517.56 1938)" fill="#c1c1c1"/>
    <path id="Trazado_1052743" data-name="Trazado 1052743" d="M213.26,430.4c0,.43-.94.78-2.09.78s-2.09-.35-2.09-.78.94-.78,2.09-.78S213.26,429.97,213.26,430.4Z" transform="translate(517.56 1938)" fill="#c1c1c1"/>
    <path id="Trazado_1052744" data-name="Trazado 1052744" d="M229.49,459.74c0,.43-1.71.78-3.81.78s-3.81-.35-3.81-.78,1.71-.78,3.81-.78S229.49,459.31,229.49,459.74Z" transform="translate(517.56 1938)" fill="#c1c1c1"/>
    <path id="Trazado_1052745" data-name="Trazado 1052745" d="M242.38,462.82a9.25,9.25,0,0,1-4.1,0,9.25,9.25,0,0,1,4.1,0Z" transform="translate(517.56 1938)" fill="#c1c1c1"/>
    <path id="Trazado_1052746" data-name="Trazado 1052746" d="M257.26,419.74c0,.37-.79.67-1.76.67s-1.76-.3-1.76-.67.79-.68,1.76-.68S257.26,419.36,257.26,419.74Z" transform="translate(517.56 1938)" fill="#c1c1c1"/>
    <path id="Trazado_1052747" data-name="Trazado 1052747" d="M331.18,419.94c0,.49-2.68.88-6,.88s-5.99-.39-5.99-.88,2.68-.88,5.99-.88S331.18,419.45,331.18,419.94Z" transform="translate(517.56 1938)" fill="#c1c1c1"/>
    <path id="Trazado_1052748" data-name="Trazado 1052748" d="M325.19,463.56c0,.41-1.34.73-3,.73s-3-.33-3-.73,1.34-.74,3-.74S325.19,463.15,325.19,463.56Z" transform="translate(517.56 1938)" fill="#c1c1c1"/>
    <path id="Trazado_1052749" data-name="Trazado 1052749" d="M427.98,420.38c0,.24-.94.44-2.09.44s-2.09-.2-2.09-.44.94-.44,2.09-.44S427.98,420.14,427.98,420.38Z" transform="translate(517.56 1938)" fill="#c1c1c1"/>
    <path id="Trazado_1052750" data-name="Trazado 1052750" d="M492.12,419.5c0,.24-1.18.44-2.64.44s-2.64-.2-2.64-.44,1.18-.44,2.64-.44S492.12,419.26,492.12,419.5Z" transform="translate(517.56 1938)" fill="#c1c1c1"/>
    <path id="Trazado_1052751" data-name="Trazado 1052751" d="M493.1,479.13c0,.26-.81.46-1.81.46s-1.81-.21-1.81-.46.81-.46,1.81-.46S493.1,478.88,493.1,479.13Z" transform="translate(517.56 1938)" fill="#c1c1c1"/>
    <g id="Grupo_1208364" data-name="Grupo 1208364" transform="translate(625.178 158.96)">
      <rect id="Rectángulo_418607-3" data-name="Rectángulo 418607" width="42" height="18.17" transform="translate(546.34 2090.99)" fill="#adc4dd" opacity="0.3"/>
      <rect id="Rectángulo_418608-3" data-name="Rectángulo 418608" width="45" height="12.53" transform="translate(567.34 2112.85)" fill="#adc4dd" opacity="0.3"/>
      <rect id="Rectángulo_418609-3" data-name="Rectángulo 418609" width="28" height="21.78" transform="translate(536.67 2112.55)" fill="#adc4dd" opacity="0.3"/>
    </g>
    <g id="Grupo_1208363" data-name="Grupo 1208363" transform="translate(1269.33 1983.324)">
      <rect id="Rectángulo_418616-3" data-name="Rectángulo 418616" width="51.33" height="17.92" transform="translate(19.34 19.42)" fill="#adc4dd" opacity="0.3"/>
      <rect id="Rectángulo_418617-3" data-name="Rectángulo 418617" width="43.33" height="16.37" transform="translate(0 0)" fill="#adc4dd" opacity="0.3"/>
      <rect id="Rectángulo_418618-3" data-name="Rectángulo 418618" width="30.7" height="13.79" transform="translate(3.3 43.34)" fill="#adc4dd" opacity="0.3"/>
    </g>
  </g>
</svg>
