<svg xmlns="http://www.w3.org/2000/svg" width="34.773" height="36.538" viewBox="0 0 34.773 36.538">
  <g id="love_8385128" transform="translate(-19.483 -7)">
    <line id="Línea_857" data-name="Línea 857" x2="2.221" transform="translate(49.086 13.053)" fill="none" stroke="#000" stroke-linecap="round" stroke-linejoin="round" stroke-miterlimit="10" stroke-width="1"/>
    <line id="Línea_858" data-name="Línea 858" y1="1.469" x2="1.666" transform="translate(47.975 8.646)" fill="none" stroke="#000" stroke-linecap="round" stroke-linejoin="round" stroke-miterlimit="10" stroke-width="1"/>
    <line id="Línea_859" data-name="Línea 859" x2="1.666" y2="1.469" transform="translate(47.975 15.991)" fill="none" stroke="#000" stroke-linecap="round" stroke-linejoin="round" stroke-miterlimit="10" stroke-width="1"/>
    <line id="Línea_860" data-name="Línea 860" x1="2.221" transform="translate(22.433 13.053)" fill="none" stroke="#000" stroke-linecap="round" stroke-linejoin="round" stroke-miterlimit="10" stroke-width="1"/>
    <line id="Línea_861" data-name="Línea 861" x1="1.666" y1="1.469" transform="translate(24.099 8.646)" fill="none" stroke="#000" stroke-linecap="round" stroke-linejoin="round" stroke-miterlimit="10" stroke-width="1"/>
    <line id="Línea_862" data-name="Línea 862" x1="1.666" y2="1.469" transform="translate(24.099 15.991)" fill="none" stroke="#000" stroke-linecap="round" stroke-linejoin="round" stroke-miterlimit="10" stroke-width="1"/>
    <path id="Trazado_1053057" data-name="Trazado 1053057" d="M51.461,258.634l-.385-1.925a.558.558,0,0,1,.116-.484.6.6,0,0,1,.453-.226.614.614,0,0,1,.2.034l1.7.566" transform="translate(-28.846 -230.73)" fill="none" stroke="#000" stroke-linecap="round" stroke-linejoin="round" stroke-miterlimit="10" stroke-width="1"/>
    <path id="Trazado_1053058" data-name="Trazado 1053058" d="M428.4,258.634l.385-1.925a.558.558,0,0,0-.117-.484.6.6,0,0,0-.453-.226.613.613,0,0,0-.2.034l-1.7.566" transform="translate(-377.272 -230.73)" fill="none" stroke="#000" stroke-linecap="round" stroke-linejoin="round" stroke-miterlimit="10" stroke-width="1"/>
    <path id="Trazado_1053059" data-name="Trazado 1053059" d="M252.593,287.062v2.655A1.788,1.788,0,0,1,250.8,291.5h-.867" transform="translate(-213.502 -259.572)" fill="none" stroke="#000" stroke-linecap="round" stroke-linejoin="round" stroke-miterlimit="10" stroke-width="1"/>
    <path id="Trazado_1053060" data-name="Trazado 1053060" d="M199.53,399.55a6.663,6.663,0,0,1-9.423,0" transform="translate(-157.949 -364.017)" fill="none" stroke="#000" stroke-linecap="round" stroke-linejoin="round" stroke-miterlimit="10" stroke-width="1"/>
    <path id="Trazado_1053061" data-name="Trazado 1053061" d="M84.569,197.677a11.8,11.8,0,0,0,8.854,3.988h0a11.821,11.821,0,0,0,11.8-11.084l.7-11.153q.034-.547.022-1.085H80.906q-.012.537.021,1.085l.7,11.153a11.779,11.779,0,0,0,1.5,5.063" transform="translate(-56.553 -158.628)" fill="none" stroke="#000" stroke-linecap="round" stroke-linejoin="round" stroke-miterlimit="10" stroke-width="1"/>
    <path id="Trazado_1053062" data-name="Trazado 1053062" d="M431.1,233.452a4.279,4.279,0,0,0,1.224-2.242l.581-2.906a2.811,2.811,0,0,0-3.646-3.218l-.845.282" transform="translate(-379.212 -201.89)" fill="none" stroke="#000" stroke-linecap="round" stroke-linejoin="round" stroke-miterlimit="10" stroke-width="1"/>
    <path id="Trazado_1053063" data-name="Trazado 1053063" d="M419.895,359.951h.311a4.3,4.3,0,0,0,.788-.073" transform="translate(-371.306 -327.181)" fill="none" stroke="#000" stroke-linecap="round" stroke-linejoin="round" stroke-miterlimit="10" stroke-width="1"/>
    <path id="Trazado_1053064" data-name="Trazado 1053064" d="M24.542,225.367l-.845-.282a2.811,2.811,0,0,0-3.646,3.218l.581,2.906a4.29,4.29,0,0,0,4.207,3.449h.311" transform="translate(0 -201.89)" fill="none" stroke="#000" stroke-linecap="round" stroke-linejoin="round" stroke-miterlimit="10" stroke-width="1"/>
    <path id="Trazado_1053065" data-name="Trazado 1053065" d="M169.615,152.45l1.817,1.851" transform="translate(-138.922 -134.585)" fill="none" stroke="#000" stroke-linecap="round" stroke-linejoin="round" stroke-miterlimit="10" stroke-width="1"/>
    <path id="Trazado_1053066" data-name="Trazado 1053066" d="M137.784,19.716,141.433,16h0a5,5,0,1,0-7.188-6.944,1.136,1.136,0,0,1-1.642,0A5,5,0,1,0,125.415,16h0l.106.108" transform="translate(-96.555 0)" fill="none" stroke="#000" stroke-linecap="round" stroke-linejoin="round" stroke-miterlimit="10" stroke-width="1"/>
  </g>
</svg>
