<svg xmlns="http://www.w3.org/2000/svg" xmlns:xlink="http://www.w3.org/1999/xlink" width="108" height="108" viewBox="0 0 108 108">
  <defs>
    <filter id="Trazado_904820" x="0" y="0" width="108" height="108" filterUnits="userSpaceOnUse">
      <feOffset dy="3" input="SourceAlpha"/>
      <feGaussianBlur stdDeviation="3" result="blur"/>
      <feFlood flood-opacity="0.161"/>
      <feComposite operator="in" in2="blur"/>
      <feComposite in="SourceGraphic"/>
    </filter>
    <clipPath id="clip-path">
      <path id="path513" d="M0-682.665H62.736v62.736H0Z" transform="translate(0 682.665)"/>
    </clipPath>
  </defs>
  <g id="Grupo_1210428" data-name="Grupo 1210428" transform="translate(-619.707 -491.183)">
    <g id="Grupo_1208606" data-name="Grupo 1208606" transform="translate(628.707 497.183)">
      <g id="Grupo_1207936" data-name="Grupo 1207936" transform="translate(0 0)">
        <g id="Grupo_1201662" data-name="Grupo 1201662">
          <g id="Grupo_1173585" data-name="Grupo 1173585">
            <g id="Grupo_1173428" data-name="Grupo 1173428">
              <g id="Grupo_1171958" data-name="Grupo 1171958">
                <g id="Grupo_1167341" data-name="Grupo 1167341">
                  <g id="Grupo_1166792" data-name="Grupo 1166792">
                    <g transform="matrix(1, 0, 0, 1, -9, -6)" filter="url(#Trazado_904820)">
                      <g id="Trazado_904820-2" data-name="Trazado 904820" transform="translate(9 6)" fill="#effbfe">
                        <path d="M 44.99999618530273 88.49999237060547 C 39.12687301635742 88.49999237060547 33.43022155761719 87.35006713867188 28.06829643249512 85.08216857910156 C 22.88852119445801 82.89130401611328 18.23629570007324 79.75457763671875 14.24084663391113 75.75914001464844 C 10.24540901184082 71.76369476318359 7.108683586120605 67.11146545410156 4.917821407318115 61.93169403076172 C 2.649921178817749 56.56976699829102 1.499996185302734 50.87311553955078 1.499996185302734 44.99999237060547 C 1.499996185302734 39.12686920166016 2.649921178817749 33.43021774291992 4.917821407318115 28.06829261779785 C 7.108683586120605 22.88851737976074 10.24540901184082 18.23630523681641 14.24084663391113 14.24085521697998 C 18.23629570007324 10.24540519714355 22.88852119445801 7.108692169189453 28.06829643249512 4.917829990386963 C 33.43022155761719 2.649929761886597 39.12687301635742 1.500004887580872 44.99999618530273 1.500004887580872 C 50.87311935424805 1.500004887580872 56.56977081298828 2.649929761886597 61.93169784545898 4.917829990386963 C 67.11147308349609 7.108692169189453 71.76369476318359 10.24540519714355 75.75914764404297 14.24085521697998 C 79.75458526611328 18.23630523681641 82.89131164550781 22.88851737976074 85.08216857910156 28.06829261779785 C 87.35007476806641 33.43021774291992 88.5 39.12686920166016 88.5 44.99999237060547 C 88.5 50.87311553955078 87.35007476806641 56.56976699829102 85.08216857910156 61.93169403076172 C 82.89131164550781 67.11146545410156 79.75458526611328 71.76369476318359 75.75914764404297 75.75914001464844 C 71.76369476318359 79.75457763671875 67.11147308349609 82.89130401611328 61.93169784545898 85.08216857910156 C 56.56977081298828 87.35006713867188 50.87311935424805 88.49999237060547 44.99999618530273 88.49999237060547 Z" stroke="none"/>
                        <path d="M 44.99999618530273 2.999992370605469 C 39.32870864868164 2.999992370605469 33.82865142822266 4.11004638671875 28.65262603759766 6.299331665039062 C 23.65165710449219 8.414566040039062 19.15968322753906 11.44333648681641 15.301513671875 15.30150604248047 C 11.44333648681641 19.15967559814453 8.414566040039062 23.65164947509766 6.299339294433594 28.65262222290039 C 4.110054016113281 33.82864761352539 2.999992370605469 39.32870483398438 2.999992370605469 44.99999237060547 C 2.999992370605469 50.67127990722656 4.110054016113281 56.17132186889648 6.299339294433594 61.34736633300781 C 8.414566040039062 66.34833526611328 11.44333648681641 70.84029388427734 15.301513671875 74.69846343994141 C 19.15968322753906 78.55663299560547 23.65165710449219 81.58540344238281 28.65262603759766 83.70063781738281 C 33.82865142822266 85.88992309570312 39.32870864868164 86.99997711181641 44.99999618530273 86.99997711181641 C 50.67128372192383 86.99997711181641 56.17134094238281 85.88992309570312 61.34736633300781 83.70063781738281 C 66.34834289550781 81.58540344238281 70.84030914306641 78.55663299560547 74.69847869873047 74.69846343994141 C 78.55665588378906 70.84029388427734 81.58542633056641 66.34833526611328 83.70065307617188 61.34736633300781 C 85.88993835449219 56.17132186889648 87 50.67127990722656 87 44.99999237060547 C 87 39.32870483398438 85.88993835449219 33.82864761352539 83.70065307617188 28.65262222290039 C 81.58542633056641 23.65164947509766 78.55665588378906 19.15967559814453 74.69847869873047 15.30150604248047 C 70.84030914306641 11.44333648681641 66.34834289550781 8.414566040039062 61.34736633300781 6.299331665039062 C 56.17134094238281 4.11004638671875 50.67128372192383 2.999992370605469 44.99999618530273 2.999992370605469 M 44.99999618530273 -7.62939453125e-06 C 69.85281372070312 -7.62939453125e-06 90 20.14717864990234 90 44.99999237060547 C 90 69.85279083251953 69.85281372070312 89.99997711181641 44.99999618530273 89.99997711181641 C 20.14717864990234 89.99997711181641 -7.62939453125e-06 69.85279083251953 -7.62939453125e-06 44.99999237060547 C -7.62939453125e-06 20.14717864990234 20.14717864990234 -7.62939453125e-06 44.99999618530273 -7.62939453125e-06 Z" stroke="none" fill="#497f88"/>
                      </g>
                    </g>
                  </g>
                </g>
              </g>
            </g>
          </g>
        </g>
      </g>
    </g>
    <g id="g507" transform="translate(642.339 1193.48)">
      <g id="g509" transform="translate(0 -682.665)">
        <g id="g511" clip-path="url(#clip-path)">
          <g id="g517" transform="translate(29.916 20.262)">
            <path id="path519" d="M-109.42,0a12.839,12.839,0,0,0,.543,6.813,6.064,6.064,0,0,1-3.077,7.461,13.443,13.443,0,0,1-6.227,1.254l-2.313-5.586L-113.061,0Z" transform="translate(120.493)" fill="#475066"/>
          </g>
          <g id="g521" transform="translate(42.229 45.413)">
            <path id="path523" d="M-148.348-80.923c0,4.523-3.361,6.184-7.506,6.184s-7.506-1.661-7.506-6.184,3.361-8.189,7.506-8.189,7.506,3.667,7.506,8.189" transform="translate(163.361 89.112)" fill="#d1986f"/>
          </g>
          <g id="g525" transform="translate(39.417 28.027)">
            <path id="path527" d="M-76.381-38.191a3.865,3.865,0,0,1-3.865,3.865,3.865,3.865,0,0,1-3.865-3.865,3.865,3.865,0,0,1,3.865-3.865,3.865,3.865,0,0,1,3.865,3.865" transform="translate(84.11 42.056)" fill="#c37b47"/>
          </g>
          <g id="g529" transform="translate(52.323 28.027)">
            <path id="path531" d="M0-38.191a3.865,3.865,0,0,0,3.865,3.865A3.865,3.865,0,0,0,7.73-38.191a3.865,3.865,0,0,0-3.865-3.865A3.865,3.865,0,0,0,0-38.191" transform="translate(0 42.056)" fill="#c37b47"/>
          </g>
          <g id="g533" transform="translate(42.871 45.413)">
            <path id="path535" d="M-67.825-67.7a12.857,12.857,0,0,0,6.864-1.976,7.513,7.513,0,0,0-6.864-4.875,7.514,7.514,0,0,0-6.864,4.874A12.856,12.856,0,0,0-67.825-67.7" transform="translate(74.689 74.548)" fill="#c37b47"/>
          </g>
          <g id="g537" transform="translate(40.477 30.071)">
            <path id="path539" d="M-182.977-91.489a9.259,9.259,0,0,1-9.259,9.259,9.259,9.259,0,0,1-9.258-9.259,9.258,9.258,0,0,1,9.258-9.259,9.259,9.259,0,0,1,9.259,9.259" transform="translate(201.494 100.748)" fill="#d1986f"/>
          </g>
          <g id="g541" transform="translate(14.871 52.498)">
            <path id="path543" d="M-74.324-30.7v2.452a3.762,3.762,0,0,1-3.761,3.761,3.76,3.76,0,0,1-3.761-3.761V-30.7l3.761-3.106Z" transform="translate(81.845 33.803)" fill="#f98797"/>
          </g>
          <g id="g545" transform="translate(22.392 52.498)">
            <path id="path547" d="M0-30.7v2.452a3.762,3.762,0,0,0,3.761,3.761,3.761,3.761,0,0,0,3.761-3.761V-30.7L3.761-33.8Z" transform="translate(0 33.803)" fill="#f98797"/>
          </g>
          <g id="g549" transform="translate(14.871 46.884)">
            <path id="path551" d="M-74.324,0l3.761,5.614L-74.324,8.72h-7.521V0Z" transform="translate(81.845)" fill="#fed2a4"/>
          </g>
          <g id="g553" transform="translate(3.049 0.919)">
            <path id="path555" d="M0-191.138a19.365,19.365,0,0,1,19.343-19.343,19.365,19.365,0,0,1,19.343,19.343Z" transform="translate(0 210.481)" fill="#475066"/>
          </g>
          <g id="g557" transform="translate(2.908 20.262)">
            <path id="path559" d="M-8.765,0a12.837,12.837,0,0,1-.543,6.813,6.064,6.064,0,0,0,3.077,7.461A13.444,13.444,0,0,0,0,15.528L2.308,9.942-5.123,0Z" transform="translate(9.652)" fill="#303646"/>
          </g>
          <g id="g561" transform="translate(24.512 28.173)">
            <path id="path563" d="M-156.361-41.568a15.191,15.191,0,0,1-9.351-4.207l-6.472,4.022c2.381,2.862,7.008,6.754,14.976,7.658a3.761,3.761,0,0,0,4.16-3.313,3.76,3.76,0,0,0-3.313-4.16" transform="translate(172.185 45.775)" fill="#ffbd86"/>
          </g>
          <path id="path565" d="M243.661-163.772h7.521v-8.72h-7.521Z" transform="translate(-221.269 219.376)" fill="#ffbd86"/>
          <g id="g567" transform="translate(10.435 30.204)">
            <path id="path569" d="M-236.033-146.289a45.44,45.44,0,0,0-4.405-14.8h-15.048a45.439,45.439,0,0,0-4.405,14.8,4.059,4.059,0,0,0,4.024,4.542h15.809a4.059,4.059,0,0,0,4.024-4.542" transform="translate(259.919 161.093)" fill="#f98797"/>
          </g>
          <g id="g571" transform="translate(3.049 1.084)">
            <path id="path573" d="M-80.5-178.078c0-7.484,3.085-14.58,8.667-18.021A19.372,19.372,0,0,0-88.65-176.922h8.183c-.023-.383-.036-.768-.036-1.156" transform="translate(88.65 196.1)" fill="#303646"/>
          </g>
          <g id="g575" transform="translate(33.095 15.884)">
            <path id="path577" d="M0-44.5a4.5,4.5,0,0,0,4.5,4.5,4.5,4.5,0,0,0,4.5-4.5A4.5,4.5,0,0,0,4.5-49,4.5,4.5,0,0,0,0-44.5" transform="translate(0 49)" fill="#ffbd86"/>
          </g>
          <g id="g579" transform="translate(7.436 7.995)">
            <path id="path581" d="M-290.5-82.708a5.7,5.7,0,0,0-4.4-4.095,20.153,20.153,0,0,1-8.778-3.83,2.024,2.024,0,0,0-2.534,0,20.148,20.148,0,0,1-8.777,3.83,5.734,5.734,0,0,0-4.419,4.171,14.968,14.968,0,0,0-.493,3.821A14.956,14.956,0,0,0-304.34-63.868a15,15,0,0,0,14.356-14.856,14.982,14.982,0,0,0-.512-3.984" transform="translate(319.894 91.078)" fill="#fed2a4"/>
          </g>
          <g id="g583" transform="translate(10.435 30.204)">
            <path id="path585" d="M-45.566-99.516a12.5,12.5,0,0,1,5.08-10.071h-5.258a45.438,45.438,0,0,0-4.4,14.8,4.059,4.059,0,0,0,4.024,4.542h4.668a12.489,12.489,0,0,1-4.11-9.275" transform="translate(50.178 109.586)" fill="#e35b70"/>
          </g>
          <g id="g587" transform="translate(9.524 27.265)">
            <path id="path589" d="M-10.884-110.37a3.761,3.761,0,0,1,0-5.318l4.75-4.749a3.761,3.761,0,0,1,5.318,0,3.761,3.761,0,0,1,0,5.318l-4.749,4.749a3.761,3.761,0,0,1-5.318,0" transform="translate(11.985 121.539)" fill="#ffbd86"/>
          </g>
          <g id="g591" transform="translate(2.683 12.333)">
            <path id="path593" d="M-169.209-223.928a18.945,18.945,0,0,1-8.611-15.888,26.165,26.165,0,0,1,.878-6.773,5.732,5.732,0,0,0-4,3.651,3.755,3.755,0,0,0-.886-.1,4.5,4.5,0,0,0-4.5,4.5,4.5,4.5,0,0,0,4.5,4.5,3.7,3.7,0,0,0,.944-.115,14.977,14.977,0,0,0,11.676,10.219" transform="translate(186.333 246.589)" fill="#ffbd86"/>
          </g>
          <g id="g595" transform="translate(9.645 20.023)">
            <path id="path597" d="M-67.9-27.036c0,1.511-1.538,2.736-3.436,2.736s-3.436-1.225-3.436-2.736,1.538-2.736,3.436-2.736,3.436,1.225,3.436,2.736" transform="translate(74.772 29.772)" fill="#f98797"/>
          </g>
          <g id="g599" transform="translate(28.268 20.023)">
            <path id="path601" d="M0-27.036C0-25.525,1.538-24.3,3.436-24.3s3.436-1.225,3.436-2.736-1.538-2.736-3.436-2.736S0-28.547,0-27.036" transform="translate(0 29.772)" fill="#f98797"/>
          </g>
          <g id="g603" transform="translate(41.806 55.311)">
            <path id="path605" d="M-29.265,0a2.962,2.962,0,0,0-2.962,2.961c0,1.636,1.326,2.5,2.962,2.5S-26.3,4.6-26.3,2.961A2.961,2.961,0,0,0-29.265,0" transform="translate(32.227)" fill="#e8aa79"/>
          </g>
          <g id="g607" transform="translate(51.741 55.311)">
            <path id="path609" d="M-29.264,0A2.961,2.961,0,0,1-26.3,2.961c0,1.636-1.326,2.5-2.961,2.5s-2.961-.867-2.961-2.5A2.961,2.961,0,0,1-29.264,0" transform="translate(32.225)" fill="#e8aa79"/>
          </g>
          <g id="g611" transform="translate(40.453 45.483)">
            <path id="path613" d="M-57.967-28.983A2.933,2.933,0,0,1-60.9-26.05a2.933,2.933,0,0,1-2.933-2.933A2.933,2.933,0,0,1-60.9-31.916a2.933,2.933,0,0,1,2.933,2.933" transform="translate(63.833 31.916)" fill="#e8aa79"/>
          </g>
          <g id="g615" transform="translate(53.151 45.483)">
            <path id="path617" d="M0-28.983A2.933,2.933,0,0,0,2.933-26.05a2.933,2.933,0,0,0,2.933-2.933,2.933,2.933,0,0,0-2.933-2.933A2.933,2.933,0,0,0,0-28.983" transform="translate(0 31.916)" fill="#e8aa79"/>
          </g>
          <g id="g619" transform="translate(14.871 55.604)">
            <path id="path621" d="M-74.324,0V2.452a3.762,3.762,0,0,1-3.761,3.761,3.761,3.761,0,0,1-3.761-3.761V0Z" transform="translate(81.845)" fill="none" stroke="#000" stroke-linecap="round" stroke-linejoin="round" stroke-miterlimit="10" stroke-width="1"/>
          </g>
          <g id="g623" transform="translate(22.392 55.604)">
            <path id="path625" d="M0,0V2.452a3.761,3.761,0,0,0,7.521,0V0Z" fill="none" stroke="#000" stroke-linecap="round" stroke-linejoin="round" stroke-miterlimit="10" stroke-width="1"/>
          </g>
          <g id="g627" transform="translate(15.083 18.72)">
            <path id="path629" d="M0,0V1.4" fill="none" stroke="#000" stroke-linecap="round" stroke-linejoin="round" stroke-miterlimit="10" stroke-width="1"/>
          </g>
          <g id="g631" transform="translate(29.701 18.72)">
            <path id="path633" d="M0,0V1.4" fill="none" stroke="#000" stroke-linecap="round" stroke-linejoin="round" stroke-miterlimit="10" stroke-width="1"/>
          </g>
          <g id="g635" transform="translate(20.465 21.086)">
            <path id="path637" d="M-38.083-8.675a2.549,2.549,0,0,0-1.927-.878,2.549,2.549,0,0,0-1.927.878" transform="translate(41.937 9.553)" fill="none" stroke="#000" stroke-linecap="round" stroke-linejoin="round" stroke-miterlimit="10" stroke-width="1"/>
          </g>
          <g id="g639" transform="translate(44.761 40.745)">
            <path id="path641" d="M0,0V.956" transform="translate(0 0)" fill="none" stroke="#000" stroke-linecap="round" stroke-linejoin="round" stroke-miterlimit="10" stroke-width="1"/>
          </g>
          <g id="g643" transform="translate(54.709 40.745)">
            <path id="path645" d="M0,0V.956" transform="translate(0 0)" fill="none" stroke="#000" stroke-linecap="round" stroke-linejoin="round" stroke-miterlimit="10" stroke-width="1"/>
          </g>
          <g id="g647" transform="translate(48.424 41.673)">
            <path id="path649" d="M0,0A1.735,1.735,0,0,0,1.311.6,1.734,1.734,0,0,0,2.623,0" fill="none" stroke="#000" stroke-linecap="round" stroke-linejoin="round" stroke-miterlimit="10" stroke-width="1"/>
          </g>
          <g id="g651" transform="translate(3.138 0.919)">
            <path id="path653" d="M-65.257-46.671a19.321,19.321,0,0,0-6.6,12.771,4.5,4.5,0,0,1,4.048-2.529,4.521,4.521,0,0,1,.889.088,5.729,5.729,0,0,1,4.273-3.7,20.147,20.147,0,0,0,8.777-3.83,2.024,2.024,0,0,1,2.534,0,20.154,20.154,0,0,0,8.778,3.83,5.705,5.705,0,0,1,4.276,3.7,4.527,4.527,0,0,1,.886-.088,4.5,4.5,0,0,1,4.048,2.53A19.369,19.369,0,0,0-52.607-51.395a19.22,19.22,0,0,0-9.607,2.56" transform="translate(71.861 51.395)" fill="none" stroke="#000" stroke-linecap="round" stroke-linejoin="round" stroke-miterlimit="10" stroke-width="1"/>
          </g>
          <g id="g655" transform="translate(2.908 23.567)">
            <path id="path657" d="M-76.258-94.359l1.75-1.75a14.962,14.962,0,0,1-4.241-6.576,4.511,4.511,0,0,1-.948.1,4.489,4.489,0,0,1-3.188-1.323,13.569,13.569,0,0,1-.746,3.508,6.064,6.064,0,0,0,3.077,7.461,12.309,12.309,0,0,0,3.2,1.027A3.746,3.746,0,0,1-76.258-94.359Z" transform="translate(83.975 103.908)" fill="none" stroke="#000" stroke-linecap="round" stroke-linejoin="round" stroke-miterlimit="10" stroke-width="1"/>
          </g>
          <g id="g659" transform="translate(33.56 23.567)">
            <path id="path661" d="M-.086-65.435A16.3,16.3,0,0,0,5.78-63.368c-.011-.12-.018-.241-.018-.363a3.865,3.865,0,0,1,2.407-3.579,6.014,6.014,0,0,0-.292-1.238,13.568,13.568,0,0,1-.746-3.508,4.489,4.489,0,0,1-3.188,1.323,4.521,4.521,0,0,1-.956-.1,15.016,15.016,0,0,1-3.081,5.4Z" transform="translate(0.095 72.057)" fill="none" stroke="#000" stroke-linecap="round" stroke-linejoin="round" stroke-miterlimit="10" stroke-width="1"/>
          </g>
          <g id="g663" transform="translate(2.683 15.884)">
            <path id="path665" d="M-46.972-43.261a14.969,14.969,0,0,1,.493-3.821c.042-.159.091-.316.146-.469a4.523,4.523,0,0,0-.889-.088,4.5,4.5,0,0,0-4.5,4.5,4.5,4.5,0,0,0,4.5,4.5,4.519,4.519,0,0,0,.948-.1A14.946,14.946,0,0,1-46.972-43.261Z" transform="translate(51.725 47.639)" fill="none" stroke="#000" stroke-linecap="round" stroke-linejoin="round" stroke-miterlimit="10" stroke-width="1"/>
          </g>
          <g id="g667" transform="translate(36.642 15.884)">
            <path id="path669" d="M-9.451,0a4.525,4.525,0,0,0-.886.088q.068.194.122.394A14.978,14.978,0,0,1-9.7,4.466a14.827,14.827,0,0,1-.7,4.438,4.522,4.522,0,0,0,.956.1,4.5,4.5,0,0,0,4.5-4.5A4.5,4.5,0,0,0-9.451,0Z" transform="translate(10.408)" fill="none" stroke="#000" stroke-linecap="round" stroke-linejoin="round" stroke-miterlimit="10" stroke-width="1"/>
          </g>
          <g id="g671" transform="translate(9.524 27.265)">
            <path id="path673" d="M-10.884-110.37a3.761,3.761,0,0,1,0-5.318l4.749-4.749a3.761,3.761,0,0,1,5.319,0,3.761,3.761,0,0,1,0,5.318l-4.749,4.749A3.761,3.761,0,0,1-10.884-110.37Z" transform="translate(11.985 121.539)" fill="none" stroke="#000" stroke-linecap="round" stroke-linejoin="round" stroke-miterlimit="10" stroke-width="1"/>
          </g>
          <g id="g675" transform="translate(7.436 7.996)">
            <path id="path677" d="M-212.31-254.112a15.01,15.01,0,0,0,8.425-13.361,14.984,14.984,0,0,0-.512-3.984,5.7,5.7,0,0,0-4.4-4.094,20.154,20.154,0,0,1-8.778-3.83,2.024,2.024,0,0,0-2.534,0,20.147,20.147,0,0,1-8.777,3.83,5.734,5.734,0,0,0-4.419,4.171,14.975,14.975,0,0,0-.493,3.821,14.916,14.916,0,0,0,4.939,11.1l3-3a3.761,3.761,0,0,1,5.319,0,3.761,3.761,0,0,1,0,5.319l-1.243,1.243a15.063,15.063,0,0,0,3.54.278,14.837,14.837,0,0,0,2.6-.334" transform="translate(233.795 279.828)" fill="none" stroke="#000" stroke-linecap="round" stroke-linejoin="round" stroke-miterlimit="10" stroke-width="1"/>
          </g>
          <path id="path679" d="M161.814-137.429h7.521v-6.054h-7.521Z" transform="translate(-146.944 193.034)" fill="none" stroke="#000" stroke-linecap="round" stroke-linejoin="round" stroke-miterlimit="10" stroke-width="1"/>
          <path id="path681" d="M243.659-137.429h7.522v-6.054h-7.522Z" transform="translate(-221.267 193.034)" fill="none" stroke="#000" stroke-linecap="round" stroke-linejoin="round" stroke-miterlimit="10" stroke-width="1"/>
          <g id="g683" transform="translate(10.435 32.491)">
            <path id="path685" d="M-149.793-23.519a14.824,14.824,0,0,1-2.6.335,15.065,15.065,0,0,1-3.54-.278l-3.507,3.507a3.762,3.762,0,0,1-4.375.688,44.558,44.558,0,0,0-1.105,5.886A4.059,4.059,0,0,0-160.9-8.839h15.809a4.059,4.059,0,0,0,4.025-4.542,46.849,46.849,0,0,0-3.34-12.517,14.972,14.972,0,0,1-2.061,1.219" transform="translate(164.952 25.899)" fill="none" stroke="#000" stroke-linecap="round" stroke-linejoin="round" stroke-miterlimit="10" stroke-width="1"/>
          </g>
          <g id="g687" transform="translate(30.981 30.184)">
            <path id="path689" d="M-92.436-21.7a16.594,16.594,0,0,1-6.775-2.2,15.13,15.13,0,0,1-2.579,2.307,47.406,47.406,0,0,1,2,5.771,25.31,25.31,0,0,0,6.5,1.592,3.761,3.761,0,0,0,4.16-3.313A3.76,3.76,0,0,0-92.436-21.7Z" transform="translate(101.79 23.893)" fill="none" stroke="#000" stroke-linecap="round" stroke-linejoin="round" stroke-miterlimit="10" stroke-width="1"/>
          </g>
          <g id="g691" transform="translate(39.417 28.028)">
            <path id="path693" d="M-73.877-24.583a3.866,3.866,0,0,0-3.611-2.488,3.865,3.865,0,0,0-3.865,3.865c0,.123.006.244.018.363.293.047.592.089.9.124A3.743,3.743,0,0,1-78.2-21.637,9.273,9.273,0,0,1-73.877-24.583Z" transform="translate(81.353 27.071)" fill="none" stroke="#000" stroke-linecap="round" stroke-linejoin="round" stroke-miterlimit="10" stroke-width="1"/>
          </g>
          <g id="g695" transform="translate(52.576 28.028)">
            <path id="path697" d="M-54.182-71.607a3.863,3.863,0,0,0,1.994-3.382,3.865,3.865,0,0,0-3.865-3.865,3.865,3.865,0,0,0-3.612,2.489A9.283,9.283,0,0,1-54.182-71.607Z" transform="translate(59.665 78.853)" fill="none" stroke="#000" stroke-linecap="round" stroke-linejoin="round" stroke-miterlimit="10" stroke-width="1"/>
          </g>
          <g id="g699" transform="translate(40.453 45.483)">
            <path id="path701" d="M-57.967-28.983A2.933,2.933,0,0,1-60.9-26.05a2.933,2.933,0,0,1-2.933-2.933A2.933,2.933,0,0,1-60.9-31.916,2.933,2.933,0,0,1-57.967-28.983Z" transform="translate(63.833 31.916)" fill="none" stroke="#000" stroke-linecap="round" stroke-linejoin="round" stroke-miterlimit="10" stroke-width="1"/>
          </g>
          <g id="g703" transform="translate(40.491 30.071)">
            <path id="path705" d="M-154.085-152.291a2.949,2.949,0,0,1,.526.048,9.223,9.223,0,0,0,2.384-6.2,9.259,9.259,0,0,0-9.259-9.259,9.24,9.24,0,0,0-7.161,3.39,3.753,3.753,0,0,1,1.074,3.079,3.762,3.762,0,0,1-3.158,3.292,9.22,9.22,0,0,0,2.372,5.7,2.946,2.946,0,0,1,.524-.048,2.933,2.933,0,0,1,2.891,2.437,9.231,9.231,0,0,0,3.458.668,9.23,9.23,0,0,0,3.459-.67A2.933,2.933,0,0,1-154.085-152.291Z" transform="translate(169.678 167.702)" fill="none" stroke="#000" stroke-linecap="round" stroke-linejoin="round" stroke-miterlimit="10" stroke-width="1"/>
          </g>
          <g id="g707" transform="translate(53.151 45.483)">
            <path id="path709" d="M0-28.983A2.933,2.933,0,0,0,2.933-26.05a2.933,2.933,0,0,0,2.933-2.933,2.933,2.933,0,0,0-2.933-2.933A2.933,2.933,0,0,0,0-28.983Z" transform="translate(0 31.916)" fill="none" stroke="#000" stroke-linecap="round" stroke-linejoin="round" stroke-miterlimit="10" stroke-width="1"/>
          </g>
          <g id="g711" transform="translate(41.806 55.311)">
            <path id="path713" d="M-29.264,0a2.961,2.961,0,0,0-2.961,2.961c0,1.636,1.326,2.5,2.961,2.5S-26.3,4.6-26.3,2.961A2.962,2.962,0,0,0-29.264,0Z" transform="translate(32.225)" fill="none" stroke="#000" stroke-linecap="round" stroke-linejoin="round" stroke-miterlimit="10" stroke-width="1"/>
          </g>
          <g id="g715" transform="translate(42.229 47.918)">
            <path id="path717" d="M-94-102.326a2.961,2.961,0,0,1,2.961-2.961,2.952,2.952,0,0,1,2.084.858A6.805,6.805,0,0,0-88.5-107a8.879,8.879,0,0,0-.322-2.375,2.932,2.932,0,0,1-.836.122,2.933,2.933,0,0,1-2.933-2.933,2.951,2.951,0,0,1,.043-.5,9.229,9.229,0,0,1-3.458.67,9.231,9.231,0,0,1-3.458-.668,2.939,2.939,0,0,1,.043.5,2.933,2.933,0,0,1-2.933,2.933,2.933,2.933,0,0,1-.836-.122,8.879,8.879,0,0,0-.322,2.375,6.805,6.805,0,0,0,.454,2.567,2.952,2.952,0,0,1,2.084-.858,2.961,2.961,0,0,1,2.962,2.961,2.389,2.389,0,0,1-.357,1.3,12.7,12.7,0,0,0,2.363.208,12.694,12.694,0,0,0,2.363-.208A2.39,2.39,0,0,1-94-102.326Z" transform="translate(103.509 112.681)" fill="none" stroke="#000" stroke-linecap="round" stroke-linejoin="round" stroke-miterlimit="10" stroke-width="1"/>
          </g>
          <g id="g719" transform="translate(51.741 55.311)">
            <path id="path721" d="M-29.264,0A2.961,2.961,0,0,1-26.3,2.961c0,1.636-1.326,2.5-2.961,2.5s-2.961-.867-2.961-2.5A2.961,2.961,0,0,1-29.264,0Z" transform="translate(32.225)" fill="none" stroke="#000" stroke-linecap="round" stroke-linejoin="round" stroke-miterlimit="10" stroke-width="1"/>
          </g>
        </g>
      </g>
    </g>
  </g>
</svg>
