<svg xmlns="http://www.w3.org/2000/svg" xmlns:xlink="http://www.w3.org/1999/xlink" width="98" height="98" viewBox="0 0 98 98">
  <defs>
    <filter id="Trazado_982547" x="0" y="0" width="98" height="98" filterUnits="userSpaceOnUse">
      <feOffset dy="3" input="SourceAlpha"/>
      <feGaussianBlur stdDeviation="3" result="blur"/>
      <feFlood flood-opacity="0.161"/>
      <feComposite operator="in" in2="blur"/>
      <feComposite in="SourceGraphic"/>
    </filter>
    <clipPath id="clip-path">
      <path id="path8121" d="M0-682.665H48.414v48.414H0Z" transform="translate(0 682.665)"/>
    </clipPath>
  </defs>
  <g id="Grupo_1209435" data-name="Grupo 1209435" transform="translate(-505 -4301)">
    <g id="Grupo_1209174" data-name="Grupo 1209174" transform="translate(314 1833.985)">
      <g id="Grupo_1207718" data-name="Grupo 1207718" transform="translate(0 381.462)">
        <g id="Grupo_1207712" data-name="Grupo 1207712">
          <g id="Grupo_1207285" data-name="Grupo 1207285" transform="translate(0 344.552)">
            <g id="Grupo_1206883" data-name="Grupo 1206883" transform="translate(0 -209)">
              <g id="Grupo_1204569" data-name="Grupo 1204569" transform="translate(-81 -1890.336)">
                <g id="Grupo_1203962" data-name="Grupo 1203962" transform="translate(281 3846.336)">
                  <g id="Grupo_1203498" data-name="Grupo 1203498" transform="translate(0)">
                    <g id="Grupo_1202589" data-name="Grupo 1202589">
                      <g id="Grupo_1172010" data-name="Grupo 1172010">
                        <g id="Grupo_1171046" data-name="Grupo 1171046">
                          <g id="Grupo_1148525" data-name="Grupo 1148525">
                            <g transform="matrix(1, 0, 0, 1, -9, -6)" filter="url(#Trazado_982547)">
                              <g id="Trazado_982547-2" data-name="Trazado 982547" transform="translate(9 6)" fill="#fdfbec">
                                <path d="M 39.99999237060547 78.49998474121094 C 34.8018684387207 78.49998474121094 29.76002502441406 77.48226165771484 25.0145263671875 75.47508239746094 C 20.43014717102051 73.53604888916016 16.31264877319336 70.75984954833984 12.77639198303223 67.22359466552734 C 9.240137100219727 63.68733596801758 6.463936805725098 59.5698356628418 4.524903297424316 54.98546981811523 C 2.517725706100464 50.23995971679688 1.500003457069397 45.19811630249023 1.500003457069397 39.99999237060547 C 1.500003457069397 34.8018684387207 2.517725706100464 29.76002502441406 4.524903297424316 25.0145263671875 C 6.463936805725098 20.43014717102051 9.240137100219727 16.31264877319336 12.77639198303223 12.77639198303223 C 16.31264877319336 9.240137100219727 20.43014717102051 6.463936805725098 25.0145263671875 4.524903297424316 C 29.76002502441406 2.517725706100464 34.8018684387207 1.500003457069397 39.99999237060547 1.500003457069397 C 45.19811630249023 1.500003457069397 50.23995971679688 2.517725706100464 54.98546981811523 4.524903297424316 C 59.5698356628418 6.463936805725098 63.68733596801758 9.240137100219727 67.22359466552734 12.77639198303223 C 70.75984954833984 16.31264877319336 73.53604888916016 20.43014717102051 75.47508239746094 25.0145263671875 C 77.48226165771484 29.76002502441406 78.49998474121094 34.8018684387207 78.49998474121094 39.99999237060547 C 78.49998474121094 45.19812393188477 77.48226165771484 50.23995971679688 75.47508239746094 54.98546981811523 C 73.53604888916016 59.5698356628418 70.75984954833984 63.68733596801758 67.22359466552734 67.22359466552734 C 63.68733596801758 70.75984954833984 59.5698356628418 73.53604888916016 54.98546981811523 75.47508239746094 C 50.23995971679688 77.48226165771484 45.19812393188477 78.49998474121094 39.99999237060547 78.49998474121094 Z" stroke="none"/>
                                <path d="M 39.99999237060547 2.999992370605469 C 35.00370025634766 2.999992370605469 30.1584587097168 3.97784423828125 25.59884643554688 5.906402587890625 C 21.19327163696289 7.769805908203125 17.23603057861328 10.43805694580078 13.83704376220703 13.83704376220703 C 10.43805694580078 17.23603057861328 7.769805908203125 21.19327163696289 5.906402587890625 25.59884643554688 C 3.97784423828125 30.1584587097168 2.999992370605469 35.00370025634766 2.999992370605469 39.99999237060547 C 2.999992370605469 44.99628448486328 3.97784423828125 49.84152603149414 5.906402587890625 54.40113830566406 C 7.769805908203125 58.80671310424805 10.43805694580078 62.76395416259766 13.83704376220703 66.16294097900391 C 17.23603057861328 69.56191253662109 21.19327163696289 72.23016357421875 25.59884643554688 74.09356689453125 C 30.1584587097168 76.02212524414062 35.00370025634766 76.99997711181641 39.99999237060547 76.99997711181641 C 44.99628448486328 76.99997711181641 49.84152603149414 76.02212524414062 54.40113830566406 74.09356689453125 C 58.80671310424805 72.23016357421875 62.76395416259766 69.56191253662109 66.16294097900391 66.16294097900391 C 69.56191253662109 62.76395416259766 72.23016357421875 58.80671310424805 74.09356689453125 54.40113830566406 C 76.02212524414062 49.84152603149414 76.99997711181641 44.99628448486328 76.99997711181641 39.99999237060547 C 76.99997711181641 35.00370025634766 76.02212524414062 30.1584587097168 74.09356689453125 25.59884643554688 C 72.23016357421875 21.19327163696289 69.56191253662109 17.23603057861328 66.16294097900391 13.83704376220703 C 62.76395416259766 10.43805694580078 58.80671310424805 7.769805908203125 54.40113830566406 5.906402587890625 C 49.84152603149414 3.97784423828125 44.99628448486328 2.999992370605469 39.99999237060547 2.999992370605469 M 39.99999237060547 -7.62939453125e-06 C 62.09137725830078 -7.62939453125e-06 79.99997711181641 17.90860748291016 79.99997711181641 39.99999237060547 C 79.99997711181641 62.09137725830078 62.09137725830078 79.99997711181641 39.99999237060547 79.99997711181641 C 17.90860748291016 79.99997711181641 -7.62939453125e-06 62.09137725830078 -7.62939453125e-06 39.99999237060547 C -7.62939453125e-06 17.90860748291016 17.90860748291016 -7.62939453125e-06 39.99999237060547 -7.62939453125e-06 Z" stroke="none" fill="#83793c"/>
                              </g>
                            </g>
                          </g>
                        </g>
                      </g>
                    </g>
                  </g>
                </g>
              </g>
            </g>
          </g>
          <g id="g8115" transform="translate(215.793 2790.01)">
            <g id="g8117" transform="translate(0 -682.665)">
              <g id="g8119" clip-path="url(#clip-path)">
                <g id="g8125" transform="translate(-33.259 0.709)">
                  <path id="path8127" d="M-338.457-377.826h-25.835v-25.108c5.31-7.679,37.755-5.416,25.835,25.108" transform="translate(364.292 406.667)" fill="#fbdf63"/>
                </g>
                <g id="g8129" transform="translate(-33.259 0.709)">
                  <path id="path8131" d="M-338.457-377.826h-.619c6.164-24.728-15.887-30.6-25.216-24.374v-.734c5.31-7.679,37.755-5.416,25.835,25.108" transform="translate(364.292 406.667)" fill="#f9d11f"/>
                </g>
              </g>
            </g>
            <g id="g8265" transform="translate(0 -682.665)">
              <g id="g8267" clip-path="url(#clip-path)">
                <g id="g8273" transform="translate(-33.259 51.036)">
                  <path id="path8275" d="M-338.457-377.654h-25.835v-25.1c5.31-7.676,37.755-5.413,25.835,25.1" transform="translate(364.292 406.481)" fill="#003343"/>
                </g>
                <g id="g8277" transform="translate(-33.259 51.036)">
                  <path id="path8279" d="M-338.457-377.654h-.619c6.164-24.717-15.887-30.585-25.216-24.362v-.734c5.31-7.676,37.755-5.413,25.835,25.1" transform="translate(364.292 406.481)" fill="#002439"/>
                </g>
              </g>
            </g>
            <g id="g8281" transform="translate(0 -682.665)">
              <g id="g8283" clip-path="url(#clip-path)">
                <g id="g8289" transform="translate(17.066 51.014)">
                  <path id="path8291" d="M-338.457-377.826h-25.835v-25.108c5.31-7.679,37.755-5.416,25.835,25.108" transform="translate(364.292 406.667)" fill="#ff7e50"/>
                </g>
                <g id="g8293" transform="translate(17.066 51.014)">
                  <path id="path8295" d="M-338.457-377.826h-.619c6.164-24.728-15.887-30.6-25.216-24.374v-.734c5.31-7.679,37.755-5.416,25.835,25.108" transform="translate(364.292 406.667)" fill="#ff6247"/>
                </g>
                <g id="g8297" transform="translate(2.941 54.225)">
                  <path id="path8299" d="M-233.028-131.751v15.573h-14.6c-12.2-25.649,14.6-34.273,14.6-15.573" transform="translate(250.816 141.808)" fill="#ffa68a"/>
                </g>
                <g id="g8301" transform="translate(2.941 54.225)">
                  <path id="path8303" d="M-233.028-131.751c-.9-16.1-20.23-9.82-14.176,15.573h-.427c-12.2-25.649,14.6-34.273,14.6-15.573" transform="translate(250.816 141.808)" fill="#ff7e50"/>
                </g>
              </g>
            </g>
          </g>
        </g>
      </g>
    </g>
    <g id="target_7799083" transform="translate(517.447 4310.447)">
      <path id="Trazado_1053995" data-name="Trazado 1053995" d="M59.982,31.429H58.132a1.311,1.311,0,0,1-1.265-.973A21.587,21.587,0,0,0,41.65,15.239a1.311,1.311,0,0,1-.973-1.265V12.125A4.624,4.624,0,0,0,36.053,7.5h0a4.625,4.625,0,0,0-4.625,4.625v1.849a1.311,1.311,0,0,1-.973,1.265A21.587,21.587,0,0,0,15.239,30.456a1.311,1.311,0,0,1-1.265.973H12.125A4.624,4.624,0,0,0,7.5,36.053h0a4.625,4.625,0,0,0,4.625,4.625h1.849a1.311,1.311,0,0,1,1.265.973A21.587,21.587,0,0,0,30.456,56.867a1.311,1.311,0,0,1,.973,1.265v1.849a4.625,4.625,0,0,0,4.625,4.625h0a4.625,4.625,0,0,0,4.625-4.625V58.132a1.311,1.311,0,0,1,.973-1.265A21.587,21.587,0,0,0,56.867,41.65a1.311,1.311,0,0,1,1.265-.973h1.849a4.625,4.625,0,0,0,4.625-4.625h0A4.625,4.625,0,0,0,59.982,31.429Z" transform="translate(0 0)" fill="#ff889e"/>
      <path id="Trazado_1053996" data-name="Trazado 1053996" d="M52.582,113.518a20.466,20.466,0,0,1-5.992-.787,13.985,13.985,0,0,0,5.543-6.019A7.26,7.26,0,0,0,52.91,92.93l-.037-.072a19.047,19.047,0,0,0-24.586-8.434,18.687,18.687,0,0,1,.506-5.02A21.593,21.593,0,0,0,15.239,94.1a1.311,1.311,0,0,1-1.265.973H12.125A4.625,4.625,0,0,0,7.5,99.7h0a4.625,4.625,0,0,0,4.625,4.625h1.849a1.311,1.311,0,0,1,1.265.973,21.587,21.587,0,0,0,15.216,15.216,1.311,1.311,0,0,1,.973,1.265v1.849a4.625,4.625,0,0,0,9.249,0v-1.849a1.311,1.311,0,0,1,.973-1.265A21.555,21.555,0,0,0,52.582,113.518Z" transform="translate(0 -63.642)" fill="#fc5c6f"/>
      <g id="Grupo_1209432" data-name="Grupo 1209432" transform="translate(17.568 24.507)">
        <circle id="Elipse_13524" data-name="Elipse 13524" cx="4.272" cy="4.272" r="4.272" transform="translate(0 7.272)" fill="#fdd1a3"/>
        <circle id="Elipse_13525" data-name="Elipse 13525" cx="4.272" cy="4.272" r="4.272" transform="translate(28.433 7.272)" fill="#ffbb85"/>
        <g id="Grupo_1209431" data-name="Grupo 1209431" transform="translate(4.15)">
          <path id="Trazado_1053997" data-name="Trazado 1053997" d="M159.916,168.337c0,7.084-6.42,11.536-14.339,11.536s-14.339-4.452-14.339-11.536,6.42-12.827,14.339-12.827S159.916,161.253,159.916,168.337Z" transform="translate(-131.239 -155.51)" fill="#fdd1a3"/>
        </g>
        <path id="Trazado_1053998" data-name="Trazado 1053998" d="M137.779,173.458a12.549,12.549,0,0,0-6.54,10.764c0,7.084,6.42,11.536,14.339,11.536a19.616,19.616,0,0,0,4.135-.43C135.8,194.719,135.456,182.628,137.779,173.458Z" transform="translate(-127.089 -171.396)" fill="#ffbb85"/>
      </g>
      <path id="Trazado_1053999" data-name="Trazado 1053999" d="M157.961,145.119a1.336,1.336,0,0,0,.99-1.952,16.058,16.058,0,0,0-28.477.247,1.331,1.331,0,0,0,1.339,1.92,17.588,17.588,0,0,0,7.589-3.12,1.339,1.339,0,0,1,1.571.032C144.047,144.532,151.1,146.123,157.961,145.119Z" transform="translate(-108.714 -112.545)" fill="#4677d4"/>
      <path id="Trazado_1054000" data-name="Trazado 1054000" d="M131.813,157.566a14.779,14.779,0,0,0,4.244-1.228,38.778,38.778,0,0,1,1.754-7.863,16.12,16.12,0,0,0-7.337,7.17A1.331,1.331,0,0,0,131.813,157.566Z" transform="translate(-108.715 -124.777)" fill="#005daf"/>
      <g id="Grupo_1209434" data-name="Grupo 1209434" transform="translate(7.5 7.5)">
        <path id="Trazado_1054001" data-name="Trazado 1054001" d="M157.961,145.119a1.336,1.336,0,0,0,.99-1.952,16.058,16.058,0,0,0-28.477.247,1.331,1.331,0,0,0,1.339,1.92,17.588,17.588,0,0,0,7.589-3.12,1.339,1.339,0,0,1,1.571.032C144.047,144.532,151.1,146.123,157.961,145.119Z" transform="translate(-116.214 -120.045)" fill="none" stroke="#000" stroke-linecap="round" stroke-linejoin="round" stroke-miterlimit="10" stroke-width="1"/>
        <path id="Trazado_1054002" data-name="Trazado 1054002" d="M44.618,16.275a21.409,21.409,0,0,0-2.968-1.035,1.311,1.311,0,0,1-.973-1.265V12.125A4.624,4.624,0,0,0,36.053,7.5h0a4.625,4.625,0,0,0-4.625,4.625v1.849a1.311,1.311,0,0,1-.973,1.265A21.587,21.587,0,0,0,15.239,30.456a1.311,1.311,0,0,1-1.265.973H12.125A4.624,4.624,0,0,0,7.5,36.053h0a4.625,4.625,0,0,0,4.625,4.625h1.849a1.311,1.311,0,0,1,1.265.973,21.587,21.587,0,0,0,9.264,12.6" transform="translate(-7.5 -7.5)" fill="none" stroke="#000" stroke-linecap="round" stroke-linejoin="round" stroke-miterlimit="10" stroke-width="1"/>
        <path id="Trazado_1054003" data-name="Trazado 1054003" d="M186.833,138.775a21.4,21.4,0,0,0,2.35.779,1.311,1.311,0,0,1,.973,1.265v1.849a4.625,4.625,0,0,0,4.625,4.625h0a4.625,4.625,0,0,0,4.625-4.625v-1.849a1.311,1.311,0,0,1,.973-1.265,21.587,21.587,0,0,0,15.216-15.216,1.311,1.311,0,0,1,1.265-.973h1.849a4.625,4.625,0,0,0,4.625-4.625h0a4.625,4.625,0,0,0-4.625-4.625H216.86a1.311,1.311,0,0,1-1.265-.973,21.581,21.581,0,0,0-8.694-12.222" transform="translate(-166.227 -90.187)" fill="none" stroke="#000" stroke-linecap="round" stroke-linejoin="round" stroke-miterlimit="10" stroke-width="1"/>
        <path id="Trazado_1054004" data-name="Trazado 1054004" d="M132.176,225.725a11.609,11.609,0,0,0-.937,4.567c0,7.084,6.42,11.536,14.339,11.536s14.339-4.452,14.339-11.536a11.619,11.619,0,0,0-1.031-4.784" transform="translate(-117.021 -200.458)" fill="none" stroke="#000" stroke-linecap="round" stroke-linejoin="round" stroke-miterlimit="10" stroke-width="1"/>
        <path id="Trazado_1054005" data-name="Trazado 1054005" d="M99.208,218.843a4.272,4.272,0,0,0,.187,8.539c.1,0,.193,0,.289-.011" transform="translate(-85.055 -194.559)" fill="none" stroke="#000" stroke-linecap="round" stroke-linejoin="round" stroke-miterlimit="10" stroke-width="1"/>
        <path id="Trazado_1054006" data-name="Trazado 1054006" d="M377.245,227.337c.1.006.192.011.289.011a4.272,4.272,0,0,0,.01-8.544" transform="translate(-334.761 -194.525)" fill="none" stroke="#000" stroke-linecap="round" stroke-linejoin="round" stroke-miterlimit="10" stroke-width="1"/>
        <g id="Grupo_1209433" data-name="Grupo 1209433" transform="translate(19.903 29.04)">
          <path id="Trazado_1054007" data-name="Trazado 1054007" d="M183.876,261.822a1.582,1.582,0,1,0-3.163,0" transform="translate(-180.713 -260.24)" fill="none" stroke="#000" stroke-linecap="round" stroke-linejoin="round" stroke-miterlimit="10" stroke-width="1"/>
          <path id="Trazado_1054008" data-name="Trazado 1054008" d="M303.757,261.822a1.582,1.582,0,0,1,3.163,0" transform="translate(-289.619 -260.24)" fill="none" stroke="#000" stroke-linecap="round" stroke-linejoin="round" stroke-miterlimit="10" stroke-width="1"/>
          <path id="Trazado_1054009" data-name="Trazado 1054009" d="M241.4,290.093a2.223,2.223,0,0,0,3.355,0" transform="translate(-234.426 -286.663)" fill="none" stroke="#000" stroke-linecap="round" stroke-linejoin="round" stroke-miterlimit="10" stroke-width="1"/>
        </g>
      </g>
    </g>
  </g>
</svg>
