<svg xmlns="http://www.w3.org/2000/svg" xmlns:xlink="http://www.w3.org/1999/xlink" width="98" height="98" viewBox="0 0 98 98">
  <defs>
    <filter id="Trazado_982547" x="0" y="0" width="98" height="98" filterUnits="userSpaceOnUse">
      <feOffset dy="3" input="SourceAlpha"/>
      <feGaussianBlur stdDeviation="3" result="blur"/>
      <feFlood flood-opacity="0.161"/>
      <feComposite operator="in" in2="blur"/>
      <feComposite in="SourceGraphic"/>
    </filter>
    <clipPath id="clip-path">
      <path id="path8121" d="M0-682.665H48.414v48.414H0Z" transform="translate(0 682.665)"/>
    </clipPath>
  </defs>
  <g id="Grupo_1209436" data-name="Grupo 1209436" transform="translate(-820 -4301)">
    <g id="Grupo_1209175" data-name="Grupo 1209175" transform="translate(629 1833.985)">
      <g id="Grupo_1207718" data-name="Grupo 1207718" transform="translate(0 381.462)">
        <g id="Grupo_1207712" data-name="Grupo 1207712">
          <g id="Grupo_1207285" data-name="Grupo 1207285" transform="translate(0 344.552)">
            <g id="Grupo_1206883" data-name="Grupo 1206883" transform="translate(0 -209)">
              <g id="Grupo_1204569" data-name="Grupo 1204569" transform="translate(-81 -1890.336)">
                <g id="Grupo_1203962" data-name="Grupo 1203962" transform="translate(281 3846.336)">
                  <g id="Grupo_1203498" data-name="Grupo 1203498" transform="translate(0)">
                    <g id="Grupo_1202589" data-name="Grupo 1202589">
                      <g id="Grupo_1172010" data-name="Grupo 1172010">
                        <g id="Grupo_1171046" data-name="Grupo 1171046">
                          <g id="Grupo_1148525" data-name="Grupo 1148525">
                            <g transform="matrix(1, 0, 0, 1, -9, -6)" filter="url(#Trazado_982547)">
                              <g id="Trazado_982547-2" data-name="Trazado 982547" transform="translate(9 6)" fill="#fdfbec">
                                <path d="M 39.99999237060547 78.49998474121094 C 34.8018684387207 78.49998474121094 29.76002502441406 77.48226165771484 25.0145263671875 75.47508239746094 C 20.43014717102051 73.53604888916016 16.31264877319336 70.75984954833984 12.77639198303223 67.22359466552734 C 9.240137100219727 63.68733596801758 6.463936805725098 59.5698356628418 4.524903297424316 54.98546981811523 C 2.517725706100464 50.23995971679688 1.500003457069397 45.19811630249023 1.500003457069397 39.99999237060547 C 1.500003457069397 34.8018684387207 2.517725706100464 29.76002502441406 4.524903297424316 25.0145263671875 C 6.463936805725098 20.43014717102051 9.240137100219727 16.31264877319336 12.77639198303223 12.77639198303223 C 16.31264877319336 9.240137100219727 20.43014717102051 6.463936805725098 25.0145263671875 4.524903297424316 C 29.76002502441406 2.517725706100464 34.8018684387207 1.500003457069397 39.99999237060547 1.500003457069397 C 45.19811630249023 1.500003457069397 50.23995971679688 2.517725706100464 54.98546981811523 4.524903297424316 C 59.5698356628418 6.463936805725098 63.68733596801758 9.240137100219727 67.22359466552734 12.77639198303223 C 70.75984954833984 16.31264877319336 73.53604888916016 20.43014717102051 75.47508239746094 25.0145263671875 C 77.48226165771484 29.76002502441406 78.49998474121094 34.8018684387207 78.49998474121094 39.99999237060547 C 78.49998474121094 45.19812393188477 77.48226165771484 50.23995971679688 75.47508239746094 54.98546981811523 C 73.53604888916016 59.5698356628418 70.75984954833984 63.68733596801758 67.22359466552734 67.22359466552734 C 63.68733596801758 70.75984954833984 59.5698356628418 73.53604888916016 54.98546981811523 75.47508239746094 C 50.23995971679688 77.48226165771484 45.19812393188477 78.49998474121094 39.99999237060547 78.49998474121094 Z" stroke="none"/>
                                <path d="M 39.99999237060547 2.999992370605469 C 35.00370025634766 2.999992370605469 30.1584587097168 3.97784423828125 25.59884643554688 5.906402587890625 C 21.19327163696289 7.769805908203125 17.23603057861328 10.43805694580078 13.83704376220703 13.83704376220703 C 10.43805694580078 17.23603057861328 7.769805908203125 21.19327163696289 5.906402587890625 25.59884643554688 C 3.97784423828125 30.1584587097168 2.999992370605469 35.00370025634766 2.999992370605469 39.99999237060547 C 2.999992370605469 44.99628448486328 3.97784423828125 49.84152603149414 5.906402587890625 54.40113830566406 C 7.769805908203125 58.80671310424805 10.43805694580078 62.76395416259766 13.83704376220703 66.16294097900391 C 17.23603057861328 69.56191253662109 21.19327163696289 72.23016357421875 25.59884643554688 74.09356689453125 C 30.1584587097168 76.02212524414062 35.00370025634766 76.99997711181641 39.99999237060547 76.99997711181641 C 44.99628448486328 76.99997711181641 49.84152603149414 76.02212524414062 54.40113830566406 74.09356689453125 C 58.80671310424805 72.23016357421875 62.76395416259766 69.56191253662109 66.16294097900391 66.16294097900391 C 69.56191253662109 62.76395416259766 72.23016357421875 58.80671310424805 74.09356689453125 54.40113830566406 C 76.02212524414062 49.84152603149414 76.99997711181641 44.99628448486328 76.99997711181641 39.99999237060547 C 76.99997711181641 35.00370025634766 76.02212524414062 30.1584587097168 74.09356689453125 25.59884643554688 C 72.23016357421875 21.19327163696289 69.56191253662109 17.23603057861328 66.16294097900391 13.83704376220703 C 62.76395416259766 10.43805694580078 58.80671310424805 7.769805908203125 54.40113830566406 5.906402587890625 C 49.84152603149414 3.97784423828125 44.99628448486328 2.999992370605469 39.99999237060547 2.999992370605469 M 39.99999237060547 -7.62939453125e-06 C 62.09137725830078 -7.62939453125e-06 79.99997711181641 17.90860748291016 79.99997711181641 39.99999237060547 C 79.99997711181641 62.09137725830078 62.09137725830078 79.99997711181641 39.99999237060547 79.99997711181641 C 17.90860748291016 79.99997711181641 -7.62939453125e-06 62.09137725830078 -7.62939453125e-06 39.99999237060547 C -7.62939453125e-06 17.90860748291016 17.90860748291016 -7.62939453125e-06 39.99999237060547 -7.62939453125e-06 Z" stroke="none" fill="#83793c"/>
                              </g>
                            </g>
                          </g>
                        </g>
                      </g>
                    </g>
                  </g>
                </g>
              </g>
            </g>
          </g>
          <g id="g8115" transform="translate(215.793 2790.01)">
            <g id="g8117" transform="translate(0 -682.665)">
              <g id="g8119" clip-path="url(#clip-path)">
                <g id="g8125" transform="translate(-33.259 0.709)">
                  <path id="path8127" d="M-338.457-377.826h-25.835v-25.108c5.31-7.679,37.755-5.416,25.835,25.108" transform="translate(364.292 406.667)" fill="#fbdf63"/>
                </g>
                <g id="g8129" transform="translate(-33.259 0.709)">
                  <path id="path8131" d="M-338.457-377.826h-.619c6.164-24.728-15.887-30.6-25.216-24.374v-.734c5.31-7.679,37.755-5.416,25.835,25.108" transform="translate(364.292 406.667)" fill="#f9d11f"/>
                </g>
              </g>
            </g>
            <g id="g8265" transform="translate(0 -682.665)">
              <g id="g8267" clip-path="url(#clip-path)">
                <g id="g8273" transform="translate(-33.259 51.036)">
                  <path id="path8275" d="M-338.457-377.654h-25.835v-25.1c5.31-7.676,37.755-5.413,25.835,25.1" transform="translate(364.292 406.481)" fill="#003343"/>
                </g>
                <g id="g8277" transform="translate(-33.259 51.036)">
                  <path id="path8279" d="M-338.457-377.654h-.619c6.164-24.717-15.887-30.585-25.216-24.362v-.734c5.31-7.676,37.755-5.413,25.835,25.1" transform="translate(364.292 406.481)" fill="#002439"/>
                </g>
              </g>
            </g>
            <g id="g8281" transform="translate(0 -682.665)">
              <g id="g8283" clip-path="url(#clip-path)">
                <g id="g8289" transform="translate(17.066 51.014)">
                  <path id="path8291" d="M-338.457-377.826h-25.835v-25.108c5.31-7.679,37.755-5.416,25.835,25.108" transform="translate(364.292 406.667)" fill="#ff7e50"/>
                </g>
                <g id="g8293" transform="translate(17.066 51.014)">
                  <path id="path8295" d="M-338.457-377.826h-.619c6.164-24.728-15.887-30.6-25.216-24.374v-.734c5.31-7.679,37.755-5.416,25.835,25.108" transform="translate(364.292 406.667)" fill="#ff6247"/>
                </g>
                <g id="g8297" transform="translate(2.941 54.225)">
                  <path id="path8299" d="M-233.028-131.751v15.573h-14.6c-12.2-25.649,14.6-34.273,14.6-15.573" transform="translate(250.816 141.808)" fill="#ffa68a"/>
                </g>
                <g id="g8301" transform="translate(2.941 54.225)">
                  <path id="path8303" d="M-233.028-131.751c-.9-16.1-20.23-9.82-14.176,15.573h-.427c-12.2-25.649,14.6-34.273,14.6-15.573" transform="translate(250.816 141.808)" fill="#ff7e50"/>
                </g>
              </g>
            </g>
          </g>
        </g>
      </g>
    </g>
    <g id="storytelling_1702323_2_" data-name="storytelling_1702323 (2)" transform="translate(842.311 4318.201)">
      <path id="Trazado_1054010" data-name="Trazado 1054010" d="M278.255,247.825l-4.132-13.743a2.273,2.273,0,0,0-2.271-1.614h-5.7a9.247,9.247,0,0,1-1.3.582v1.325a3.087,3.087,0,0,1-2.154,2.937c0-.009,0-.018,0-.027a7.026,7.026,0,0,1,.1,1.144h.548a1.591,1.591,0,0,1,1.594,1.577v1.319a1.591,1.591,0,0,1-1.594,1.577h-.773a6.677,6.677,0,0,1-1.207,2.409l10.33-5.949c.58-.334,1.054-.06,1.054.607v5.177h1.335a.973.973,0,0,1,.974.972v4.737a.972.972,0,0,1-.974.971h-1.335V254h1.081a4.637,4.637,0,0,0,3.779-1.811,4.87,4.87,0,0,0,.655-4.363Zm0,0" transform="translate(-230.49 -205.406)" fill="#ef5050"/>
      <path id="Trazado_1054011" data-name="Trazado 1054011" d="M177.485,96.353h-1.532V93.81a.933.933,0,0,0-.935-.93h-16.9a.933.933,0,0,0-.935.93v2.544h-1.532a2,2,0,0,0-2.017,1.985v2.1a2,2,0,0,0,2.017,1.985h1.684a9.553,9.553,0,0,0,3.218,5.6,7.175,7.175,0,0,1,6.959,5.947,3.086,3.086,0,0,0,2.154-2.937v-1.325a9.512,9.512,0,0,0,6.131-7.288h1.684a2,2,0,0,0,2.017-1.985v-2.1a2,2,0,0,0-2.017-1.985Zm0,0" transform="translate(-135.311 -82.068)" fill="#ffd5b3"/>
      <path id="Trazado_1054012" data-name="Trazado 1054012" d="M167.134,20.913h1.532V18.369a.933.933,0,0,1,.935-.93h16.9a.933.933,0,0,1,.935.93v2.544h1.532a2.035,2.035,0,0,1,.505.065V14.4a4.962,4.962,0,0,0-7.788-4.047C180.228,8.476,177.691,7.5,174.8,7.5a8.152,8.152,0,0,0-8.173,8.131v5.347a2.028,2.028,0,0,1,.5-.065Zm0,0" transform="translate(-146.791 -6.628)" fill="#f7931e"/>
      <path id="Trazado_1054013" data-name="Trazado 1054013" d="M167.134,20.913h1.532V18.369a.933.933,0,0,1,.935-.93h.6V15.631a8.143,8.143,0,0,1,6.559-7.971A11.784,11.784,0,0,0,174.8,7.5a8.152,8.152,0,0,0-8.173,8.131v5.347a2.028,2.028,0,0,1,.5-.065Zm0,0" transform="translate(-146.791 -6.627)" fill="#de841b"/>
      <path id="Trazado_1054014" data-name="Trazado 1054014" d="M239.593,189.75a3.461,3.461,0,0,1-3.312-3.585.469.469,0,0,1,.473-.466h5.678a.47.47,0,0,1,.473.466A3.461,3.461,0,0,1,239.593,189.75Zm0,0" transform="translate(-208.335 -164.083)" fill="#fb8276"/>
      <path id="Trazado_1054015" data-name="Trazado 1054015" d="M238.727,186.165a.469.469,0,0,1,.473-.466h-2.446a.469.469,0,0,0-.473.466,3.461,3.461,0,0,0,3.312,3.585,3.073,3.073,0,0,0,1.223-.255A3.6,3.6,0,0,1,238.727,186.165Zm0,0" transform="translate(-208.335 -164.083)" fill="#e1756a"/>
      <path id="Trazado_1054016" data-name="Trazado 1054016" d="M132.012,238.875a2.346,2.346,0,0,0,2.109,0l3.379-1.947a6.677,6.677,0,0,0,1.207-2.409h.773a1.591,1.591,0,0,0,1.594-1.577v-1.319a1.591,1.591,0,0,0-1.594-1.577h-.548a7.153,7.153,0,0,0-7.221-7.068h-1.165a7.153,7.153,0,0,0-7.221,7.068h-.548a1.591,1.591,0,0,0-1.594,1.577v1.015Zm0,0" transform="translate(-106.635 -197.021)" fill="#ffd5b3"/>
      <path id="Trazado_1054017" data-name="Trazado 1054017" d="M154.587,224.462a7.282,7.282,0,0,0-4.424-1.486H149a7.2,7.2,0,0,0-6.932,5.1,1.553,1.553,0,0,0,2.029-.141l.86-.858a1.55,1.55,0,0,0,2.631.872l.86-.858a1.535,1.535,0,0,0,.437.872,1.553,1.553,0,0,0,2.194,0Zm0,0" transform="translate(-125.087 -197.021)" fill="#f7931e"/>
      <path id="Trazado_1054018" data-name="Trazado 1054018" d="M142.416,261.191a6.948,6.948,0,0,1,.48-2.541,1.574,1.574,0,0,1-.133-.439l-.86.858a1.554,1.554,0,0,1-2.029.141,6.943,6.943,0,0,0-.289,1.982v2.739a6.7,6.7,0,0,0,.1,1.129l2.767,1.594c-.022-1.165-.033-2.5-.033-2.723v-2.739Zm0,0" transform="translate(-122.895 -228.154)" fill="#e5bfa1"/>
      <path id="Trazado_1054019" data-name="Trazado 1054019" d="M150.993,223.026a7.349,7.349,0,0,0-.83-.049H149a7.2,7.2,0,0,0-6.932,5.1,1.553,1.553,0,0,0,2.029-.141l.86-.858a1.561,1.561,0,0,0,.133.439A7.206,7.206,0,0,1,150.993,223.026Zm0,0" transform="translate(-125.087 -197.022)" fill="#de841b"/>
      <path id="Trazado_1054020" data-name="Trazado 1054020" d="M117.921,296.422h1.1v-5.177c0-.668-.475-.941-1.054-.608l-13.709,7.9a2.343,2.343,0,0,1-2.109,0l-13.709-7.9c-.58-.334-1.054-.06-1.054.608v5.177H88.7a.973.973,0,0,1,.974.972v4.737a.972.972,0,0,1-.974.971H87.386v2.337a2.334,2.334,0,0,0,1.054,1.822l13.709,7.9a2.343,2.343,0,0,0,2.109,0l13.709-7.9a2.334,2.334,0,0,0,1.054-1.822V303.1h-1.1a.973.973,0,0,1-.974-.971v-4.737a.973.973,0,0,1,.974-.972Zm0,0" transform="translate(-76.772 -256.68)" fill="#d5e962"/>
      <path id="Trazado_1054021" data-name="Trazado 1054021" d="M102.149,298.534l-13.709-7.9c-.58-.334-1.054-.06-1.054.608v5.177H88.7a.973.973,0,0,1,.974.972v4.737a.972.972,0,0,1-.974.971H87.386v2.337a2.334,2.334,0,0,0,1.054,1.822l13.709,7.9a2.16,2.16,0,0,0,1.055.251V298.784a2.165,2.165,0,0,1-1.055-.25Zm0,0" transform="translate(-76.772 -256.681)" fill="#89c947"/>
      <path id="Trazado_1054022" data-name="Trazado 1054022" d="M88.7,296.422a.973.973,0,0,1,.958.8v-4.68c0-.617.406-.9.925-.671l-2.145-1.236c-.58-.334-1.054-.06-1.054.608v5.177Zm0,0" transform="translate(-76.773 -256.681)" fill="#7bb540"/>
      <path id="Trazado_1054023" data-name="Trazado 1054023" d="M90.041,375.965q-.179-.179-.365-.347v1.727a.972.972,0,0,1-.974.971H87.386v2.337a2.334,2.334,0,0,0,1.054,1.822l5.092,2.933A11.736,11.736,0,0,0,90.041,375.965Zm0,0" transform="translate(-76.772 -331.894)" fill="#ffc502"/>
      <path id="Trazado_1054024" data-name="Trazado 1054024" d="M91.326,398.511l-.61-.351a2.332,2.332,0,0,1-1.054-1.822V391.9a.973.973,0,0,1-.958.8H87.387v2.337a2.334,2.334,0,0,0,1.054,1.822l2.893,1.667Zm0,0" transform="translate(-76.773 -346.28)" fill="#e5b102"/>
      <path id="Trazado_1054025" data-name="Trazado 1054025" d="M253.54,370.184a1.219,1.219,0,0,0,.334-.238l1.973-1.957,1.973.117a.707.707,0,0,0,.334-.073,1.248,1.248,0,0,0,.422-.334,1.082,1.082,0,0,0,.286-.836l-.377-2.021,1.6-2.3a.94.94,0,0,0,.181-.821.425.425,0,0,0-.58-.219l-2.206.708-.987-1.539a.477.477,0,0,0-.644-.1,1.347,1.347,0,0,0-.644.7l-.987,2.459-2.206,1.35a1.362,1.362,0,0,0-.58.759c-.085.3-.015.551.181.652l1.6.812-.377,2.373c-.046.293.063.511.286.569a.631.631,0,0,0,.422-.06Zm0,0" transform="translate(-221.689 -318.532)" fill="#ffc502"/>
      <path id="Trazado_1054026" data-name="Trazado 1054026" d="M255.032,394.878l.377-2.373-1.6-.811c-.2-.1-.267-.351-.181-.652a1.231,1.231,0,0,1,.11-.261l-1.731,1.059a1.362,1.362,0,0,0-.58.759c-.085.3-.015.551.181.652l1.6.812-.377,2.373c-.046.293.063.511.286.569a.634.634,0,0,0,.422-.06,1.23,1.23,0,0,0,.334-.239l1.325-1.314A.5.5,0,0,1,255.032,394.878Zm0,0" transform="translate(-221.69 -345.292)" fill="#e5b102"/>
      <path id="Trazado_1054027" data-name="Trazado 1054027" d="M73.793,347.118a.973.973,0,0,1-.974.972H70.385a.973.973,0,0,1-.974-.972v-4.736a.973.973,0,0,1,.974-.972h2.435a.973.973,0,0,1,.974.972Zm0,0" transform="translate(-60.889 -301.668)" fill="#ffd5b3"/>
      <path id="Trazado_1054028" data-name="Trazado 1054028" d="M71.183,347.118v-4.736a.973.973,0,0,1,.974-.972H70.384a.973.973,0,0,0-.974.972v4.736a.973.973,0,0,0,.974.972h1.773A.973.973,0,0,1,71.183,347.118Zm0,0" transform="translate(-60.889 -301.668)" fill="#e5bfa1"/>
      <path id="Trazado_1054029" data-name="Trazado 1054029" d="M345.718,347.118a.973.973,0,0,1-.974.972H342.31a.973.973,0,0,1-.974-.972v-4.736a.973.973,0,0,1,.974-.972h2.435a.972.972,0,0,1,.974.972Zm0,0" transform="translate(-301.161 -301.668)" fill="#ffd5b3"/>
      <path id="Trazado_1054030" data-name="Trazado 1054030" d="M343.118,347.118v-4.736a.973.973,0,0,1,.974-.972H342.31a.973.973,0,0,0-.974.972v4.736a.973.973,0,0,0,.974.972h1.782A.973.973,0,0,1,343.118,347.118Zm0,0" transform="translate(-301.161 -301.668)" fill="#e5bfa1"/>
      <path id="Trazado_1054031" data-name="Trazado 1054031" d="M24.326,152.057l-1.776-1.121v-5.772A1.167,1.167,0,0,0,21.387,144H9.164A1.167,1.167,0,0,0,8,145.164v9.312a1.167,1.167,0,0,0,1.164,1.164H21.387a1.167,1.167,0,0,0,1.164-1.164V153.8l1.776-1.121A.339.339,0,0,0,24.326,152.057Zm0,0" transform="translate(-6.627 -127.238)" fill="#fcdb67"/>
      <path id="Trazado_1054032" data-name="Trazado 1054032" d="M11.526,154.476v-9.312A1.167,1.167,0,0,1,12.69,144H9.164A1.167,1.167,0,0,0,8,145.164v9.312a1.167,1.167,0,0,0,1.164,1.164H12.69A1.167,1.167,0,0,1,11.526,154.476Zm0,0" transform="translate(-6.627 -127.238)" fill="#e2c55c"/>
      <path id="Trazado_1054033" data-name="Trazado 1054033" d="M193.558,100.379h-1.872a.06.06,0,0,0-.062.057v6.918a8.688,8.688,0,0,0,2.838,6.44,8.174,8.174,0,0,1,1.9.347,9.556,9.556,0,0,1-2.812-6.787v-6.918c0-.02,0-.038,0-.057Zm0,0" transform="translate(-168.877 -88.695)" fill="#e5bfa1"/>
      <path id="Trazado_1054034" data-name="Trazado 1054034" d="M102.863,42.167l-2.324-7.73a.873.873,0,1,0-1.672.5l2.324,7.73a4.007,4.007,0,0,1-.519,3.589,3.773,3.773,0,0,1-3.079,1.46h-.208v-.425h.462a1.848,1.848,0,0,0,1.847-1.844V40.713a1.848,1.848,0,0,0-1.847-1.845h-.462v-4.3a1.5,1.5,0,0,0-1.459-1.623,1.807,1.807,0,0,0-.9.259l-5.488,3.161a2.434,2.434,0,0,0,.042-.442V34.6a2.455,2.455,0,0,0-1.822-2.362,3.949,3.949,0,0,0,1.74-3.27v-.73c.221-.095.438-.2.652-.305H95.66a1.4,1.4,0,0,1,1.4.993l.618,2.055a.873.873,0,1,0,1.672-.5l-.618-2.055a3.14,3.14,0,0,0-3.123-2.235H92.582a10.43,10.43,0,0,0,2.878-4.959h.976a2.877,2.877,0,0,0,2.89-2.858v-2.1a2.856,2.856,0,0,0-1.512-2.511V7.773a5.832,5.832,0,0,0-8.486-5.165A9.6,9.6,0,0,0,82.274,0a9.035,9.035,0,0,0-9.046,9v4.755a2.855,2.855,0,0,0-1.512,2.511v2.1a2.877,2.877,0,0,0,2.89,2.858h.976a10.422,10.422,0,0,0,1.906,3.883,8.042,8.042,0,0,0-7.359,7.055,2.465,2.465,0,0,0-2.146,1.965L66.366,33.2a1.8,1.8,0,0,0-.9-.259A1.5,1.5,0,0,0,64,34.565v4.3h-.246a1.848,1.848,0,0,0-1.847,1.845V45.45a1.848,1.848,0,0,0,1.847,1.845H64v1.464a3.2,3.2,0,0,0,1.492,2.579l13.709,7.9a3.208,3.208,0,0,0,2.981,0l13.709-7.9a3.22,3.22,0,0,0,1.389-1.871h.311a5.5,5.5,0,0,0,4.478-2.162,5.734,5.734,0,0,0,.792-5.136ZM87.829,34.6V35.92a.705.705,0,0,1-.439.648,7.586,7.586,0,0,0,.043-.792v-1.8A.7.7,0,0,1,87.829,34.6Zm-.793-4.017a7.847,7.847,0,0,0-.715-1.563,10.105,10.105,0,0,0,1.427-.215v.164A2.19,2.19,0,0,1,87.035,30.584Zm9.4-15.426a1.129,1.129,0,0,1,1.144,1.112v2.1a1.129,1.129,0,0,1-1.144,1.112h-.691q.032-.407.032-.823v-3.5ZM91.983,3.715a4.076,4.076,0,0,1,4.085,4.058v5.639h-.291V11.742a1.808,1.808,0,0,0-1.808-1.8H91.32v-2.2a7.487,7.487,0,0,0-.928-3.7,4.074,4.074,0,0,1,1.591-.323ZM74.6,19.483a1.13,1.13,0,0,1-1.144-1.112v-2.1A1.13,1.13,0,0,1,74.6,15.158h.659v3.5c0,.277.011.551.032.823Zm.659-7.741v1.671h-.291V9a7.287,7.287,0,0,1,7.3-7.258A8.54,8.54,0,0,1,87.516,3.31a5.4,5.4,0,0,1,2.058,4.43v2.2h-12.5a1.808,1.808,0,0,0-1.808,1.8ZM77.01,18.66V11.742a.06.06,0,0,1,.062-.057h16.9a.06.06,0,0,1,.062.057V18.66a8.589,8.589,0,0,1-8.511,8.648c-.2,0-.4-.008-.6-.023A8.129,8.129,0,0,0,79.848,25.1a8.688,8.688,0,0,1-2.838-6.44Zm1.164,8.168h1.164a6.424,6.424,0,0,1,3.04.76l-2.743,2.736a.681.681,0,0,1-.961,0,.665.665,0,0,1-.189-.379A.873.873,0,0,0,77,29.452l-.86.858a.682.682,0,0,1-.961,0,.665.665,0,0,1-.189-.38.873.873,0,0,0-1.481-.493l-.86.858a.668.668,0,0,1-.249.155A6.365,6.365,0,0,1,78.174,26.828Zm-6.348,6.209a6.114,6.114,0,0,1,.057-.821,2.426,2.426,0,0,0,2-.684l.025-.025.039.039a2.43,2.43,0,0,0,3.427,0l.025-.025.038.039a2.43,2.43,0,0,0,3.428,0l2.937-2.93a6.122,6.122,0,0,1,1.881,4.407v2.739a5.779,5.779,0,0,1-1.151,3.464L81.312,41.1a1.5,1.5,0,0,1-1.237,0l-8.219-4.734a5.806,5.806,0,0,1-.03-.586ZM69.683,34.6a.7.7,0,0,1,.4-.628V35.34l-.4-.228ZM63.757,45.548a.1.1,0,0,1-.1-.1V40.713a.1.1,0,0,1,.1-.1h2.435a.1.1,0,0,1,.1.1v4.736a.1.1,0,0,1-.1.1Zm2.609,4.276a1.474,1.474,0,0,1-.617-1.066V47.294h.443a1.848,1.848,0,0,0,1.786-1.385A10.762,10.762,0,0,1,70.2,52.03Zm29.271-1.066a1.473,1.473,0,0,1-.617,1.065L81.567,57.572V56.456a.873.873,0,0,0-1.746,0v1.116L71.934,53.03a12.587,12.587,0,0,0-3.787-9.578c-.035-.035-.073-.068-.108-.1V40.713a1.848,1.848,0,0,0-1.847-1.845h-.443V34.86L79.2,42.609a2.639,2.639,0,0,0,.617.251v9.522a.873.873,0,0,0,1.746,0V42.86a2.619,2.619,0,0,0,.617-.251L95.638,34.86v4.008h-.227a1.848,1.848,0,0,0-1.847,1.845v1.978a1.249,1.249,0,0,0-1.105-.628,1.532,1.532,0,0,0-.469.076l-1.566.5-.624-.974a1.251,1.251,0,0,0-1.074-.577,1.59,1.59,0,0,0-.673.157,2.226,2.226,0,0,0-1.086,1.167l-.879,2.19-1.958,1.2a2.237,2.237,0,0,0-.965,1.267,1.379,1.379,0,0,0,.627,1.667l1.03.523-.277,1.746a1.311,1.311,0,0,0,.927,1.551,1.347,1.347,0,0,0,.341.043,1.592,1.592,0,0,0,.674-.157,2.113,2.113,0,0,0,.578-.409l1.7-1.682,1.585.094a1.568,1.568,0,0,0,.753-.153,2.134,2.134,0,0,0,.723-.565,1.938,1.938,0,0,0,.475-1.556l-.31-1.663,1.389-2a2.2,2.2,0,0,0,.192-.336v1.279a1.848,1.848,0,0,0,1.847,1.845h.227v1.464ZM90.2,46.469l.37,1.983a.463.463,0,0,1-.09.153.448.448,0,0,1-.1.093l-1.906-.113a.862.862,0,0,0-.667.251L86.44,50.191l.2-1.285a.873.873,0,0,0-.467-.915l-1.227-.624a.423.423,0,0,1,.089-.075l2.206-1.35a.875.875,0,0,0,.355-.42l.986-2.458c0-.011.01-.022.015-.032l.715,1.116a.873.873,0,0,0,1,.36l1.194-.383-1.17,1.686a.871.871,0,0,0-.141.658Zm5.211-.921a.1.1,0,0,1-.1-.1V40.713a.1.1,0,0,1,.1-.1h2.435a.1.1,0,0,1,.1.1v4.736a.1.1,0,0,1-.1.1Zm0,0" transform="translate(-54.262)"/>
      <path id="Trazado_1054035" data-name="Trazado 1054035" d="M215.139,133.454a.873.873,0,0,0,.873-.873v-1.192a.873.873,0,0,0-1.746,0v1.192A.873.873,0,0,0,215.139,133.454Zm0,0" transform="translate(-188.883 -115.323)"/>
      <path id="Trazado_1054036" data-name="Trazado 1054036" d="M301.076,133.454a.873.873,0,0,0,.873-.873v-1.192a.873.873,0,1,0-1.746,0v1.192A.873.873,0,0,0,301.076,133.454Zm0,0" transform="translate(-264.816 -115.323)"/>
      <path id="Trazado_1054037" data-name="Trazado 1054037" d="M251.744,137.34h1.035a.873.873,0,0,0,0-1.746h-.744v-2.1a.873.873,0,1,0-1.746,0v2.395A1.457,1.457,0,0,0,251.744,137.34Zm0,0" transform="translate(-220.712 -117.181)"/>
      <path id="Trazado_1054038" data-name="Trazado 1054038" d="M232.966,184a4.333,4.333,0,0,0,4.186-4.458,1.344,1.344,0,0,0-1.346-1.339h-5.678a1.344,1.344,0,0,0-1.346,1.339A4.333,4.333,0,0,0,232.966,184Zm2.412-4.051a2.414,2.414,0,0,1-4.823,0Zm0,0" transform="translate(-201.708 -157.456)"/>
      <path id="Trazado_1054039" data-name="Trazado 1054039" d="M165.99,299.756a.873.873,0,0,0,.873-.873v-.518a.873.873,0,1,0-1.746,0v.518A.873.873,0,0,0,165.99,299.756Zm0,0" transform="translate(-145.455 -262.863)"/>
      <path id="Trazado_1054040" data-name="Trazado 1054040" d="M234.006,299.756a.873.873,0,0,0,.873-.873v-.518a.873.873,0,1,0-1.746,0v.518A.873.873,0,0,0,234.006,299.756Zm0,0" transform="translate(-205.553 -262.863)"/>
      <path id="Trazado_1054041" data-name="Trazado 1054041" d="M196.64,304.538h.443a.873.873,0,1,0,0-1.746h-.012v-.348a.873.873,0,1,0-1.746,0v.639a1.392,1.392,0,0,0,1.315,1.455Zm0,0" transform="translate(-172.146 -266.467)"/>
      <path id="Trazado_1054042" data-name="Trazado 1054042" d="M10.778,149.014a.873.873,0,0,0-.873-.873H2.537a.3.3,0,0,1-.291-.291v-9.312a.3.3,0,0,1,.291-.291H14.76a.3.3,0,0,1,.291.291v5.772a.873.873,0,0,0,.407.738l1.1.693-1.1.693a.872.872,0,0,0-.407.738v.678a.3.3,0,0,1-.291.291h-.781a.873.873,0,0,0,0,1.746h.781a2.04,2.04,0,0,0,2.037-2.037v-.2l1.369-.864a1.207,1.207,0,0,0,0-2.1l-1.369-.864v-5.291A2.04,2.04,0,0,0,14.76,136.5H2.537A2.039,2.039,0,0,0,.5,138.537v9.312a2.039,2.039,0,0,0,2.037,2.037H9.9A.873.873,0,0,0,10.778,149.014Zm0,0" transform="translate(0 -120.611)"/>
      <path id="Trazado_1054043" data-name="Trazado 1054043" d="M27.979,163.926h8.473a.873.873,0,1,0,0-1.746H27.979a.873.873,0,1,0,0,1.746Zm0,0" transform="translate(-23.508 -143.302)"/>
      <path id="Trazado_1054044" data-name="Trazado 1054044" d="M37.324,185.873a.873.873,0,0,0-.873-.873H27.979a.873.873,0,1,0,0,1.746h8.473A.873.873,0,0,0,37.324,185.873Zm0,0" transform="translate(-23.509 -163.465)"/>
      <path id="Trazado_1054045" data-name="Trazado 1054045" d="M27.979,207.82a.873.873,0,1,0,0,1.746h4.935a.873.873,0,1,0,0-1.746Zm0,0" transform="translate(-23.508 -183.629)"/>
    </g>
  </g>
</svg>
