<svg xmlns="http://www.w3.org/2000/svg" xmlns:xlink="http://www.w3.org/1999/xlink" width="108" height="108" viewBox="0 0 108 108">
  <defs>
    <filter id="Trazado_904820" x="0" y="0" width="108" height="108" filterUnits="userSpaceOnUse">
      <feOffset dy="3" input="SourceAlpha"/>
      <feGaussianBlur stdDeviation="3" result="blur"/>
      <feFlood flood-opacity="0.161"/>
      <feComposite operator="in" in2="blur"/>
      <feComposite in="SourceGraphic"/>
    </filter>
  </defs>
  <g id="Grupo_1208891" data-name="Grupo 1208891" transform="translate(9 6)">
    <g id="Grupo_1207936" data-name="Grupo 1207936" transform="translate(0 0)">
      <g id="Grupo_1201662" data-name="Grupo 1201662">
        <g id="Grupo_1173585" data-name="Grupo 1173585">
          <g id="Grupo_1173428" data-name="Grupo 1173428">
            <g id="Grupo_1171958" data-name="Grupo 1171958">
              <g id="Grupo_1167341" data-name="Grupo 1167341">
                <g id="Grupo_1166792" data-name="Grupo 1166792">
                  <g transform="matrix(1, 0, 0, 1, -9, -6)" filter="url(#Trazado_904820)">
                    <g id="Trazado_904820-2" data-name="Trazado 904820" transform="translate(9 6)" fill="#fdfbec">
                      <path d="M 44.99999618530273 88.50003051757812 C 39.12687301635742 88.50003051757812 33.43022155761719 87.35010528564453 28.06829643249512 85.08219146728516 C 22.88852119445801 82.89134216308594 18.23629570007324 79.75461578369141 14.24084663391113 75.75916290283203 C 10.24540901184082 71.76371765136719 7.108683586120605 67.11148834228516 4.917821407318115 61.93171691894531 C 2.649921178817749 56.56978988647461 1.499996185302734 50.87313842773438 1.499996185302734 45.00001525878906 C 1.499996185302734 39.12689208984375 2.649921178817749 33.43024063110352 4.917821407318115 28.06830215454102 C 7.108683586120605 22.88852691650391 10.24540901184082 18.23631477355957 14.24084663391113 14.24086570739746 C 18.23629570007324 10.24541568756104 22.88852119445801 7.10869026184082 28.06829643249512 4.917827606201172 C 33.43022155761719 2.649927854537964 39.12687301635742 1.50000274181366 44.99999618530273 1.50000274181366 C 50.87311935424805 1.50000274181366 56.56977081298828 2.649927854537964 61.93169784545898 4.917827606201172 C 67.11147308349609 7.10869026184082 71.76369476318359 10.24541568756104 75.75914764404297 14.24086570739746 C 79.75458526611328 18.23631477355957 82.89131164550781 22.88852691650391 85.08216857910156 28.06830215454102 C 87.35007476806641 33.43024063110352 88.5 39.12689208984375 88.5 45.00001525878906 C 88.5 50.87313842773438 87.35007476806641 56.56978988647461 85.08216857910156 61.93171691894531 C 82.89131164550781 67.11148834228516 79.75458526611328 71.76371765136719 75.75914764404297 75.75916290283203 C 71.76369476318359 79.75461578369141 67.11147308349609 82.89134216308594 61.93169784545898 85.08219146728516 C 56.56977081298828 87.35010528564453 50.87311935424805 88.50003051757812 44.99999618530273 88.50003051757812 Z" stroke="none"/>
                      <path d="M 44.99999618530273 3 C 39.32870864868164 3 33.82865142822266 4.110061645507812 28.65262603759766 6.299346923828125 C 23.65165710449219 8.414573669433594 19.15968322753906 11.44334411621094 15.301513671875 15.301513671875 C 11.44333648681641 19.15968322753906 8.414566040039062 23.65165710449219 6.299339294433594 28.65262985229492 C 4.110054016113281 33.82867050170898 2.999992370605469 39.32872772216797 2.999992370605469 45.00001525878906 C 2.999992370605469 50.67130279541016 4.110054016113281 56.17136001586914 6.299339294433594 61.34738922119141 C 8.414566040039062 66.34837341308594 11.44333648681641 70.84033203125 15.301513671875 74.69850158691406 C 19.15968322753906 78.55668640136719 23.65165710449219 81.58545684814453 28.65262603759766 83.70068359375 C 33.82865142822266 85.88996887207031 39.32870864868164 87.00003051757812 44.99999618530273 87.00003051757812 C 50.67128372192383 87.00003051757812 56.17134094238281 85.88996887207031 61.34736633300781 83.70068359375 C 66.34834289550781 81.58545684814453 70.84030914306641 78.55668640136719 74.69847869873047 74.69850158691406 C 78.55665588378906 70.84033203125 81.58542633056641 66.34837341308594 83.70065307617188 61.34738922119141 C 85.88993835449219 56.17136001586914 87 50.67130279541016 87 45.00001525878906 C 87 39.32872772216797 85.88993835449219 33.82867050170898 83.70065307617188 28.65262985229492 C 81.58542633056641 23.65165710449219 78.55665588378906 19.15968322753906 74.69847869873047 15.301513671875 C 70.84030914306641 11.44334411621094 66.34834289550781 8.414573669433594 61.34736633300781 6.299346923828125 C 56.17134094238281 4.110061645507812 50.67128372192383 3 44.99999618530273 3 M 44.99999618530273 0 C 69.85281372070312 0 90 20.14718627929688 90 45.00001525878906 C 90 69.85282897949219 69.85281372070312 90.00003051757812 44.99999618530273 90.00003051757812 C 20.14717864990234 90.00003051757812 -7.62939453125e-06 69.85282897949219 -7.62939453125e-06 45.00001525878906 C -7.62939453125e-06 20.14718627929688 20.14717864990234 0 44.99999618530273 0 Z" stroke="none" fill="#83793c"/>
                    </g>
                  </g>
                </g>
              </g>
            </g>
          </g>
        </g>
      </g>
    </g>
    <g id="anxiety_9589931" transform="translate(8.335 9.295)">
      <path id="Trazado_1053265" data-name="Trazado 1053265" d="M99.583,16.257a2.338,2.338,0,0,1-.691-1.691v-.01c0-3.9-6.738-7.056-15.049-7.056s-15.049,3.159-15.049,7.056v.01a2.339,2.339,0,0,1-.691,1.691A20.584,20.584,0,0,0,61.79,31.038a20.26,20.26,0,0,0,1.376,7.353h41.353a20.261,20.261,0,0,0,1.376-7.353A20.584,20.584,0,0,0,99.583,16.257Z" transform="translate(-47.168)" fill="#b76c4e"/>
      <path id="Trazado_1053266" data-name="Trazado 1053266" d="M84.877,29.831A11.919,11.919,0,0,1,84.269,7.5q-.212,0-.426,0c-8.311,0-15.049,3.159-15.049,7.056v.01a2.339,2.339,0,0,1-.691,1.691A20.584,20.584,0,0,0,61.79,31.038a20.261,20.261,0,0,0,1.376,7.353H84.877Z" transform="translate(-47.168)" fill="#a05838"/>
      <path id="Trazado_1053267" data-name="Trazado 1053267" d="M101.773,231H59.549c-.478,2.272-.973,4.218-1.245,6.57-.527,4.553,1,8.824,3.984,10.838a1.178,1.178,0,0,0,1.827-1.1l-.28-2.736s1.24,8.558,16.826,8.558,16.826-8.558,16.826-8.558l-.28,2.736a1.178,1.178,0,0,0,1.827,1.1c2.985-2.014,4.511-6.285,3.984-10.838C102.746,235.218,102.25,233.272,101.773,231Z" transform="translate(-43.986 -198.132)" fill="#a05838"/>
      <path id="Trazado_1053268" data-name="Trazado 1053268" d="M127.39,407.06H96.19a19.052,19.052,0,0,0-2.681,5.436,4.362,4.362,0,0,0,4.183,5.623h.371l13.727-4.178,13.727,4.178h.371a4.362,4.362,0,0,0,4.183-5.623A19.052,19.052,0,0,0,127.39,407.06Z" transform="translate(-75.115 -354.209)" fill="#fff2de"/>
      <path id="Trazado_1053269" data-name="Trazado 1053269" d="M101.794,412.5a19.042,19.042,0,0,1,2.684-5.436H96.19a19.052,19.052,0,0,0-2.681,5.436,4.362,4.362,0,0,0,4.183,5.623h.371l4.683-1.426A4.314,4.314,0,0,1,101.794,412.5Z" transform="translate(-75.115 -354.209)" fill="#ffe4c2"/>
      <path id="Trazado_1053270" data-name="Trazado 1053270" d="M120.733,352.295a18.481,18.481,0,0,1-.22,2.858h27.453a18.48,18.48,0,0,1-.22-2.858,15.923,15.923,0,0,1,2.093-8.2,19.124,19.124,0,0,0-31.2,0A15.925,15.925,0,0,1,120.733,352.295Z" transform="translate(-97.565 -291.242)" fill="#827cd2"/>
      <circle id="Elipse_13511" data-name="Elipse 13511" cx="4.687" cy="4.687" r="4.687" transform="translate(13.677 30.158)" fill="#f9d6af"/>
      <path id="Trazado_1053271" data-name="Trazado 1053271" d="M124.243,349.529a19.154,19.154,0,0,1,14.139-13.047,19.149,19.149,0,0,0-19.744,7.611,15.925,15.925,0,0,1,2.093,8.2,18.479,18.479,0,0,1-.22,2.858h7.914A4.362,4.362,0,0,1,124.243,349.529Z" transform="translate(-97.565 -291.242)" fill="#625ac5"/>
      <circle id="Elipse_13512" data-name="Elipse 13512" cx="4.687" cy="4.687" r="4.687" transform="translate(50.299 30.158)" fill="#ffe4c2"/>
      <path id="Trazado_1053272" data-name="Trazado 1053272" d="M170.326,312.837a12.115,12.115,0,0,1-7.295-2.35,8.621,8.621,0,0,1,0-14.136,12.5,12.5,0,0,1,14.59,0,8.621,8.621,0,0,1,0,14.136A12.115,12.115,0,0,1,170.326,312.837Z" transform="translate(-133.651 -253.983)" fill="#5c45bf"/>
      <path id="Trazado_1053273" data-name="Trazado 1053273" d="M167.772,296.242a11.664,11.664,0,0,0-4.741,2.1,8.621,8.621,0,0,0,0,14.136,11.2,11.2,0,0,0,2.6,1.46,2.878,2.878,0,0,1,2.08-4.868h.057V296.242Z" transform="translate(-133.651 -255.969)" fill="#3f36ab"/>
      <ellipse id="Elipse_13513" data-name="Elipse 13513" cx="6.44" cy="4.878" rx="6.44" ry="4.878" transform="translate(30.235 44.558)" fill="#f9d6af"/>
      <g id="Grupo_1208649" data-name="Grupo 1208649" transform="translate(18.877 22.562)">
        <path id="Trazado_1053274" data-name="Trazado 1053274" d="M134.533,146.844a7.363,7.363,0,0,0-2.027-3.77L130,140.567a1.229,1.229,0,0,0-2.093.76h0a3.287,3.287,0,0,1-3.274,3H109.514a3.287,3.287,0,0,1-3.274-3h0a1.229,1.229,0,0,0-2.093-.76l-2.506,2.506a7.372,7.372,0,0,0-2.029,3.781,17.8,17.8,0,1,0,34.921-.01Z" transform="translate(-99.275 -140.205)" fill="#fff2de"/>
        <g id="Grupo_1208648" data-name="Grupo 1208648" transform="translate(0 0)">
          <g id="Grupo_1208647" data-name="Grupo 1208647">
            <path id="Trazado_1053275" data-name="Trazado 1053275" d="M107.491,150.769a17.887,17.887,0,0,1,.33-3.914,7.305,7.305,0,0,1,1.063-2.593,3.288,3.288,0,0,1-2.645-2.935h0a1.229,1.229,0,0,0-2.093-.76l-2.506,2.506a7.372,7.372,0,0,0-2.029,3.781,17.809,17.809,0,0,0,21.576,20.775A17.861,17.861,0,0,1,107.491,150.769Z" transform="translate(-99.276 -140.205)" fill="#ffe4c2"/>
          </g>
        </g>
      </g>
      <g id="Grupo_1208650" data-name="Grupo 1208650" transform="translate(8.583 7.5)">
        <path id="Trazado_1053276" data-name="Trazado 1053276" d="M380.208,287.068a8.253,8.253,0,0,0,2.738-4.436l-.28,2.736a1.178,1.178,0,0,0,1.827,1.1c2.985-2.014,4.51-6.285,3.984-10.838-.068-.587-.15-1.149-.242-1.7" transform="translate(-338.028 -243.692)" fill="none" stroke="#000" stroke-linecap="round" stroke-linejoin="round" stroke-miterlimit="10" stroke-width="1.5"/>
        <path id="Trazado_1053277" data-name="Trazado 1053277" d="M58.546,273.913c-.092.549-.174,1.112-.242,1.7-.527,4.553,1,8.824,3.984,10.838a1.178,1.178,0,0,0,1.827-1.1l-.28-2.736a8.255,8.255,0,0,0,2.74,4.438" transform="translate(-52.569 -243.675)" fill="none" stroke="#000" stroke-linecap="round" stroke-linejoin="round" stroke-miterlimit="10" stroke-width="1.5"/>
        <path id="Trazado_1053278" data-name="Trazado 1053278" d="M123.875,14.016c.589-3.645,7.082-6.516,15.006-6.516,8.311,0,15.049,3.159,15.049,7.056v.01a2.339,2.339,0,0,0,.691,1.691,20.584,20.584,0,0,1,6.312,14.781q0,.384-.014.765" transform="translate(-110.789 -7.5)" fill="none" stroke="#000" stroke-linecap="round" stroke-linejoin="round" stroke-miterlimit="10" stroke-width="1.5"/>
        <path id="Trazado_1053279" data-name="Trazado 1053279" d="M34.111,37.167A25.806,25.806,0,0,1,37.8,30.973a11.52,11.52,0,0,0,1.85-3.351A9.408,9.408,0,0,1,40.738,25.5" transform="translate(-31.214 -23.456)" fill="none" stroke="#000" stroke-linecap="round" stroke-linejoin="round" stroke-miterlimit="10" stroke-width="1.5"/>
        <path id="Trazado_1053280" data-name="Trazado 1053280" d="M8.583,17.711a25.806,25.806,0,0,1,3.692-6.194,11.52,11.52,0,0,0,1.85-3.351q.12-.337.268-.666" transform="translate(-8.583 -7.5)" fill="none" stroke="#000" stroke-linecap="round" stroke-linejoin="round" stroke-miterlimit="10" stroke-width="1.5"/>
        <path id="Trazado_1053281" data-name="Trazado 1053281" d="M426.131,37.167a25.8,25.8,0,0,0-3.692-6.194,11.52,11.52,0,0,1-1.85-3.351A9.409,9.409,0,0,0,419.5,25.5" transform="translate(-372.864 -23.456)" fill="none" stroke="#000" stroke-linecap="round" stroke-linejoin="round" stroke-miterlimit="10" stroke-width="1.5"/>
        <path id="Trazado_1053282" data-name="Trazado 1053282" d="M458.04,17.711a25.806,25.806,0,0,0-3.692-6.194,11.52,11.52,0,0,1-1.85-3.351q-.12-.337-.268-.666" transform="translate(-401.875 -7.5)" fill="none" stroke="#000" stroke-linecap="round" stroke-linejoin="round" stroke-miterlimit="10" stroke-width="1.5"/>
        <path id="Trazado_1053283" data-name="Trazado 1053283" d="M441.42,403.894a23.956,23.956,0,0,1,1.8,4.3,9.336,9.336,0,0,1-.327,6.45" transform="translate(-392.292 -358.903)" fill="none" stroke="#000" stroke-linecap="round" stroke-linejoin="round" stroke-miterlimit="10" stroke-width="1.5"/>
        <path id="Trazado_1053284" data-name="Trazado 1053284" d="M479.382,403.894a23.967,23.967,0,0,1,1.8,4.3,9.337,9.337,0,0,1-.327,6.45" transform="translate(-425.946 -358.903)" fill="none" stroke="#000" stroke-linecap="round" stroke-linejoin="round" stroke-miterlimit="10" stroke-width="1.5"/>
        <path id="Trazado_1053285" data-name="Trazado 1053285" d="M53.406,403.894a23.958,23.958,0,0,0-1.8,4.3,9.336,9.336,0,0,0,.327,6.45" transform="translate(-46.35 -358.903)" fill="none" stroke="#000" stroke-linecap="round" stroke-linejoin="round" stroke-miterlimit="10" stroke-width="1.5"/>
        <path id="Trazado_1053286" data-name="Trazado 1053286" d="M15.443,403.894a23.958,23.958,0,0,0-1.8,4.3,9.336,9.336,0,0,0,.327,6.45" transform="translate(-12.696 -358.903)" fill="none" stroke="#000" stroke-linecap="round" stroke-linejoin="round" stroke-miterlimit="10" stroke-width="1.5"/>
        <path id="Trazado_1053287" data-name="Trazado 1053287" d="M61.806,106.85q-.016-.406-.016-.815A20.516,20.516,0,0,1,67.281,92.1" transform="translate(-55.751 -82.496)" fill="none" stroke="#000" stroke-linecap="round" stroke-linejoin="round" stroke-miterlimit="10" stroke-width="1.5"/>
        <path id="Trazado_1053288" data-name="Trazado 1053288" d="M100.81,366.557a19.16,19.16,0,0,0-7.3,10.034,4.362,4.362,0,0,0,4.183,5.623h28.2a4.362,4.362,0,0,0,4.183-5.623,19.16,19.16,0,0,0-7.3-10.034" transform="translate(-83.698 -325.804)" fill="none" stroke="#000" stroke-linecap="round" stroke-linejoin="round" stroke-miterlimit="10" stroke-width="1.5"/>
        <path id="Trazado_1053289" data-name="Trazado 1053289" d="M375.287,418.877a18.517,18.517,0,0,1-.2-2.757,16.005,16.005,0,0,1,2.027-8.092" transform="translate(-333.485 -362.568)" fill="none" stroke="#000" stroke-linecap="round" stroke-linejoin="round" stroke-miterlimit="10" stroke-width="1.5"/>
        <path id="Trazado_1053290" data-name="Trazado 1053290" d="M119.2,407.991a16,16,0,0,1,2.03,8.1,18.52,18.52,0,0,1-.2,2.756" transform="translate(-106.647 -362.535)" fill="none" stroke="#000" stroke-linecap="round" stroke-linejoin="round" stroke-miterlimit="10" stroke-width="1.5"/>
        <path id="Trazado_1053291" data-name="Trazado 1053291" d="M59.814,216.2a4.687,4.687,0,1,1-1.666-9.069,4.735,4.735,0,0,1,.585.036" transform="translate(-48.367 -184.469)" fill="none" stroke="#000" stroke-linecap="round" stroke-linejoin="round" stroke-miterlimit="10" stroke-width="1.5"/>
        <path id="Trazado_1053292" data-name="Trazado 1053292" d="M403.644,207.166a4.687,4.687,0,1,1,.6,9.335,4.673,4.673,0,0,1-1.686-.312" transform="translate(-357.844 -184.47)" fill="none" stroke="#000" stroke-linecap="round" stroke-linejoin="round" stroke-miterlimit="10" stroke-width="1.5"/>
        <path id="Trazado_1053293" data-name="Trazado 1053293" d="M174.669,367.027a12.713,12.713,0,0,1-4.343.755,12.116,12.116,0,0,1-7.295-2.35,8.894,8.894,0,0,1-3.685-7.068,8.28,8.28,0,0,1,.351-2.383" transform="translate(-142.235 -316.428)" fill="none" stroke="#000" stroke-linecap="round" stroke-linejoin="round" stroke-miterlimit="10" stroke-width="1.5"/>
        <path id="Trazado_1053294" data-name="Trazado 1053294" d="M323.7,356.169a8.278,8.278,0,0,1,.345,2.362,8.894,8.894,0,0,1-3.685,7.068" transform="translate(-284.968 -316.595)" fill="none" stroke="#000" stroke-linecap="round" stroke-linejoin="round" stroke-miterlimit="10" stroke-width="1.5"/>
        <path id="Trazado_1053295" data-name="Trazado 1053295" d="M212.225,376.978c0,2.694-2.883,4.878-6.44,4.878s-6.44-2.184-6.44-4.878" transform="translate(-177.693 -335.042)" fill="none" stroke="#000" stroke-linecap="round" stroke-linejoin="round" stroke-miterlimit="10" stroke-width="1.5"/>
        <path id="Trazado_1053296" data-name="Trazado 1053296" d="M134.533,146.844a7.363,7.363,0,0,0-2.027-3.77L130,140.567a1.229,1.229,0,0,0-2.093.76h0a3.287,3.287,0,0,1-3.274,3H109.514a3.287,3.287,0,0,1-3.274-3h0a1.229,1.229,0,0,0-2.093-.76l-2.506,2.506a7.372,7.372,0,0,0-2.029,3.781,17.8,17.8,0,1,0,34.921-.01Z" transform="translate(-88.981 -125.143)" fill="none" stroke="#000" stroke-linecap="round" stroke-linejoin="round" stroke-miterlimit="10" stroke-width="1.5"/>
      </g>
      <g id="Grupo_1208654" data-name="Grupo 1208654" transform="translate(24.313 33.664)">
        <g id="Grupo_1208651" data-name="Grupo 1208651" transform="translate(0 0.582)">
          <ellipse id="Elipse_13514" data-name="Elipse 13514" cx="3.332" cy="2.653" rx="3.332" ry="2.653" fill="#ffa1ac"/>
          <ellipse id="Elipse_13515" data-name="Elipse 13515" cx="3.332" cy="2.653" rx="3.332" ry="2.653" transform="translate(18.06)" fill="#ffa1ac"/>
        </g>
        <path id="Trazado_1053297" data-name="Trazado 1053297" d="M174.417,238.015a2.563,2.563,0,0,0,3.868,0" transform="translate(-171.325 -238.015)" fill="none" stroke="#000" stroke-linecap="round" stroke-linejoin="round" stroke-miterlimit="10" stroke-width="1.5"/>
        <path id="Trazado_1053298" data-name="Trazado 1053298" d="M307.54,238.015a2.563,2.563,0,0,1-3.868,0" transform="translate(-285.909 -238.015)" fill="none" stroke="#000" stroke-linecap="round" stroke-linejoin="round" stroke-miterlimit="10" stroke-width="1.5"/>
        <g id="Grupo_1208653" data-name="Grupo 1208653" transform="translate(9.481 3.622)">
          <g id="Grupo_1208652" data-name="Grupo 1208652">
            <path id="Trazado_1053299" data-name="Trazado 1053299" d="M237.082,270.775l-.8-.59a1.341,1.341,0,0,0-1.595,0h0a1.341,1.341,0,0,1-1.595,0h0a1.341,1.341,0,0,0-1.595,0l-.8.59" transform="translate(-230.703 -269.923)" fill="none" stroke="#000" stroke-linecap="round" stroke-linejoin="round" stroke-miterlimit="10" stroke-width="1.5"/>
          </g>
        </g>
      </g>
    </g>
  </g>
</svg>
