<svg xmlns="http://www.w3.org/2000/svg" xmlns:xlink="http://www.w3.org/1999/xlink" width="108" height="108" viewBox="0 0 108 108">
  <defs>
    <filter id="Trazado_904820" x="0" y="0" width="108" height="108" filterUnits="userSpaceOnUse">
      <feOffset dy="3" input="SourceAlpha"/>
      <feGaussianBlur stdDeviation="3" result="blur"/>
      <feFlood flood-opacity="0.161"/>
      <feComposite operator="in" in2="blur"/>
      <feComposite in="SourceGraphic"/>
    </filter>
  </defs>
  <g id="Grupo_1209302" data-name="Grupo 1209302" transform="translate(-620 -4539.428)">
    <g id="Grupo_1208701" data-name="Grupo 1208701" transform="translate(629 4545.428)">
      <g id="Grupo_1207936" data-name="Grupo 1207936" transform="translate(0 0)">
        <g id="Grupo_1201662" data-name="Grupo 1201662">
          <g id="Grupo_1173585" data-name="Grupo 1173585">
            <g id="Grupo_1173428" data-name="Grupo 1173428">
              <g id="Grupo_1171958" data-name="Grupo 1171958">
                <g id="Grupo_1167341" data-name="Grupo 1167341">
                  <g id="Grupo_1166792" data-name="Grupo 1166792">
                    <g transform="matrix(1, 0, 0, 1, -9, -6)" filter="url(#Trazado_904820)">
                      <g id="Trazado_904820-2" data-name="Trazado 904820" transform="translate(9 6)" fill="#fdfbec">
                        <path d="M 44.99999618530273 88.49999237060547 C 39.12687301635742 88.49999237060547 33.43022155761719 87.35006713867188 28.06829643249512 85.08216857910156 C 22.88852119445801 82.89130401611328 18.23629570007324 79.75457763671875 14.24084663391113 75.75914001464844 C 10.24540901184082 71.76369476318359 7.108683586120605 67.11146545410156 4.917821407318115 61.93169403076172 C 2.649921178817749 56.56976699829102 1.499996185302734 50.87311553955078 1.499996185302734 44.99999237060547 C 1.499996185302734 39.12686920166016 2.649921178817749 33.43021774291992 4.917821407318115 28.06829261779785 C 7.108683586120605 22.88851737976074 10.24540901184082 18.23630523681641 14.24084663391113 14.24085521697998 C 18.23629570007324 10.24540519714355 22.88852119445801 7.108692169189453 28.06829643249512 4.917829990386963 C 33.43022155761719 2.649929761886597 39.12687301635742 1.500004887580872 44.99999618530273 1.500004887580872 C 50.87311935424805 1.500004887580872 56.56977081298828 2.649929761886597 61.93169784545898 4.917829990386963 C 67.11147308349609 7.108692169189453 71.76369476318359 10.24540519714355 75.75914764404297 14.24085521697998 C 79.75458526611328 18.23630523681641 82.89131164550781 22.88851737976074 85.08216857910156 28.06829261779785 C 87.35007476806641 33.43021774291992 88.5 39.12686920166016 88.5 44.99999237060547 C 88.5 50.87311553955078 87.35007476806641 56.56976699829102 85.08216857910156 61.93169403076172 C 82.89131164550781 67.11146545410156 79.75458526611328 71.76369476318359 75.75914764404297 75.75914001464844 C 71.76369476318359 79.75457763671875 67.11147308349609 82.89130401611328 61.93169784545898 85.08216857910156 C 56.56977081298828 87.35006713867188 50.87311935424805 88.49999237060547 44.99999618530273 88.49999237060547 Z" stroke="none"/>
                        <path d="M 44.99999618530273 2.999992370605469 C 39.32870864868164 2.999992370605469 33.82865142822266 4.11004638671875 28.65262603759766 6.299331665039062 C 23.65165710449219 8.414566040039062 19.15968322753906 11.44333648681641 15.301513671875 15.30150604248047 C 11.44333648681641 19.15967559814453 8.414566040039062 23.65164947509766 6.299339294433594 28.65262222290039 C 4.110054016113281 33.82864761352539 2.999992370605469 39.32870483398438 2.999992370605469 44.99999237060547 C 2.999992370605469 50.67127990722656 4.110054016113281 56.17132186889648 6.299339294433594 61.34736633300781 C 8.414566040039062 66.34833526611328 11.44333648681641 70.84029388427734 15.301513671875 74.69846343994141 C 19.15968322753906 78.55663299560547 23.65165710449219 81.58540344238281 28.65262603759766 83.70063781738281 C 33.82865142822266 85.88992309570312 39.32870864868164 86.99997711181641 44.99999618530273 86.99997711181641 C 50.67128372192383 86.99997711181641 56.17134094238281 85.88992309570312 61.34736633300781 83.70063781738281 C 66.34834289550781 81.58540344238281 70.84030914306641 78.55663299560547 74.69847869873047 74.69846343994141 C 78.55665588378906 70.84029388427734 81.58542633056641 66.34833526611328 83.70065307617188 61.34736633300781 C 85.88993835449219 56.17132186889648 87 50.67127990722656 87 44.99999237060547 C 87 39.32870483398438 85.88993835449219 33.82864761352539 83.70065307617188 28.65262222290039 C 81.58542633056641 23.65164947509766 78.55665588378906 19.15967559814453 74.69847869873047 15.30150604248047 C 70.84030914306641 11.44333648681641 66.34834289550781 8.414566040039062 61.34736633300781 6.299331665039062 C 56.17134094238281 4.11004638671875 50.67128372192383 2.999992370605469 44.99999618530273 2.999992370605469 M 44.99999618530273 -7.62939453125e-06 C 69.85281372070312 -7.62939453125e-06 90 20.14717864990234 90 44.99999237060547 C 90 69.85279083251953 69.85281372070312 89.99997711181641 44.99999618530273 89.99997711181641 C 20.14717864990234 89.99997711181641 -7.62939453125e-06 69.85279083251953 -7.62939453125e-06 44.99999237060547 C -7.62939453125e-06 20.14717864990234 20.14717864990234 -7.62939453125e-06 44.99999618530273 -7.62939453125e-06 Z" stroke="none" fill="#83793c"/>
                      </g>
                    </g>
                  </g>
                </g>
              </g>
            </g>
          </g>
        </g>
      </g>
    </g>
    <g id="championship_5284188" transform="translate(646.13 4562.559)">
      <g id="Grupo_1209300" data-name="Grupo 1209300" transform="translate(2.697 0.899)">
        <g id="Grupo_1209281" data-name="Grupo 1209281" transform="translate(3.596)">
          <path id="Trazado_1053831" data-name="Trazado 1053831" d="M28.576,11.788H12.394A5.4,5.4,0,0,1,7,6.394,5.4,5.4,0,0,1,12.394,1H38.286A10.075,10.075,0,0,1,48.355,11.069a10.912,10.912,0,0,1-.1,1.429l-.62,4.306-.009.009a3.58,3.58,0,0,0-2.868-1.429h-2.6l-.917-4.127a3.628,3.628,0,0,1-1.879.53Z" transform="translate(-7 -1)" fill="#b27946"/>
        </g>
        <g id="Grupo_1209282" data-name="Grupo 1209282" transform="translate(5.214 9.269)">
          <path id="Trazado_1053832" data-name="Trazado 1053832" d="M12.576,16.425a3.6,3.6,0,0,0-3.03,1.654L8.9,13.54a9.552,9.552,0,0,1-.1-1.429c0-.27.009-.53.027-.8a5.324,5.324,0,0,0,3.749,1.519h3.4l-.8,3.6Z" transform="translate(-8.8 -11.31)" fill="#b27946"/>
        </g>
        <g id="Grupo_1209283" data-name="Grupo 1209283" transform="translate(14.384 32.365)">
          <path id="Trazado_1053833" data-name="Trazado 1053833" d="M21.7,47.788a2.693,2.693,0,0,0-2.7,2.7V37h7.192a3.6,3.6,0,1,0,7.192,0h7.192V50.485a2.693,2.693,0,0,0-2.7-2.7.9.9,0,0,0-.9.9v3.9a3.6,3.6,0,0,0,1.052,2.544l.746.746v2.7H33.384V48.687a2.7,2.7,0,0,0-5.394,0v.9h-.414a1.38,1.38,0,0,0-1.151,2.149l1.564,2.346v4.5H20.8v-2.7l.746-.746A3.6,3.6,0,0,0,22.6,52.589v-3.9a.9.9,0,0,0-.9-.9Z" transform="translate(-19 -37)" fill="#75b1f2"/>
        </g>
        <g id="Grupo_1209284" data-name="Grupo 1209284" transform="translate(43.153 41.355)">
          <path id="Trazado_1053834" data-name="Trazado 1053834" d="M58.192,49.7v9.889H52.8v-4.5l-1.564-2.346A1.38,1.38,0,0,1,52.384,50.6H52.8v-.9a2.7,2.7,0,0,1,5.394,0Z" transform="translate(-51 -47)" fill="#f0d0b4"/>
        </g>
        <g id="Grupo_1209285" data-name="Grupo 1209285" transform="translate(32.365 39.557)">
          <path id="Trazado_1053835" data-name="Trazado 1053835" d="M42.6,51.293V45l1.609.8a3.614,3.614,0,0,1,1.987,3.218V59.384H40.8v-2.7l-.746-.746A3.6,3.6,0,0,1,39,53.4V49.5a.9.9,0,0,1,.9-.9,2.693,2.693,0,0,1,2.7,2.7Z" transform="translate(-39 -45)" fill="#f0d0b4"/>
        </g>
        <g id="Grupo_1209286" data-name="Grupo 1209286" transform="translate(21.576 41.355)">
          <path id="Trazado_1053836" data-name="Trazado 1053836" d="M34.192,49.7v9.889H28.8v-4.5l-1.564-2.346A1.38,1.38,0,0,1,28.384,50.6H28.8v-.9a2.7,2.7,0,0,1,5.394,0Z" transform="translate(-27 -47)" fill="#f0d0b4"/>
        </g>
        <g id="Grupo_1209287" data-name="Grupo 1209287" transform="translate(10.788 39.557)">
          <path id="Trazado_1053837" data-name="Trazado 1053837" d="M18.6,51.293a2.693,2.693,0,0,1,2.7-2.7.9.9,0,0,1,.9.9v3.9a3.6,3.6,0,0,1-1.052,2.544l-.746.746v2.7H15V49.019A3.614,3.614,0,0,1,16.987,45.8L18.6,45Z" transform="translate(-15 -45)" fill="#f0d0b4"/>
        </g>
        <g id="Grupo_1209288" data-name="Grupo 1209288" transform="translate(0 41.355)">
          <path id="Trazado_1053838" data-name="Trazado 1053838" d="M10.192,49.7v9.889H4.8v-4.5L3.234,52.745A1.38,1.38,0,0,1,4.384,50.6H4.8v-.9a2.7,2.7,0,0,1,5.394,0Z" transform="translate(-3 -47)" fill="#f0d0b4"/>
        </g>
        <g id="Grupo_1209289" data-name="Grupo 1209289" transform="translate(35.961 30.567)">
          <path id="Trazado_1053839" data-name="Trazado 1053839" d="M56.485,36.8a2.7,2.7,0,0,1,0,5.394H43V36.8h8.99l1.429-1.429a1.271,1.271,0,0,1,2.167.9v.53Z" transform="translate(-43 -35)" fill="#f0d0b4"/>
        </g>
        <g id="Grupo_1209290" data-name="Grupo 1209290" transform="translate(38.757 14.384)">
          <path id="Trazado_1053840" data-name="Trazado 1053840" d="M51.576,18.429A3.573,3.573,0,0,1,52.3,20.6a3.591,3.591,0,0,1-3.6,3.6H46.721a12.47,12.47,0,0,0,.189-2.176,13.336,13.336,0,0,0-.306-2.8L46.11,17h2.6A3.58,3.58,0,0,1,51.576,18.429Z" transform="translate(-46.11 -17)" fill="#f0d0b4"/>
        </g>
        <g id="Grupo_1209291" data-name="Grupo 1209291" transform="translate(5.394 14.384)">
          <path id="Trazado_1053841" data-name="Trazado 1053841" d="M14.394,22.017c0,.126,0,.252.009.378H9.485A3.5,3.5,0,0,1,9,20.6a3.564,3.564,0,0,1,.566-1.942A3.6,3.6,0,0,1,12.6,17h2.6L14.7,19.212a13.336,13.336,0,0,0-.306,2.8Z" transform="translate(-9 -17)" fill="#f0d0b4"/>
        </g>
        <g id="Grupo_1209292" data-name="Grupo 1209292" transform="translate(10.788 10.258)">
          <path id="Trazado_1053842" data-name="Trazado 1053842" d="M43.463,18.748l-.494-2.212-.917-4.127a3.628,3.628,0,0,1-1.879.53H16.6l-.8,3.6-.494,2.212a13.336,13.336,0,0,0-.306,2.8c0,.126,0,.252.009.378h.89a.9.9,0,0,1,.9.9v6.293a5.371,5.371,0,0,1-.225,1.528h.009l.989-.4a3.837,3.837,0,0,0,.548-.261,12.948,12.948,0,0,0,9.844,4.522H30.8A12.938,12.938,0,0,0,43.58,23.729a12.47,12.47,0,0,0,.189-2.176,13.336,13.336,0,0,0-.306-2.8Z" transform="translate(-15 -12.41)" fill="#f0d0b4"/>
        </g>
        <g id="Grupo_1209293" data-name="Grupo 1209293" transform="translate(21.576 32.365)">
          <path id="Trazado_1053843" data-name="Trazado 1053843" d="M32.017,37h2.176A3.6,3.6,0,1,1,27,37h5.017Z" transform="translate(-27 -37)" fill="#f0d0b4"/>
        </g>
        <g id="Grupo_1209294" data-name="Grupo 1209294" transform="translate(8.99 32.365)">
          <path id="Trazado_1053844" data-name="Trazado 1053844" d="M13,37h5.394v5.394H13Z" transform="translate(-13 -37)" fill="#f0d0b4"/>
        </g>
        <g id="Grupo_1209295" data-name="Grupo 1209295" transform="translate(1.798 32.365)">
          <path id="Trazado_1053845" data-name="Trazado 1053845" d="M8.6,38.8v1.8a1.811,1.811,0,0,1-1.8,1.8A1.8,1.8,0,0,1,5,40.6V38.8A1.811,1.811,0,0,1,6.8,37,1.8,1.8,0,0,1,8.6,38.8Z" transform="translate(-5 -37)" fill="#f0d0b4"/>
        </g>
        <g id="Grupo_1209296" data-name="Grupo 1209296" transform="translate(3.596 37.759)">
          <path id="Trazado_1053846" data-name="Trazado 1053846" d="M14.192,44.8v.9a.9.9,0,0,1-.9.9H7.9a.9.9,0,0,1-.9-.9v-.9A1.8,1.8,0,0,1,8.8,43h3.6A1.8,1.8,0,0,1,14.192,44.8Z" transform="translate(-7 -43)" fill="#ffc729"/>
        </g>
        <g id="Grupo_1209297" data-name="Grupo 1209297" transform="translate(5.394 32.059)">
          <path id="Trazado_1053847" data-name="Trazado 1053847" d="M12.6,36.966V42.36H9v-5.7a5.441,5.441,0,0,0,3.6,0Z" transform="translate(-9 -36.66)" fill="#fcd770"/>
        </g>
        <g id="Grupo_1209298" data-name="Grupo 1209298" transform="translate(1.798 19.778)">
          <path id="Trazado_1053848" data-name="Trazado 1053848" d="M15.563,31.72A5.394,5.394,0,0,1,5,30.192V23.9a.9.9,0,0,1,.9-.9h8.99a.9.9,0,0,1,.9.9v6.293A5.371,5.371,0,0,1,15.563,31.72Z" transform="translate(-5 -23)" fill="#fcd770"/>
        </g>
        <g id="Grupo_1209299" data-name="Grupo 1209299" transform="translate(19.778 21.576)">
          <path id="Trazado_1053849" data-name="Trazado 1053849" d="M25,25H35.788a5.4,5.4,0,0,1-5.394,5.394A5.4,5.4,0,0,1,25,25Z" transform="translate(-25 -25)" fill="#ff826e"/>
        </g>
      </g>
      <g id="Grupo_1209301" data-name="Grupo 1209301" transform="translate(0 0)">
        <path id="Trazado_1053850" data-name="Trazado 1053850" d="M37.6,16A3.6,3.6,0,0,0,34,19.6h1.8a1.8,1.8,0,1,1,3.6,0h1.8A3.6,3.6,0,0,0,37.6,16Z" transform="translate(-3.433 -1.616)"/>
        <path id="Trazado_1053851" data-name="Trazado 1053851" d="M25.394,19.6h1.8A3.6,3.6,0,1,0,20,19.6h1.8a1.8,1.8,0,1,1,3.6,0Z" transform="translate(-2.02 -1.616)"/>
        <path id="Trazado_1053852" data-name="Trazado 1053852" d="M24,24.9a6.293,6.293,0,1,0,12.586,0V24H24Zm10.7.9a4.5,4.5,0,0,1-8.809,0Z" transform="translate(-2.424 -2.424)"/>
        <path id="Trazado_1053853" data-name="Trazado 1053853" d="M53.941,44.951a3.6,3.6,0,1,0-7.192,0V45a2.279,2.279,0,0,0-1.415,3.493l1.415,2.123v3.324h-3.6V44.476a4.472,4.472,0,0,0-2.485-4.02L39.557,39.9v-.343H52.143a3.6,3.6,0,1,0,0-7.192h-.032A2.17,2.17,0,0,0,48.438,31.2l-1.162,1.162H36.1a13.894,13.894,0,0,0,6.7-8.99h1.254a4.5,4.5,0,0,0,4.5-4.5,4.452,4.452,0,0,0-.682-2.353l.572-4A10.97,10.97,0,0,0,37.575,0H11.687A6.283,6.283,0,0,0,7.027,10.508c-.006.155-.018.307-.018.464a10.946,10.946,0,0,0,.111,1.552l.61,4.27a4.437,4.437,0,0,0-.538,2.086,4.494,4.494,0,0,0,.1.9h-1.9a1.8,1.8,0,0,0-1.8,1.8H1.8a1.8,1.8,0,0,0-1.8,1.8v1.452a5.368,5.368,0,0,0,3.39,5.008L4,30.08a6.3,6.3,0,0,0,1.6,2.385,2.693,2.693,0,0,0-2.008,2.6v1.8a2.692,2.692,0,0,0,2,2.593,2.682,2.682,0,0,0-.2,1v.9a1.752,1.752,0,0,0,.068.463A3.584,3.584,0,0,0,3.6,44.951V45a2.279,2.279,0,0,0-1.415,3.493L3.6,50.618v3.324H0v1.8H55.739v-1.8h-1.8ZM46.83,47.5a.476.476,0,0,1-.081-.267.482.482,0,0,1,.481-.481h1.317v-1.8a1.8,1.8,0,1,1,3.6,0v8.99h-3.6V50.073Zm-6.966-5.433a2.682,2.682,0,0,1,1.491,2.412v9.465h-3.6v-2.17L36.75,50.763a2.682,2.682,0,0,1-.789-1.908v-3.9a1.8,1.8,0,0,1,1.8,1.8v1.8h1.8V41.911ZM25.253,47.5a.476.476,0,0,1-.081-.267.482.482,0,0,1,.481-.481h1.317v-1.8a1.8,1.8,0,1,1,3.6,0v8.99h-3.6V50.073Zm3.515-6.142a3.6,3.6,0,0,0-3.6,3.6V45a2.279,2.279,0,0,0-1.415,3.493l1.415,2.123v3.324H19.778V52.515l.482-.481a4.466,4.466,0,0,0,1.316-3.179v-3.9a1.8,1.8,0,0,0-1.8-1.8,3.559,3.559,0,0,0-1.8.5v-9.49h5.485a4.5,4.5,0,0,0,8.809,0h5.485v9.49a3.559,3.559,0,0,0-1.8-.5,1.8,1.8,0,0,0-1.8,1.8v3.9a4.466,4.466,0,0,0,1.316,3.179l.482.481v1.426h-3.6v-8.99a3.6,3.6,0,0,0-3.6-3.6ZM8.99,34.091a6.317,6.317,0,0,0,.9.072,6.317,6.317,0,0,0,.9-.072v3.668H8.99ZM9.3,15.085l-.4-2.816c-.017-.117-.013-.236-.025-.354a6.245,6.245,0,0,0,2.813.672h2.275l-.4,1.8H11.687A4.46,4.46,0,0,0,9.3,15.085Zm6.878,12.856c0-.024,0-.047,0-.071v-4.5h1.8v1.452A3.573,3.573,0,0,1,16.179,27.941Zm-.4,2.14.613-.245a.147.147,0,0,1,.017-.008,13.866,13.866,0,0,0,3.242,2.539H14.285a6.323,6.323,0,0,0,1.489-2.285ZM30.4,34.163a2.681,2.681,0,0,1-5.063,0Zm-14.219,3.6h-3.6v-3.6h3.6Zm0,1.8V39.9l-1.111.556a4.593,4.593,0,0,0-.687.433v-.433a2.667,2.667,0,0,0-.165-.9Zm-3.6,14.384h-1.8v-8.99a3.559,3.559,0,0,0-.5-1.8h2.3a1.622,1.622,0,0,0,.209-.022,4.529,4.529,0,0,0-.209,1.345Zm1.8-9.465a2.682,2.682,0,0,1,1.491-2.412l.307-.154v6.637h1.8v-1.8a1.8,1.8,0,0,1,1.8-1.8v3.9a2.681,2.681,0,0,1-.789,1.908L17.98,51.771v2.17h-3.6ZM48.02,34.163l1.688-1.688a.386.386,0,0,1,.637.263v1.426h1.8a1.8,1.8,0,0,1,0,3.6H39.557v-3.6Zm-18.727-1.8H26.447a12.042,12.042,0,0,1-8.488-3.511,5.358,5.358,0,0,0,1.819-4.028V23.375a1.8,1.8,0,0,0-1.8-1.8h-1.8a1.8,1.8,0,0,0-1.769-1.8,12.074,12.074,0,0,1,.259-2.1l1.133-5.1H38.658a4.412,4.412,0,0,0,1.233-.194l1.176,5.293A12.061,12.061,0,0,1,29.293,32.365ZM44.052,21.576h-.964c.039-.42.065-.844.065-1.274,0-.013,0-.027,0-.041l2.3-1.533-1-1.5-1.477.984c-.047-.308-.085-.618-.152-.921l-.247-1.113h1.476a2.7,2.7,0,0,1,0,5.394ZM11.687,1.8H37.575a9.171,9.171,0,0,1,9.081,10.471l-.389,2.724a4.432,4.432,0,0,0-2.215-.609H42.176l-.638-2.871A4.475,4.475,0,0,0,38.658,3.6a2.7,2.7,0,0,0,0,5.394h.9v-1.8h-.9a.9.9,0,0,1,0-1.8,2.7,2.7,0,1,1,0,5.394H31.442a4.449,4.449,0,0,0,.922-2.7,4.5,4.5,0,0,0-4.5-4.5,2.7,2.7,0,0,0,0,5.394h.9v-1.8h-.9a.9.9,0,0,1,0-1.8,2.7,2.7,0,1,1,0,5.394H11.687a4.5,4.5,0,1,1,0-8.99ZM8.99,18.879a2.7,2.7,0,0,1,2.7-2.7h1.476L12.916,17.3c-.067.3-.105.613-.152.921l-1.477-.984-1,1.5,1.574,1.05h-2.7a2.693,2.693,0,0,1-.174-.9ZM1.8,24.826V23.375H3.6v4.5c0,.024,0,.047,0,.071a3.575,3.575,0,0,1-1.8-3.114Zm3.6,3.043V21.576h8.99V27.87a4.5,4.5,0,0,1-8.99,0Zm0,7.192a.9.9,0,1,1,1.8,0v1.8a.9.9,0,1,1-1.8,0Zm1.8,5.394a.9.9,0,0,1,.9-.9h3.6a.9.9,0,0,1,.9.9v.9H7.192ZM3.677,47.5A.476.476,0,0,1,3.6,47.23a.482.482,0,0,1,.481-.481H5.394v-1.8a1.8,1.8,0,1,1,3.6,0v8.99h-3.6V50.073Z" transform="translate(0 0)"/>
      </g>
    </g>
  </g>
</svg>
