<svg xmlns="http://www.w3.org/2000/svg" xmlns:xlink="http://www.w3.org/1999/xlink" width="98" height="98" viewBox="0 0 98 98">
  <defs>
    <filter id="Trazado_982547" x="0" y="0" width="98" height="98" filterUnits="userSpaceOnUse">
      <feOffset dy="3" input="SourceAlpha"/>
      <feGaussianBlur stdDeviation="3" result="blur"/>
      <feFlood flood-opacity="0.161"/>
      <feComposite operator="in" in2="blur"/>
      <feComposite in="SourceGraphic"/>
    </filter>
    <clipPath id="clip-path">
      <path id="path8121" d="M0-682.665H48.414v48.414H0Z" transform="translate(0 682.665)"/>
    </clipPath>
  </defs>
  <g id="Grupo_1209471" data-name="Grupo 1209471" transform="translate(-1135 -4301)">
    <g id="Grupo_1209176" data-name="Grupo 1209176" transform="translate(944 1833.985)">
      <g id="Grupo_1207718" data-name="Grupo 1207718" transform="translate(0 381.462)">
        <g id="Grupo_1207712" data-name="Grupo 1207712">
          <g id="Grupo_1207285" data-name="Grupo 1207285" transform="translate(0 344.552)">
            <g id="Grupo_1206883" data-name="Grupo 1206883" transform="translate(0 -209)">
              <g id="Grupo_1204569" data-name="Grupo 1204569" transform="translate(-81 -1890.336)">
                <g id="Grupo_1203962" data-name="Grupo 1203962" transform="translate(281 3846.336)">
                  <g id="Grupo_1203498" data-name="Grupo 1203498" transform="translate(0)">
                    <g id="Grupo_1202589" data-name="Grupo 1202589">
                      <g id="Grupo_1172010" data-name="Grupo 1172010">
                        <g id="Grupo_1171046" data-name="Grupo 1171046">
                          <g id="Grupo_1148525" data-name="Grupo 1148525">
                            <g transform="matrix(1, 0, 0, 1, -9, -6)" filter="url(#Trazado_982547)">
                              <g id="Trazado_982547-2" data-name="Trazado 982547" transform="translate(9 6)" fill="#fdfbec">
                                <path d="M 39.99999237060547 78.49998474121094 C 34.8018684387207 78.49998474121094 29.76002502441406 77.48226165771484 25.0145263671875 75.47508239746094 C 20.43014717102051 73.53604888916016 16.31264877319336 70.75984954833984 12.77639198303223 67.22359466552734 C 9.240137100219727 63.68733596801758 6.463936805725098 59.5698356628418 4.524903297424316 54.98546981811523 C 2.517725706100464 50.23995971679688 1.500003457069397 45.19811630249023 1.500003457069397 39.99999237060547 C 1.500003457069397 34.8018684387207 2.517725706100464 29.76002502441406 4.524903297424316 25.0145263671875 C 6.463936805725098 20.43014717102051 9.240137100219727 16.31264877319336 12.77639198303223 12.77639198303223 C 16.31264877319336 9.240137100219727 20.43014717102051 6.463936805725098 25.0145263671875 4.524903297424316 C 29.76002502441406 2.517725706100464 34.8018684387207 1.500003457069397 39.99999237060547 1.500003457069397 C 45.19811630249023 1.500003457069397 50.23995971679688 2.517725706100464 54.98546981811523 4.524903297424316 C 59.5698356628418 6.463936805725098 63.68733596801758 9.240137100219727 67.22359466552734 12.77639198303223 C 70.75984954833984 16.31264877319336 73.53604888916016 20.43014717102051 75.47508239746094 25.0145263671875 C 77.48226165771484 29.76002502441406 78.49998474121094 34.8018684387207 78.49998474121094 39.99999237060547 C 78.49998474121094 45.19812393188477 77.48226165771484 50.23995971679688 75.47508239746094 54.98546981811523 C 73.53604888916016 59.5698356628418 70.75984954833984 63.68733596801758 67.22359466552734 67.22359466552734 C 63.68733596801758 70.75984954833984 59.5698356628418 73.53604888916016 54.98546981811523 75.47508239746094 C 50.23995971679688 77.48226165771484 45.19812393188477 78.49998474121094 39.99999237060547 78.49998474121094 Z" stroke="none"/>
                                <path d="M 39.99999237060547 2.999992370605469 C 35.00370025634766 2.999992370605469 30.1584587097168 3.97784423828125 25.59884643554688 5.906402587890625 C 21.19327163696289 7.769805908203125 17.23603057861328 10.43805694580078 13.83704376220703 13.83704376220703 C 10.43805694580078 17.23603057861328 7.769805908203125 21.19327163696289 5.906402587890625 25.59884643554688 C 3.97784423828125 30.1584587097168 2.999992370605469 35.00370025634766 2.999992370605469 39.99999237060547 C 2.999992370605469 44.99628448486328 3.97784423828125 49.84152603149414 5.906402587890625 54.40113830566406 C 7.769805908203125 58.80671310424805 10.43805694580078 62.76395416259766 13.83704376220703 66.16294097900391 C 17.23603057861328 69.56191253662109 21.19327163696289 72.23016357421875 25.59884643554688 74.09356689453125 C 30.1584587097168 76.02212524414062 35.00370025634766 76.99997711181641 39.99999237060547 76.99997711181641 C 44.99628448486328 76.99997711181641 49.84152603149414 76.02212524414062 54.40113830566406 74.09356689453125 C 58.80671310424805 72.23016357421875 62.76395416259766 69.56191253662109 66.16294097900391 66.16294097900391 C 69.56191253662109 62.76395416259766 72.23016357421875 58.80671310424805 74.09356689453125 54.40113830566406 C 76.02212524414062 49.84152603149414 76.99997711181641 44.99628448486328 76.99997711181641 39.99999237060547 C 76.99997711181641 35.00370025634766 76.02212524414062 30.1584587097168 74.09356689453125 25.59884643554688 C 72.23016357421875 21.19327163696289 69.56191253662109 17.23603057861328 66.16294097900391 13.83704376220703 C 62.76395416259766 10.43805694580078 58.80671310424805 7.769805908203125 54.40113830566406 5.906402587890625 C 49.84152603149414 3.97784423828125 44.99628448486328 2.999992370605469 39.99999237060547 2.999992370605469 M 39.99999237060547 -7.62939453125e-06 C 62.09137725830078 -7.62939453125e-06 79.99997711181641 17.90860748291016 79.99997711181641 39.99999237060547 C 79.99997711181641 62.09137725830078 62.09137725830078 79.99997711181641 39.99999237060547 79.99997711181641 C 17.90860748291016 79.99997711181641 -7.62939453125e-06 62.09137725830078 -7.62939453125e-06 39.99999237060547 C -7.62939453125e-06 17.90860748291016 17.90860748291016 -7.62939453125e-06 39.99999237060547 -7.62939453125e-06 Z" stroke="none" fill="#83793c"/>
                              </g>
                            </g>
                          </g>
                        </g>
                      </g>
                    </g>
                  </g>
                </g>
              </g>
            </g>
          </g>
          <g id="g8115" transform="translate(215.793 2790.01)">
            <g id="g8117" transform="translate(0 -682.665)">
              <g id="g8119" clip-path="url(#clip-path)">
                <g id="g8125" transform="translate(-33.259 0.709)">
                  <path id="path8127" d="M-338.457-377.826h-25.835v-25.108c5.31-7.679,37.755-5.416,25.835,25.108" transform="translate(364.292 406.667)" fill="#fbdf63"/>
                </g>
                <g id="g8129" transform="translate(-33.259 0.709)">
                  <path id="path8131" d="M-338.457-377.826h-.619c6.164-24.728-15.887-30.6-25.216-24.374v-.734c5.31-7.679,37.755-5.416,25.835,25.108" transform="translate(364.292 406.667)" fill="#f9d11f"/>
                </g>
              </g>
            </g>
            <g id="g8265" transform="translate(0 -682.665)">
              <g id="g8267" clip-path="url(#clip-path)">
                <g id="g8273" transform="translate(-33.259 51.036)">
                  <path id="path8275" d="M-338.457-377.654h-25.835v-25.1c5.31-7.676,37.755-5.413,25.835,25.1" transform="translate(364.292 406.481)" fill="#003343"/>
                </g>
                <g id="g8277" transform="translate(-33.259 51.036)">
                  <path id="path8279" d="M-338.457-377.654h-.619c6.164-24.717-15.887-30.585-25.216-24.362v-.734c5.31-7.676,37.755-5.413,25.835,25.1" transform="translate(364.292 406.481)" fill="#002439"/>
                </g>
              </g>
            </g>
            <g id="g8281" transform="translate(0 -682.665)">
              <g id="g8283" clip-path="url(#clip-path)">
                <g id="g8289" transform="translate(17.066 51.014)">
                  <path id="path8291" d="M-338.457-377.826h-25.835v-25.108c5.31-7.679,37.755-5.416,25.835,25.108" transform="translate(364.292 406.667)" fill="#ff7e50"/>
                </g>
                <g id="g8293" transform="translate(17.066 51.014)">
                  <path id="path8295" d="M-338.457-377.826h-.619c6.164-24.728-15.887-30.6-25.216-24.374v-.734c5.31-7.679,37.755-5.416,25.835,25.108" transform="translate(364.292 406.667)" fill="#ff6247"/>
                </g>
                <g id="g8297" transform="translate(2.941 54.225)">
                  <path id="path8299" d="M-233.028-131.751v15.573h-14.6c-12.2-25.649,14.6-34.273,14.6-15.573" transform="translate(250.816 141.808)" fill="#ffa68a"/>
                </g>
                <g id="g8301" transform="translate(2.941 54.225)">
                  <path id="path8303" d="M-233.028-131.751c-.9-16.1-20.23-9.82-14.176,15.573h-.427c-12.2-25.649,14.6-34.273,14.6-15.573" transform="translate(250.816 141.808)" fill="#ff7e50"/>
                </g>
              </g>
            </g>
          </g>
        </g>
      </g>
    </g>
    <g id="baptism_9896904_2_" data-name="baptism_9896904 (2)" transform="translate(1151.972 4310.655)">
      <g id="Grupo_1209470" data-name="Grupo 1209470" transform="translate(7.5 8.968)">
        <g id="Grupo_1209440" data-name="Grupo 1209440" transform="translate(7.305 2.247)">
          <g id="Grupo_1209439" data-name="Grupo 1209439">
            <path id="Trazado_1054046" data-name="Trazado 1054046" d="M86.273,77.561v3.621l.933-.933a1.393,1.393,0,0,1,1.969,1.969L85,86.395H78.81a.4.4,0,0,0-.2.052V77.561" transform="translate(-78.614 -72.761)" fill="#ffcebf"/>
            <path id="Trazado_1054047" data-name="Trazado 1054047" d="M149.745,85.473,153,82.219a1.393,1.393,0,0,0-1.969-1.969l-.933.933V77.561" transform="translate(-142.438 -72.761)" fill="none" stroke="#000" stroke-linecap="round" stroke-linejoin="round" stroke-miterlimit="10" stroke-width="1"/>
            <path id="Trazado_1054048" data-name="Trazado 1054048" d="M125.42,102.419h1.534l2.249-2.249a1.393,1.393,0,0,1,1.969,1.969L127,106.315h-1.543" transform="translate(-120.612 -92.682)" fill="#ffcebf"/>
            <path id="Trazado_1054049" data-name="Trazado 1054049" d="M127.919,105.393l3.254-3.254a1.393,1.393,0,0,0-1.969-1.969l-2.249,2.249H125.42" transform="translate(-120.612 -92.682)" fill="none" stroke="#000" stroke-linecap="round" stroke-linejoin="round" stroke-miterlimit="10" stroke-width="1"/>
            <g id="Grupo_1209438" data-name="Grupo 1209438">
              <path id="Trazado_1054050" data-name="Trazado 1054050" d="M130.872,47.008V42.056a1.276,1.276,0,0,0-1.277-1.277h0a1.276,1.276,0,0,0-1.276,1.277v3.932" transform="translate(-123.213 -39.758)" fill="#ffcebf"/>
              <path id="Trazado_1054051" data-name="Trazado 1054051" d="M130.872,47.008V42.056a1.276,1.276,0,0,0-1.277-1.277h0a1.276,1.276,0,0,0-1.276,1.277v3.932" transform="translate(-123.213 -39.758)" fill="none" stroke="#000" stroke-linecap="round" stroke-linejoin="round" stroke-miterlimit="10" stroke-width="1"/>
              <path id="Trazado_1054052" data-name="Trazado 1054052" d="M106.02,37.067V32.115a1.276,1.276,0,0,0-1.277-1.277h0a1.276,1.276,0,0,0-1.277,1.277v4.953" transform="translate(-100.914 -30.838)" fill="#ffcebf"/>
              <path id="Trazado_1054053" data-name="Trazado 1054053" d="M106.02,37.067V32.115a1.276,1.276,0,0,0-1.277-1.277h0a1.276,1.276,0,0,0-1.277,1.277v4.953" transform="translate(-100.914 -30.838)" fill="none" stroke="#000" stroke-linecap="round" stroke-linejoin="round" stroke-miterlimit="10" stroke-width="1"/>
              <path id="Trazado_1054054" data-name="Trazado 1054054" d="M81.167,45.987V42.056a1.276,1.276,0,0,0-1.277-1.277h0a1.276,1.276,0,0,0-1.276,1.277v4.953" transform="translate(-78.614 -39.758)" fill="#ffcebf"/>
              <g id="Grupo_1209437" data-name="Grupo 1209437" transform="translate(0 1.021)">
                <path id="Trazado_1054055" data-name="Trazado 1054055" d="M81.167,45.987V42.056a1.277,1.277,0,1,0-2.553,0v5.115" transform="translate(-78.614 -40.779)" fill="none" stroke="#000" stroke-linecap="round" stroke-linejoin="round" stroke-miterlimit="10" stroke-width="1"/>
                <line id="Línea_896" data-name="Línea 896" y2="2.313" transform="translate(0 9.987)" fill="none" stroke="#000" stroke-linecap="round" stroke-linejoin="round" stroke-miterlimit="10" stroke-width="1"/>
              </g>
            </g>
          </g>
        </g>
        <g id="Grupo_1209449" data-name="Grupo 1209449" transform="translate(12.318)">
          <path id="Trazado_1054056" data-name="Trazado 1054056" d="M163.2,244.767l-9.28-2.753v-3.875a1.027,1.027,0,0,0-1.027-1.027h-1.866a6.379,6.379,0,0,1-2.837.663h-2.835a6.379,6.379,0,0,1-2.837-.663h-1.866a1.027,1.027,0,0,0-1.027,1.027v3.875l-9.28,2.753a4.109,4.109,0,0,0-2.94,3.939v15.723h37.2a1.541,1.541,0,0,0,1.541-1.541V248.706A4.109,4.109,0,0,0,163.2,244.767Z" transform="translate(-127.405 -213.675)" fill="#fff3de"/>
          <g id="Grupo_1209441" data-name="Grupo 1209441" transform="translate(35.512 40.028)">
            <path id="Trazado_1054057" data-name="Trazado 1054057" d="M473.094,398.62v10.726h1.685a1.541,1.541,0,0,0,1.541-1.541V398.62Z" transform="translate(-473.094 -398.62)" fill="#ffe5c2"/>
          </g>
          <path id="Trazado_1054058" data-name="Trazado 1054058" d="M353.508,237.112h-1.866a6.411,6.411,0,0,1-.656.28,1.023,1.023,0,0,1,.323.747v3.875h3.226v-3.875A1.027,1.027,0,0,0,353.508,237.112Z" transform="translate(-328.017 -213.675)" fill="#ffe5c2"/>
          <path id="Trazado_1054059" data-name="Trazado 1054059" d="M153.924,284.829h-14.3l-9.28,2.753a4.109,4.109,0,0,0-2.94,3.939v5h38.738v-5a4.109,4.109,0,0,0-2.941-3.939Z" transform="translate(-127.406 -256.49)" fill="#bd80e1"/>
          <path id="Trazado_1054060" data-name="Trazado 1054060" d="M369.58,296.519v-5a4.109,4.109,0,0,0-2.94-3.939l-9.28-2.753h-3.226v.352a1.027,1.027,0,0,0,.735.985l8.545,2.535a4.109,4.109,0,0,1,2.94,3.939v3.879h3.226Z" transform="translate(-330.842 -256.49)" fill="#af66da"/>
          <path id="Trazado_1054061" data-name="Trazado 1054061" d="M228.979,237.112h-1.637a1.027,1.027,0,0,0-1.027,1.027v3.875l-2.3.681c0,.011,0,.021,0,.032h0" transform="translate(-214.094 -213.675)" fill="none" stroke="#000" stroke-linecap="round" stroke-linejoin="round" stroke-miterlimit="10" stroke-width="1"/>
          <path id="Trazado_1054062" data-name="Trazado 1054062" d="M218,264.43h27.891a1.541,1.541,0,0,0,1.541-1.541V248.707a4.109,4.109,0,0,0-2.941-3.939l-9.28-2.753V238.14a1.027,1.027,0,0,0-1.027-1.027h-1.637" transform="translate(-208.693 -213.676)" fill="none" stroke="#000" stroke-linecap="round" stroke-linejoin="round" stroke-miterlimit="10" stroke-width="1"/>
          <path id="Trazado_1054063" data-name="Trazado 1054063" d="M235.1,503.032" transform="translate(-224.038 -452.278)" fill="none" stroke="#000" stroke-linecap="round" stroke-linejoin="round" stroke-miterlimit="10" stroke-width="1"/>
          <path id="Trazado_1054064" data-name="Trazado 1054064" d="M293.773,242.365h-2.835a6.422,6.422,0,0,1-1.284-.129l2.719,5.032,2.723-5.04A6.417,6.417,0,0,1,293.773,242.365Z" transform="translate(-272.986 -218.265)" fill="#f89580"/>
          <g id="Grupo_1209448" data-name="Grupo 1209448" transform="translate(7.752)">
            <g id="Grupo_1209442" data-name="Grupo 1209442" transform="translate(15.74 1.162)">
              <path id="Trazado_1054065" data-name="Trazado 1054065" d="M356.51,21.64v4.839h1.438a1.856,1.856,0,0,1,1.854,1.854v1.88H360.9a2.571,2.571,0,0,1,1.575.537V25.167a4.89,4.89,0,0,0-4.89-4.89h-1.491A2.407,2.407,0,0,1,356.51,21.64Z" transform="translate(-356.089 -20.277)" fill="#433f43"/>
            </g>
            <g id="Grupo_1209443" data-name="Grupo 1209443" transform="translate(15.864 1.162)">
              <path id="Trazado_1054066" data-name="Trazado 1054066" d="M363.552,30.621V25.167a4.89,4.89,0,0,0-4.89-4.89H357.3" transform="translate(-357.295 -20.277)" fill="none" stroke="#000" stroke-linecap="round" stroke-linejoin="round" stroke-miterlimit="10" stroke-width="1"/>
            </g>
            <g id="Grupo_1209444" data-name="Grupo 1209444" transform="translate(1.113 5.997)">
              <path id="Trazado_1054067" data-name="Trazado 1054067" d="M215.277,72.445h1.094v-1.88a1.856,1.856,0,0,1,1.854-1.854v-.205h-1.908a3.52,3.52,0,0,1-2.614-1.161v5.638A2.572,2.572,0,0,1,215.277,72.445Z" transform="translate(-213.702 -67.344)" fill="#7a6d79"/>
            </g>
            <line id="Línea_897" data-name="Línea 897" y2="5.357" transform="translate(1.113 6.148)" fill="none" stroke="#000" stroke-linecap="round" stroke-linejoin="round" stroke-miterlimit="10" stroke-width="1"/>
            <path id="Trazado_1054068" data-name="Trazado 1054068" d="M219.975,16.229H207.438a3.63,3.63,0,0,1-3.63-3.63h0a3.63,3.63,0,0,1,3.63-3.63h10.012a2.525,2.525,0,0,1,2.525,2.525v4.736Z" transform="translate(-203.711 -8.968)" fill="#554e56"/>
            <path id="Trazado_1054069" data-name="Trazado 1054069" d="M219.975,16.229H207.438a3.63,3.63,0,0,1-3.63-3.63h0a3.63,3.63,0,0,1,3.63-3.63h10.012a2.525,2.525,0,0,1,2.525,2.525v4.736Z" transform="translate(-203.711 -8.968)" fill="none" stroke="#000" stroke-linecap="round" stroke-linejoin="round" stroke-miterlimit="10" stroke-width="1"/>
            <g id="Grupo_1209445" data-name="Grupo 1209445" transform="translate(0 10.995)">
              <path id="Trazado_1054070" data-name="Trazado 1054070" d="M393.324,116H392.23v5.518h1.094a2.688,2.688,0,0,0,2.688-2.688v-.142A2.688,2.688,0,0,0,393.324,116Z" transform="translate(-372.777 -116)" fill="#f89580"/>
              <path id="Trazado_1054071" data-name="Trazado 1054071" d="M206.647,116h-1.094a2.688,2.688,0,0,0-2.688,2.688v.142a2.688,2.688,0,0,0,2.688,2.688h1.094Z" transform="translate(-202.865 -116)" fill="#ffb09e"/>
            </g>
            <g id="Grupo_1209446" data-name="Grupo 1209446" transform="translate(0 10.995)">
              <path id="Trazado_1054072" data-name="Trazado 1054072" d="M206.545,116h-.991a2.688,2.688,0,0,0-2.688,2.688v.142a2.688,2.688,0,0,0,2.688,2.688h.991Z" transform="translate(-202.866 -116)" fill="none" stroke="#000" stroke-linecap="round" stroke-linejoin="round" stroke-miterlimit="10" stroke-width="1"/>
              <path id="Trazado_1054073" data-name="Trazado 1054073" d="M394.221,116h-.991v5.518h.991a2.688,2.688,0,0,0,2.688-2.688v-.142A2.688,2.688,0,0,0,394.221,116Z" transform="translate(-373.674 -116)" fill="none" stroke="#000" stroke-linecap="round" stroke-linejoin="round" stroke-miterlimit="10" stroke-width="1"/>
            </g>
            <path id="Trazado_1054074" data-name="Trazado 1054074" d="M248.033,96.59H245.2a6.521,6.521,0,0,1-6.521-6.521V81.6a1.957,1.957,0,0,1,1.957-1.957H252.6a1.957,1.957,0,0,1,1.957,1.957v8.464A6.521,6.521,0,0,1,248.033,96.59Z" transform="translate(-234.998 -72.387)" fill="#ffcebf"/>
            <path id="Trazado_1054075" data-name="Trazado 1054075" d="M307.924,79.648h-3.208a1.957,1.957,0,0,1,1.957,1.957v8.464a6.52,6.52,0,0,1-6.334,6.516c.062,0,.124,0,.187,0h2.835a6.521,6.521,0,0,0,6.521-6.521V81.6A1.957,1.957,0,0,0,307.924,79.648Z" transform="translate(-290.325 -72.387)" fill="#ffb09e"/>
            <path id="Trazado_1054076" data-name="Trazado 1054076" d="M248.033,96.59H245.2a6.521,6.521,0,0,1-6.521-6.521V81.6a1.957,1.957,0,0,1,1.957-1.957H252.6a1.957,1.957,0,0,1,1.957,1.957v8.464A6.521,6.521,0,0,1,248.033,96.59Z" transform="translate(-234.998 -72.387)" fill="none" stroke="#000" stroke-linecap="round" stroke-linejoin="round" stroke-miterlimit="10" stroke-width="1"/>
            <path id="Trazado_1054077" data-name="Trazado 1054077" d="M290.265,243.381l2.656,4.916,2.66-4.922" transform="translate(-281.287 -219.294)" fill="none" stroke="#000" stroke-linecap="round" stroke-linejoin="round" stroke-miterlimit="10" stroke-width="1"/>
            <path id="Trazado_1054078" data-name="Trazado 1054078" d="M303.867,138.761l-1.22-1.076a.484.484,0,0,1,.013-.737l1.031-.849a.484.484,0,0,0,.176-.374v-1.417" transform="translate(-292.249 -121.432)" fill="none" stroke="#000" stroke-linecap="round" stroke-linejoin="round" stroke-miterlimit="10" stroke-width="1"/>
            <path id="Trazado_1054079" data-name="Trazado 1054079" d="M290.12,189.909a2.136,2.136,0,0,1-2.13,2.13h-2.42a2.136,2.136,0,0,1-2.13-2.13" transform="translate(-275.163 -171.321)" fill="none" stroke="#000" stroke-linecap="round" stroke-linejoin="round" stroke-miterlimit="10" stroke-width="1"/>
            <g id="Grupo_1209447" data-name="Grupo 1209447" transform="translate(6.036 11.744)">
              <path id="Trazado_1054080" data-name="Trazado 1054080" d="M340.363,123.293a2.174,2.174,0,0,0,3.074,0" transform="translate(-332.274 -123.293)" fill="none" stroke="#000" stroke-linecap="round" stroke-linejoin="round" stroke-miterlimit="10" stroke-width="1"/>
              <path id="Trazado_1054081" data-name="Trazado 1054081" d="M261.619,123.293a2.174,2.174,0,0,0,3.074,0" transform="translate(-261.619 -123.293)" fill="none" stroke="#000" stroke-linecap="round" stroke-linejoin="round" stroke-miterlimit="10" stroke-width="1"/>
            </g>
          </g>
        </g>
        <g id="Grupo_1209469" data-name="Grupo 1209469" transform="translate(0 14.501)">
          <g id="Grupo_1209459" data-name="Grupo 1209459">
            <g id="Grupo_1209458" data-name="Grupo 1209458">
              <path id="Trazado_1054082" data-name="Trazado 1054082" d="M24.6,366.324H13.777A6.277,6.277,0,0,0,7.5,372.6v6.226a1.541,1.541,0,0,0,1.541,1.541h21.84V372.6A6.277,6.277,0,0,0,24.6,366.324Z" transform="translate(-7.5 -344.115)" fill="#dff6fd"/>
              <g id="Grupo_1209450" data-name="Grupo 1209450" transform="translate(0 26.537)">
                <path id="Trazado_1054083" data-name="Trazado 1054083" d="M15.541,413.3v-4.322a1.584,1.584,0,0,1,.089-.522l-8.13,8.13v.045a1.541,1.541,0,0,0,1.541,1.541H12.8l3.51-3.51A1.6,1.6,0,0,1,15.541,413.3Z" transform="translate(-7.5 -408.454)" fill="#c8effe"/>
              </g>
              <g id="Grupo_1209451" data-name="Grupo 1209451" transform="translate(2.062 30.377)">
                <path id="Trazado_1054084" data-name="Trazado 1054084" d="M33.45,446.838v-1l-5.876,5.876H30.81l3.435-3.435A1.7,1.7,0,0,1,33.45,446.838Z" transform="translate(-27.574 -445.834)" fill="#99e6fc"/>
              </g>
              <path id="Trazado_1054085" data-name="Trazado 1054085" d="M146.1,366.324H142.9a6.277,6.277,0,0,1,6.277,6.277v7.767h3.195V372.6A6.277,6.277,0,0,0,146.1,366.324Z" transform="translate(-128.991 -344.115)" fill="#c8effe"/>
              <path id="Trazado_1054086" data-name="Trazado 1054086" d="M45.354,366.324H42.663a6.249,6.249,0,0,0-2.969.746" transform="translate(-36.387 -344.115)" fill="none" stroke="#000" stroke-linecap="round" stroke-linejoin="round" stroke-miterlimit="10" stroke-width="1"/>
              <path id="Trazado_1054087" data-name="Trazado 1054087" d="M8.259,369.607A6.249,6.249,0,0,0,7.5,372.6v6.226a1.541,1.541,0,0,0,1.541,1.541h21.84V372.6a6.277,6.277,0,0,0-6.277-6.277H21.914" transform="translate(-7.5 -344.115)" fill="none" stroke="#000" stroke-linecap="round" stroke-linejoin="round" stroke-miterlimit="10" stroke-width="1"/>
              <g id="Grupo_1209452" data-name="Grupo 1209452" transform="translate(14.573 26.537)">
                <path id="Trazado_1054088" data-name="Trazado 1054088" d="M150.035,408.454a1.587,1.587,0,0,1,.089.522V413.3a1.6,1.6,0,0,1-.768,1.362l3.51,3.51h5.3v-1.586Z" transform="translate(-149.357 -408.454)" fill="#c8effe"/>
              </g>
              <path id="Trazado_1054089" data-name="Trazado 1054089" d="M157.42,409.915a1.7,1.7,0,0,1,.042.372v2.865l3.622,3.622a3.828,3.828,0,0,1,1.121,2.707H165.4V417.9Z" transform="translate(-142.019 -383.228)" fill="#99e6fc"/>
              <path id="Trazado_1054090" data-name="Trazado 1054090" d="M150.088,416.046l3.435,3.435h5.3V417.9l-7.98-7.98" transform="translate(-135.44 -383.228)" fill="none" stroke="#000" stroke-linecap="round" stroke-linejoin="round" stroke-miterlimit="10" stroke-width="1"/>
              <line id="Línea_898" data-name="Línea 898" y1="3.435" x2="3.435" transform="translate(5.298 32.818)" fill="none" stroke="#000" stroke-linecap="round" stroke-linejoin="round" stroke-miterlimit="10" stroke-width="1"/>
              <line id="Línea_899" data-name="Línea 899" x1="7.98" y2="7.98" transform="translate(0 26.687)" fill="none" stroke="#000" stroke-linecap="round" stroke-linejoin="round" stroke-miterlimit="10" stroke-width="1"/>
              <path id="Trazado_1054091" data-name="Trazado 1054091" d="M30.169,162.108h1.019v-.017a1.191,1.191,0,0,1,1.19-1.19h5.369a1.4,1.4,0,0,0,1.208-.7l.9-1.56a.156.156,0,0,1,.27,0l.9,1.56a1.4,1.4,0,0,0,1.208.7h1.485a1.191,1.191,0,0,1,1.19,1.19v.017h1.019a2.559,2.559,0,0,1,1.652.6V159.66a9.532,9.532,0,0,0-9.532-9.532h0a9.532,9.532,0,0,0-9.532,9.532v3.052A2.558,2.558,0,0,1,30.169,162.108Z" transform="translate(-26.358 -150.128)" fill="#fe9738"/>
              <g id="Grupo_1209453" data-name="Grupo 1209453" transform="translate(9.558 0)">
                <path id="Trazado_1054092" data-name="Trazado 1054092" d="M102.675,150.129h0a9.563,9.563,0,0,0-2.132.24,9.535,9.535,0,0,1,7.4,9.292V160.9h.4a1.191,1.191,0,0,1,1.19,1.19v.017h1.019a2.559,2.559,0,0,1,1.652.6V159.66A9.532,9.532,0,0,0,102.675,150.129Z" transform="translate(-100.543 -150.129)" fill="#fe860a"/>
              </g>
              <path id="Trazado_1054093" data-name="Trazado 1054093" d="M47.58,162.578V159.66a9.532,9.532,0,0,0-9.532-9.532h0a9.532,9.532,0,0,0-9.532,9.532v2.918" transform="translate(-26.358 -150.128)" fill="none" stroke="#000" stroke-linecap="round" stroke-linejoin="round" stroke-miterlimit="10" stroke-width="1"/>
              <path id="Trazado_1054094" data-name="Trazado 1054094" d="M97.514,357.186a6.819,6.819,0,0,1-2.723-.565v1.626a2.723,2.723,0,0,0,2.723,2.723h0a2.723,2.723,0,0,0,2.723-2.723v-1.626A6.819,6.819,0,0,1,97.514,357.186Z" transform="translate(-85.824 -335.408)" fill="#f89580"/>
              <path id="Trazado_1054095" data-name="Trazado 1054095" d="M94.791,357.738v1.512a2.724,2.724,0,0,0,1.695,2.522" transform="translate(-85.824 -336.411)" fill="none" stroke="#000" stroke-linecap="round" stroke-linejoin="round" stroke-miterlimit="10" stroke-width="1"/>
              <path id="Trazado_1054096" data-name="Trazado 1054096" d="M131.312,361.771a2.724,2.724,0,0,0,1.695-2.522v-1.512" transform="translate(-118.593 -336.411)" fill="none" stroke="#000" stroke-linecap="round" stroke-linejoin="round" stroke-miterlimit="10" stroke-width="1"/>
              <g id="Grupo_1209457" data-name="Grupo 1209457" transform="translate(1.138 8.336)">
                <g id="Grupo_1209454" data-name="Grupo 1209454" transform="translate(0 3.541)">
                  <path id="Trazado_1054097" data-name="Trazado 1054097" d="M22.267,268.787v-2.954c0-.029,0-.058,0-.086H21.247a2.673,2.673,0,0,0-2.673,2.673h0a2.673,2.673,0,0,0,2.673,2.673h1.419A6.829,6.829,0,0,1,22.267,268.787Z" transform="translate(-18.574 -265.747)" fill="#ffb09e"/>
                  <path id="Trazado_1054098" data-name="Trazado 1054098" d="M185.605,265.747h-1.024c0,.029,0,.057,0,.086v2.954a6.828,6.828,0,0,1-.4,2.307h1.419a2.673,2.673,0,0,0,2.673-2.673h0A2.673,2.673,0,0,0,185.605,265.747Z" transform="translate(-167.173 -265.747)" fill="#f89580"/>
                </g>
                <g id="Grupo_1209455" data-name="Grupo 1209455" transform="translate(0 3.541)">
                  <path id="Trazado_1054099" data-name="Trazado 1054099" d="M22.164,268.787v-2.954c0-.029,0-.058,0-.086h-.921a2.673,2.673,0,0,0-2.673,2.673h0a2.673,2.673,0,0,0,2.673,2.673h1.309A6.951,6.951,0,0,1,22.164,268.787Z" transform="translate(-18.574 -265.747)" fill="none" stroke="#000" stroke-linecap="round" stroke-linejoin="round" stroke-miterlimit="10" stroke-width="1"/>
                  <path id="Trazado_1054100" data-name="Trazado 1054100" d="M186.564,265.747h-.921c0,.029,0,.057,0,.086v2.954a6.948,6.948,0,0,1-.393,2.307h1.309a2.673,2.673,0,0,0,2.673-2.673h0A2.673,2.673,0,0,0,186.564,265.747Z" transform="translate(-168.132 -265.747)" fill="none" stroke="#000" stroke-linecap="round" stroke-linejoin="round" stroke-miterlimit="10" stroke-width="1"/>
                </g>
                <path id="Trazado_1054101" data-name="Trazado 1054101" d="M63.549,232.967l-.9-1.559a.258.258,0,0,0-.448,0l-.9,1.559a1.292,1.292,0,0,1-1.119.646H54.812a1.292,1.292,0,0,0-1.292,1.292v2.954a6.963,6.963,0,0,0,6.963,6.963h0a6.963,6.963,0,0,0,6.963-6.963v-2.954a1.292,1.292,0,0,0-1.292-1.292H64.668A1.293,1.293,0,0,1,63.549,232.967Z" transform="translate(-49.93 -231.278)" fill="#ffcebf"/>
                <g id="Grupo_1209456" data-name="Grupo 1209456" transform="translate(8.956 2.263)">
                  <path id="Trazado_1054102" data-name="Trazado 1054102" d="M113.027,253.382h-1.485a1.286,1.286,0,0,1-.415-.071v4.318a6.964,6.964,0,0,1-5.367,6.777,6.978,6.978,0,0,0,1.6.186h0a6.963,6.963,0,0,0,6.963-6.963v-2.954A1.292,1.292,0,0,0,113.027,253.382Z" transform="translate(-105.76 -253.311)" fill="#ffb09e"/>
                </g>
                <path id="Trazado_1054103" data-name="Trazado 1054103" d="M63.549,232.967l-.9-1.559a.258.258,0,0,0-.448,0l-.9,1.559a1.292,1.292,0,0,1-1.119.646H54.812a1.292,1.292,0,0,0-1.292,1.292v2.954a6.963,6.963,0,0,0,6.963,6.963h0a6.963,6.963,0,0,0,6.963-6.963v-2.954a1.292,1.292,0,0,0-1.292-1.292H64.668A1.293,1.293,0,0,1,63.549,232.967Z" transform="translate(-49.93 -231.278)" fill="none" stroke="#000" stroke-linecap="round" stroke-linejoin="round" stroke-miterlimit="10" stroke-width="1"/>
              </g>
            </g>
          </g>
          <g id="Grupo_1209465" data-name="Grupo 1209465" transform="translate(7.938 25.361)">
            <g id="Grupo_1209464" data-name="Grupo 1209464">
              <path id="Trazado_1054104" data-name="Trazado 1054104" d="M87.843,403.74a.893.893,0,0,1,.644-.872l.037-.011v-.176l-.037-.011a.891.891,0,0,1,0-1.712l.037-.011v-.176l-.037-.011a.891.891,0,0,1,0-1.712l.037-.011v-.176l-.037-.011a.887.887,0,0,1,.037-1.715v-.105a1.04,1.04,0,0,0-.244-.03H86.47a1.7,1.7,0,0,0-1.7,1.7v4.322a1.7,1.7,0,0,0,1.7,1.7h1.81a1.05,1.05,0,0,0,.244-.03v-.106A.9.9,0,0,1,87.843,403.74Z" transform="translate(-84.771 -397)" fill="#ffcebf"/>
              <path id="Trazado_1054105" data-name="Trazado 1054105" d="M87.843,403.74a.893.893,0,0,1,.644-.872l.037-.011v-.176l-.037-.011a.891.891,0,0,1,0-1.712l.037-.011v-.176l-.037-.011a.891.891,0,0,1,0-1.712l.037-.011v-.176l-.037-.011a.887.887,0,0,1,.037-1.715v-.105a1.04,1.04,0,0,0-.244-.03H86.47a1.7,1.7,0,0,0-1.7,1.7v4.322a1.7,1.7,0,0,0,1.7,1.7h1.81a1.05,1.05,0,0,0,.244-.03v-.106A.9.9,0,0,1,87.843,403.74Z" transform="translate(-84.771 -397)" fill="none" stroke="#000" stroke-linecap="round" stroke-linejoin="round" stroke-miterlimit="10" stroke-width="1"/>
              <g id="Grupo_1209461" data-name="Grupo 1209461" transform="translate(2.969)">
                <g id="Grupo_1209460" data-name="Grupo 1209460">
                  <path id="Trazado_1054106" data-name="Trazado 1054106" d="M113.674,401.814a1.006,1.006,0,0,1,0,1.927,1.016,1.016,0,0,0,1.028.978h1.81a1.7,1.7,0,0,0,1.7-1.7V398.7a1.7,1.7,0,0,0-1.7-1.7H114.7a1.017,1.017,0,0,0-1.028.978,1.006,1.006,0,0,1,0,1.927.994.994,0,0,1,0,1.91Z" transform="translate(-113.674 -396.999)" fill="#ffb09e"/>
                </g>
              </g>
              <path id="Trazado_1054107" data-name="Trazado 1054107" d="M134.617,397h-.764a1.806,1.806,0,0,1,.9,1.56v4.6a1.806,1.806,0,0,1-.9,1.56h.764a1.7,1.7,0,0,0,1.7-1.7V398.7A1.7,1.7,0,0,0,134.617,397Z" transform="translate(-128.811 -397)" fill="#f89580"/>
              <g id="Grupo_1209463" data-name="Grupo 1209463" transform="translate(2.969)">
                <g id="Grupo_1209462" data-name="Grupo 1209462">
                  <path id="Trazado_1054108" data-name="Trazado 1054108" d="M113.674,401.814a1.006,1.006,0,0,1,0,1.927,1.016,1.016,0,0,0,1.028.978h1.81a1.7,1.7,0,0,0,1.7-1.7V398.7a1.7,1.7,0,0,0-1.7-1.7H114.7a1.017,1.017,0,0,0-1.028.978,1.006,1.006,0,0,1,0,1.927.994.994,0,0,1,0,1.91Z" transform="translate(-113.674 -396.999)" fill="none" stroke="#000" stroke-linecap="round" stroke-linejoin="round" stroke-miterlimit="10" stroke-width="1"/>
                </g>
              </g>
            </g>
          </g>
          <g id="Grupo_1209468" data-name="Grupo 1209468" transform="translate(7.096 13.267)">
            <g id="Grupo_1209467" data-name="Grupo 1209467">
              <path id="Trazado_1054109" data-name="Trazado 1054109" d="M78.638,279.271a1.456,1.456,0,0,1-2.059,0" transform="translate(-76.579 -279.271)" fill="none" stroke="#000" stroke-linecap="round" stroke-miterlimit="10" stroke-width="1"/>
              <path id="Trazado_1054110" data-name="Trazado 1054110" d="M148.042,279.271a1.456,1.456,0,0,1-2.059,0" transform="translate(-138.853 -279.271)" fill="none" stroke="#000" stroke-linecap="round" stroke-miterlimit="10" stroke-width="1"/>
              <g id="Grupo_1209466" data-name="Grupo 1209466" transform="translate(3.804 0.513)">
                <path id="Trazado_1054111" data-name="Trazado 1054111" d="M114.4,286.72l-.386-.225a.814.814,0,0,1-.14-1.3l.081-.075a1.366,1.366,0,0,0,.445-.631v-.223" transform="translate(-113.612 -284.263)" fill="#fff"/>
                <path id="Trazado_1054112" data-name="Trazado 1054112" d="M114.4,286.72l-.386-.225a.814.814,0,0,1-.14-1.3l.081-.075a1.366,1.366,0,0,0,.445-.631v-.223" transform="translate(-113.612 -284.263)" fill="none" stroke="#000" stroke-linecap="round" stroke-linejoin="round" stroke-miterlimit="10" stroke-width="1"/>
              </g>
            </g>
            <path id="Trazado_1054113" data-name="Trazado 1054113" d="M101.081,319.84a1.672,1.672,0,0,1-1.667,1.667H97.519a1.672,1.672,0,0,1-1.667-1.667" transform="translate(-93.872 -315.672)" fill="none" stroke="#000" stroke-linecap="round" stroke-linejoin="round" stroke-miterlimit="10" stroke-width="1"/>
          </g>
        </g>
        <line id="Línea_900" data-name="Línea 900" y2="11.026" transform="translate(31.704 29.002)" fill="none" stroke="#000" stroke-linecap="round" stroke-linejoin="round" stroke-miterlimit="10" stroke-width="1"/>
      </g>
      <line id="Línea_901" data-name="Línea 901" x2="14.297" transform="translate(32.038 37.307)" fill="none" stroke="#000" stroke-linecap="round" stroke-linejoin="round" stroke-miterlimit="10" stroke-width="1"/>
      <line id="Línea_902" data-name="Línea 902" x1="18.502" transform="translate(30.14 48.996)" fill="none" stroke="#000" stroke-linecap="round" stroke-linejoin="round" stroke-miterlimit="10" stroke-width="1"/>
      <line id="Línea_903" data-name="Línea 903" x1="6.318" transform="translate(52.238 48.996)" fill="none" stroke="#000" stroke-linecap="round" stroke-linejoin="round" stroke-miterlimit="10" stroke-width="1"/>
    </g>
  </g>
</svg>
