<svg xmlns="http://www.w3.org/2000/svg" xmlns:xlink="http://www.w3.org/1999/xlink" width="108" height="108" viewBox="0 0 108 108">
  <defs>
    <filter id="Trazado_904820" x="0" y="0" width="108" height="108" filterUnits="userSpaceOnUse">
      <feOffset dy="3" input="SourceAlpha"/>
      <feGaussianBlur stdDeviation="3" result="blur"/>
      <feFlood flood-opacity="0.161"/>
      <feComposite operator="in" in2="blur"/>
      <feComposite in="SourceGraphic"/>
    </filter>
  </defs>
  <g id="Grupo_1209320" data-name="Grupo 1209320" transform="translate(-620 -4753.428)">
    <g id="Grupo_1208702" data-name="Grupo 1208702" transform="translate(629 4759.428)">
      <g id="Grupo_1207936" data-name="Grupo 1207936" transform="translate(0 0)">
        <g id="Grupo_1201662" data-name="Grupo 1201662">
          <g id="Grupo_1173585" data-name="Grupo 1173585">
            <g id="Grupo_1173428" data-name="Grupo 1173428">
              <g id="Grupo_1171958" data-name="Grupo 1171958">
                <g id="Grupo_1167341" data-name="Grupo 1167341">
                  <g id="Grupo_1166792" data-name="Grupo 1166792">
                    <g transform="matrix(1, 0, 0, 1, -9, -6)" filter="url(#Trazado_904820)">
                      <g id="Trazado_904820-2" data-name="Trazado 904820" transform="translate(9 6)" fill="#fdfbec">
                        <path d="M 44.99999618530273 88.49999237060547 C 39.12687301635742 88.49999237060547 33.43022155761719 87.35006713867188 28.06829643249512 85.08216857910156 C 22.88852119445801 82.89130401611328 18.23629570007324 79.75457763671875 14.24084663391113 75.75914001464844 C 10.24540901184082 71.76369476318359 7.108683586120605 67.11146545410156 4.917821407318115 61.93169403076172 C 2.649921178817749 56.56976699829102 1.499996185302734 50.87311553955078 1.499996185302734 44.99999237060547 C 1.499996185302734 39.12686920166016 2.649921178817749 33.43021774291992 4.917821407318115 28.06829261779785 C 7.108683586120605 22.88851737976074 10.24540901184082 18.23630523681641 14.24084663391113 14.24085521697998 C 18.23629570007324 10.24540519714355 22.88852119445801 7.108692169189453 28.06829643249512 4.917829990386963 C 33.43022155761719 2.649929761886597 39.12687301635742 1.500004887580872 44.99999618530273 1.500004887580872 C 50.87311935424805 1.500004887580872 56.56977081298828 2.649929761886597 61.93169784545898 4.917829990386963 C 67.11147308349609 7.108692169189453 71.76369476318359 10.24540519714355 75.75914764404297 14.24085521697998 C 79.75458526611328 18.23630523681641 82.89131164550781 22.88851737976074 85.08216857910156 28.06829261779785 C 87.35007476806641 33.43021774291992 88.5 39.12686920166016 88.5 44.99999237060547 C 88.5 50.87311553955078 87.35007476806641 56.56976699829102 85.08216857910156 61.93169403076172 C 82.89131164550781 67.11146545410156 79.75458526611328 71.76369476318359 75.75914764404297 75.75914001464844 C 71.76369476318359 79.75457763671875 67.11147308349609 82.89130401611328 61.93169784545898 85.08216857910156 C 56.56977081298828 87.35006713867188 50.87311935424805 88.49999237060547 44.99999618530273 88.49999237060547 Z" stroke="none"/>
                        <path d="M 44.99999618530273 2.999992370605469 C 39.32870864868164 2.999992370605469 33.82865142822266 4.11004638671875 28.65262603759766 6.299331665039062 C 23.65165710449219 8.414566040039062 19.15968322753906 11.44333648681641 15.301513671875 15.30150604248047 C 11.44333648681641 19.15967559814453 8.414566040039062 23.65164947509766 6.299339294433594 28.65262222290039 C 4.110054016113281 33.82864761352539 2.999992370605469 39.32870483398438 2.999992370605469 44.99999237060547 C 2.999992370605469 50.67127990722656 4.110054016113281 56.17132186889648 6.299339294433594 61.34736633300781 C 8.414566040039062 66.34833526611328 11.44333648681641 70.84029388427734 15.301513671875 74.69846343994141 C 19.15968322753906 78.55663299560547 23.65165710449219 81.58540344238281 28.65262603759766 83.70063781738281 C 33.82865142822266 85.88992309570312 39.32870864868164 86.99997711181641 44.99999618530273 86.99997711181641 C 50.67128372192383 86.99997711181641 56.17134094238281 85.88992309570312 61.34736633300781 83.70063781738281 C 66.34834289550781 81.58540344238281 70.84030914306641 78.55663299560547 74.69847869873047 74.69846343994141 C 78.55665588378906 70.84029388427734 81.58542633056641 66.34833526611328 83.70065307617188 61.34736633300781 C 85.88993835449219 56.17132186889648 87 50.67127990722656 87 44.99999237060547 C 87 39.32870483398438 85.88993835449219 33.82864761352539 83.70065307617188 28.65262222290039 C 81.58542633056641 23.65164947509766 78.55665588378906 19.15967559814453 74.69847869873047 15.30150604248047 C 70.84030914306641 11.44333648681641 66.34834289550781 8.414566040039062 61.34736633300781 6.299331665039062 C 56.17134094238281 4.11004638671875 50.67128372192383 2.999992370605469 44.99999618530273 2.999992370605469 M 44.99999618530273 -7.62939453125e-06 C 69.85281372070312 -7.62939453125e-06 90 20.14717864990234 90 44.99999237060547 C 90 69.85279083251953 69.85281372070312 89.99997711181641 44.99999618530273 89.99997711181641 C 20.14717864990234 89.99997711181641 -7.62939453125e-06 69.85279083251953 -7.62939453125e-06 44.99999237060547 C -7.62939453125e-06 20.14717864990234 20.14717864990234 -7.62939453125e-06 44.99999618530273 -7.62939453125e-06 Z" stroke="none" fill="#83793c"/>
                      </g>
                    </g>
                  </g>
                </g>
              </g>
            </g>
          </g>
        </g>
      </g>
    </g>
    <g id="reward_3201677" transform="translate(645 4775.428)">
      <g id="Grupo_1209318" data-name="Grupo 1209318">
        <g id="Grupo_1209303" data-name="Grupo 1209303">
          <path id="Trazado_1053854" data-name="Trazado 1053854" d="M48,40v2a1,1,0,0,1-1,1H29.24l-.01-.01a2.956,2.956,0,0,0,0-3.98l.01-.01H47A1,1,0,0,1,48,40Z" fill="#ffc729"/>
        </g>
        <g id="Grupo_1209304" data-name="Grupo 1209304">
          <path id="Trazado_1053855" data-name="Trazado 1053855" d="M46,20.8a1.825,1.825,0,0,1-.05.4l-.88,3.82L45,25H43.4A13.33,13.33,0,0,0,33,30l-1.96-8.81A1.722,1.722,0,0,1,31,20.8,1.805,1.805,0,0,1,32.8,19H44.2A1.793,1.793,0,0,1,46,20.8Z" fill="#ffc729"/>
        </g>
        <g id="Grupo_1209305" data-name="Grupo 1209305">
          <path id="Trazado_1053856" data-name="Trazado 1053856" d="M45.07,25.02l-1.85,8.01A.78.78,0,0,0,43,33a3,3,0,0,0,0,6H35l-1.56-7L33,30a13.33,13.33,0,0,1,10.4-5H45Z" fill="#fcd770"/>
        </g>
        <g id="Grupo_1209306" data-name="Grupo 1209306">
          <path id="Trazado_1053857" data-name="Trazado 1053857" d="M45.41,11.15,42.71,14l.52,3.85L39.71,16l-3.53,1.85L36.71,14,34,11.15,37.71,11l2-4,2,4Z" fill="#fcd770"/>
        </g>
        <g id="Grupo_1209307" data-name="Grupo 1209307">
          <path id="Trazado_1053858" data-name="Trazado 1053858" d="M33.44,32H21.72a1.014,1.014,0,0,1-.95-.68l-.02-.07L17,35l-3.75-3.75-.02.07a1.014,1.014,0,0,1-.95.68H12a5.9,5.9,0,0,0-3.22.94,5.731,5.731,0,0,0-1.02.82,5.99,5.99,0,0,0,2.1,9.84v.01L8,52H28l-2-8H24V38h3a2.933,2.933,0,0,1,2.23,1.01l.01-.01H35Z" fill="#b4dd7f"/>
        </g>
        <g id="Grupo_1209308" data-name="Grupo 1209308">
          <path id="Trazado_1053859" data-name="Trazado 1053859" d="M16,12H10a1.95,1.95,0,0,1-.99-.26L7.6,12.8A4,4,0,0,0,6,16v4a10,10,0,0,0,7.75,9.74v.01l-.5,1.5-.02.07a1.014,1.014,0,0,1-.95.68H12a5.9,5.9,0,0,0-3.22.94A9.672,9.672,0,0,1,2,23.72V16a14,14,0,1,1,28,0v8a9.993,9.993,0,0,1-4,8H21.72a1.014,1.014,0,0,1-.95-.68l-.02-.07-.7-2.1v-.01A9.982,9.982,0,0,0,26,20V15.41A3.414,3.414,0,0,0,22.59,12Z" fill="#656d78"/>
        </g>
        <g id="Grupo_1209309" data-name="Grupo 1209309">
          <path id="Trazado_1053860" data-name="Trazado 1053860" d="M18,52v9a3,3,0,0,0-6,0V52Z" fill="#f0d0b4"/>
        </g>
        <g id="Grupo_1209310" data-name="Grupo 1209310">
          <path id="Trazado_1053861" data-name="Trazado 1053861" d="M24,52v9a3,3,0,0,0-6,0V52Z" fill="#f0d0b4"/>
        </g>
        <g id="Grupo_1209311" data-name="Grupo 1209311">
          <path id="Trazado_1053862" data-name="Trazado 1053862" d="M23.12,58.88A2.993,2.993,0,0,1,24,61a1,1,0,0,1-1,1H19a1,1,0,0,1-1-1,3,3,0,0,1,5.12-2.12Z" fill="#969faa"/>
        </g>
        <g id="Grupo_1209312" data-name="Grupo 1209312">
          <path id="Trazado_1053863" data-name="Trazado 1053863" d="M44,34v4a1,1,0,0,1-1,1,3,3,0,0,1,0-6,.78.78,0,0,1,.22.03A1,1,0,0,1,44,34Z" fill="#f0d0b4"/>
        </g>
        <g id="Grupo_1209313" data-name="Grupo 1209313">
          <path id="Trazado_1053864" data-name="Trazado 1053864" d="M29.23,39.01a2.956,2.956,0,0,1,0,3.98.689.689,0,0,1-.11.13A2.993,2.993,0,0,1,27,44H24V38h3a2.933,2.933,0,0,1,2.23,1.01Z" fill="#f0d0b4"/>
        </g>
        <g id="Grupo_1209314" data-name="Grupo 1209314">
          <path id="Trazado_1053865" data-name="Trazado 1053865" d="M26,15.41V20A10.009,10.009,0,0,1,16,30a10.045,10.045,0,0,1-7.07-2.93A9.969,9.969,0,0,1,6,20V16a4,4,0,0,1,1.6-3.2l1.41-1.06A1.95,1.95,0,0,0,10,12H22.59A3.414,3.414,0,0,1,26,15.41Z" fill="#f0d0b4"/>
        </g>
        <g id="Grupo_1209315" data-name="Grupo 1209315">
          <path id="Trazado_1053866" data-name="Trazado 1053866" d="M20.05,29.15l.7,2.1L17,35l-3.75-3.75.5-1.5v-.01A9.825,9.825,0,0,0,16,30a9.966,9.966,0,0,0,4.05-.86Z" fill="#f0d0b4"/>
        </g>
        <g id="Grupo_1209316" data-name="Grupo 1209316">
          <path id="Trazado_1053867" data-name="Trazado 1053867" d="M19,22l-.51,2.06a2.568,2.568,0,0,1-4.98,0L13,22Z" fill="#ff826e"/>
        </g>
        <g id="Grupo_1209317" data-name="Grupo 1209317">
          <path id="Trazado_1053868" data-name="Trazado 1053868" d="M17.12,58.88A2.993,2.993,0,0,1,18,61a1,1,0,0,1-1,1H13a1,1,0,0,1-1-1,3,3,0,0,1,5.12-2.12Z" fill="#969faa"/>
        </g>
      </g>
      <g id="Grupo_1209319" data-name="Grupo 1209319">
        <path id="Trazado_1053869" data-name="Trazado 1053869" d="M11,18a1,1,0,0,1,2,0v1h2V18a3,3,0,0,0-6,0v1h2Z"/>
        <path id="Trazado_1053870" data-name="Trazado 1053870" d="M19,18a1,1,0,0,1,2,0v1h2V18a3,3,0,0,0-6,0v1h2Z"/>
        <path id="Trazado_1053871" data-name="Trazado 1053871" d="M12.545,24.3a3.561,3.561,0,0,0,6.91,0L20.28,21H11.72ZM17.72,23l-.2.817a1.563,1.563,0,0,1-3.032,0L14.28,23Z"/>
        <path id="Trazado_1053872" data-name="Trazado 1053872" d="M47,38H45V34a1.99,1.99,0,0,0-.638-1.456l2.566-11.122A2.711,2.711,0,0,0,47,20.795a2.8,2.8,0,0,0-2.737-2.789l-.5-3.666,3.9-4.106-5.321-.209-2.63-5.26-2.63,5.26-5.319.209,3.894,4.106L35.15,18H32.8a2.78,2.78,0,0,0-1.8.674V16A15,15,0,1,0,1,16v7.72a10.594,10.594,0,0,0,5.878,9.525A6.98,6.98,0,0,0,8.713,44.177L6.754,53H11v8a2,2,0,0,0,2,2h4a1.978,1.978,0,0,0,1-.278A1.978,1.978,0,0,0,19,63h4a2,2,0,0,0,2-2V53h4.281l-2.008-8.028A3.964,3.964,0,0,0,29.618,44H47a2,2,0,0,0,2-2V40a2,2,0,0,0-2-2ZM30.925,25.272,32.2,31h-3.72A11.089,11.089,0,0,0,30.925,25.272ZM35.8,38l-1.715-7.717A12.245,12.245,0,0,1,43.4,26h.416l-1.4,6.059A3.955,3.955,0,0,0,39.556,38ZM41,36a2,2,0,0,1,2-2v4A2,2,0,0,1,41,36ZM38.336,11.976l1.37-2.74,1.37,2.74,2.093.083-1.519,1.6.329,2.405L39.706,14.87l-2.272,1.195.328-2.4-1.519-1.6Zm1.37,5.154,1.655.87h-3.31ZM32.8,20H44.2a.8.8,0,0,1,.8.8.769.769,0,0,1-.021.179L44.281,24H43.4a14.23,14.23,0,0,0-9.838,3.932L32.02,20.978A.819.819,0,0,1,32,20.8a.8.8,0,0,1,.8-.8ZM3,23.72V16a13,13,0,0,1,26,0v8a9.038,9.038,0,0,1-3.364,7H21.721l-.45-1.349A11.006,11.006,0,0,0,27,20V15.414A4.413,4.413,0,0,0,22.586,11H16a1,1,0,0,1,0-2h1V7H16a3,3,0,0,0-3,3,2.966,2.966,0,0,0,.184,1H10a1,1,0,0,1,0-2h1V7H10a2.993,2.993,0,0,0-2.511,4.633L7,12a5.024,5.024,0,0,0-2,4v4a11.01,11.01,0,0,0,7.476,10.41l-.2.59H12a6.947,6.947,0,0,0-3.318.839A8.6,8.6,0,0,1,3,23.72ZM8.2,13.6l.974-.73A2.973,2.973,0,0,0,10,13H22.586A2.416,2.416,0,0,1,25,15.414V20A9,9,0,0,1,7,20V16a3.014,3.014,0,0,1,1.2-2.4Zm6.23,17.275a10.57,10.57,0,0,0,5-.429l.178.534L17,33.586,14.394,30.98ZM7,38a5.006,5.006,0,0,1,5-5h.279a1.973,1.973,0,0,0,1.01-.3L17,36.414l3.71-3.71a1.983,1.983,0,0,0,1.012.3H32.642l1.111,5H29.618A3.962,3.962,0,0,0,27,37H23V35H21v2H14.236a2.6,2.6,0,0,1-2.342-1.447l-1.789.9A4.6,4.6,0,0,0,14.236,39H23v4H12a5.006,5.006,0,0,1-5-5ZM17,53v4.556a3.875,3.875,0,0,0-4,0V53Zm-4,8a2,2,0,0,1,4-.019V61Zm6,0a2,2,0,0,1,4-.019V61Zm4-3.444a3.875,3.875,0,0,0-4,0V53h4ZM9.246,51l1.365-6.14A6.984,6.984,0,0,0,12,45H25.22l1.5,6ZM27,43H25V39h2a2,2,0,1,1,0,4Zm20-1H30.858a3.592,3.592,0,0,0,0-2H47Z"/>
        <path id="Trazado_1053873" data-name="Trazado 1053873" d="M33,3.172h2V8.829H33Z" transform="translate(5.716 25.799) rotate(-45)"/>
        <path id="Trazado_1053874" data-name="Trazado 1053874" d="M44.172,5h5.657V7H44.172Z" transform="translate(9.523 34.991) rotate(-45)"/>
        <path id="Trazado_1053875" data-name="Trazado 1053875" d="M49.292,10H62.708v2H49.292Z" transform="translate(0.993 26.205) rotate(-26.565)"/>
        <path id="Trazado_1053876" data-name="Trazado 1053876" d="M51,20h8v2H51Z"/>
        <path id="Trazado_1053877" data-name="Trazado 1053877" d="M55.5,24.148h2v11.7h-2Z" transform="translate(8.998 72.846) rotate(-70.007)"/>
        <path id="Trazado_1053878" data-name="Trazado 1053878" d="M51.5,33.8h2v6.4h-2Z" transform="matrix(0.625, -0.781, 0.781, 0.625, -9.189, 54.882)"/>
      </g>
    </g>
  </g>
</svg>
