<svg xmlns="http://www.w3.org/2000/svg" xmlns:xlink="http://www.w3.org/1999/xlink" width="108" height="108" viewBox="0 0 108 108">
  <defs>
    <filter id="Trazado_904820" x="0" y="0" width="108" height="108" filterUnits="userSpaceOnUse">
      <feOffset dy="3" input="SourceAlpha"/>
      <feGaussianBlur stdDeviation="3" result="blur"/>
      <feFlood flood-opacity="0.161"/>
      <feComposite operator="in" in2="blur"/>
      <feComposite in="SourceGraphic"/>
    </filter>
    <clipPath id="clip-path">
      <path id="path165" d="M0-682.665H61.956v61.956H0Z" transform="translate(0 682.665)"/>
    </clipPath>
  </defs>
  <g id="Grupo_1209410" data-name="Grupo 1209410" transform="translate(-620 -1025.852)">
    <g id="Grupo_1209079" data-name="Grupo 1209079" transform="translate(629 1031.852)">
      <g id="Grupo_1207936" data-name="Grupo 1207936" transform="translate(0 0)">
        <g id="Grupo_1201662" data-name="Grupo 1201662">
          <g id="Grupo_1173585" data-name="Grupo 1173585">
            <g id="Grupo_1173428" data-name="Grupo 1173428">
              <g id="Grupo_1171958" data-name="Grupo 1171958">
                <g id="Grupo_1167341" data-name="Grupo 1167341">
                  <g id="Grupo_1166792" data-name="Grupo 1166792">
                    <g transform="matrix(1, 0, 0, 1, -9, -6)" filter="url(#Trazado_904820)">
                      <g id="Trazado_904820-2" data-name="Trazado 904820" transform="translate(9 6)" fill="#fdfbec">
                        <path d="M 44.99999618530273 88.49997711181641 C 39.12687301635742 88.49997711181641 33.43022155761719 87.35005187988281 28.06829643249512 85.0821533203125 C 22.88852119445801 82.89128875732422 18.23629570007324 79.75457763671875 14.24084663391113 75.75912475585938 C 10.24540901184082 71.76367950439453 7.108683586120605 67.1114501953125 4.917821407318115 61.93169021606445 C 2.649921178817749 56.56975173950195 1.499996185302734 50.87311172485352 1.499996185302734 44.9999885559082 C 1.499996185302734 39.12686538696289 2.649921178817749 33.43021392822266 4.917821407318115 28.06828880310059 C 7.108683586120605 22.88851356506348 10.24540901184082 18.23630142211914 14.24084663391113 14.24085140228271 C 18.23629570007324 10.24540138244629 22.88852119445801 7.108688354492188 28.06829643249512 4.917826175689697 C 33.43022155761719 2.649925947189331 39.12687301635742 1.500001072883606 44.99999618530273 1.500001072883606 C 50.87311935424805 1.500001072883606 56.56977081298828 2.649925947189331 61.93169784545898 4.917826175689697 C 67.11147308349609 7.108688354492188 71.76369476318359 10.24540138244629 75.75914764404297 14.24085140228271 C 79.75458526611328 18.23630142211914 82.89131164550781 22.88851356506348 85.08216857910156 28.06828880310059 C 87.35007476806641 33.43021392822266 88.5 39.12686538696289 88.5 44.9999885559082 C 88.5 50.87311172485352 87.35007476806641 56.56975173950195 85.08216857910156 61.93169021606445 C 82.89131164550781 67.1114501953125 79.75458526611328 71.76367950439453 75.75914764404297 75.75912475585938 C 71.76369476318359 79.75457763671875 67.11147308349609 82.89128875732422 61.93169784545898 85.0821533203125 C 56.56977081298828 87.35005187988281 50.87311935424805 88.49997711181641 44.99999618530273 88.49997711181641 Z" stroke="none"/>
                        <path d="M 44.99999618530273 3 C 39.32870864868164 3 33.82865142822266 4.110061645507812 28.65262603759766 6.299331665039062 C 23.65165710449219 8.414573669433594 19.15968322753906 11.44332885742188 15.301513671875 15.301513671875 C 11.44333648681641 19.15969085693359 8.414566040039062 23.65164947509766 6.299339294433594 28.65261840820312 C 4.110054016113281 33.82864379882812 2.999992370605469 39.32870101928711 2.999992370605469 44.9999885559082 C 2.999992370605469 50.6712760925293 4.110054016113281 56.17131805419922 6.299339294433594 61.34735870361328 C 8.414566040039062 66.34832763671875 11.44333648681641 70.84028625488281 15.301513671875 74.69845581054688 C 19.15968322753906 78.55663299560547 23.65165710449219 81.58540344238281 28.65262603759766 83.70063018798828 C 33.82865142822266 85.88991546630859 39.32870864868164 86.99997711181641 44.99999618530273 86.99997711181641 C 50.67128372192383 86.99997711181641 56.17134094238281 85.88991546630859 61.34736633300781 83.70063018798828 C 66.34834289550781 81.58540344238281 70.84030914306641 78.55663299560547 74.69847869873047 74.69845581054688 C 78.55665588378906 70.84028625488281 81.58542633056641 66.34832763671875 83.70065307617188 61.34735870361328 C 85.88993835449219 56.17131805419922 87 50.6712760925293 87 44.9999885559082 C 87 39.32870101928711 85.88993835449219 33.82864379882812 83.70065307617188 28.65261840820312 C 81.58542633056641 23.65164947509766 78.55665588378906 19.15969085693359 74.69847869873047 15.301513671875 C 70.84030914306641 11.44332885742188 66.34834289550781 8.414573669433594 61.34736633300781 6.299331665039062 C 56.17134094238281 4.110061645507812 50.67128372192383 3 44.99999618530273 3 M 44.99999618530273 0 C 69.85281372070312 0 90 20.14717102050781 90 44.9999885559082 C 90 69.85279083251953 69.85281372070312 89.99997711181641 44.99999618530273 89.99997711181641 C 20.14717864990234 89.99997711181641 -7.62939453125e-06 69.85279083251953 -7.62939453125e-06 44.9999885559082 C -7.62939453125e-06 20.14717102050781 20.14717864990234 0 44.99999618530273 0 Z" stroke="none" fill="#83793c"/>
                      </g>
                    </g>
                  </g>
                </g>
              </g>
            </g>
          </g>
        </g>
      </g>
    </g>
    <g id="g159" transform="translate(640.306 1728.539)">
      <g id="g161" transform="translate(0 -682.665)">
        <g id="g163" clip-path="url(#clip-path)">
          <g id="g169" transform="translate(17.141 48.942)">
            <path id="path171" d="M-332.25-121.287c0-7.808-3.293-12.106-3.293-12.106h-26.578s-3.293,4.3-3.293,12.106Z" transform="translate(365.414 133.393)" fill="#ff8d9d"/>
          </g>
          <g id="g173" transform="translate(10.752 0.908)">
            <path id="path175" d="M0-230.133A23,23,0,0,1,22.971-253.1a23,23,0,0,1,22.971,22.971Z" transform="translate(0 253.103)" fill="#696eb1"/>
          </g>
          <g id="g177" transform="translate(47.149 19.656)">
            <path id="path179" d="M-108.828-54.414a5.431,5.431,0,0,1-5.431,5.431,5.431,5.431,0,0,1-5.431-5.431,5.431,5.431,0,0,1,5.431-5.431,5.431,5.431,0,0,1,5.431,5.431" transform="translate(119.69 59.845)" fill="#c7856a"/>
          </g>
          <g id="g181" transform="translate(3.944 0.958)">
            <path id="path183" d="M-283.332,0a22.816,22.816,0,0,0-10.381,3.269A6.58,6.58,0,0,0-298.681.376a6.577,6.577,0,0,0-6.784,4.681,6.6,6.6,0,0,1-3.568,4.212,7.746,7.746,0,0,1-1.086.392,2.053,2.053,0,0,0-.889,3.428,8.132,8.132,0,0,0,7.354,2.654,22.881,22.881,0,0,0-1.149,7.178h9.675a22.391,22.391,0,0,1-.227-3.176A22.212,22.212,0,0,1-283.332,0" transform="translate(311.613)" fill="#4c5698"/>
          </g>
          <g id="g185" transform="translate(14.985 10.718)">
            <path id="path187" d="M-371.085-91.454a4.017,4.017,0,0,0-4.49-3.085,34.22,34.22,0,0,1-4.671.318,31.542,31.542,0,0,1-18.314-5.6,4.036,4.036,0,0,0-5.517.771,18.655,18.655,0,0,0-4.048,11.706,18.79,18.79,0,0,0,18.6,18.663A18.737,18.737,0,0,0-370.65-87.422a18.8,18.8,0,0,0-.435-4.031" transform="translate(408.125 100.582)" fill="#da9d81"/>
          </g>
          <g id="g189" transform="translate(9.433 10.719)">
            <path id="path191" d="M-107.864-100.017a22.119,22.119,0,0,1,2.358-9.967,4.029,4.029,0,0,0-3.524,1.512,18.662,18.662,0,0,0-3.576,7.443,5.5,5.5,0,0,0-.592-.033,5.431,5.431,0,0,0-5.431,5.431A5.431,5.431,0,0,0-113.2-90.2a5.439,5.439,0,0,0,1.285-.154A18.805,18.805,0,0,0-94.479-78.1a18.854,18.854,0,0,0,3.6-.32,22.222,22.222,0,0,1-16.983-21.593" transform="translate(118.63 110)" fill="#c7856a"/>
          </g>
          <g id="g193" transform="translate(19.803 24.597)">
            <path id="path195" d="M-75.171-29.931c0,1.65-1.68,2.988-3.752,2.988s-3.752-1.337-3.752-2.988,1.68-2.988,3.752-2.988,3.752,1.338,3.752,2.988" transform="translate(82.674 32.919)" fill="#eeedff"/>
          </g>
          <g id="g197" transform="translate(40.138 24.597)">
            <path id="path199" d="M0-29.931c0,1.65,1.68,2.988,3.752,2.988S7.5-28.281,7.5-29.931s-1.68-2.988-3.752-2.988S0-31.581,0-29.931" transform="translate(0 32.919)" fill="#eeedff"/>
          </g>
          <g id="g201" transform="translate(21.828 29.438)">
            <path id="path203" d="M-222.546-54.425h-6.462V-56a3.857,3.857,0,0,0-3.857-3.857A3.857,3.857,0,0,0-236.722-56v1.575h-6.462a1.575,1.575,0,0,0-1.575,1.575v19.429a1.575,1.575,0,0,0,1.575,1.575h6.462v-1.575a3.857,3.857,0,0,1,3.857-3.857,3.857,3.857,0,0,1,3.857,3.857v1.575h6.462a1.575,1.575,0,0,0,1.575-1.575V-52.85a1.575,1.575,0,0,0-1.575-1.575" transform="translate(244.759 59.857)" fill="#fce29f"/>
          </g>
          <g id="g205" transform="translate(17.141 48.942)">
            <path id="path207" d="M-73.749-69.2a16.511,16.511,0,0,1,1.5-6.908h-5.573s-3.293,4.3-3.293,12.106h8.194a16.557,16.557,0,0,1-.833-5.2" transform="translate(81.11 76.112)" fill="#e95b70"/>
          </g>
          <g id="g209" transform="translate(21.828 34.871)">
            <path id="path211" d="M-47.719-33.981a20.372,20.372,0,0,1,.284-3.392h-3.472A1.575,1.575,0,0,0-52.483-35.8v19.429a1.575,1.575,0,0,0,1.575,1.575h6.462v-1.575a3.852,3.852,0,0,1,1.658-3.168,23.316,23.316,0,0,1-4.933-14.444" transform="translate(52.483 37.373)" fill="#ffcd71"/>
          </g>
          <g id="g213" transform="translate(14.671 44.275)">
            <path id="path215" d="M-122.708-26.17h0a3.857,3.857,0,0,0-4.9-2.4l-4.74,1.618a3.857,3.857,0,0,0-2.4,4.9,3.857,3.857,0,0,0,4.9,2.4l4.74-1.618a3.857,3.857,0,0,0,2.4-4.9" transform="translate(134.956 28.782)" fill="#da9d81"/>
          </g>
          <g id="g217" transform="translate(40.317 44.275)">
            <path id="path219" d="M-2.083-26.17h0a3.857,3.857,0,0,1,4.9-2.4l4.74,1.618a3.857,3.857,0,0,1,2.4,4.9,3.857,3.857,0,0,1-4.9,2.4L.322-21.274a3.857,3.857,0,0,1-2.4-4.9" transform="translate(2.29 28.782)" fill="#da9d81"/>
          </g>
          <g id="g221" transform="translate(14.672 46.605)">
            <path id="path223" d="M-122.705-2.831c-.033-.1-.071-.19-.11-.283A7.811,7.811,0,0,1-129.287.318a7.79,7.79,0,0,1-5.249-2.024,3.845,3.845,0,0,0-.209,2.985,3.857,3.857,0,0,0,4.9,2.4l4.74-1.618A3.857,3.857,0,0,0-122.705-2.831Z" transform="translate(134.953 3.113)" fill="#c7856a"/>
          </g>
          <g id="g225" transform="translate(40.318 44.446)">
            <path id="path227" d="M-105-68.295a7.819,7.819,0,0,1-7.753-6.817,3.851,3.851,0,0,0-2.52,2.441h0a3.857,3.857,0,0,0,2.4,4.9l4.74,1.618a3.856,3.856,0,0,0,4.871-2.335,7.841,7.841,0,0,1-1.742.2" transform="translate(115.478 75.112)" fill="#c7856a"/>
          </g>
          <g id="g229" transform="translate(25.741 23.175)">
            <path id="path231" d="M0,0V1.534" transform="translate(0)" fill="none" stroke="#000" stroke-linecap="round" stroke-linejoin="round" stroke-miterlimit="10" stroke-width="1"/>
          </g>
          <g id="g233" transform="translate(41.703 23.175)">
            <path id="path235" d="M0,0V1.534" transform="translate(0)" fill="none" stroke="#000" stroke-linecap="round" stroke-linejoin="round" stroke-miterlimit="10" stroke-width="1"/>
          </g>
          <g id="g237" transform="translate(31.618 24.663)">
            <path id="path239" d="M0,0A2.784,2.784,0,0,0,2.1.959,2.783,2.783,0,0,0,4.208,0" fill="none" stroke="#000" stroke-linecap="round" stroke-linejoin="round" stroke-miterlimit="10" stroke-width="1"/>
          </g>
          <g id="g241" transform="translate(3.944 1.316)">
            <path id="path243" d="M-179.325-29.151a6.58,6.58,0,0,0-4.968-2.892,6.577,6.577,0,0,0-6.784,4.681,6.6,6.6,0,0,1-3.568,4.212,7.746,7.746,0,0,1-1.086.392,2.053,2.053,0,0,0-.889,3.428,8.131,8.131,0,0,0,7.354,2.654A23.085,23.085,0,0,1-179.325-29.151Z" transform="translate(197.224 32.06)" fill="none" stroke="#000" stroke-linecap="round" stroke-linejoin="round" stroke-miterlimit="10" stroke-width="1"/>
          </g>
          <g id="g245" transform="translate(10.887 0.908)">
            <path id="path247" d="M-348.053-33.4a22.828,22.828,0,0,0-11.905-3.334,23,23,0,0,0-22.835,20.483,5.415,5.415,0,0,1,3.977-1.734,5.471,5.471,0,0,1,.592.033,18.663,18.663,0,0,1,3.577-7.443,4.036,4.036,0,0,1,5.517-.771,28.431,28.431,0,0,0,4.731,2.725" transform="translate(382.794 36.739)" fill="none" stroke="#000" stroke-linecap="round" stroke-linejoin="round" stroke-miterlimit="10" stroke-width="1"/>
          </g>
          <g id="g249" transform="translate(33 6.397)">
            <path id="path251" d="M0-92.356a33.464,33.464,0,0,0,9.864,1.464,34.222,34.222,0,0,0,4.671-.318,4.02,4.02,0,0,1,4.451,2.928,5.483,5.483,0,0,1,.595-.033,5.415,5.415,0,0,1,3.977,1.734,22.953,22.953,0,0,0-7.952-14.994" transform="translate(0 101.574)" fill="none" stroke="#000" stroke-linecap="round" stroke-linejoin="round" stroke-miterlimit="10" stroke-width="1"/>
          </g>
          <g id="g253" transform="translate(9.433 19.656)">
            <path id="path255" d="M-55.627-43.041a18.792,18.792,0,0,1,.471-4.263,5.47,5.47,0,0,0-.592-.033,5.431,5.431,0,0,0-5.431,5.431,5.431,5.431,0,0,0,5.431,5.431,5.439,5.439,0,0,0,1.285-.154A18.569,18.569,0,0,1-55.627-43.041Z" transform="translate(61.18 47.337)" fill="none" stroke="#000" stroke-linecap="round" stroke-linejoin="round" stroke-miterlimit="10" stroke-width="1"/>
          </g>
          <g id="g257" transform="translate(51.305 19.656)">
            <path id="path259" d="M-12.777,0a5.513,5.513,0,0,0-.595.033c.014.052.027.1.039.158A18.8,18.8,0,0,1-12.9,4.222a18.7,18.7,0,0,1-1.154,6.489,5.442,5.442,0,0,0,1.275.152A5.431,5.431,0,0,0-7.345,5.431,5.431,5.431,0,0,0-12.777,0Z" transform="translate(14.052)" fill="none" stroke="#000" stroke-linecap="round" stroke-linejoin="round" stroke-miterlimit="10" stroke-width="1"/>
          </g>
          <g id="g261" transform="translate(14.985 10.718)">
            <path id="path263" d="M-143.218-34.891a28.437,28.437,0,0,1-4.731-2.725,4.037,4.037,0,0,0-5.517.771,18.655,18.655,0,0,0-4.048,11.706,18.722,18.722,0,0,0,6.843,14.377v-1.884a1.575,1.575,0,0,1,1.575-1.575h6.462V-15.8a3.857,3.857,0,0,1,3.857-3.857h0a3.857,3.857,0,0,1,3.857,3.857v1.575h6.462a1.575,1.575,0,0,1,1.575,1.575v1.911a18.7,18.7,0,0,0,6.843-14.478,18.805,18.805,0,0,0-.435-4.031,4.017,4.017,0,0,0-4.49-3.085,34.239,34.239,0,0,1-4.671.318,33.462,33.462,0,0,1-9.864-1.464" transform="translate(157.513 38.374)" fill="none" stroke="#000" stroke-linecap="round" stroke-linejoin="round" stroke-miterlimit="10" stroke-width="1"/>
          </g>
          <g id="g265" transform="translate(17.141 52.017)">
            <path id="path267" d="M-305.853-13.864l-2.053-.7v3.174a1.575,1.575,0,0,1-1.575,1.575h-6.462v-1.575a3.857,3.857,0,0,0-3.857-3.857,3.857,3.857,0,0,0-3.857,3.857v1.575h-6.462a1.575,1.575,0,0,1-1.575-1.575v-3.174l-2.053.7a3.843,3.843,0,0,1-1.533.2,24.753,24.753,0,0,0-1.1,7.45h33.163a24.755,24.755,0,0,0-1.1-7.45A3.844,3.844,0,0,1-305.853-13.864Z" transform="translate(336.382 15.248)" fill="none" stroke="#000" stroke-linecap="round" stroke-linejoin="round" stroke-miterlimit="10" stroke-width="1"/>
          </g>
          <g id="g269" transform="translate(14.671 44.275)">
            <path id="path271" d="M-122.708-26.17h0a3.857,3.857,0,0,0-4.9-2.4l-4.74,1.618a3.857,3.857,0,0,0-2.4,4.9,3.857,3.857,0,0,0,4.9,2.4l4.74-1.618A3.857,3.857,0,0,0-122.708-26.17Z" transform="translate(134.956 28.782)" fill="none" stroke="#000" stroke-linecap="round" stroke-linejoin="round" stroke-miterlimit="10" stroke-width="1"/>
          </g>
          <g id="g273" transform="translate(21.828 29.438)">
            <path id="path275" d="M-211.408-223.866a3.857,3.857,0,0,1-2.4-4.9,3.857,3.857,0,0,1,4.9-2.4l.2.067v-8.1a1.575,1.575,0,0,0-1.575-1.575h-6.462v-1.575a3.857,3.857,0,0,0-3.857-3.857h0a3.857,3.857,0,0,0-3.857,3.857v1.575h-6.462a1.575,1.575,0,0,0-1.575,1.575v8.1l.195-.067a3.857,3.857,0,0,1,4.9,2.4,3.857,3.857,0,0,1-2.4,4.9l-2.687.917v3.174a1.575,1.575,0,0,0,1.575,1.575h6.462v-1.575a3.857,3.857,0,0,1,3.857-3.857,3.857,3.857,0,0,1,3.857,3.857v1.575h6.462a1.575,1.575,0,0,0,1.575-1.575v-3.174Z" transform="translate(232.51 246.211)" fill="none" stroke="#000" stroke-linecap="round" stroke-linejoin="round" stroke-miterlimit="10" stroke-width="1"/>
          </g>
          <g id="g277" transform="translate(40.317 44.275)">
            <path id="path279" d="M-2.083-26.17h0a3.857,3.857,0,0,1,4.9-2.4l4.74,1.618a3.857,3.857,0,0,1,2.4,4.9,3.857,3.857,0,0,1-4.9,2.4L.322-21.274A3.857,3.857,0,0,1-2.083-26.17Z" transform="translate(2.29 28.782)" fill="none" stroke="#000" stroke-linecap="round" stroke-linejoin="round" stroke-miterlimit="10" stroke-width="1"/>
          </g>
        </g>
      </g>
    </g>
  </g>
</svg>
