<svg xmlns="http://www.w3.org/2000/svg" xmlns:xlink="http://www.w3.org/1999/xlink" width="98" height="98" viewBox="0 0 98 98">
  <defs>
    <filter id="Trazado_982547" x="0" y="0" width="98" height="98" filterUnits="userSpaceOnUse">
      <feOffset dy="3" input="SourceAlpha"/>
      <feGaussianBlur stdDeviation="3" result="blur"/>
      <feFlood flood-opacity="0.161"/>
      <feComposite operator="in" in2="blur"/>
      <feComposite in="SourceGraphic"/>
    </filter>
    <clipPath id="clip-path">
      <path id="path8121" d="M0-682.665H48.414v48.414H0Z" transform="translate(0 682.665)"/>
    </clipPath>
  </defs>
  <g id="Grupo_1208167" data-name="Grupo 1208167" transform="translate(-191 -2467.014)">
    <g id="Grupo_1207718" data-name="Grupo 1207718" transform="translate(0 381.462)">
      <g id="Grupo_1207712" data-name="Grupo 1207712">
        <g id="Grupo_1207285" data-name="Grupo 1207285" transform="translate(0 344.552)">
          <g id="Grupo_1206883" data-name="Grupo 1206883" transform="translate(0 -209)">
            <g id="Grupo_1204569" data-name="Grupo 1204569" transform="translate(-81 -1890.336)">
              <g id="Grupo_1203962" data-name="Grupo 1203962" transform="translate(281 3846.336)">
                <g id="Grupo_1203498" data-name="Grupo 1203498" transform="translate(0)">
                  <g id="Grupo_1202589" data-name="Grupo 1202589">
                    <g id="Grupo_1172010" data-name="Grupo 1172010">
                      <g id="Grupo_1171046" data-name="Grupo 1171046">
                        <g id="Grupo_1148525" data-name="Grupo 1148525">
                          <g transform="matrix(1, 0, 0, 1, -9, -6)" filter="url(#Trazado_982547)">
                            <g id="Trazado_982547-2" data-name="Trazado 982547" transform="translate(9 6)" fill="#fdfbec">
                              <path d="M 39.99999237060547 78.49998474121094 C 34.8018684387207 78.49998474121094 29.76002502441406 77.48226165771484 25.0145263671875 75.47508239746094 C 20.43014717102051 73.53604888916016 16.31264877319336 70.75984954833984 12.77639198303223 67.22359466552734 C 9.240137100219727 63.68733596801758 6.463936805725098 59.5698356628418 4.524903297424316 54.98546981811523 C 2.517725706100464 50.23995971679688 1.500003457069397 45.19811630249023 1.500003457069397 39.99999237060547 C 1.500003457069397 34.8018684387207 2.517725706100464 29.76002502441406 4.524903297424316 25.0145263671875 C 6.463936805725098 20.43014717102051 9.240137100219727 16.31264877319336 12.77639198303223 12.77639198303223 C 16.31264877319336 9.240137100219727 20.43014717102051 6.463936805725098 25.0145263671875 4.524903297424316 C 29.76002502441406 2.517725706100464 34.8018684387207 1.500003457069397 39.99999237060547 1.500003457069397 C 45.19811630249023 1.500003457069397 50.23995971679688 2.517725706100464 54.98546981811523 4.524903297424316 C 59.5698356628418 6.463936805725098 63.68733596801758 9.240137100219727 67.22359466552734 12.77639198303223 C 70.75984954833984 16.31264877319336 73.53604888916016 20.43014717102051 75.47508239746094 25.0145263671875 C 77.48226165771484 29.76002502441406 78.49998474121094 34.8018684387207 78.49998474121094 39.99999237060547 C 78.49998474121094 45.19812393188477 77.48226165771484 50.23995971679688 75.47508239746094 54.98546981811523 C 73.53604888916016 59.5698356628418 70.75984954833984 63.68733596801758 67.22359466552734 67.22359466552734 C 63.68733596801758 70.75984954833984 59.5698356628418 73.53604888916016 54.98546981811523 75.47508239746094 C 50.23995971679688 77.48226165771484 45.19812393188477 78.49998474121094 39.99999237060547 78.49998474121094 Z" stroke="none"/>
                              <path d="M 39.99999237060547 2.999992370605469 C 35.00370025634766 2.999992370605469 30.1584587097168 3.97784423828125 25.59884643554688 5.906402587890625 C 21.19327163696289 7.769805908203125 17.23603057861328 10.43805694580078 13.83704376220703 13.83704376220703 C 10.43805694580078 17.23603057861328 7.769805908203125 21.19327163696289 5.906402587890625 25.59884643554688 C 3.97784423828125 30.1584587097168 2.999992370605469 35.00370025634766 2.999992370605469 39.99999237060547 C 2.999992370605469 44.99628448486328 3.97784423828125 49.84152603149414 5.906402587890625 54.40113830566406 C 7.769805908203125 58.80671310424805 10.43805694580078 62.76395416259766 13.83704376220703 66.16294097900391 C 17.23603057861328 69.56191253662109 21.19327163696289 72.23016357421875 25.59884643554688 74.09356689453125 C 30.1584587097168 76.02212524414062 35.00370025634766 76.99997711181641 39.99999237060547 76.99997711181641 C 44.99628448486328 76.99997711181641 49.84152603149414 76.02212524414062 54.40113830566406 74.09356689453125 C 58.80671310424805 72.23016357421875 62.76395416259766 69.56191253662109 66.16294097900391 66.16294097900391 C 69.56191253662109 62.76395416259766 72.23016357421875 58.80671310424805 74.09356689453125 54.40113830566406 C 76.02212524414062 49.84152603149414 76.99997711181641 44.99628448486328 76.99997711181641 39.99999237060547 C 76.99997711181641 35.00370025634766 76.02212524414062 30.1584587097168 74.09356689453125 25.59884643554688 C 72.23016357421875 21.19327163696289 69.56191253662109 17.23603057861328 66.16294097900391 13.83704376220703 C 62.76395416259766 10.43805694580078 58.80671310424805 7.769805908203125 54.40113830566406 5.906402587890625 C 49.84152603149414 3.97784423828125 44.99628448486328 2.999992370605469 39.99999237060547 2.999992370605469 M 39.99999237060547 -7.62939453125e-06 C 62.09137725830078 -7.62939453125e-06 79.99997711181641 17.90860748291016 79.99997711181641 39.99999237060547 C 79.99997711181641 62.09137725830078 62.09137725830078 79.99997711181641 39.99999237060547 79.99997711181641 C 17.90860748291016 79.99997711181641 -7.62939453125e-06 62.09137725830078 -7.62939453125e-06 39.99999237060547 C -7.62939453125e-06 17.90860748291016 17.90860748291016 -7.62939453125e-06 39.99999237060547 -7.62939453125e-06 Z" stroke="none" fill="#83793c"/>
                            </g>
                          </g>
                        </g>
                      </g>
                    </g>
                  </g>
                </g>
              </g>
            </g>
          </g>
        </g>
        <g id="g8115" transform="translate(215.793 2790.01)">
          <g id="g8117" transform="translate(0 -682.665)">
            <g id="g8119" clip-path="url(#clip-path)">
              <g id="g8125" transform="translate(-33.259 0.709)">
                <path id="path8127" d="M-338.457-377.826h-25.835v-25.108c5.31-7.679,37.755-5.416,25.835,25.108" transform="translate(364.292 406.667)" fill="#fbdf63"/>
              </g>
              <g id="g8129" transform="translate(-33.259 0.709)">
                <path id="path8131" d="M-338.457-377.826h-.619c6.164-24.728-15.887-30.6-25.216-24.374v-.734c5.31-7.679,37.755-5.416,25.835,25.108" transform="translate(364.292 406.667)" fill="#f9d11f"/>
              </g>
            </g>
          </g>
          <g id="g8265" transform="translate(0 -682.665)">
            <g id="g8267" clip-path="url(#clip-path)">
              <g id="g8273" transform="translate(-33.259 51.036)">
                <path id="path8275" d="M-338.457-377.654h-25.835v-25.1c5.31-7.676,37.755-5.413,25.835,25.1" transform="translate(364.292 406.481)" fill="#003343"/>
              </g>
              <g id="g8277" transform="translate(-33.259 51.036)">
                <path id="path8279" d="M-338.457-377.654h-.619c6.164-24.717-15.887-30.585-25.216-24.362v-.734c5.31-7.676,37.755-5.413,25.835,25.1" transform="translate(364.292 406.481)" fill="#002439"/>
              </g>
            </g>
          </g>
          <g id="g8281" transform="translate(0 -682.665)">
            <g id="g8283" clip-path="url(#clip-path)">
              <g id="g8289" transform="translate(17.066 51.014)">
                <path id="path8291" d="M-338.457-377.826h-25.835v-25.108c5.31-7.679,37.755-5.416,25.835,25.108" transform="translate(364.292 406.667)" fill="#ff7e50"/>
              </g>
              <g id="g8293" transform="translate(17.066 51.014)">
                <path id="path8295" d="M-338.457-377.826h-.619c6.164-24.728-15.887-30.6-25.216-24.374v-.734c5.31-7.679,37.755-5.416,25.835,25.108" transform="translate(364.292 406.667)" fill="#ff6247"/>
              </g>
              <g id="g8297" transform="translate(2.941 54.225)">
                <path id="path8299" d="M-233.028-131.751v15.573h-14.6c-12.2-25.649,14.6-34.273,14.6-15.573" transform="translate(250.816 141.808)" fill="#ffa68a"/>
              </g>
              <g id="g8301" transform="translate(2.941 54.225)">
                <path id="path8303" d="M-233.028-131.751c-.9-16.1-20.23-9.82-14.176,15.573h-.427c-12.2-25.649,14.6-34.273,14.6-15.573" transform="translate(250.816 141.808)" fill="#ff7e50"/>
              </g>
            </g>
          </g>
        </g>
      </g>
    </g>
    <g id="notes_17676734" transform="translate(218.535 2487.069)">
      <g id="Grupo_1202186" data-name="Grupo 1202186" transform="translate(3.161 8.318)">
        <path id="Trazado_1040002" data-name="Trazado 1040002" d="M43.7,13.745l6.327,29.213A3.3,3.3,0,0,1,47.5,46.876L18.288,53.2A3.3,3.3,0,0,1,14.37,50.68L8.043,21.467a3.3,3.3,0,0,1,2.523-3.918l29.213-6.327A3.3,3.3,0,0,1,43.7,13.745Z" transform="translate(-7.246 -10.427)" fill="#53c496"/>
        <path id="Trazado_1040003" data-name="Trazado 1040003" d="M27.065,52.1l-8.773,1.908a3.291,3.291,0,0,1-3.923-2.526l-1.223-5.616L8.04,22.275a3.308,3.308,0,0,1,2.526-3.923l13.6-2.942a32.6,32.6,0,0,0-4.178,16.324,33.375,33.375,0,0,0,3.036,14.134A25.287,25.287,0,0,0,27.065,52.1Z" transform="translate(-7.245 -11.234)" opacity="0.15"/>
        <path id="Trazado_1040004" data-name="Trazado 1040004" d="M17.422,53.831A4.023,4.023,0,0,1,13.5,50.665L7.17,21.451a4.016,4.016,0,0,1,3.075-4.774L39.459,10.35a4.025,4.025,0,0,1,4.774,3.075l6.326,29.214a4.013,4.013,0,0,1-3.075,4.774L18.272,53.74a4,4,0,0,1-.85.092ZM40.309,11.7a2.593,2.593,0,0,0-.546.058L10.551,18.086a2.574,2.574,0,0,0-1.972,3.06l6.327,29.215a2.574,2.574,0,0,0,3.061,1.971L47.18,46a2.575,2.575,0,0,0,1.971-3.062L42.825,13.73A2.581,2.581,0,0,0,40.309,11.7Z" transform="translate(-7.078 -10.259)" fill="#101016"/>
      </g>
      <g id="Grupo_1202190" data-name="Grupo 1202190" transform="translate(0 5.754)">
        <g id="Grupo_1202188" data-name="Grupo 1202188">
          <path id="Trazado_1040005" data-name="Trazado 1040005" d="M40.548,11.28V30.25a3.3,3.3,0,0,1-.965,2.33L28.662,43.5a3.3,3.3,0,0,1-2.33.965H7.362a3.3,3.3,0,0,1-3.295-3.295V11.281A3.3,3.3,0,0,1,7.362,7.986H37.253a3.3,3.3,0,0,1,3.295,3.295Z" transform="translate(-3.347 -7.265)" fill="#ffdc6e"/>
          <path id="Trazado_1040006" data-name="Trazado 1040006" d="M28.315,7.986a22.908,22.908,0,0,0-4.89,6.019,32.6,32.6,0,0,0-4.178,16.324,33.375,33.375,0,0,0,3.036,14.134H7.356a3.3,3.3,0,0,1-3.292-3.292V11.278A3.3,3.3,0,0,1,7.356,7.986Z" transform="translate(-3.346 -7.265)" opacity="0.15"/>
          <g id="Grupo_1202187" data-name="Grupo 1202187">
            <path id="Trazado_1040007" data-name="Trazado 1040007" d="M26.164,45.018H7.194A4.019,4.019,0,0,1,3.179,41V11.112A4.02,4.02,0,0,1,7.194,7.1H37.085A4.019,4.019,0,0,1,41.1,11.112v18.97a4.042,4.042,0,0,1-1.175,2.839L29,43.843a3.99,3.99,0,0,1-2.839,1.175ZM7.194,8.538A2.577,2.577,0,0,0,4.62,11.112V41a2.577,2.577,0,0,0,2.574,2.573h18.97a2.556,2.556,0,0,0,1.82-.753L38.905,31.9a2.591,2.591,0,0,0,.753-1.82V11.112a2.577,2.577,0,0,0-2.573-2.574H7.194Z" transform="translate(-3.179 -7.096)" fill="#101016"/>
            <path id="Trazado_1040008" data-name="Trazado 1040008" d="M35.795,21.265H11.275a.721.721,0,0,1,0-1.442h24.52a.721.721,0,1,1,0,1.442Z" transform="translate(-4.574 -9.505)" fill="#101016"/>
            <path id="Trazado_1040009" data-name="Trazado 1040009" d="M35.795,31.035H11.275a.721.721,0,0,1,0-1.442h24.52a.721.721,0,1,1,0,1.442Z" transform="translate(-4.574 -11.353)" fill="#101016"/>
            <path id="Trazado_1040010" data-name="Trazado 1040010" d="M22.107,40.805H11.275a.721.721,0,0,1,0-1.442H22.107a.721.721,0,0,1,0,1.442Z" transform="translate(-4.574 -13.202)" fill="#101016"/>
          </g>
        </g>
        <g id="Grupo_1202189" data-name="Grupo 1202189" transform="translate(23.629 23.629)">
          <path id="Trazado_1040011" data-name="Trazado 1040011" d="M45.757,37.129a3.117,3.117,0,0,1-.662.967L34.178,49.014a3.118,3.118,0,0,1-.967.662V39.61a2.476,2.476,0,0,1,2.481-2.481Z" transform="translate(-32.491 -36.408)" fill="#ffedad"/>
          <path id="Trazado_1040012" data-name="Trazado 1040012" d="M33.043,50.228a.722.722,0,0,1-.721-.721V39.443a3.206,3.206,0,0,1,3.2-3.2H45.59a.721.721,0,0,1,.662,1.007,3.863,3.863,0,0,1-.815,1.191L34.519,49.355a3.848,3.848,0,0,1-1.193.815.734.734,0,0,1-.283.058Zm2.481-12.546a1.762,1.762,0,0,0-1.76,1.761v8.628L44.154,37.682Z" transform="translate(-32.322 -36.24)" fill="#101016"/>
        </g>
      </g>
      <g id="Grupo_1202193" data-name="Grupo 1202193" transform="translate(9.833)">
        <g id="Grupo_1202191" data-name="Grupo 1202191" transform="translate(3.826 3.845)">
          <path id="Trazado_1040013" data-name="Trazado 1040013" d="M26.422,11.117a1.272,1.272,0,0,1-1.8,0L21.286,7.78a1.272,1.272,0,0,1,1.8-1.8l3.336,3.336A1.272,1.272,0,0,1,26.422,11.117Z" transform="translate(-20.193 -4.906)" fill="#f0f0fc"/>
          <path id="Trazado_1040014" data-name="Trazado 1040014" d="M25.353,12.046a1.987,1.987,0,0,1-1.409-.583L20.608,8.126a2,2,0,0,1,0-2.819,2.041,2.041,0,0,1,2.819,0l3.336,3.336a1.992,1.992,0,0,1-1.41,3.4Zm-3.336-5.88a.551.551,0,0,0-.391.942l3.336,3.336a.552.552,0,0,0,.781-.781L22.408,6.327a.55.55,0,0,0-.39-.161Z" transform="translate(-20.025 -4.742)" fill="#101016"/>
        </g>
        <g id="Grupo_1202192" data-name="Grupo 1202192">
          <circle id="Elipse_12297" data-name="Elipse 12297" cx="4.108" cy="4.108" r="4.108" transform="translate(0.717 0.718)" fill="#f7524b"/>
          <path id="Trazado_1040015" data-name="Trazado 1040015" d="M20.132,9.653a4.826,4.826,0,1,1,3.414-1.412A4.811,4.811,0,0,1,20.132,9.653Zm0-8.212a3.385,3.385,0,1,0,2.395.99,3.376,3.376,0,0,0-2.395-.99Z" transform="translate(-15.306 0)" fill="#101016"/>
        </g>
      </g>
    </g>
  </g>
</svg>
