<svg xmlns="http://www.w3.org/2000/svg" xmlns:xlink="http://www.w3.org/1999/xlink" width="108" height="108" viewBox="0 0 108 108">
  <defs>
    <filter id="Trazado_904820" x="0" y="0" width="108" height="108" filterUnits="userSpaceOnUse">
      <feOffset dy="3" input="SourceAlpha"/>
      <feGaussianBlur stdDeviation="3" result="blur"/>
      <feFlood flood-opacity="0.161"/>
      <feComposite operator="in" in2="blur"/>
      <feComposite in="SourceGraphic"/>
    </filter>
  </defs>
  <g id="Grupo_1208606" data-name="Grupo 1208606" transform="translate(9 6)">
    <g id="Grupo_1207936" data-name="Grupo 1207936" transform="translate(0 0)">
      <g id="Grupo_1201662" data-name="Grupo 1201662">
        <g id="Grupo_1173585" data-name="Grupo 1173585">
          <g id="Grupo_1173428" data-name="Grupo 1173428">
            <g id="Grupo_1171958" data-name="Grupo 1171958">
              <g id="Grupo_1167341" data-name="Grupo 1167341">
                <g id="Grupo_1166792" data-name="Grupo 1166792">
                  <g transform="matrix(1, 0, 0, 1, -9, -6)" filter="url(#Trazado_904820)">
                    <g id="Trazado_904820-2" data-name="Trazado 904820" transform="translate(9 6)" fill="#fdfbec">
                      <path d="M 44.99999618530273 88.49999237060547 C 39.12687301635742 88.49999237060547 33.43022155761719 87.35006713867188 28.06829643249512 85.08216857910156 C 22.88852119445801 82.89130401611328 18.23629570007324 79.75457763671875 14.24084663391113 75.75914001464844 C 10.24540901184082 71.76369476318359 7.108683586120605 67.11146545410156 4.917821407318115 61.93169403076172 C 2.649921178817749 56.56976699829102 1.499996185302734 50.87311553955078 1.499996185302734 44.99999237060547 C 1.499996185302734 39.12686920166016 2.649921178817749 33.43021774291992 4.917821407318115 28.06829261779785 C 7.108683586120605 22.88851737976074 10.24540901184082 18.23630523681641 14.24084663391113 14.24085521697998 C 18.23629570007324 10.24540519714355 22.88852119445801 7.108692169189453 28.06829643249512 4.917829990386963 C 33.43022155761719 2.649929761886597 39.12687301635742 1.500004887580872 44.99999618530273 1.500004887580872 C 50.87311935424805 1.500004887580872 56.56977081298828 2.649929761886597 61.93169784545898 4.917829990386963 C 67.11147308349609 7.108692169189453 71.76369476318359 10.24540519714355 75.75914764404297 14.24085521697998 C 79.75458526611328 18.23630523681641 82.89131164550781 22.88851737976074 85.08216857910156 28.06829261779785 C 87.35007476806641 33.43021774291992 88.5 39.12686920166016 88.5 44.99999237060547 C 88.5 50.87311553955078 87.35007476806641 56.56976699829102 85.08216857910156 61.93169403076172 C 82.89131164550781 67.11146545410156 79.75458526611328 71.76369476318359 75.75914764404297 75.75914001464844 C 71.76369476318359 79.75457763671875 67.11147308349609 82.89130401611328 61.93169784545898 85.08216857910156 C 56.56977081298828 87.35006713867188 50.87311935424805 88.49999237060547 44.99999618530273 88.49999237060547 Z" stroke="none"/>
                      <path d="M 44.99999618530273 2.999992370605469 C 39.32870864868164 2.999992370605469 33.82865142822266 4.11004638671875 28.65262603759766 6.299331665039062 C 23.65165710449219 8.414566040039062 19.15968322753906 11.44333648681641 15.301513671875 15.30150604248047 C 11.44333648681641 19.15967559814453 8.414566040039062 23.65164947509766 6.299339294433594 28.65262222290039 C 4.110054016113281 33.82864761352539 2.999992370605469 39.32870483398438 2.999992370605469 44.99999237060547 C 2.999992370605469 50.67127990722656 4.110054016113281 56.17132186889648 6.299339294433594 61.34736633300781 C 8.414566040039062 66.34833526611328 11.44333648681641 70.84029388427734 15.301513671875 74.69846343994141 C 19.15968322753906 78.55663299560547 23.65165710449219 81.58540344238281 28.65262603759766 83.70063781738281 C 33.82865142822266 85.88992309570312 39.32870864868164 86.99997711181641 44.99999618530273 86.99997711181641 C 50.67128372192383 86.99997711181641 56.17134094238281 85.88992309570312 61.34736633300781 83.70063781738281 C 66.34834289550781 81.58540344238281 70.84030914306641 78.55663299560547 74.69847869873047 74.69846343994141 C 78.55665588378906 70.84029388427734 81.58542633056641 66.34833526611328 83.70065307617188 61.34736633300781 C 85.88993835449219 56.17132186889648 87 50.67127990722656 87 44.99999237060547 C 87 39.32870483398438 85.88993835449219 33.82864761352539 83.70065307617188 28.65262222290039 C 81.58542633056641 23.65164947509766 78.55665588378906 19.15967559814453 74.69847869873047 15.30150604248047 C 70.84030914306641 11.44333648681641 66.34834289550781 8.414566040039062 61.34736633300781 6.299331665039062 C 56.17134094238281 4.11004638671875 50.67128372192383 2.999992370605469 44.99999618530273 2.999992370605469 M 44.99999618530273 -7.62939453125e-06 C 69.85281372070312 -7.62939453125e-06 90 20.14717864990234 90 44.99999237060547 C 90 69.85279083251953 69.85281372070312 89.99997711181641 44.99999618530273 89.99997711181641 C 20.14717864990234 89.99997711181641 -7.62939453125e-06 69.85279083251953 -7.62939453125e-06 44.99999237060547 C -7.62939453125e-06 20.14717864990234 20.14717864990234 -7.62939453125e-06 44.99999618530273 -7.62939453125e-06 Z" stroke="none" fill="#83793c"/>
                    </g>
                  </g>
                </g>
              </g>
            </g>
          </g>
        </g>
      </g>
    </g>
    <g id="think-question_14781835" transform="translate(17.908 16.735)">
      <g id="Grupo_1208631" data-name="Grupo 1208631" transform="translate(0.006 0)">
        <path id="Trazado_1053185" data-name="Trazado 1053185" d="M36.045,358.89l-1.59-.668c-1.23-.6-2.96-1.667-2.96-1.667s-.86-2.025.272-5.418c1.754-1.2,3.944-1.547,5.972-2.072.817-.212,3.986-1.125,4.591-1.247l2.253-.9a2.842,2.842,0,0,0,.313-1.567V340.2l9.291,3.677v1.475a2.4,2.4,0,0,0,.454,1.4l7.269,1.176a55.192,55.192,0,0,1,7.894,1.882l3.685,1.171-4.913,5.993-9.19,1.911Z" transform="translate(-28.019 -302.359)" fill="#ff7bae"/>
        <path id="Trazado_1053186" data-name="Trazado 1053186" d="M388.021,443.238a9.034,9.034,0,0,0-3.617-7.309c-.043-.031-.086-.061-.131-.09a42.569,42.569,0,0,0-2.967,3.516S388.021,443.942,388.021,443.238Z" transform="translate(-338.796 -387.12)" fill="#ff7bae"/>
        <path id="Trazado_1053187" data-name="Trazado 1053187" d="M15.574,443.792v.312H7.891a.343.343,0,0,1-.342-.355,9.305,9.305,0,0,1,3.617-7.309c.043-.031.086-.061.131-.09C13.195,438.472,15.414,440.8,15.574,443.792Z" transform="translate(-7.549 -387.573)" fill="#ff7bae"/>
        <path id="Trazado_1053188" data-name="Trazado 1053188" d="M26.388,215.758c0,4.253-4.22,8.226-8.49,8.226-1.638,0-4,0-6.292-3.74a7.73,7.73,0,0,1,11.881-8.3C23.655,212.574,26.388,215.076,26.388,215.758Z" transform="translate(-10.918 -187.473)" fill="#707070"/>
        <path id="Trazado_1053189" data-name="Trazado 1053189" d="M28.812,228.976a7.734,7.734,0,0,1-15.2,1.975,7.717,7.717,0,0,0,11.881-8.3A7.683,7.683,0,0,1,28.812,228.976Z" transform="translate(-12.921 -198.179)" fill="#575656"/>
        <path id="Trazado_1053190" data-name="Trazado 1053190" d="M260.514,216.756c0,4.253-1.332,7.307-8.311,7.623-1.81.082-4.618-2.4-5.585-4.134a7.73,7.73,0,0,1,11.881-8.3C260.174,214.441,260.514,216.074,260.514,216.756Z" transform="translate(-219.198 -187.473)" fill="#707070"/>
        <path id="Trazado_1053191" data-name="Trazado 1053191" d="M263.823,228.976a7.735,7.735,0,0,1-15.2,1.975,7.717,7.717,0,0,0,11.881-8.3A7.681,7.681,0,0,1,263.823,228.976Z" transform="translate(-221.201 -198.179)" fill="#575656"/>
        <path id="Trazado_1053192" data-name="Trazado 1053192" d="M87.191,18.137c0,6.5-1.065,14.666-9.669,12.646L61.5,30.4V23.412A15.353,15.353,0,0,1,76.032,8.11l.659.486,1.048-.486a15.2,15.2,0,0,1,6.928,2.105C88.368,14.649,87.191,16.615,87.191,18.137Z" transform="translate(-55.364 -8.041)" fill="#707070"/>
        <path id="Trazado_1053193" data-name="Trazado 1053193" d="M217.111,39.964v7.578l-14.751-.355a20.936,20.936,0,0,0,7.145-20.567A15.513,15.513,0,0,1,217.111,39.964Z" transform="translate(-180.202 -24.445)"/>
        <path id="Trazado_1053194" data-name="Trazado 1053194" d="M73.4,193.65a6.291,6.291,0,0,0,4.808-6.1h0a2.5,2.5,0,0,0-2.509-2.5H45.845a2.5,2.5,0,0,0-2.509,2.5h0a6.291,6.291,0,0,0,4.808,6.1Z" transform="translate(-39.266 -164.851)" fill="#f9cab1"/>
        <path id="Trazado_1053195" data-name="Trazado 1053195" d="M103.8,106.973l4.583-4.292a8.882,8.882,0,0,0,2.511-6.187V89.066a1.621,1.621,0,0,1-1.539-1.1l-.96-2.869a8.5,8.5,0,0,0-3.7-4.6L98.42,76.8a.341.341,0,0,0-.347,0l-6.22,3.666a8.507,8.507,0,0,0-3.752,4.63l-.96,2.869a1.621,1.621,0,0,1-1.539,1.1v7.429a8.893,8.893,0,0,0,2.83,6.5l4.264,3.978a8.119,8.119,0,0,0,5.551,2.184c.4,0,3.213.242,3.613.183Z" transform="translate(-76.724 -68.873)" fill="#ffd9c4"/>
        <g id="Grupo_1208629" data-name="Grupo 1208629" transform="translate(10.925 33.295)">
          <path id="Trazado_1053196" data-name="Trazado 1053196" d="M124.389,314.07l-.421.519-4.579,5.651-1.638-1.037a7.673,7.673,0,0,0-3.818-1.2,6.309,6.309,0,0,1-3.124-.976l-4.053-2.574a1.432,1.432,0,0,1-.667-1.211c0-.016,0-.031,0-.047,0,0,.2-.414.307-.609a5.441,5.441,0,0,1,.72-.434c.2.11.751-.4,1.191-.123l-.921-.585a1.431,1.431,0,0,1-.667-1.211.257.257,0,0,1,0-.046c.044-.237.611-.315.713-.511.019-.039-.032-.051.169-.15,0,0,.893-.785,1.333-.5l-.588-.374a1.433,1.433,0,0,1-.668-1.214c0-.016,0-.031,0-.047.007-.207.317-.332.417-.527a1.811,1.811,0,0,1,.482-.426s.876-.49,1.317-.21l-5.632-3.577a1.431,1.431,0,0,1-.507-1.869c.567-.509.929-.637,1.167-.486l9.068,6c2.714,1.454,3.861.361,3.862.352.019-.093.324-.605.344-.694a1.711,1.711,0,0,0,.184-.481.178.178,0,0,0,.006-.026c.053-.256.109-.491.168-.711a7.2,7.2,0,0,1,1.241-2.555,3.165,3.165,0,0,1,.564-.623,2.15,2.15,0,0,1,.591-.326,4.3,4.3,0,0,1,1.315.09c.068.043-.853,3.319-.8,3.867,0,0,.156,4.351.183,4.674a3.322,3.322,0,0,0,1.826,2.875Z" transform="translate(-103.6 -300.234)" fill="#ffd9c4"/>
        </g>
        <path id="Trazado_1053197" data-name="Trazado 1053197" d="M256.058,419.527H243.111L237.95,416.3l4.561-7.678,8.258,5.335,7.653,4.944C258.709,419.081,256.4,419.522,256.058,419.527Z" transform="translate(-211.744 -362.996)" fill="#ff7bae"/>
        <path id="Trazado_1053198" data-name="Trazado 1053198" d="M291.734,415.646h-3.752a.341.341,0,0,0,.18-.629l-14.191-9.068,1.083-1.708,16.864,10.777A.341.341,0,0,1,291.734,415.646Z" transform="translate(-243.667 -359.115)" fill="#e5568d"/>
        <path id="Trazado_1053199" data-name="Trazado 1053199" d="M227.164,399.926l-4.9,6.571a1,1,0,0,1-1.394.2l-1.7-1.259a.993.993,0,0,1-.206-1.39l4.863-6.521c.634-.516,1.359-1.36,1.683-1.12l1.824,1.351C227.637,397.987,227.749,398.961,227.164,399.926Z" transform="translate(-194.744 -352.14)" fill="#eaf6ff"/>
        <path id="Trazado_1053200" data-name="Trazado 1053200" d="M267.522,394.458l-.936,1.255a1.089,1.089,0,0,0-.448-.9l-1.824-1.351a1.086,1.086,0,0,0-1.063-.141l.972-1.3a1,1,0,0,1,1.393-.2l1.7,1.258A1,1,0,0,1,267.522,394.458Z" transform="translate(-234.167 -347.926)" fill="#d8ecfe"/>
        <g id="Grupo_1208630" data-name="Grupo 1208630" transform="translate(30.574)">
          <path id="Trazado_1053201" data-name="Trazado 1053201" d="M427.054,270.8c0,1.267-1.52,1.826-2.791,1.826-.6,0-1.069-.6-1.489-1.209a2.379,2.379,0,0,1-.055-.512,2.46,2.46,0,0,1,3.716-2.1A3.117,3.117,0,0,1,427.054,270.8Z" transform="translate(-406.073 -238.779)" fill="#eaf6ff"/>
          <path id="Trazado_1053202" data-name="Trazado 1053202" d="M428.063,273.594a2.46,2.46,0,0,1-4.864.512,2.3,2.3,0,0,0,3.858-1.689,2.272,2.272,0,0,0-.2-.927A2.443,2.443,0,0,1,428.063,273.594Z" transform="translate(-406.498 -241.464)" fill="#d8ecfe"/>
          <path id="Trazado_1053203" data-name="Trazado 1053203" d="M297.145,10.14c-.1-.011-.206-.019-.311-.023a.352.352,0,0,1-.273-.148c-.1-.143-.21-.282-.324-.415a5.885,5.885,0,0,0-6.884-1.535.35.35,0,0,1-.311-.011,4.295,4.295,0,0,0-6.112,2.464.337.337,0,0,1-.32.235,5.246,5.246,0,0,0-4.678,7.648.345.345,0,0,1-.105.444,3.349,3.349,0,0,0-.344,5.269.343.343,0,0,1,.1.318,4.843,4.843,0,0,0,.1,2.147c2.271,2.946,6.836,3.707,9.42,3.707,7.394,0,12.065-3.821,12.065-11.215C299.166,17.253,299.166,12.48,297.145,10.14Z" transform="translate(-276.36 -7.5)" fill="#eaf6ff"/>
          <path id="Trazado_1053204" data-name="Trazado 1053204" d="M401.253,333.57a1.631,1.631,0,0,1-1.747,1.457c-.463,0-.835-.235-1.32-1.029a1.788,1.788,0,0,1,2.555-1.838A1.977,1.977,0,0,1,401.253,333.57Z" transform="translate(-384.315 -295.074)" fill="#eaf6ff"/>
          <path id="Trazado_1053205" data-name="Trazado 1053205" d="M401.868,335.161a1.787,1.787,0,0,1-3.558.237,1.587,1.587,0,0,0,2.756-1.067,1.564,1.564,0,0,0-.2-.771A1.78,1.78,0,0,1,401.868,335.161Z" transform="translate(-384.439 -296.474)" fill="#d8ecfe"/>
          <path id="Trazado_1053206" data-name="Trazado 1053206" d="M311.992,41.765a.334.334,0,0,0-.019.348,5.237,5.237,0,0,1-2.118,7.11c-.044.024-.121.062-.194.1a.336.336,0,0,0-.189.27,4.613,4.613,0,0,1-.163.875,0,0,0,0,0,0,0,4.6,4.6,0,0,1-6.443,2.822.337.337,0,0,0-.383.061,5.547,5.547,0,0,1-9.165-2.4.338.338,0,0,0-.342-.242,4.923,4.923,0,0,1-4.994-3.6,13.392,13.392,0,0,0,19.463-16.393,4.722,4.722,0,0,1,4,6.176.336.336,0,0,0,.088.346,3.531,3.531,0,0,1,.461,4.531Z" transform="translate(-286.659 -28.071)" fill="#d8ecfe"/>
          <path id="Trazado_1053207" data-name="Trazado 1053207" d="M339.429,60.5c-1.181,9.43-6.124,9.3-10.442,9.3a7.98,7.98,0,1,1,10.442-9.3Z" transform="translate(-318.245 -48.977)" fill="#fed059"/>
          <path id="Trazado_1053208" data-name="Trazado 1053208" d="M381.44,110.6a8.011,8.011,0,0,1-10.64,7.53,13.4,13.4,0,0,0,10.442-9.3A7.976,7.976,0,0,1,381.44,110.6Z" transform="translate(-360.058 -97.305)" fill="#f8b135"/>
        </g>
      </g>
      <g id="Grupo_1208637" data-name="Grupo 1208637">
        <g id="Grupo_1208632" data-name="Grupo 1208632" transform="translate(0 45.691)">
          <path id="Trazado_1053209" data-name="Trazado 1053209" d="M7.5,419.774a8.858,8.858,0,0,1,3.622-7.383c1.776-1.268,4.026-1.623,6.1-2.161.626-.162,2.511-.684,3.724-1.014" transform="translate(-7.5 -409.216)" fill="none" stroke="#000" stroke-linecap="round" stroke-linejoin="round" stroke-miterlimit="10" stroke-width="1"/>
        </g>
        <g id="Grupo_1208634" data-name="Grupo 1208634" transform="translate(33.692 45.565)">
          <g id="Grupo_1208633" data-name="Grupo 1208633" transform="translate(0)">
            <path id="Trazado_1053210" data-name="Trazado 1053210" d="M319.115,418.791a8.858,8.858,0,0,0-3.622-7.383c-1.776-1.268-4.026-1.623-6.1-2.161-.626-.162-4.452-.81-5.665-1.141" transform="translate(-303.724 -408.106)" fill="none" stroke="#000" stroke-linecap="round" stroke-linejoin="round" stroke-miterlimit="10" stroke-width="1"/>
          </g>
          <path id="Trazado_1053211" data-name="Trazado 1053211" d="M384.436,436.341a31.348,31.348,0,0,0-2.775,3.37" transform="translate(-372.796 -433.13)" fill="none" stroke="#000" stroke-linecap="round" stroke-linejoin="round" stroke-miterlimit="10" stroke-width="1"/>
        </g>
        <path id="Trazado_1053212" data-name="Trazado 1053212" d="M40.487,436.341c1.9,2.122,4.119,4.45,4.28,7.443" transform="translate(-36.735 -387.565)" fill="none" stroke="#000" stroke-linecap="round" stroke-linejoin="round" stroke-miterlimit="10" stroke-width="1"/>
        <g id="Grupo_1208635" data-name="Grupo 1208635" transform="translate(0.437 24.189)">
          <path id="Trazado_1053213" data-name="Trazado 1053213" d="M23.95,232.754a7.712,7.712,0,1,1-8.844-12.584" transform="translate(-11.346 -220.17)" fill="none" stroke="#000" stroke-linecap="round" stroke-linejoin="round" stroke-miterlimit="10" stroke-width="1"/>
          <path id="Trazado_1053214" data-name="Trazado 1053214" d="M276.451,329.309A7.763,7.763,0,0,1,268.1,327.9" transform="translate(-238.897 -315.643)" fill="none" stroke="#000" stroke-linecap="round" stroke-linejoin="round" stroke-miterlimit="10" stroke-width="1"/>
          <path id="Trazado_1053215" data-name="Trazado 1053215" d="M369.409,243.429a7.68,7.68,0,0,1-.41,8.536" transform="translate(-328.32 -240.784)" fill="none" stroke="#000" stroke-linecap="round" stroke-linejoin="round" stroke-miterlimit="10" stroke-width="1"/>
        </g>
        <path id="Trazado_1053216" data-name="Trazado 1053216" d="M65.456,12.972A15.363,15.363,0,0,1,88.1,12.8M61.5,28.047V23.23a15.213,15.213,0,0,1,1.687-6.984" transform="translate(-55.359 -7.858)" fill="none" stroke="#000" stroke-linecap="round" stroke-linejoin="round" stroke-miterlimit="10" stroke-width="1"/>
        <line id="Línea_863" data-name="Línea 863" y1="7.292" transform="translate(21.528 0.348)" fill="none" stroke="#000" stroke-linecap="round" stroke-linejoin="round" stroke-miterlimit="10" stroke-width="1"/>
        <path id="Trazado_1053217" data-name="Trazado 1053217" d="M48.144,193.649a6.291,6.291,0,0,1-4.808-6.1h0a2.5,2.5,0,0,1,2.509-2.5h2.3" transform="translate(-39.26 -164.851)" fill="none" stroke="#000" stroke-linecap="round" stroke-linejoin="round" stroke-miterlimit="10" stroke-width="1"/>
        <path id="Trazado_1053218" data-name="Trazado 1053218" d="M311.941,228.916a6.315,6.315,0,0,1-4.293,3.615" transform="translate(-273.509 -203.732)" fill="none" stroke="#000" stroke-linecap="round" stroke-linejoin="round" stroke-miterlimit="10" stroke-width="1"/>
        <path id="Trazado_1053219" data-name="Trazado 1053219" d="M107.234,82.4a8.5,8.5,0,0,0-2.544-2.336l-6.444-3.8-6.394,3.768a8.507,8.507,0,0,0-3.752,4.63l-.96,2.869a1.621,1.621,0,0,1-1.539,1.1v7.429a8.89,8.89,0,0,0,2.267,5.927" transform="translate(-76.719 -68.445)" fill="none" stroke="#000" stroke-linecap="round" stroke-linejoin="round" stroke-miterlimit="10" stroke-width="1"/>
        <path id="Trazado_1053220" data-name="Trazado 1053220" d="M273.731,214.713l1.381-1.293a8.882,8.882,0,0,0,2.511-6.187V201.7" transform="translate(-243.45 -179.612)" fill="none" stroke="#000" stroke-linecap="round" stroke-linejoin="round" stroke-miterlimit="10" stroke-width="1"/>
        <path id="Trazado_1053221" data-name="Trazado 1053221" d="M188.562,254.916a2.686,2.686,0,0,1-2.431,0" transform="translate(-165.814 -226.775)" fill="none" stroke="#000" stroke-linecap="round" stroke-linejoin="round" stroke-miterlimit="10" stroke-width="1"/>
        <path id="Trazado_1053222" data-name="Trazado 1053222" d="M136.88,159.327a4.634,4.634,0,0,0-4.445,0" transform="translate(-118.225 -141.555)" fill="none" stroke="#000" stroke-linecap="round" stroke-linejoin="round" stroke-miterlimit="10" stroke-width="1"/>
        <path id="Trazado_1053223" data-name="Trazado 1053223" d="M222.112,172.867a4.634,4.634,0,0,1,4.445,0" transform="translate(-197.702 -153.555)" fill="none" stroke="#000" stroke-linecap="round" stroke-linejoin="round" stroke-miterlimit="10" stroke-width="1"/>
        <line id="Línea_865" data-name="Línea 865" y1="1.965" transform="translate(26.633 22.358)" fill="none" stroke="#000" stroke-linecap="round" stroke-linejoin="round" stroke-miterlimit="10" stroke-width="1"/>
        <line id="Línea_866" data-name="Línea 866" y1="1.965" transform="translate(16.433 22.358)" fill="none" stroke="#000" stroke-linecap="round" stroke-linejoin="round" stroke-miterlimit="10" stroke-width="1"/>
        <path id="Trazado_1053224" data-name="Trazado 1053224" d="M122.477,309.371a4.562,4.562,0,0,1-.374-2.483,8.672,8.672,0,0,0-.008-2.039l-.169-1.877a2.828,2.828,0,0,1,.318-1.582l.561-1.057a.569.569,0,0,0-.053-.613.666.666,0,0,0-.176-.152,1.913,1.913,0,0,0-2.213.16,3.178,3.178,0,0,0-.564.624,7.5,7.5,0,0,0-1.409,3.265l-.006.027a1.73,1.73,0,0,1-2.618,1.073l-9.95-6.318a1.445,1.445,0,0,0-1.991.44h0a1.434,1.434,0,0,0,.441,1.984l8.046,5.109L109.9,304.4a1.445,1.445,0,0,0-1.991.44h0a1.434,1.434,0,0,0,.441,1.984l.589.374,1.824,1.159-1.824-1.159a1.445,1.445,0,0,0-1.991.44h0a1.433,1.433,0,0,0,.441,1.984l.921.585,1.235.785-1.235-.785a1.446,1.446,0,0,0-1.992.44h0a1.434,1.434,0,0,0,.44,1.984l4.052,2.573a6.3,6.3,0,0,0,3.124.976h0a7.669,7.669,0,0,1,2.93.711" transform="translate(-92.67 -265.114)" fill="none" stroke="#000" stroke-linecap="round" stroke-linejoin="round" stroke-miterlimit="10" stroke-width="1"/>
        <line id="Línea_867" data-name="Línea 867" x2="8.049" y2="5.061" transform="translate(41.034 51.188)" fill="none" stroke="#000" stroke-linecap="round" stroke-linejoin="round" stroke-miterlimit="10" stroke-width="1"/>
        <line id="Línea_868" data-name="Línea 868" x2="4.105" y2="2.581" transform="translate(33.556 46.486)" fill="none" stroke="#000" stroke-linecap="round" stroke-linejoin="round" stroke-miterlimit="10" stroke-width="1"/>
        <line id="Línea_869" data-name="Línea 869" x1="3.57" y1="2.245" transform="translate(27.774 54.284)" fill="none" stroke="#000" stroke-linecap="round" stroke-linejoin="round" stroke-miterlimit="10" stroke-width="1"/>
        <path id="Trazado_1053225" data-name="Trazado 1053225" d="M228.1,394.459l-5.835,7.825a1,1,0,0,1-1.394.2l-1.7-1.258a.994.994,0,0,1-.206-1.39l5.835-7.825a1,1,0,0,1,1.394-.2l1.7,1.258A.994.994,0,0,1,228.1,394.459Z" transform="translate(-194.74 -347.927)" fill="none" stroke="#000" stroke-linecap="round" stroke-linejoin="round" stroke-miterlimit="10" stroke-width="1"/>
        <ellipse id="Elipse_13509" data-name="Elipse 13509" cx="2.459" cy="2.45" rx="2.459" ry="2.45" transform="translate(47.226 29.681)" fill="none" stroke="#000" stroke-linecap="round" stroke-linejoin="round" stroke-miterlimit="10" stroke-width="1"/>
        <ellipse id="Elipse_13510" data-name="Elipse 13510" cx="1.787" cy="1.78" rx="1.787" ry="1.78" transform="translate(44.435 36.907)" fill="none" stroke="#000" stroke-linecap="round" stroke-linejoin="round" stroke-miterlimit="10" stroke-width="1"/>
        <path id="Trazado_1053226" data-name="Trazado 1053226" d="M301.57,21.361a3.53,3.53,0,0,0-.5-4.844,4.728,4.728,0,0,0-4.413-6.4,5.54,5.54,0,0,0-.424-.56,5.885,5.885,0,0,0-7.043-1.461h0a4.294,4.294,0,0,0-6.334,2.62,5.245,5.245,0,0,0-4.771,7.924,3.35,3.35,0,0,0-.462,5.553,4.909,4.909,0,0,0,5.32,5.925,5.546,5.546,0,0,0,9.406,2.493,4.6,4.6,0,0,0,6.655-2.71,0,0,0,0,1,0,0,4.585,4.585,0,0,0,.176-1.06l.078-.035a5.237,5.237,0,0,0,2.308-7.438Z" transform="translate(-245.78 -7.5)" fill="none" stroke="#000" stroke-linecap="round" stroke-linejoin="round" stroke-miterlimit="10" stroke-width="1"/>
        <path id="Trazado_1053227" data-name="Trazado 1053227" d="M333.66,56.413a8,8,0,1,1-3.981-.021" transform="translate(-287.668 -50.831)" fill="none" stroke="#000" stroke-linecap="round" stroke-linejoin="round" stroke-miterlimit="10" stroke-width="1"/>
        <g id="Grupo_1208636" data-name="Grupo 1208636" transform="translate(41.835 9.163)">
          <path id="Trazado_1053228" data-name="Trazado 1053228" d="M375.312,90.18a2.124,2.124,0,1,1,2.124,2.116v1.761" transform="translate(-375.312 -88.064)" fill="none" stroke="#000" stroke-linecap="round" stroke-linejoin="round" stroke-miterlimit="10" stroke-width="1"/>
          <line id="Línea_870" data-name="Línea 870" transform="translate(2.124 8.496)" fill="none" stroke="#000" stroke-linecap="round" stroke-linejoin="round" stroke-miterlimit="10" stroke-width="1"/>
        </g>
        <path id="Trazado_1053229" data-name="Trazado 1053229" d="M222.112,172.3a4.634,4.634,0,0,0,4.445,0" transform="translate(-202.807 -139.839)" fill="none" stroke="#000" stroke-linecap="round" stroke-linejoin="round" stroke-miterlimit="10" stroke-width="1"/>
      </g>
    </g>
  </g>
</svg>
