<svg xmlns="http://www.w3.org/2000/svg" xmlns:xlink="http://www.w3.org/1999/xlink" width="128" height="128" viewBox="0 0 128 128">
  <defs>
    <filter id="Trazado_904820" x="0" y="0" width="128" height="128" filterUnits="userSpaceOnUse">
      <feOffset dy="3" input="SourceAlpha"/>
      <feGaussianBlur stdDeviation="3" result="blur"/>
      <feFlood flood-opacity="0.161"/>
      <feComposite operator="in" in2="blur"/>
      <feComposite in="SourceGraphic"/>
    </filter>
    <clipPath id="clip-path">
      <path id="path3516" d="M0-682.665H76.743v76.743H0Z" transform="translate(0 682.665)"/>
    </clipPath>
  </defs>
  <g id="Grupo_1209411" data-name="Grupo 1209411" transform="translate(-1051.257 -1762.852)">
    <g id="Grupo_1209082" data-name="Grupo 1209082" transform="translate(1060.257 1768.852)">
      <g id="Grupo_1207936" data-name="Grupo 1207936" transform="translate(0 0)">
        <g id="Grupo_1201662" data-name="Grupo 1201662">
          <g id="Grupo_1173585" data-name="Grupo 1173585">
            <g id="Grupo_1173428" data-name="Grupo 1173428">
              <g id="Grupo_1171958" data-name="Grupo 1171958">
                <g id="Grupo_1167341" data-name="Grupo 1167341">
                  <g id="Grupo_1166792" data-name="Grupo 1166792">
                    <g transform="matrix(1, 0, 0, 1, -9, -6)" filter="url(#Trazado_904820)">
                      <g id="Trazado_904820-2" data-name="Trazado 904820" transform="translate(9 6)" fill="#edf3fc">
                        <path d="M 55 108.4999923706055 C 47.77689361572266 108.4999923706055 40.7706298828125 107.0856704711914 34.17584609985352 104.2963180541992 C 27.80527687072754 101.6017913818359 22.08361625671387 97.74404144287109 17.16978454589844 92.83019256591797 C 12.25595378875732 87.91635894775391 8.398200035095215 82.1947021484375 5.703676700592041 75.82414245605469 C 2.914323091506958 69.22936248779297 1.5 62.22309875488281 1.5 54.99999237060547 C 1.5 47.77688598632812 2.914323091506958 40.77062225341797 5.703676700592041 34.17583847045898 C 8.398200035095215 27.80528450012207 12.25595378875732 22.0836238861084 17.16978454589844 17.16979217529297 C 22.08361625671387 12.25596141815186 27.80527687072754 8.398207664489746 34.17584609985352 5.70368480682373 C 40.7706298828125 2.914330720901489 47.77687835693359 1.500007748603821 55 1.500007748603821 C 62.22312164306641 1.500007748603821 69.2293701171875 2.914330720901489 75.82415008544922 5.70368480682373 C 82.19472503662109 8.398207664489746 87.9163818359375 12.25596141815186 92.83021545410156 17.16979217529297 C 97.74404907226562 22.0836238861084 101.6017990112305 27.80528450012207 104.2963256835938 34.17583847045898 C 107.0856781005859 40.77062225341797 108.5 47.77688598632812 108.5 54.99999237060547 C 108.5 62.22309875488281 107.0856781005859 69.22936248779297 104.2963256835938 75.82414245605469 C 101.6017990112305 82.1947021484375 97.74404907226562 87.91635894775391 92.83021545410156 92.83019256591797 C 87.9163818359375 97.74404144287109 82.19472503662109 101.6017913818359 75.82415008544922 104.2963180541992 C 69.2293701171875 107.0856704711914 62.22310638427734 108.4999923706055 55 108.4999923706055 Z" stroke="none"/>
                        <path d="M 55 2.999992370605469 C 47.97873306274414 2.999992370605469 41.1690673828125 4.374443054199219 34.76018524169922 7.085174560546875 C 28.56842041015625 9.704078674316406 23.00701904296875 13.45387268066406 18.23045349121094 18.23044586181641 C 13.45390319824219 23.00699615478516 9.704086303710938 28.56838989257812 7.085182189941406 34.76016235351562 C 4.37445068359375 41.16905975341797 3 47.97871017456055 3 54.99999237060547 C 3 62.02125930786133 4.37445068359375 68.83092498779297 7.085182189941406 75.23980712890625 C 9.704086303710938 81.43157958984375 13.45390319824219 86.99297332763672 18.23045349121094 91.76952362060547 C 23.00701904296875 96.54608917236328 28.56842041015625 100.2958908081055 34.76018524169922 102.914794921875 C 41.1690673828125 105.6255264282227 47.97873306274414 106.9999771118164 55 106.9999771118164 C 62.02126693725586 106.9999771118164 68.8309326171875 105.6255264282227 75.23982238769531 102.914794921875 C 81.43157958984375 100.2958908081055 86.99298095703125 96.54608917236328 91.76954650878906 91.76952362060547 C 96.54609680175781 86.99297332763672 100.2959136962891 81.43157958984375 102.9148178100586 75.23980712890625 C 105.6255493164062 68.83092498779297 107 62.02125930786133 107 54.99999237060547 C 107 47.97871017456055 105.6255493164062 41.16905975341797 102.9148178100586 34.76016235351562 C 100.2959136962891 28.56838989257812 96.54609680175781 23.00699615478516 91.76954650878906 18.23044586181641 C 86.99298095703125 13.45387268066406 81.43157958984375 9.704078674316406 75.23982238769531 7.085174560546875 C 68.8309326171875 4.374443054199219 62.02126693725586 2.999992370605469 55 2.999992370605469 M 55 -7.62939453125e-06 C 85.37564849853516 -7.62939453125e-06 110 24.62432861328125 110 54.99999237060547 C 110 85.37564086914062 85.37564849853516 109.9999771118164 55 109.9999771118164 C 24.62435150146484 109.9999771118164 0 85.37564086914062 0 54.99999237060547 C 0 24.62432861328125 24.62435150146484 -7.62939453125e-06 55 -7.62939453125e-06 Z" stroke="none" fill="#5692e8"/>
                      </g>
                    </g>
                  </g>
                </g>
              </g>
            </g>
          </g>
        </g>
      </g>
    </g>
    <g id="g3510" transform="translate(1076.886 2468.146)">
      <g id="g3512" transform="translate(0 -682.665)">
        <g id="g3514" clip-path="url(#clip-path)">
          <g id="g3520" transform="translate(41.444 50.603)">
            <path id="path3522" d="M-47.338,0a6,6,0,0,0-6,6v9.727a.749.749,0,0,0,.749.749h32.226a.749.749,0,0,0,.749-.749V6a6,6,0,0,0-6-6Z" transform="translate(53.333)" fill="#ccf49f"/>
          </g>
          <g id="g3524" transform="translate(64.677 50.603)">
            <path id="path3526" d="M-82.841-47.338v9.728a.75.75,0,0,1-.749.749h-4.5a.75.75,0,0,0,.749-.749v-9.728a6,6,0,0,0-6-6h4.5a6,6,0,0,1,6,6" transform="translate(93.333 53.333)" fill="#b3e59f"/>
          </g>
          <g id="g3528" transform="translate(54.185 43.168)">
            <path id="path3530" d="M0,0V7.435a4.122,4.122,0,0,0,4.131,4.122h0A4.122,4.122,0,0,0,8.244,7.435V0Z" fill="#bc845e"/>
          </g>
          <g id="g3532" transform="translate(64.602 28.854)">
            <path id="path3534" d="M-.628,0H6.9a3.435,3.435,0,0,1,3.407,3.437v.027A3.43,3.43,0,0,1,6.9,6.895H-.708Z" transform="translate(0.708)" fill="#bc845e"/>
          </g>
          <g id="g3536" transform="translate(40.695 28.854)">
            <path id="path3538" d="M-76.924,0h-6.335a3.435,3.435,0,0,0-3.407,3.437v.027a3.43,3.43,0,0,0,3.407,3.431h6.111Z" transform="translate(86.666)" fill="#bc845e"/>
          </g>
          <g id="g3540" transform="translate(45.941 22.858)">
            <path id="path3542" d="M0,0V11.44A12.366,12.366,0,0,0,12.366,23.805h0A12.366,12.366,0,0,0,24.732,11.44V0Z" fill="#d19a6e"/>
          </g>
          <g id="g3544" transform="translate(56.059 22.858)">
            <path id="path3546" d="M-115.385,0V11.44a12.337,12.337,0,0,1-3.621,8.745,12.337,12.337,0,0,1-8.745,3.621A12.347,12.347,0,0,1-130,23.6a12.342,12.342,0,0,0,6.5-3.416,12.337,12.337,0,0,0,3.621-8.745V0Z" transform="translate(130)" fill="#bc845e"/>
          </g>
          <g id="g3548" transform="translate(1.574 50.603)">
            <path id="path3550" d="M-218.937,0a6,6,0,0,1,6,6v9.727a.749.749,0,0,1-.749.749h-32.226a.749.749,0,0,1-.749-.749V6a6,6,0,0,1,6-6Z" transform="translate(246.666)" fill="#faf2f3"/>
          </g>
          <g id="g3552" transform="translate(14.314 43.168)">
            <path id="path3554" d="M0,0V7.435a4.122,4.122,0,0,0,4.131,4.122h0A4.122,4.122,0,0,0,8.244,7.435V0Z" fill="#bc845e"/>
          </g>
          <g id="g3556" transform="translate(27.73 28.854)">
            <path id="path3558" d="M-.592,0H4.245A3.435,3.435,0,0,1,7.652,3.437v.027A3.43,3.43,0,0,1,4.245,6.895H-.667Z" transform="translate(0.667)" fill="#bc845e"/>
          </g>
          <g id="g3560" transform="translate(1.124 28.854)">
            <path id="path3562" d="M-74.557,0h-6.036A3.435,3.435,0,0,0-84,3.437v.027a3.43,3.43,0,0,0,3.407,3.431h6.111Z" transform="translate(84)" fill="#bc845e"/>
          </g>
          <g id="g3564" transform="translate(6.071 19.86)">
            <path id="path3566" d="M0,0V14.437A12.366,12.366,0,0,0,12.366,26.8h0A12.366,12.366,0,0,0,24.732,14.437V0Z" fill="#d19a6e"/>
          </g>
          <g id="g3568" transform="translate(43.693 10.867)">
            <path id="path3570" d="M-230.771-115.385v3.449a3.262,3.262,0,0,0-.709-.076h-3.038a3,3,0,0,1-3-3,.753.753,0,0,0-.219-.531.753.753,0,0,0-.531-.219h-4.871a2.249,2.249,0,0,1-2.248-2.248,2.249,2.249,0,0,1-2.248,2.248H-252.5a.75.75,0,0,0-.749.749,2.988,2.988,0,0,1-.878,2.119,2.988,2.988,0,0,1-2.119.878h-3.338a3.35,3.35,0,0,0-.409.025v-3.4A14.614,14.614,0,0,1-245.385-130a14.564,14.564,0,0,1,10.333,4.281,14.564,14.564,0,0,1,4.281,10.333" transform="translate(259.999 130)" fill="#6f6571"/>
          </g>
          <g id="g3572" transform="translate(56.059 10.867)">
            <path id="path3574" d="M-133.137-115.385v3.449a3.262,3.262,0,0,0-.709-.076h-3.038a3.02,3.02,0,0,1-.749-.094v-3.278a14.564,14.564,0,0,0-4.281-10.333,14.576,14.576,0,0,0-8.085-4.11,14.825,14.825,0,0,1,2.248-.171,14.564,14.564,0,0,1,10.333,4.281,14.564,14.564,0,0,1,4.281,10.333" transform="translate(150 130)" fill="#5d5360"/>
          </g>
          <g id="g3576" transform="translate(3.822 9.668)">
            <path id="path3578" d="M-230.771-78.107v9.319a3.351,3.351,0,0,0-.409-.025h-1.839a3.738,3.738,0,0,1-2.65-1.1,3.738,3.738,0,0,1-1.1-2.65,3.738,3.738,0,0,1-1.1,2.65,3.738,3.738,0,0,1-2.65,1.1h-9.743A3.747,3.747,0,0,1-254-72.561a3.738,3.738,0,0,1-1.1,2.65,3.739,3.739,0,0,1-2.65,1.1h-1.539a3.263,3.263,0,0,0-.709.076v-9.37a6,6,0,0,1,6-6h3v-.15A3.747,3.747,0,0,1-247.259-88h3.747a3.747,3.747,0,0,1,3.747,3.747v.15h3a6,6,0,0,1,6,6" transform="translate(259.999 88)" fill="#6f6571"/>
          </g>
          <g id="g3580" transform="translate(24.057 42.194)">
            <path id="path3582" d="M0,0V5.637A14.053,14.053,0,0,0,4.771,16.188H23.879l.395-.381a14.052,14.052,0,0,0,4.355-10.17V0Z" fill="#ffe07d"/>
          </g>
          <g id="g3584" transform="translate(43.439 42.194)">
            <path id="path3586" d="M-73.006,0V5.636a14.058,14.058,0,0,1-4.354,10.171l-.4.381h-4.5l.4-.381A14.058,14.058,0,0,0-77.5,5.636V0Z" transform="translate(82.253)" fill="#ffd064"/>
          </g>
          <g id="g3588" transform="translate(21.809 51.712)">
            <path id="path3590" d="M-99.409,0V4.871a.749.749,0,0,1-.749.749h-5.884A5.987,5.987,0,0,0-112,11.532v3.831h33.126V11.532A5.956,5.956,0,0,0-84.8,5.621h-5.919a.749.749,0,0,1-.749-.749V0Z" transform="translate(112)" fill="#f7d5ad"/>
          </g>
          <g id="g3592" transform="translate(21.809 57.333)">
            <path id="path3594" d="M-261.54-46.675v3.831h-33.126v-3.831a5.987,5.987,0,0,1,5.957-5.912h4.386v2.248a2.249,2.249,0,0,0,2.248,2.248h7.944a2.249,2.249,0,0,0,2.248-2.248v-2.248h4.42a5.956,5.956,0,0,1,5.922,5.912" transform="translate(294.666 52.587)" fill="#fc8d94"/>
          </g>
          <g id="g3596" transform="translate(44.592 57.333)">
            <path id="path3598" d="M-81.657-46.675v3.831h-4.5v-3.831A5.955,5.955,0,0,0-92-52.585h4.42a5.956,5.956,0,0,1,5.922,5.912" transform="translate(92 52.587)" fill="#fc7585"/>
          </g>
          <g id="g3600" transform="translate(44.367 36.798)">
            <path id="path3602" d="M-24.852-54.438h4.6a3.376,3.376,0,0,0,3.273-3.436V-57.9a3.373,3.373,0,0,0-3.273-3.432H-28Z" transform="translate(28 61.333)" fill="#f7d5ad"/>
          </g>
          <g id="g3604" transform="translate(21.359 36.798)">
            <path id="path3606" d="M-85.8,0h-7.594a3.373,3.373,0,0,0-3.273,3.432v.027a3.376,3.376,0,0,0,3.273,3.436H-85.8Z" transform="translate(96.666)" fill="#f7d5ad"/>
          </g>
          <g id="g3608" transform="translate(26.306 30.877)">
            <path id="path3610" d="M-190.534,0V11.315a12.13,12.13,0,0,1-12.083,12.142h.017a12.115,12.115,0,0,1-12.066-12.142V0Z" transform="translate(214.666)" fill="#fce5be"/>
          </g>
          <g id="g3612" transform="translate(36.116 30.877)">
            <path id="path3614" d="M-113.078,0V11.315a12.13,12.13,0,0,1-12.066,12.143h-.018a11.962,11.962,0,0,1-2.238-.213,12.152,12.152,0,0,0,9.825-11.93V0Z" transform="translate(127.4)" fill="#f7d5ad"/>
          </g>
          <g id="g3616" transform="translate(24.057 18.811)">
            <path id="path3618" d="M-226.037-112.841v3.749a3.035,3.035,0,0,0-.576-.054h-4.563a3.628,3.628,0,0,1-3.606-2.986.746.746,0,0,0-.736-.612h-2.511a2.249,2.249,0,0,1-2.248-2.248,2.249,2.249,0,0,1-2.248,2.248h-2.625a.745.745,0,0,0-.736.612,3.628,3.628,0,0,1-3.606,2.986h-4.6a3.035,3.035,0,0,0-.576.054v-3.749a14.288,14.288,0,0,1,14.281-14.292h.018a14.329,14.329,0,0,1,14.329,14.292" transform="translate(254.666 127.133)" fill="#ffe07d"/>
          </g>
          <g id="g3620" transform="translate(36.101 18.811)">
            <path id="path3622" d="M-130.948-112.841v3.749a3.035,3.035,0,0,0-.576-.054h-3.921v-3.695a14.327,14.327,0,0,0-12.089-14.117,14.3,14.3,0,0,1,2.238-.175h.018a14.329,14.329,0,0,1,14.329,14.292" transform="translate(147.533 127.133)" fill="#ffd064"/>
          </g>
          <g id="g3624" transform="translate(52.874 28.854)">
            <path id="path3626" d="M0-130.713a12.316,12.316,0,0,0,5.433,1.254h0A12.366,12.366,0,0,0,17.8-141.825v-5.444" transform="translate(0 147.269)" fill="none" stroke="#000" stroke-linecap="round" stroke-linejoin="round" stroke-miterlimit="10" stroke-width="1"/>
          </g>
          <g id="g3628" transform="translate(54.185 46.166)">
            <path id="path3630" d="M0,0V4.437A4.122,4.122,0,0,0,4.131,8.559h0A4.122,4.122,0,0,0,8.244,4.437V0" fill="none" stroke="#000" stroke-linecap="round" stroke-linejoin="round" stroke-miterlimit="10" stroke-width="1"/>
          </g>
          <g id="g3632" transform="translate(70.598 28.854)">
            <path id="path3634" d="M-.628,0H.906A3.435,3.435,0,0,1,4.313,3.437v.027A3.43,3.43,0,0,1,.906,6.895H-.708" transform="translate(0.708)" fill="none" stroke="#000" stroke-linecap="round" stroke-linejoin="round" stroke-miterlimit="10" stroke-width="1"/>
          </g>
          <g id="g3636" transform="translate(55.52 38.613)">
            <path id="path3638" d="M0-6.8a6.219,6.219,0,0,0,6.869-.862" transform="translate(0 7.664)" fill="none" stroke="#000" stroke-linecap="round" stroke-linejoin="round" stroke-miterlimit="10" stroke-width="1"/>
          </g>
          <g id="g3640" transform="translate(62.429 50.603)">
            <path id="path3642" d="M-100.592-47.338a6,6,0,0,0-6-6h-6.745" transform="translate(113.333 53.333)" fill="none" stroke="#000" stroke-linecap="round" stroke-linejoin="round" stroke-miterlimit="10" stroke-width="1"/>
          </g>
          <g id="g3644" transform="translate(54.934 61.845)">
            <path id="path3646" d="M0-41.3H19.486a.75.75,0,0,0,.749-.749v-4.481" transform="translate(0 46.527)" fill="none" stroke="#000" stroke-linecap="round" stroke-linejoin="round" stroke-miterlimit="10" stroke-width="1"/>
          </g>
          <g id="g3648" transform="translate(63.928 32.376)">
            <path id="path3650" d="M0,0V1.649" fill="none" stroke="#000" stroke-linecap="round" stroke-linejoin="round" stroke-miterlimit="10" stroke-width="1"/>
          </g>
          <g id="g3652" transform="translate(50.877 22.858)">
            <path id="path3654" d="M0-18.279a.747.747,0,0,1,.31-.067H5.181a2.248,2.248,0,0,0,2.248-2.248,2.248,2.248,0,0,0,2.248,2.248h4.871a.749.749,0,0,1,.749.749h0a3,3,0,0,0,3,3h1.5" transform="translate(0 20.595)" fill="none" stroke="#000" stroke-linecap="round" stroke-linejoin="round" stroke-miterlimit="10" stroke-width="1"/>
          </g>
          <g id="g3656" transform="translate(44.957 10.867)">
            <path id="path3658" d="M0-68.374a14.617,14.617,0,0,1,13.35-8.66h0A14.614,14.614,0,0,1,27.964-62.42v3.148" transform="translate(0 77.034)" fill="none" stroke="#000" stroke-linecap="round" stroke-linejoin="round" stroke-miterlimit="10" stroke-width="1"/>
          </g>
          <g id="g3660" transform="translate(1.574 50.603)">
            <path id="path3662" d="M-100.592,0h-6.745a6,6,0,0,0-6,6v9.727a.749.749,0,0,0,.749.749h19.261" transform="translate(113.333)" fill="none" stroke="#000" stroke-linecap="round" stroke-linejoin="round" stroke-miterlimit="10" stroke-width="1"/>
          </g>
          <g id="g3664" transform="translate(6.071 28.854)">
            <path id="path3666" d="M0,0V5.444A12.366,12.366,0,0,0,12.366,17.81h0a12.318,12.318,0,0,0,5.42-1.248" fill="none" stroke="#000" stroke-linecap="round" stroke-linejoin="round" stroke-miterlimit="10" stroke-width="1"/>
          </g>
          <g id="g3668" transform="translate(1.124 28.854)">
            <path id="path3670" d="M-39.054,0h-1.539A3.435,3.435,0,0,0-44,3.437v.027a3.43,3.43,0,0,0,3.407,3.431h1.614" transform="translate(44)" fill="none" stroke="#000" stroke-linecap="round" stroke-linejoin="round" stroke-miterlimit="10" stroke-width="1"/>
          </g>
          <g id="g3672" transform="translate(14.354 38.613)">
            <path id="path3674" d="M0,0A6.193,6.193,0,0,0,6.815.883" fill="none" stroke="#000" stroke-linecap="round" stroke-linejoin="round" stroke-miterlimit="10" stroke-width="1"/>
          </g>
          <g id="g3676" transform="translate(12.816 32.376)">
            <path id="path3678" d="M0,0V1.649" fill="none" stroke="#000" stroke-linecap="round" stroke-linejoin="round" stroke-miterlimit="10" stroke-width="1"/>
          </g>
          <g id="g3680" transform="translate(3.822 9.668)">
            <path id="path3682" d="M-230.538-73.382a6,6,0,0,0-5.966-5.4h-3v-.15a3.747,3.747,0,0,0-3.747-3.747H-247a3.747,3.747,0,0,0-3.747,3.747v.15h-3a6,6,0,0,0-6,6v9.068" transform="translate(259.737 82.676)" fill="none" stroke="#000" stroke-linecap="round" stroke-linejoin="round" stroke-miterlimit="10" stroke-width="1"/>
          </g>
          <g id="g3684" transform="translate(6.071 25.106)">
            <path id="path3686" d="M0-29.586H0a3.747,3.747,0,0,0,3.747-3.747,3.747,3.747,0,0,0,3.747,3.747h9.743a3.75,3.75,0,0,0,1.053-.15" transform="translate(0 33.333)" fill="none" stroke="#000" stroke-linecap="round" stroke-linejoin="round" stroke-miterlimit="10" stroke-width="1"/>
          </g>
          <g id="g3688" transform="translate(14.314 46.166)">
            <path id="path3690" d="M0,0V4.437A4.122,4.122,0,0,0,4.131,8.559h0A4.122,4.122,0,0,0,8.244,4.437V0" fill="none" stroke="#000" stroke-linecap="round" stroke-linejoin="round" stroke-miterlimit="10" stroke-width="1"/>
          </g>
          <g id="g3692" transform="translate(26.306 36.798)">
            <path id="path3694" d="M-190.534,0V5.395a12.13,12.13,0,0,1-12.083,12.142h.017A12.115,12.115,0,0,1-214.666,5.395V0" transform="translate(214.666)" fill="none" stroke="#000" stroke-linecap="round" stroke-linejoin="round" stroke-miterlimit="10" stroke-width="1"/>
          </g>
          <g id="g3696" transform="translate(24.057 43.843)">
            <path id="path3698" d="M0,0V3.988A14.053,14.053,0,0,0,3.484,13.25" fill="none" stroke="#000" stroke-linecap="round" stroke-linejoin="round" stroke-miterlimit="10" stroke-width="1"/>
          </g>
          <g id="g3700" transform="translate(21.809 53.96)">
            <path id="path3702" d="M0-103.551v-3.831a5.987,5.987,0,0,1,5.957-5.911h5.884a.749.749,0,0,0,.749-.749v-2.623" transform="translate(0 116.666)" fill="none" stroke="#000" stroke-linecap="round" stroke-linejoin="round" stroke-miterlimit="10" stroke-width="1"/>
          </g>
          <g id="g3704" transform="translate(27.055 53.96)">
            <path id="path3706" d="M-120.711,0V2.623a.749.749,0,0,0,.749.749h5.919a5.956,5.956,0,0,1,5.922,5.911v3.831H-136" transform="translate(136)" fill="none" stroke="#000" stroke-linecap="round" stroke-linejoin="round" stroke-miterlimit="10" stroke-width="1"/>
          </g>
          <g id="g3708" transform="translate(50.363 36.798)">
            <path id="path3710" d="M0,0H1.748A3.373,3.373,0,0,1,5.021,3.432v.027A3.376,3.376,0,0,1,1.748,6.895H.15" fill="none" stroke="#000" stroke-linecap="round" stroke-linejoin="round" stroke-miterlimit="10" stroke-width="1"/>
          </g>
          <g id="g3712" transform="translate(21.359 36.798)">
            <path id="path3714" d="M-39.054,0h-1.673A3.373,3.373,0,0,0-44,3.432v.027a3.376,3.376,0,0,0,3.273,3.436h1.6" transform="translate(44)" fill="none" stroke="#000" stroke-linecap="round" stroke-linejoin="round" stroke-miterlimit="10" stroke-width="1"/>
          </g>
          <g id="g3716" transform="translate(34.381 46.411)">
            <path id="path3718" d="M0,0A6.085,6.085,0,0,0,7.982,0" fill="none" stroke="#000" stroke-linecap="round" stroke-linejoin="round" stroke-miterlimit="10" stroke-width="1"/>
          </g>
          <g id="g3720" transform="translate(24.057 18.811)">
            <path id="path3722" d="M0-141.421v-3.619a14.287,14.287,0,0,1,14.281-14.293H14.3a14.329,14.329,0,0,1,14.33,14.293v3.619" transform="translate(0 159.333)" fill="none" stroke="#000" stroke-linecap="round" stroke-linejoin="round" stroke-miterlimit="10" stroke-width="1"/>
          </g>
          <g id="g3724" transform="translate(26.306 30.952)">
            <path id="path3726" d="M0-46.154H2.926A3.629,3.629,0,0,0,6.532-49.14a.745.745,0,0,1,.736-.612H9.893A2.248,2.248,0,0,0,12.141-52a2.248,2.248,0,0,0,2.248,2.248H16.9a.745.745,0,0,1,.736.612,3.629,3.629,0,0,0,3.606,2.985h2.965" transform="translate(0 52)" fill="none" stroke="#000" stroke-linecap="round" stroke-linejoin="round" stroke-miterlimit="10" stroke-width="1"/>
          </g>
          <g id="g3728" transform="translate(43.843 40.32)">
            <path id="path3730" d="M0,0V1.5" transform="translate(0)" fill="none" stroke="#000" stroke-linecap="round" stroke-linejoin="round" stroke-miterlimit="10" stroke-width="1"/>
          </g>
          <g id="g3732" transform="translate(32.901 40.32)">
            <path id="path3734" d="M0,0V1.5" fill="none" stroke="#000" stroke-linecap="round" stroke-linejoin="round" stroke-miterlimit="10" stroke-width="1"/>
          </g>
          <g id="g3736" transform="translate(49.202 43.693)">
            <path id="path3738" d="M-27.508,0V4.138A14.053,14.053,0,0,1-30.992,13.4" transform="translate(30.992)" fill="none" stroke="#000" stroke-linecap="round" stroke-linejoin="round" stroke-miterlimit="10" stroke-width="1"/>
          </g>
          <g id="g3740" transform="translate(32.151 57.408)">
            <path id="path3742" d="M0,0V2.173A2.248,2.248,0,0,0,2.248,4.422h7.944a2.248,2.248,0,0,0,2.248-2.248V0" fill="none" stroke="#000" stroke-linecap="round" stroke-linejoin="round" stroke-miterlimit="10" stroke-width="1"/>
          </g>
        </g>
      </g>
    </g>
  </g>
</svg>
