<svg xmlns="http://www.w3.org/2000/svg" xmlns:xlink="http://www.w3.org/1999/xlink" width="128" height="128" viewBox="0 0 128 128">
  <defs>
    <filter id="Trazado_904820" x="0" y="0" width="128" height="128" filterUnits="userSpaceOnUse">
      <feOffset dy="3" input="SourceAlpha"/>
      <feGaussianBlur stdDeviation="3" result="blur"/>
      <feFlood flood-opacity="0.161"/>
      <feComposite operator="in" in2="blur"/>
      <feComposite in="SourceGraphic"/>
    </filter>
  </defs>
  <g id="Grupo_1210210" data-name="Grupo 1210210" transform="translate(9 6)">
    <g id="Grupo_1207936" data-name="Grupo 1207936" transform="translate(0 0)">
      <g id="Grupo_1201662" data-name="Grupo 1201662">
        <g id="Grupo_1173585" data-name="Grupo 1173585">
          <g id="Grupo_1173428" data-name="Grupo 1173428">
            <g id="Grupo_1171958" data-name="Grupo 1171958">
              <g id="Grupo_1167341" data-name="Grupo 1167341">
                <g id="Grupo_1166792" data-name="Grupo 1166792">
                  <g transform="matrix(1, 0, 0, 1, -9, -6)" filter="url(#Trazado_904820)">
                    <g id="Trazado_904820-2" data-name="Trazado 904820" transform="translate(9 6)" fill="#edf3fc">
                      <path d="M 55 108.4999923706055 C 47.77689361572266 108.4999923706055 40.7706298828125 107.0856704711914 34.17584609985352 104.2963180541992 C 27.80527687072754 101.6017913818359 22.08361625671387 97.74404144287109 17.16978454589844 92.83019256591797 C 12.25595378875732 87.91635894775391 8.398200035095215 82.1947021484375 5.703676700592041 75.82414245605469 C 2.914323091506958 69.22936248779297 1.5 62.22309875488281 1.5 54.99999237060547 C 1.5 47.77688598632812 2.914323091506958 40.77062225341797 5.703676700592041 34.17583847045898 C 8.398200035095215 27.80528450012207 12.25595378875732 22.0836238861084 17.16978454589844 17.16979217529297 C 22.08361625671387 12.25596141815186 27.80527687072754 8.398207664489746 34.17584609985352 5.70368480682373 C 40.7706298828125 2.914330720901489 47.77687835693359 1.500007748603821 55 1.500007748603821 C 62.22312164306641 1.500007748603821 69.2293701171875 2.914330720901489 75.82415008544922 5.70368480682373 C 82.19472503662109 8.398207664489746 87.9163818359375 12.25596141815186 92.83021545410156 17.16979217529297 C 97.74404907226562 22.0836238861084 101.6017990112305 27.80528450012207 104.2963256835938 34.17583847045898 C 107.0856781005859 40.77062225341797 108.5 47.77688598632812 108.5 54.99999237060547 C 108.5 62.22309875488281 107.0856781005859 69.22936248779297 104.2963256835938 75.82414245605469 C 101.6017990112305 82.1947021484375 97.74404907226562 87.91635894775391 92.83021545410156 92.83019256591797 C 87.9163818359375 97.74404144287109 82.19472503662109 101.6017913818359 75.82415008544922 104.2963180541992 C 69.2293701171875 107.0856704711914 62.22310638427734 108.4999923706055 55 108.4999923706055 Z" stroke="none"/>
                      <path d="M 55 2.999992370605469 C 47.97873306274414 2.999992370605469 41.1690673828125 4.374443054199219 34.76018524169922 7.085174560546875 C 28.56842041015625 9.704078674316406 23.00701904296875 13.45387268066406 18.23045349121094 18.23044586181641 C 13.45390319824219 23.00699615478516 9.704086303710938 28.56838989257812 7.085182189941406 34.76016235351562 C 4.37445068359375 41.16905975341797 3 47.97871017456055 3 54.99999237060547 C 3 62.02125930786133 4.37445068359375 68.83092498779297 7.085182189941406 75.23980712890625 C 9.704086303710938 81.43157958984375 13.45390319824219 86.99297332763672 18.23045349121094 91.76952362060547 C 23.00701904296875 96.54608917236328 28.56842041015625 100.2958908081055 34.76018524169922 102.914794921875 C 41.1690673828125 105.6255264282227 47.97873306274414 106.9999771118164 55 106.9999771118164 C 62.02126693725586 106.9999771118164 68.8309326171875 105.6255264282227 75.23982238769531 102.914794921875 C 81.43157958984375 100.2958908081055 86.99298095703125 96.54608917236328 91.76954650878906 91.76952362060547 C 96.54609680175781 86.99297332763672 100.2959136962891 81.43157958984375 102.9148178100586 75.23980712890625 C 105.6255493164062 68.83092498779297 107 62.02125930786133 107 54.99999237060547 C 107 47.97871017456055 105.6255493164062 41.16905975341797 102.9148178100586 34.76016235351562 C 100.2959136962891 28.56838989257812 96.54609680175781 23.00699615478516 91.76954650878906 18.23044586181641 C 86.99298095703125 13.45387268066406 81.43157958984375 9.704078674316406 75.23982238769531 7.085174560546875 C 68.8309326171875 4.374443054199219 62.02126693725586 2.999992370605469 55 2.999992370605469 M 55 -7.62939453125e-06 C 85.37564849853516 -7.62939453125e-06 110 24.62432861328125 110 54.99999237060547 C 110 85.37564086914062 85.37564849853516 109.9999771118164 55 109.9999771118164 C 24.62435150146484 109.9999771118164 0 85.37564086914062 0 54.99999237060547 C 0 24.62432861328125 24.62435150146484 -7.62939453125e-06 55 -7.62939453125e-06 Z" stroke="none" fill="#5692e8"/>
                    </g>
                  </g>
                </g>
              </g>
            </g>
          </g>
        </g>
      </g>
      <g id="human-resources_4335964" transform="translate(15.99 19.174)">
        <g id="Grupo_1210475" data-name="Grupo 1210475" transform="translate(1.156 1.156)">
          <g id="Grupo_1210460" data-name="Grupo 1210460" transform="translate(0 8.09)">
            <path id="Trazado_1054812" data-name="Trazado 1054812" d="M32.643,58.781a4.666,4.666,0,0,0-1.526,2.161l-.069.22H24.114l-.069-.22a4.908,4.908,0,0,0-3.305-3.086,24.821,24.821,0,0,1-4.785-1.976,4.849,4.849,0,0,0-4.519-.15l-.2.092-4.9-4.9.092-.2a4.849,4.849,0,0,0-.15-4.519,24.821,24.821,0,0,1-1.976-4.785A4.908,4.908,0,0,0,1.22,38.117L1,38.048V31.114l.22-.069a4.908,4.908,0,0,0,3.086-3.305,24.821,24.821,0,0,1,1.976-4.785,4.849,4.849,0,0,0,.15-4.519l-.092-.2,4.9-4.9.2.092a4.849,4.849,0,0,0,4.519-.15,24.821,24.821,0,0,1,4.785-1.976A4.908,4.908,0,0,0,24.044,8.22L24.114,8h6.934l.069.22a4.908,4.908,0,0,0,3.305,3.086c.092.035.2.058.289.092a7.382,7.382,0,0,0-.2,1.676,7.849,7.849,0,0,0,.867,3.467,19.65,19.65,0,1,0-7.8,37.687,21.351,21.351,0,0,0,2.288-.127A7.824,7.824,0,0,0,32.2,56.539,6.008,6.008,0,0,0,32.643,58.781Z" transform="translate(-1 -8)" fill="#ffc729"/>
          </g>
          <g id="Grupo_1210461" data-name="Grupo 1210461" transform="translate(6.934 15.024)">
            <path id="Trazado_1054813" data-name="Trazado 1054813" d="M34.459,15.618l.254.439v.012a3.428,3.428,0,0,0-1.133,2.554,3.487,3.487,0,0,0,.693,2.08A15.024,15.024,0,1,0,26.647,48.67c.393,0,.774-.012,1.156-.046v.5a7.785,7.785,0,0,0,1.133,4.045,21.351,21.351,0,0,1-2.288.127,19.647,19.647,0,1,1,7.8-37.687Z" transform="translate(-7 -14)" fill="#fcd770"/>
          </g>
          <g id="Grupo_1210462" data-name="Grupo 1210462" transform="translate(52.006 62.407)">
            <path id="Trazado_1054814" data-name="Trazado 1054814" d="M59.868,61.934H46A6.94,6.94,0,0,1,52.934,55a6.945,6.945,0,0,1,6.934,6.934Z" transform="translate(-46 -55)" fill="#ff826e"/>
          </g>
          <g id="Grupo_1210463" data-name="Grupo 1210463" transform="translate(31.203 62.407)">
            <path id="Trazado_1054815" data-name="Trazado 1054815" d="M41.868,61.934H28A6.94,6.94,0,0,1,34.934,55a6.945,6.945,0,0,1,6.934,6.934Z" transform="translate(-28 -55)" fill="#75b1f2"/>
          </g>
          <g id="Grupo_1210464" data-name="Grupo 1210464" transform="translate(38.138 32.625)">
            <path id="Trazado_1054816" data-name="Trazado 1054816" d="M40.934,30.12a3.467,3.467,0,1,0,6.934,0,3.759,3.759,0,0,0-.127-.89A9.225,9.225,0,0,1,54.8,38.21H52.19A7.793,7.793,0,0,0,44.4,46a7.793,7.793,0,0,0-7.789-7.789H34a9.225,9.225,0,0,1,7.061-8.98,3.758,3.758,0,0,0-.127.89Z" transform="translate(-34 -29.23)" fill="#e6e9ed"/>
          </g>
          <g id="Grupo_1210465" data-name="Grupo 1210465" transform="translate(31.203)">
            <path id="Trazado_1054817" data-name="Trazado 1054817" d="M41.868,11.4H39.557a4.621,4.621,0,0,0-4.623,4.623V17.18H33.778a3.428,3.428,0,0,0-2.334.913v-.012l-.254-.439-.012-.012a7.849,7.849,0,0,1-.867-3.467,7.382,7.382,0,0,1,.2-1.676A7.289,7.289,0,0,1,33.57,8.073l.208-.139L29.734,6.316A2.756,2.756,0,0,1,30.762,1H48.386A11.973,11.973,0,0,1,59.215,18.081a3.444,3.444,0,0,0-2.323-.9H55.736V16.024a2.318,2.318,0,0,0-2.311-2.311H44.18A2.318,2.318,0,0,1,41.868,11.4Z" transform="translate(-28 -1)" fill="#b27946"/>
          </g>
          <g id="Grupo_1210466" data-name="Grupo 1210466" transform="translate(48.539 41.605)">
            <path id="Trazado_1054818" data-name="Trazado 1054818" d="M63.8,45.54a7.8,7.8,0,0,1-3.467,6.483V46.245a5.581,5.581,0,0,1-3.941-1.63l-.682-.682a7.9,7.9,0,0,1-5.582,2.311H46.467v5.778A7.8,7.8,0,0,1,43,45.54v-.751A7.793,7.793,0,0,1,50.789,37h5.224A7.793,7.793,0,0,1,63.8,44.789Z" transform="translate(-43 -37)" fill="#656d78"/>
          </g>
          <g id="Grupo_1210467" data-name="Grupo 1210467" transform="translate(27.736 41.605)">
            <path id="Trazado_1054819" data-name="Trazado 1054819" d="M45.8,45.54a7.8,7.8,0,0,1-3.467,6.483V47.6a1.347,1.347,0,0,0-1.352-1.352A7.9,7.9,0,0,1,35.4,43.934a7.9,7.9,0,0,1-5.582,2.311A1.347,1.347,0,0,0,28.467,47.6v4.426A7.8,7.8,0,0,1,25,45.54v-.751A7.793,7.793,0,0,1,32.789,37h5.224A7.793,7.793,0,0,1,45.8,44.789Z" transform="translate(-25 -37)" fill="#b27946"/>
          </g>
          <g id="Grupo_1210468" data-name="Grupo 1210468" transform="translate(52.006 48.539)">
            <path id="Trazado_1054820" data-name="Trazado 1054820" d="M59.868,45.311V51.09a5.781,5.781,0,0,1-5.778,5.778H51.778A5.781,5.781,0,0,1,46,51.09V45.311h3.664A7.9,7.9,0,0,0,55.245,43l.682.682A5.581,5.581,0,0,0,59.868,45.311Z" transform="translate(-46 -43)" fill="#f0d0b4"/>
          </g>
          <g id="Grupo_1210469" data-name="Grupo 1210469" transform="translate(31.203 48.539)">
            <path id="Trazado_1054821" data-name="Trazado 1054821" d="M28.439,53.332A6.008,6.008,0,0,1,28,51.09V46.664a1.347,1.347,0,0,1,1.352-1.352A7.9,7.9,0,0,0,34.934,43a7.9,7.9,0,0,0,5.582,2.311,1.347,1.347,0,0,1,1.352,1.352V51.09a5.781,5.781,0,0,1-5.778,5.778H33.778a5.812,5.812,0,0,1-5.339-3.536Z" transform="translate(-28 -43)" fill="#f0d0b4"/>
          </g>
          <g id="Grupo_1210470" data-name="Grupo 1210470" transform="translate(45.072 32.359)">
            <path id="Trazado_1054822" data-name="Trazado 1054822" d="M42.311,29h2.311a9.045,9.045,0,0,1,2.184.266,3.759,3.759,0,0,1,.127.89,3.467,3.467,0,0,1-6.934,0,3.758,3.758,0,0,1,.127-.89A9.045,9.045,0,0,1,42.311,29Z" transform="translate(-40 -29)" fill="#f0d0b4"/>
          </g>
          <g id="Grupo_1210471" data-name="Grupo 1210471" transform="translate(58.94 16.18)">
            <path id="Trazado_1054823" data-name="Trazado 1054823" d="M55.606,16.017a3.465,3.465,0,0,1-2.45,5.917H52V15h1.156a3.444,3.444,0,0,1,2.323.9A1.151,1.151,0,0,1,55.606,16.017Z" transform="translate(-52 -15)" fill="#f0d0b4"/>
          </g>
          <g id="Grupo_1210472" data-name="Grupo 1210472" transform="translate(38.138 10.401)">
            <path id="Trazado_1054824" data-name="Trazado 1054824" d="M34,22.713v-8.09A4.621,4.621,0,0,1,38.623,10h2.311a2.318,2.318,0,0,0,2.311,2.311h9.245A2.318,2.318,0,0,1,54.8,14.623v8.09a9.243,9.243,0,0,1-9.245,9.245H43.245A9.243,9.243,0,0,1,34,22.713Z" transform="translate(-34 -10)" fill="#f0d0b4"/>
          </g>
          <g id="Grupo_1210473" data-name="Grupo 1210473" transform="translate(33.515 16.18)">
            <path id="Trazado_1054825" data-name="Trazado 1054825" d="M34.623,15v6.934H33.467a3.459,3.459,0,0,1-2.45-1.017c-.116-.116-.22-.243-.324-.37A3.487,3.487,0,0,1,30,18.467,3.484,3.484,0,0,1,33.467,15Z" transform="translate(-30 -15)" fill="#f0d0b4"/>
          </g>
          <g id="Grupo_1210474" data-name="Grupo 1210474" transform="translate(43.916 23.114)">
            <path id="Trazado_1054826" data-name="Trazado 1054826" d="M39,21h9.245A4.623,4.623,0,1,1,39,21Z" transform="translate(-39 -21)" fill="#ff826e"/>
          </g>
        </g>
        <g id="Grupo_1210476" data-name="Grupo 1210476" transform="translate(0)">
          <path id="Trazado_1054827" data-name="Trazado 1054827" d="M62.711,41.6H61.183a10.414,10.414,0,0,0-5.59-8.09,10.417,10.417,0,0,0,5.59-8.09h.068A4.627,4.627,0,0,0,65.874,20.8a4.578,4.578,0,0,0-.962-2.79A13.088,13.088,0,0,0,52.741,0H35.117a3.912,3.912,0,0,0-1.454,7.544l2.226.891a8.445,8.445,0,0,0-1.75,2.688A3.648,3.648,0,0,1,32.373,9.1l-.34-1.005H23.438l-.339,1a3.736,3.736,0,0,1-2.529,2.35,25.282,25.282,0,0,0-5.011,2.071,3.753,3.753,0,0,1-3.458.127l-.942-.466L5.085,19.251l.466.943a3.75,3.75,0,0,1-.127,3.457,25.39,25.39,0,0,0-2.071,5.012A3.74,3.74,0,0,1,1,31.191l-1,.339v8.595l1,.337A3.74,3.74,0,0,1,3.355,42.99,25.335,25.335,0,0,0,5.426,48a3.753,3.753,0,0,1,.126,3.457l-.466.942,6.075,6.074.942-.465a3.754,3.754,0,0,1,3.457.126,25.263,25.263,0,0,0,5.012,2.071,3.737,3.737,0,0,1,2.527,2.35l.34,1h8.595l.337-1a3.574,3.574,0,0,1,.261-.574,6.977,6.977,0,0,0,2.1,1.835A8.085,8.085,0,0,0,31.2,70.5v1.156h16.18V70.5a8.087,8.087,0,0,0-3.532-6.678,6.94,6.94,0,0,0,3.5-5.442,8.9,8.9,0,0,0,2.341-2.689,8.9,8.9,0,0,0,2.341,2.689,6.938,6.938,0,0,0,3.5,5.442A8.087,8.087,0,0,0,52.006,70.5v1.156h16.18V70.5a8.087,8.087,0,0,0-3.532-6.678,6.94,6.94,0,0,0,3.5-5.442,8.909,8.909,0,0,0,3.5-7.07v-.759A8.952,8.952,0,0,0,62.711,41.6Zm-3.863,0H57.48a8.944,8.944,0,0,0-7.786,4.56,8.942,8.942,0,0,0-7.786-4.56H40.541a8.1,8.1,0,0,1,4.607-6.179,4.606,4.606,0,0,0,9.093,0A8.1,8.1,0,0,1,58.847,41.6ZM38.138,23.114a2.311,2.311,0,0,1,0-4.623Zm-4.615-2.39a16.177,16.177,0,1,0-5.787,31.282h.043a8.89,8.89,0,0,0,.48,2.284c-.175,0-.349.029-.522.029A18.491,18.491,0,1,1,34.152,18.5a4.564,4.564,0,0,0-.629,2.22Zm-5.744,28.97h-.043a13.868,13.868,0,1,1,6.926-25.877,4.593,4.593,0,0,0,3.475,1.608h.068a10.414,10.414,0,0,0,5.59,8.09,10.414,10.414,0,0,0-5.59,8.09H36.678a8.953,8.953,0,0,0-8.9,8.089ZM52,34.762a2.3,2.3,0,0,1-4.6,0,7.977,7.977,0,0,1,1.146-.091H50.85A7.977,7.977,0,0,1,52,34.762ZM58.94,24.269a8.1,8.1,0,0,1-8.09,8.09H48.539a8.1,8.1,0,0,1-8.09-8.09V16.18a3.471,3.471,0,0,1,3.467-3.467h1.353a3.474,3.474,0,0,0,3.269,2.311h9.245A1.158,1.158,0,0,1,58.94,16.18Zm2.311-1.156V18.491a2.311,2.311,0,1,1,0,4.623ZM38.571,9.19l2.04-1.356L34.523,5.4a1.6,1.6,0,0,1,.593-3.087H52.74a10.8,10.8,0,0,1,10.268,14.22,4.581,4.581,0,0,0-1.757-.351,3.471,3.471,0,0,0-3.467-3.467H48.539a1.156,1.156,0,0,1,0-2.311h1.156V8.09H48.539A3.474,3.474,0,0,0,45.269,10.4H43.916a5.785,5.785,0,0,0-5.778,5.778,4.594,4.594,0,0,0-1.869.4,6.117,6.117,0,0,1,2.3-7.392ZM30.408,61.251H25.066a6.09,6.09,0,0,0-3.844-3.261,22.884,22.884,0,0,1-4.553-1.881,6.127,6.127,0,0,0-5.019-.414l-3.78-3.78A6.1,6.1,0,0,0,7.455,46.9a23.022,23.022,0,0,1-1.88-4.553A6.1,6.1,0,0,0,2.311,38.5V33.155a6.093,6.093,0,0,0,3.261-3.844,23.018,23.018,0,0,1,1.88-4.553,6.108,6.108,0,0,0,.414-5.02l3.78-3.78a6.112,6.112,0,0,0,5.02-.414,22.967,22.967,0,0,1,4.552-1.88A6.09,6.09,0,0,0,25.063,10.4h5.343a6.04,6.04,0,0,0,3.163,2.978,9.011,9.011,0,0,0-.054.938,8.517,8.517,0,0,0,.166,1.582,20.8,20.8,0,1,0-5.945,40.727c.565,0,1.136-.031,1.706-.077a8.94,8.94,0,0,0,1.791,1.827,6.857,6.857,0,0,0,.242,1.306,5.843,5.843,0,0,0-1.067,1.567Zm3.223,8.09a5.778,5.778,0,0,1,11.323,0Zm11.44-11.557a4.627,4.627,0,0,1-4.623,4.623H38.138a4.627,4.627,0,0,1-4.623-4.623V53.36a.2.2,0,0,1,.2-.2,8.986,8.986,0,0,0,5.581-1.924,8.986,8.986,0,0,0,5.581,1.924.2.2,0,0,1,.2.2Zm2.311-2.744V53.36a2.513,2.513,0,0,0-2.509-2.51,6.693,6.693,0,0,1-4.764-1.973l-.817-.817-.817.817a6.693,6.693,0,0,1-4.764,1.973A2.513,2.513,0,0,0,31.2,53.36v1.68a6.611,6.611,0,0,1-1.156-3.734v-.759a6.638,6.638,0,0,1,6.63-6.631h5.231a6.638,6.638,0,0,1,6.63,6.63v.759a6.614,6.614,0,0,1-1.156,3.735Zm7.051,14.3a5.778,5.778,0,0,1,11.323,0Zm11.44-11.557a4.627,4.627,0,0,1-4.623,4.623H58.94a4.627,4.627,0,0,1-4.623-4.623V53.161h2.509a8.98,8.98,0,0,0,5.53-1.885,6.682,6.682,0,0,0,3.518,1.787Zm3.467-6.478a6.611,6.611,0,0,1-1.156,3.734V50.85H67.03a4.4,4.4,0,0,1-3.128-1.3L62.407,48.06l-.817.817a6.693,6.693,0,0,1-4.764,1.973h-4.82v4.191a6.611,6.611,0,0,1-1.156-3.734v-.759a6.638,6.638,0,0,1,6.63-6.631h5.231a6.638,6.638,0,0,1,6.63,6.63Z" transform="translate(0)"/>
          <path id="Trazado_1054828" data-name="Trazado 1054828" d="M47.467,15A3.471,3.471,0,0,0,44,18.467h2.311a1.156,1.156,0,0,1,2.311,0h2.311A3.471,3.471,0,0,0,47.467,15Z" transform="translate(6.85 2.335)"/>
          <path id="Trazado_1054829" data-name="Trazado 1054829" d="M39.467,17.311a1.158,1.158,0,0,1,1.156,1.156h2.311a3.467,3.467,0,0,0-6.934,0h2.311A1.158,1.158,0,0,1,39.467,17.311Z" transform="translate(5.605 2.335)"/>
          <path id="Trazado_1054830" data-name="Trazado 1054830" d="M38,21.156a5.778,5.778,0,1,0,11.557,0V20H38Zm9.047,1.156a3.468,3.468,0,0,1-6.539,0Z" transform="translate(5.916 3.114)"/>
          <path id="Trazado_1054831" data-name="Trazado 1054831" d="M18,30h2.311v2.311H18Z" transform="translate(2.802 4.67)"/>
          <path id="Trazado_1054832" data-name="Trazado 1054832" d="M26,30h2.311v2.311H26Z" transform="translate(4.048 4.67)"/>
          <path id="Trazado_1054833" data-name="Trazado 1054833" d="M30,30h2.311v2.311H30Z" transform="translate(4.67 4.67)"/>
          <path id="Trazado_1054834" data-name="Trazado 1054834" d="M22,30h2.311v2.311H22Z" transform="translate(3.425 4.67)"/>
          <path id="Trazado_1054835" data-name="Trazado 1054835" d="M14,30h2.311v2.311H14Z" transform="translate(2.18 4.67)"/>
        </g>
      </g>
    </g>
  </g>
</svg>
