<svg xmlns="http://www.w3.org/2000/svg" xmlns:xlink="http://www.w3.org/1999/xlink" width="128" height="128" viewBox="0 0 128 128">
  <defs>
    <filter id="Trazado_904820" x="0" y="0" width="128" height="128" filterUnits="userSpaceOnUse">
      <feOffset dy="3" input="SourceAlpha"/>
      <feGaussianBlur stdDeviation="3" result="blur"/>
      <feFlood flood-opacity="0.161"/>
      <feComposite operator="in" in2="blur"/>
      <feComposite in="SourceGraphic"/>
    </filter>
  </defs>
  <g id="Grupo_1210211" data-name="Grupo 1210211" transform="translate(9 6)">
    <g id="Grupo_1207936" data-name="Grupo 1207936" transform="translate(0 0)">
      <g id="Grupo_1201662" data-name="Grupo 1201662">
        <g id="Grupo_1173585" data-name="Grupo 1173585">
          <g id="Grupo_1173428" data-name="Grupo 1173428">
            <g id="Grupo_1171958" data-name="Grupo 1171958">
              <g id="Grupo_1167341" data-name="Grupo 1167341">
                <g id="Grupo_1166792" data-name="Grupo 1166792">
                  <g transform="matrix(1, 0, 0, 1, -9, -6)" filter="url(#Trazado_904820)">
                    <g id="Trazado_904820-2" data-name="Trazado 904820" transform="translate(9 6)" fill="#edf3fc">
                      <path d="M 55 108.4999923706055 C 47.77689361572266 108.4999923706055 40.7706298828125 107.0856704711914 34.17584609985352 104.2963180541992 C 27.80527687072754 101.6017913818359 22.08361625671387 97.74404144287109 17.16978454589844 92.83019256591797 C 12.25595378875732 87.91635894775391 8.398200035095215 82.1947021484375 5.703676700592041 75.82414245605469 C 2.914323091506958 69.22936248779297 1.5 62.22309875488281 1.5 54.99999237060547 C 1.5 47.77688598632812 2.914323091506958 40.77062225341797 5.703676700592041 34.17583847045898 C 8.398200035095215 27.80528450012207 12.25595378875732 22.0836238861084 17.16978454589844 17.16979217529297 C 22.08361625671387 12.25596141815186 27.80527687072754 8.398207664489746 34.17584609985352 5.70368480682373 C 40.7706298828125 2.914330720901489 47.77687835693359 1.500007748603821 55 1.500007748603821 C 62.22312164306641 1.500007748603821 69.2293701171875 2.914330720901489 75.82415008544922 5.70368480682373 C 82.19472503662109 8.398207664489746 87.9163818359375 12.25596141815186 92.83021545410156 17.16979217529297 C 97.74404907226562 22.0836238861084 101.6017990112305 27.80528450012207 104.2963256835938 34.17583847045898 C 107.0856781005859 40.77062225341797 108.5 47.77688598632812 108.5 54.99999237060547 C 108.5 62.22309875488281 107.0856781005859 69.22936248779297 104.2963256835938 75.82414245605469 C 101.6017990112305 82.1947021484375 97.74404907226562 87.91635894775391 92.83021545410156 92.83019256591797 C 87.9163818359375 97.74404144287109 82.19472503662109 101.6017913818359 75.82415008544922 104.2963180541992 C 69.2293701171875 107.0856704711914 62.22310638427734 108.4999923706055 55 108.4999923706055 Z" stroke="none"/>
                      <path d="M 55 2.999992370605469 C 47.97873306274414 2.999992370605469 41.1690673828125 4.374443054199219 34.76018524169922 7.085174560546875 C 28.56842041015625 9.704078674316406 23.00701904296875 13.45387268066406 18.23045349121094 18.23044586181641 C 13.45390319824219 23.00699615478516 9.704086303710938 28.56838989257812 7.085182189941406 34.76016235351562 C 4.37445068359375 41.16905975341797 3 47.97871017456055 3 54.99999237060547 C 3 62.02125930786133 4.37445068359375 68.83092498779297 7.085182189941406 75.23980712890625 C 9.704086303710938 81.43157958984375 13.45390319824219 86.99297332763672 18.23045349121094 91.76952362060547 C 23.00701904296875 96.54608917236328 28.56842041015625 100.2958908081055 34.76018524169922 102.914794921875 C 41.1690673828125 105.6255264282227 47.97873306274414 106.9999771118164 55 106.9999771118164 C 62.02126693725586 106.9999771118164 68.8309326171875 105.6255264282227 75.23982238769531 102.914794921875 C 81.43157958984375 100.2958908081055 86.99298095703125 96.54608917236328 91.76954650878906 91.76952362060547 C 96.54609680175781 86.99297332763672 100.2959136962891 81.43157958984375 102.9148178100586 75.23980712890625 C 105.6255493164062 68.83092498779297 107 62.02125930786133 107 54.99999237060547 C 107 47.97871017456055 105.6255493164062 41.16905975341797 102.9148178100586 34.76016235351562 C 100.2959136962891 28.56838989257812 96.54609680175781 23.00699615478516 91.76954650878906 18.23044586181641 C 86.99298095703125 13.45387268066406 81.43157958984375 9.704078674316406 75.23982238769531 7.085174560546875 C 68.8309326171875 4.374443054199219 62.02126693725586 2.999992370605469 55 2.999992370605469 M 55 -7.62939453125e-06 C 85.37564849853516 -7.62939453125e-06 110 24.62432861328125 110 54.99999237060547 C 110 85.37564086914062 85.37564849853516 109.9999771118164 55 109.9999771118164 C 24.62435150146484 109.9999771118164 0 85.37564086914062 0 54.99999237060547 C 0 24.62432861328125 24.62435150146484 -7.62939453125e-06 55 -7.62939453125e-06 Z" stroke="none" fill="#5692e8"/>
                    </g>
                  </g>
                </g>
              </g>
            </g>
          </g>
        </g>
      </g>
      <g id="assertiveness_13322422_2_" data-name="assertiveness_13322422 (2)" transform="translate(-21.173 -3.373)">
        <path id="Trazado_1054836" data-name="Trazado 1054836" d="M98.421,29.026H77.867a5.417,5.417,0,0,0-5.4,5.4v10.2a5.417,5.417,0,0,0,5.4,5.4H94.038a6.809,6.809,0,0,1,5.039,2.121l4.744,4.855V34.427a5.417,5.417,0,0,0-5.4-5.4Z" transform="translate(-24.538 -5.808)" fill="#ffe177" fill-rule="evenodd"/>
        <path id="Trazado_1054837" data-name="Trazado 1054837" d="M272.433,197.138a15.368,15.368,0,0,1,15.323,15.324v13.532a3.64,3.64,0,0,1-3.633,3.633h-.907v7.238a2.275,2.275,0,0,1-2.271,2.271H257.11V212.462A15.368,15.368,0,0,1,272.433,197.138Z" transform="translate(-179.806 -147.175)" fill="#88c8fe" fill-rule="evenodd"/>
        <path id="Trazado_1054838" data-name="Trazado 1054838" d="M64.392,282.754a14.23,14.23,0,0,1,14.188,14.188v14.188H55.426a5.232,5.232,0,0,1-5.222-5.222v-8.966A14.23,14.23,0,0,1,64.392,282.754Z" transform="translate(-5.817 -219.17)" fill="#fa6e85" fill-rule="evenodd"/>
        <circle id="Elipse_13511" data-name="Elipse 13511" cx="6.685" cy="6.685" r="6.685" transform="translate(51.89 50.215)" fill="#fcd4a9"/>
        <circle id="Elipse_13512" data-name="Elipse 13512" cx="7.911" cy="7.911" r="7.911" transform="translate(84.715 34.14)" fill="#fcd4a9"/>
        <path id="Trazado_1054839" data-name="Trazado 1054839" d="M176.5,311.293h17.388a2.155,2.155,0,0,1,2.149,2.149v21.688H174.347V313.442A2.155,2.155,0,0,1,176.5,311.293Z" transform="translate(-110.21 -243.169)" fill="#e6e6e6" fill-rule="evenodd"/>
        <path id="Trazado_1054840" data-name="Trazado 1054840" d="M72.273,395.126h-.012a1.651,1.651,0,0,1-1.644,1.564H66.687a1.651,1.651,0,0,1-1.644-1.564H55.425A5.232,5.232,0,0,1,50.2,389.9V382.64h6.81v4.994a1.82,1.82,0,0,0,1.817,1.817H70.617a1.651,1.651,0,0,1,1.646,1.646Z" transform="translate(-5.817 -303.165)" fill="#fcd4a9" fill-rule="evenodd"/>
        <path id="Trazado_1054841" data-name="Trazado 1054841" d="M287.114,299.1h17.721v-12.6H311.6v14.638h-.029v3.633H292.688a1.651,1.651,0,0,1-1.644,1.564h-3.931a1.651,1.651,0,0,1-1.646-1.646v-3.948a1.65,1.65,0,0,1,1.646-1.646Z" transform="translate(-203.653 -222.325)" fill="#fcd4a9" fill-rule="evenodd"/>
        <path id="Trazado_1054842" data-name="Trazado 1054842" d="M73.885,24.316H53.329a4.311,4.311,0,0,0-4.3,4.306v10.2a4.307,4.307,0,0,0,4.3,4.3H69.506a7.946,7.946,0,0,1,5.818,2.452l2.861,2.93V28.622a4.312,4.312,0,0,0-4.3-4.306ZM83.46,75.682h1.263v-5.4a1.046,1.046,0,0,0-1.05-1.051H66.283a1.052,1.052,0,0,0-1.05,1.051V85.225a2.759,2.759,0,0,1,2.315,2.71v2.931H84.723V85.118c-1.233,0-2.243.15-3.2-.805a2.739,2.739,0,0,1-.81-1.94V78.426a2.756,2.756,0,0,1,2.747-2.744Zm3.46,0v-5.4a3.258,3.258,0,0,0-3.247-3.248H78.4v-1.74a14.226,14.226,0,0,1,28.28-2.2h-5.5a1.1,1.1,0,0,0-1.1,1.1v11.5Zm22.063-11.877a6.4,6.4,0,0,1,.067,1.484V78.822l-.028.512v3.12a1.1,1.1,0,0,1-1.1,1.1h-3.411v6.141a3.387,3.387,0,0,1-3.376,3.369H67.278A2.756,2.756,0,0,1,64.8,94.627H60.876A2.757,2.757,0,0,1,58.4,93.063H49.607a6.335,6.335,0,0,1-6.321-6.321V77.777A15.354,15.354,0,0,1,54,63.2a7.78,7.78,0,1,1,9.154,0,15.4,15.4,0,0,1,6.272,3.834H76.2v-1.74A16.484,16.484,0,0,1,87.733,49.618a9.007,9.007,0,1,1,9.788,0,16.5,16.5,0,0,1,11.462,14.187Zm-6.667,19.748H89.867A2.742,2.742,0,0,1,87.4,85.118h-.476v5.748h14.217a1.175,1.175,0,0,0,1.179-1.172Zm-1.133-5.674a1.1,1.1,0,0,0,1.1-1.1v-11.5h4.572V78.576c-.045.394-.009.369-.028.623a2.531,2.531,0,0,1-2.5,2.158H89.034a1.1,1.1,0,0,0-1.1,1.1.546.546,0,0,1-.54.466H83.46a.546.546,0,0,1-.55-.548V78.426a.545.545,0,0,1,.55-.547h17.723ZM65.352,91.952a.555.555,0,0,1-.55.478H60.876a.555.555,0,0,1-.554-.521,1.1,1.1,0,0,0-1.094-1.04v0H49.607a4.137,4.137,0,0,1-4.124-4.124V80.577H50.1v3.894a2.924,2.924,0,0,0,2.913,2.916H64.8a.545.545,0,0,1,.55.547ZM45.483,78.38v-.6a13.1,13.1,0,0,1,20.56-10.738,3.267,3.267,0,0,0-3.006,3.239V85.191H53.014a.713.713,0,0,1-.716-.719V79.479a1.1,1.1,0,0,0-1.1-1.1ZM70.5,81.146a1.1,1.1,0,1,1,0-2.2h6.658a1.1,1.1,0,1,1,0,2.2Zm0,5.958a1.1,1.1,0,1,1,0-2.2h6.658a1.1,1.1,0,1,1,0,2.2Zm0-11.919a1.1,1.1,0,1,1,0-2.2h6.658a1.1,1.1,0,1,1,0,2.2ZM97.442,37.233a6.815,6.815,0,1,0,0,9.645,6.82,6.82,0,0,0,0-9.645ZM58.579,62.49A5.586,5.586,0,1,0,52.992,56.9,5.576,5.576,0,0,0,58.579,62.49ZM62.4,29.852a1.1,1.1,0,0,1-2.086.686.805.805,0,0,0-1.526,0,1.1,1.1,0,1,1-2.086-.686,3,3,0,0,1,5.7,0Zm8.111,0a1.1,1.1,0,0,1-2.086.686.805.805,0,0,0-1.526,0,1.1,1.1,0,0,1-2.086-.686,3,3,0,0,1,5.7,0Zm-4.408,5.7a1.1,1.1,0,1,1,2.12.575,4.785,4.785,0,0,1-9.231,0,1.1,1.1,0,1,1,2.12-.575,2.586,2.586,0,0,0,4.991,0ZM53.329,22.119H73.885a6.524,6.524,0,0,1,6.5,6.5V51.2h0a1.1,1.1,0,0,1-1.881.764l-4.741-4.855a5.7,5.7,0,0,0-4.252-1.787H53.329a6.519,6.519,0,0,1-6.5-6.5v-10.2a6.524,6.524,0,0,1,6.5-6.5Z" transform="translate(0)" fill-rule="evenodd"/>
      </g>
    </g>
  </g>
</svg>
