<svg xmlns="http://www.w3.org/2000/svg" xmlns:xlink="http://www.w3.org/1999/xlink" width="108" height="108" viewBox="0 0 108 108">
  <defs>
    <filter id="Trazado_904820" x="0" y="0" width="108" height="108" filterUnits="userSpaceOnUse">
      <feOffset dy="3" input="SourceAlpha"/>
      <feGaussianBlur stdDeviation="3" result="blur"/>
      <feFlood flood-opacity="0.161"/>
      <feComposite operator="in" in2="blur"/>
      <feComposite in="SourceGraphic"/>
    </filter>
  </defs>
  <g id="Grupo_1209280" data-name="Grupo 1209280" transform="translate(9 6)">
    <g id="Grupo_1208878" data-name="Grupo 1208878" transform="translate(0 0)">
      <g id="Grupo_1207936" data-name="Grupo 1207936">
        <g id="Grupo_1201662" data-name="Grupo 1201662">
          <g id="Grupo_1173585" data-name="Grupo 1173585">
            <g id="Grupo_1173428" data-name="Grupo 1173428">
              <g id="Grupo_1171958" data-name="Grupo 1171958">
                <g id="Grupo_1167341" data-name="Grupo 1167341">
                  <g id="Grupo_1166792" data-name="Grupo 1166792">
                    <g transform="matrix(1, 0, 0, 1, -9, -6)" filter="url(#Trazado_904820)">
                      <g id="Trazado_904820-2" data-name="Trazado 904820" transform="translate(9 6)" fill="#effbfe">
                        <path d="M 44.99999618530273 88.49999237060547 C 39.12687301635742 88.49999237060547 33.43022155761719 87.35006713867188 28.06829643249512 85.08216857910156 C 22.88852119445801 82.89130401611328 18.23629570007324 79.75457763671875 14.24084663391113 75.75914001464844 C 10.24540901184082 71.76369476318359 7.108683586120605 67.11146545410156 4.917821407318115 61.93169403076172 C 2.649921178817749 56.56976699829102 1.499996185302734 50.87311553955078 1.499996185302734 44.99999237060547 C 1.499996185302734 39.12686920166016 2.649921178817749 33.43021774291992 4.917821407318115 28.06829261779785 C 7.108683586120605 22.88851737976074 10.24540901184082 18.23630523681641 14.24084663391113 14.24085521697998 C 18.23629570007324 10.24540519714355 22.88852119445801 7.108692169189453 28.06829643249512 4.917829990386963 C 33.43022155761719 2.649929761886597 39.12687301635742 1.500004887580872 44.99999618530273 1.500004887580872 C 50.87311935424805 1.500004887580872 56.56977081298828 2.649929761886597 61.93169784545898 4.917829990386963 C 67.11147308349609 7.108692169189453 71.76369476318359 10.24540519714355 75.75914764404297 14.24085521697998 C 79.75458526611328 18.23630523681641 82.89131164550781 22.88851737976074 85.08216857910156 28.06829261779785 C 87.35007476806641 33.43021774291992 88.5 39.12686920166016 88.5 44.99999237060547 C 88.5 50.87311553955078 87.35007476806641 56.56976699829102 85.08216857910156 61.93169403076172 C 82.89131164550781 67.11146545410156 79.75458526611328 71.76369476318359 75.75914764404297 75.75914001464844 C 71.76369476318359 79.75457763671875 67.11147308349609 82.89130401611328 61.93169784545898 85.08216857910156 C 56.56977081298828 87.35006713867188 50.87311935424805 88.49999237060547 44.99999618530273 88.49999237060547 Z" stroke="none"/>
                        <path d="M 44.99999618530273 2.999992370605469 C 39.32870864868164 2.999992370605469 33.82865142822266 4.11004638671875 28.65262603759766 6.299331665039062 C 23.65165710449219 8.414566040039062 19.15968322753906 11.44333648681641 15.301513671875 15.30150604248047 C 11.44333648681641 19.15967559814453 8.414566040039062 23.65164947509766 6.299339294433594 28.65262222290039 C 4.110054016113281 33.82864761352539 2.999992370605469 39.32870483398438 2.999992370605469 44.99999237060547 C 2.999992370605469 50.67127990722656 4.110054016113281 56.17132186889648 6.299339294433594 61.34736633300781 C 8.414566040039062 66.34833526611328 11.44333648681641 70.84029388427734 15.301513671875 74.69846343994141 C 19.15968322753906 78.55663299560547 23.65165710449219 81.58540344238281 28.65262603759766 83.70063781738281 C 33.82865142822266 85.88992309570312 39.32870864868164 86.99997711181641 44.99999618530273 86.99997711181641 C 50.67128372192383 86.99997711181641 56.17134094238281 85.88992309570312 61.34736633300781 83.70063781738281 C 66.34834289550781 81.58540344238281 70.84030914306641 78.55663299560547 74.69847869873047 74.69846343994141 C 78.55665588378906 70.84029388427734 81.58542633056641 66.34833526611328 83.70065307617188 61.34736633300781 C 85.88993835449219 56.17132186889648 87 50.67127990722656 87 44.99999237060547 C 87 39.32870483398438 85.88993835449219 33.82864761352539 83.70065307617188 28.65262222290039 C 81.58542633056641 23.65164947509766 78.55665588378906 19.15967559814453 74.69847869873047 15.30150604248047 C 70.84030914306641 11.44333648681641 66.34834289550781 8.414566040039062 61.34736633300781 6.299331665039062 C 56.17134094238281 4.11004638671875 50.67128372192383 2.999992370605469 44.99999618530273 2.999992370605469 M 44.99999618530273 -7.62939453125e-06 C 69.85281372070312 -7.62939453125e-06 90 20.14717864990234 90 44.99999237060547 C 90 69.85279083251953 69.85281372070312 89.99997711181641 44.99999618530273 89.99997711181641 C 20.14717864990234 89.99997711181641 -7.62939453125e-06 69.85279083251953 -7.62939453125e-06 44.99999237060547 C -7.62939453125e-06 20.14717864990234 20.14717864990234 -7.62939453125e-06 44.99999618530273 -7.62939453125e-06 Z" stroke="none" fill="#497f88"/>
                      </g>
                    </g>
                  </g>
                </g>
              </g>
            </g>
          </g>
        </g>
      </g>
    </g>
    <g id="talking_2829734" transform="translate(17 18)">
      <g id="Grupo_1209277" data-name="Grupo 1209277" transform="translate(0.85 0.85)">
        <path id="Trazado_1053792" data-name="Trazado 1053792" d="M33.74,24.9c4.681-13.235-5.775-13.7-5.775-13.7S26.788,8,21.491,8s-8.567,1.694-13.276.771c0,0-1.388,10.927,2.884,15.41Z" transform="translate(-8 -8)" fill="#26457d"/>
        <path id="Trazado_1053793" data-name="Trazado 1053793" d="M32.8,135.67a2.935,2.935,0,0,0-2.66,1.691,7.41,7.41,0,0,0,.748.929l2.215.07v-2.675A2.98,2.98,0,0,0,32.8,135.67Z" transform="translate(-27.786 -122.108)" fill="#21386b"/>
        <path id="Trazado_1053794" data-name="Trazado 1053794" d="M226.563,139.01c.127-.358.24-.7.345-1.044a2.934,2.934,0,0,0-2.865-2.3,2.98,2.98,0,0,0-.3.016v3.235Z" transform="translate(-200.822 -122.108)" fill="#21386b"/>
        <path id="Trazado_1053795" data-name="Trazado 1053795" d="M75.637,89.854V95.7a8.8,8.8,0,0,1-17.6,0V84.853s4.536,3.812,13.826.549A7.588,7.588,0,0,0,75.637,89.854Z" transform="translate(-52.72 -76.689)" fill="#f0c69e"/>
        <path id="Trazado_1053796" data-name="Trazado 1053796" d="M66.835,177.732a8.791,8.791,0,0,1-8.8-8.782v1.912a8.8,8.8,0,0,0,17.6,0V168.95a8.791,8.791,0,0,1-8.8,8.782Z" transform="translate(-52.719 -151.853)" fill="#e6ba94"/>
        <path id="Trazado_1053797" data-name="Trazado 1053797" d="M304.168,260.668c-.463-9.335-6.311-12.05-11.875-12.05s-11.412,2.715-11.875,12.05Z" transform="translate(-251.481 -223.059)" fill="#dc4955"/>
        <path id="Trazado_1053798" data-name="Trazado 1053798" d="M280.6,344.058c-.087.6-.149,1.241-.182,1.912h23.75c-.033-.671-.1-1.308-.182-1.912Z" transform="translate(-251.481 -308.361)" fill="#d82f3c"/>
        <path id="Trazado_1053799" data-name="Trazado 1053799" d="M365.127,308.364h-7.306v-2.733a3.649,3.649,0,0,1,3.649-3.649h.008a3.649,3.649,0,0,1,3.649,3.649v2.733Z" transform="translate(-320.662 -270.754)" fill="#26457d"/>
        <path id="Trazado_1053800" data-name="Trazado 1053800" d="M307.531,366.507a33.181,33.181,0,0,0-.018-4.448H284.855a33.191,33.191,0,0,0-.018,4.448Z" transform="translate(-255.372 -324.449)" fill="#26457d"/>
        <path id="Trazado_1053801" data-name="Trazado 1053801" d="M325.691,362.058H314.16c-1.636,2.688-2.825,3.07-2.825,3.07v3.436a8.591,8.591,0,0,0,17.182,0v-3.436S327.328,364.747,325.691,362.058Z" transform="translate(-279.114 -324.449)" fill="#f0c69e"/>
        <path id="Trazado_1053802" data-name="Trazado 1053802" d="M319.926,413.872a8.582,8.582,0,0,1-8.591-8.572v1.912a8.591,8.591,0,0,0,17.182,0V405.3A8.582,8.582,0,0,1,319.926,413.872Z" transform="translate(-279.114 -363.097)" fill="#e6ba94"/>
        <path id="Trazado_1053803" data-name="Trazado 1053803" d="M302.11,26.431a12.418,12.418,0,0,1-5.562,2.192.758.758,0,0,1-.743-1.085l1.372-3.187v0a8.742,8.742,0,0,1-3.837-7.029c0-5.15,5.009-9.325,11.189-9.325s11.189,4.175,11.189,9.325-5.009,9.325-11.189,9.325A13.364,13.364,0,0,1,302.11,26.431Z" transform="translate(-263.029 -8)" fill="#f6e080"/>
        <g id="Grupo_1209275" data-name="Grupo 1209275" transform="translate(32.708 8.369)">
          <path id="Trazado_1053804" data-name="Trazado 1053804" d="M324.71,95.152a13.392,13.392,0,0,1-2.193-.179.531.531,0,0,0-.4.09,12.883,12.883,0,0,1-5.389,2.063.649.649,0,0,1-.366-.048l-.377.876a.758.758,0,0,0,.743,1.085,12.415,12.415,0,0,0,5.562-2.192,13.367,13.367,0,0,0,2.418.218c6.179,0,11.189-4.175,11.189-9.325a7.893,7.893,0,0,0-.058-.956c-.574,4.7-5.338,8.369-11.13,8.369Z" transform="translate(-315.92 -86.783)" fill="#eccd61"/>
        </g>
        <path id="Trazado_1053805" data-name="Trazado 1053805" d="M30.789,157.206v-3.519a2.984,2.984,0,0,0-.3-.016,2.928,2.928,0,1,0,.6,5.8A8.777,8.777,0,0,1,30.789,157.206Z" transform="translate(-25.474 -138.197)" fill="#e2ae84"/>
        <path id="Trazado_1053806" data-name="Trazado 1053806" d="M221.561,153.67a2.976,2.976,0,0,0-.3.016V157.2a8.772,8.772,0,0,1-.295,2.26,2.929,2.929,0,1,0,.6-5.8Z" transform="translate(-198.341 -138.196)" fill="#e2ae84"/>
        <path id="Trazado_1053807" data-name="Trazado 1053807" d="M30.486,174.208a2.935,2.935,0,0,1-2.774-1.972,2.927,2.927,0,0,0,2.774,3.884,2.954,2.954,0,0,0,.6-.061,8.762,8.762,0,0,1-.285-1.868A2.958,2.958,0,0,1,30.486,174.208Z" transform="translate(-25.474 -154.79)" fill="#d7a379"/>
        <path id="Trazado_1053808" data-name="Trazado 1053808" d="M221.561,174.208a2.959,2.959,0,0,1-.313-.017,8.763,8.763,0,0,1-.285,1.868,2.937,2.937,0,0,0,3.533-2.867,2.918,2.918,0,0,0-.161-.956A2.935,2.935,0,0,1,221.561,174.208Z" transform="translate(-198.341 -154.79)" fill="#d7a379"/>
        <path id="Trazado_1053809" data-name="Trazado 1053809" d="M357.822,335.411h7.306v2.831h-7.306Z" transform="translate(-320.663 -300.632)" fill="#f6e080"/>
        <path id="Trazado_1053810" data-name="Trazado 1053810" d="M357.822,344.058h7.306v1.912h-7.306Z" transform="translate(-320.663 -308.361)" fill="#eccd61"/>
        <path id="Trazado_1053811" data-name="Trazado 1053811" d="M284.741,394.265v-3.436a2.858,2.858,0,1,0,.288,5.642A8.565,8.565,0,0,1,284.741,394.265Z" transform="translate(-252.519 -350.15)" fill="#e2ae84"/>
        <path id="Trazado_1053812" data-name="Trazado 1053812" d="M470.963,390.815a2.906,2.906,0,0,0-.3.015v3.435a8.565,8.565,0,0,1-.288,2.206,2.859,2.859,0,1,0,.584-5.657Z" transform="translate(-421.264 -350.151)" fill="#e2ae84"/>
        <path id="Trazado_1053813" data-name="Trazado 1053813" d="M284.443,410.625a2.865,2.865,0,0,1-2.7-1.9,2.858,2.858,0,0,0,2.7,3.814,2.881,2.881,0,0,0,.584-.06,8.559,8.559,0,0,1-.281-1.868,2.92,2.92,0,0,1-.3.016Z" transform="translate(-252.518 -366.157)" fill="#d7a379"/>
        <path id="Trazado_1053814" data-name="Trazado 1053814" d="M470.963,410.624a2.891,2.891,0,0,1-.3-.016,8.554,8.554,0,0,1-.28,1.868,2.867,2.867,0,0,0,3.449-2.8,2.848,2.848,0,0,0-.165-.956A2.865,2.865,0,0,1,470.963,410.624Z" transform="translate(-421.264 -366.156)" fill="#d7a379"/>
        <path id="Trazado_1053815" data-name="Trazado 1053815" d="M21.606,328.206a12.417,12.417,0,0,0,5.562,2.192.758.758,0,0,0,.743-1.085l-1.372-3.187v0a8.742,8.742,0,0,0,3.837-7.029c0-5.15-5.009-9.325-11.189-9.325S8,313.95,8,319.1s5.009,9.325,11.189,9.325a13.365,13.365,0,0,0,2.418-.218Z" transform="translate(-8 -277.719)" fill="#f6e080"/>
        <g id="Grupo_1209276" data-name="Grupo 1209276" transform="translate(0 40.424)">
          <path id="Trazado_1053816" data-name="Trazado 1053816" d="M27.534,398.851a.649.649,0,0,1-.366.048,12.881,12.881,0,0,1-5.389-2.063.531.531,0,0,0-.4-.09,13.4,13.4,0,0,1-2.193.179c-5.792,0-10.556-3.668-11.13-8.369a7.869,7.869,0,0,0-.058.956c0,5.15,5.009,9.325,11.189,9.325a13.365,13.365,0,0,0,2.418-.218,12.415,12.415,0,0,0,5.562,2.192.758.758,0,0,0,.743-1.085Z" transform="translate(-8 -388.557)" fill="#eccd61"/>
        </g>
      </g>
      <g id="Grupo_1209279" data-name="Grupo 1209279">
        <path id="Trazado_1053817" data-name="Trazado 1053817" d="M93.761,153.826a.8.8,0,0,0-.8.8V156.6a.8.8,0,0,0,1.6,0v-1.972A.8.8,0,0,0,93.761,153.826Z" transform="translate(-83.088 -137.486)"/>
        <path id="Trazado_1053818" data-name="Trazado 1053818" d="M174.2,153.826a.8.8,0,0,0-.8.8V156.6a.8.8,0,0,0,1.6,0v-1.972A.8.8,0,0,0,174.2,153.826Z" transform="translate(-154.985 -137.486)"/>
        <path id="Trazado_1053819" data-name="Trazado 1053819" d="M27.228,6.7a8.53,8.53,0,0,0-5.907-3.446C20.735,2.249,18.914,0,14.319,0A32.826,32.826,0,0,0,9.165.457a.8.8,0,1,0,.242,1.578A31.387,31.387,0,0,1,14.319,1.6c4.627,0,5.7,2.586,5.737,2.688a.8.8,0,0,0,.714.522A7.125,7.125,0,0,1,25.9,7.6c1.343,1.991,1.457,4.884.344,8.61a3.719,3.719,0,0,0-1.689-.672V13.987a.8.8,0,0,0-.448-.717,6.869,6.869,0,0,1-3.362-3.949.8.8,0,0,0-1.036-.547,17.783,17.783,0,0,1-9.86.953,8.408,8.408,0,0,1-3.214-1.36.8.8,0,0,0-1.312.611v6.559a3.714,3.714,0,0,0-1.279.414C2.7,14.184,1.872,11.314,1.657,7.587A37.419,37.419,0,0,1,1.729,2.5a17.584,17.584,0,0,0,4.489,0A.8.8,0,0,0,6.037.915,15.54,15.54,0,0,1,1.172.788a.8.8,0,0,0-.945.683C.171,1.915-1.058,12.024,2.84,16.99a3.728,3.728,0,0,0,2.984,5.976h.029a9.622,9.622,0,0,0,18.184,0h.029a3.728,3.728,0,0,0,3.391-5.3c1.595-4.683,1.519-8.37-.229-10.962ZM3.682,19.234A2.139,2.139,0,0,1,5.33,17.158v2.684a9.614,9.614,0,0,0,.116,1.492A2.139,2.139,0,0,1,3.682,19.234Zm19.282.608a8.019,8.019,0,0,1-16.038,0V10.394c1.963.965,6.131,2.2,12.573.136a8.384,8.384,0,0,0,3.465,3.937Zm1.48,1.492a9.614,9.614,0,0,0,.116-1.492V17.158a2.132,2.132,0,0,1-.116,4.176Z" transform="translate(0 0)"/>
        <path id="Trazado_1053820" data-name="Trazado 1053820" d="M346.509,391.222a.8.8,0,0,0-.8.8v1.925a.8.8,0,0,0,1.6,0V392.02A.8.8,0,0,0,346.509,391.222Z" transform="translate(-308.988 -349.665)"/>
        <path id="Trazado_1053821" data-name="Trazado 1053821" d="M425.033,391.222a.8.8,0,0,0-.8.8v1.925a.8.8,0,1,0,1.6,0V392.02A.8.8,0,0,0,425.033,391.222Z" transform="translate(-379.171 -349.665)"/>
        <path id="Trazado_1053822" data-name="Trazado 1053822" d="M298.356,253.9c-.224-4.512-1.676-7.916-4.318-10.117a12.873,12.873,0,0,0-8.376-2.714,14.18,14.18,0,0,0-6.008,1.222.8.8,0,1,0,.672,1.448,12.606,12.606,0,0,1,5.336-1.074A11.49,11.49,0,0,1,293.016,245c2.124,1.77,3.363,4.5,3.688,8.132h-6.583V251.2a4.458,4.458,0,0,0-8.916,0v1.939h-6.584c.3-3.383,1.4-5.992,3.272-7.762a.8.8,0,0,0-1.1-1.159c-2.33,2.206-3.618,5.463-3.827,9.68a.8.8,0,0,0,.5.78,35.315,35.315,0,0,0,.017,3.534,3.658,3.658,0,0,0,3.273,5.311h.015a9.411,9.411,0,0,0,17.777,0h.015a3.658,3.658,0,0,0,3.273-5.312,35.321,35.321,0,0,0,.017-3.533A.8.8,0,0,0,298.356,253.9Zm-2.062,2.735a3.65,3.65,0,0,0-1.728-.433c-.046,0-.091,0-.137,0a5.7,5.7,0,0,1-1.486-1.467h3.318Q296.306,255.648,296.295,256.63Zm-10.628-8.29a2.862,2.862,0,0,1,2.713,1.961h-5.433A2.866,2.866,0,0,1,285.667,248.339ZM282.8,251.9h5.723v1.24H282.8Zm-5.9,4.3c-.046,0-.092,0-.137,0a3.65,3.65,0,0,0-1.729.433q-.012-.981.034-1.9h3.319A5.7,5.7,0,0,1,276.9,256.2Zm-2.209,3.658a2.069,2.069,0,0,1,1.57-2v2.6a9.4,9.4,0,0,0,.11,1.434A2.07,2.07,0,0,1,274.687,259.858Zm18.784.594a7.809,7.809,0,0,1-15.617,0v-2.971a9.011,9.011,0,0,0,2.475-2.749H291a9.023,9.023,0,0,0,2.475,2.754Zm1.487,1.434a9.4,9.4,0,0,0,.11-1.434v-2.6a2.062,2.062,0,0,1-.11,4.029Z" transform="translate(-243.971 -215.457)"/>
        <path id="Trazado_1053823" data-name="Trazado 1053823" d="M289.581,17.435l-1.128,2.621a1.565,1.565,0,0,0,1.6,2.191,13.9,13.9,0,0,0,5.647-2.141,14.292,14.292,0,0,0,2.225.173c6.621,0,12.007-4.549,12.007-10.14S304.545,0,297.924,0s-12.007,4.549-12.007,10.14a9.443,9.443,0,0,0,3.664,7.3ZM297.924,1.6c5.741,0,10.411,3.833,10.411,8.544s-4.67,8.544-10.411,8.544a12.644,12.644,0,0,1-2.278-.206.8.8,0,0,0-.646.164,11.76,11.76,0,0,1-5.066,2.008l1.358-3.155a.8.8,0,0,0-.3-.987,7.974,7.974,0,0,1-3.477-6.369c0-4.711,4.67-8.544,10.411-8.544Z" transform="translate(-255.546 0.001)"/>
        <path id="Trazado_1053824" data-name="Trazado 1053824" d="M342.6,67.41h11.183a.8.8,0,0,0,0-1.6H342.6a.8.8,0,0,0,0,1.6Z" transform="translate(-305.496 -58.823)"/>
        <path id="Trazado_1053825" data-name="Trazado 1053825" d="M342.6,112.793h6.439a.8.8,0,0,0,0-1.6H342.6a.8.8,0,0,0,0,1.6Z" transform="translate(-305.496 -99.385)"/>
        <g id="Grupo_1209278" data-name="Grupo 1209278" transform="translate(0 32.115)">
          <path id="Trazado_1053826" data-name="Trazado 1053826" d="M24.015,312.474c0-5.591-5.386-10.14-12.007-10.14S0,306.883,0,312.474a9.009,9.009,0,0,0,1.91,5.494A.8.8,0,0,0,3.179,317,7.426,7.426,0,0,1,1.6,312.474c0-4.711,4.67-8.544,10.411-8.544s10.411,3.833,10.411,8.544a7.97,7.97,0,0,1-3.462,6.358.8.8,0,0,0-.318,1L20,322.985a11.756,11.756,0,0,1-5.066-2.008.8.8,0,0,0-.646-.164,12.628,12.628,0,0,1-2.278.206,11.863,11.863,0,0,1-6.688-2,.8.8,0,0,0-.906,1.314,13.474,13.474,0,0,0,7.594,2.282,14.29,14.29,0,0,0,2.224-.173,13.893,13.893,0,0,0,5.647,2.142,1.565,1.565,0,0,0,1.6-2.191l-1.128-2.621A9.443,9.443,0,0,0,24.015,312.474Z" transform="translate(0 -302.334)"/>
          <path id="Trazado_1053827" data-name="Trazado 1053827" d="M56.684,369.744H67.867a.8.8,0,0,0,0-1.6H56.684a.8.8,0,0,0,0,1.6Z" transform="translate(-49.95 -361.157)"/>
          <path id="Trazado_1053828" data-name="Trazado 1053828" d="M56.684,415.127h6.439a.8.8,0,0,0,0-1.6H56.684a.8.8,0,0,0,0,1.6Z" transform="translate(-49.95 -401.719)"/>
        </g>
        <path id="Trazado_1053829" data-name="Trazado 1053829" d="M118.54,205.523a1.586,1.586,0,0,1-2.4,0,.8.8,0,1,0-1.469.631,3.106,3.106,0,0,0,5.339,0A.8.8,0,1,0,118.54,205.523Z" transform="translate(-102.415 -183.224)"/>
        <path id="Trazado_1053830" data-name="Trazado 1053830" d="M371.386,442.687h0a1.531,1.531,0,0,1-2.309,0s0,0,0,0a.8.8,0,0,0-1.469.632c.008.017.015.034.024.051a3.065,3.065,0,0,0,5.2,0c.008-.017.016-.034.024-.051a.8.8,0,0,0-1.469-.632Z" transform="translate(-328.51 -395.255)"/>
      </g>
    </g>
  </g>
</svg>
